<svg xmlns="http://www.w3.org/2000/svg" width="46" height="47" viewBox="0 0 46 47">
    <g fill="none" fill-rule="evenodd" stroke="#02CA95" stroke-linejoin="round" stroke-width="2">
        <path d="M21.6 32.1L32.4 43c2.8 2.8 7.2 2.8 10 0s2.8-7.2 0-10l-10-10M18.6 19.1l-6.5-6.5"/>
        <path d="M43.9 8.6L38 14.5l-7.1-7.1 5.9-5.9c-1.3-.4-2.8-.6-4.3-.5-5.6.5-10.1 5.5-10 11.1 0 1.1.2 2.2.5 3.2l-19.2 17c-2.9 2.5-3 7-.3 9.7 2.7 2.7 7.1 2.6 9.7-.3l17-19.2c1.7.5 3.6.7 5.6.3 4-.8 7.3-3.8 8.4-7.7.5-2.4.3-4.6-.3-6.5zM7.8 14l4.3-1.4 1.4-4.2-5.7-5.7-5.6 5.7zM32.4 33l4 4"/>
    </g>
</svg>
