<svg xmlns="http://www.w3.org/2000/svg" width="74" height="50" viewBox="0 0 74 50">
    <g fill="none" fill-rule="evenodd" stroke="#02CA95" stroke-linejoin="round" stroke-width="2">
        <g transform="translate(1 5.39)">
            <circle cx="12.293" cy="31.61" r="1.756"/>
            <path d="M0 8.78h24.585M0 24.585h24.585M21.073 38.634H3.513A3.523 3.523 0 0 1 0 35.122V3.512A3.523 3.523 0 0 1 3.512 0h17.561a3.523 3.523 0 0 1 3.512 3.512v31.61a3.523 3.523 0 0 1-3.512 3.512z"/>
        </g>
        <g transform="translate(48.415 5.39)">
            <circle cx="12.293" cy="31.61" r="1.756"/>
            <path d="M0 8.78h24.585M0 24.585h24.585M21.073 38.634H3.513A3.523 3.523 0 0 1 0 35.122V3.512A3.523 3.523 0 0 1 3.512 0h17.561a3.523 3.523 0 0 1 3.512 3.512v31.61a3.523 3.523 0 0 1-3.512 3.512z"/>
        </g>
        <path d="M31.732 5.39h6.146a5.268 5.268 0 0 1 5.268 5.269v1.756"/>
        <path d="M36.122 1l-4.39 4.39 4.39 4.39"/>
        <g>
            <path d="M43.146 44.024H37a5.268 5.268 0 0 1-5.268-5.268V37"/>
            <path d="M38.756 48.415l4.39-4.39-4.39-4.39"/>
        </g>
    </g>
</svg>
