<svg xmlns="http://www.w3.org/2000/svg" width="91" height="51" viewBox="0 0 91 51">
    <g fill="none" fill-rule="evenodd" stroke="#02CA95" stroke-linejoin="round" stroke-width="2">
        <g transform="translate(1 5.495)">
            <circle cx="12.586" cy="32.364" r="1.798"/>
            <path d="M0 8.99h25.172M0 25.172h25.172M21.576 39.556H3.596A3.607 3.607 0 0 1 0 35.96V3.596A3.607 3.607 0 0 1 3.596 0h17.98a3.607 3.607 0 0 1 3.596 3.596V35.96a3.607 3.607 0 0 1-3.596 3.596z"/>
        </g>
        <path d="M32.465 5.495h6.293a5.394 5.394 0 0 1 5.394 5.394v1.798"/>
        <path d="M36.96 1l-4.495 4.495L36.96 9.99"/>
        <g>
            <path d="M44.152 45.05h-6.293a5.394 5.394 0 0 1-5.394-5.393v-1.798"/>
            <path d="M39.657 49.545l4.495-4.494-4.495-4.495"/>
        </g>
        <g transform="translate(50.444 8.192)">
            <path d="M35.96 5.394V0H3.596v5.394M0 5.394h39.556v28.768H0z"/>
            <circle cx="19.778" cy="19.778" r="3.596"/>
            <path d="M28.768 10.788h-17.98a5.394 5.394 0 0 1-5.394 5.394v7.192a5.394 5.394 0 0 1 5.394 5.394h17.98a5.394 5.394 0 0 1 5.394-5.394v-7.192a5.394 5.394 0 0 1-5.394-5.394z"/>
        </g>
    </g>
</svg>
