<svg width="16" height="16" viewBox="0 0 16 16" fill="none" xmlns="http://www.w3.org/2000/svg">
<path fill-rule="evenodd" clip-rule="evenodd" d="M13.5247 3.49523C13.7841 3.49523 14 3.71056 14 3.98456V4.23789C14 4.50522 13.7841 4.72722 13.5247 4.72722H2.4759C2.21591 4.72722 2 4.50522 2 4.23789V3.98456C2 3.71056 2.21591 3.49523 2.4759 3.49523H4.41971C4.81457 3.49523 5.1582 3.21457 5.24703 2.81857L5.34882 2.36391C5.50702 1.74458 6.02766 1.33325 6.62351 1.33325H9.37649C9.96585 1.33325 10.4923 1.74458 10.6447 2.33124L10.7536 2.8179C10.8418 3.21457 11.1854 3.49523 11.5809 3.49523H13.5247ZM12.5372 12.7559C12.7402 10.8646 13.0955 6.37134 13.0955 6.326C13.1084 6.18867 13.0637 6.05867 12.9749 5.95401C12.8796 5.85601 12.759 5.79801 12.626 5.79801H3.37901C3.24545 5.79801 3.11837 5.85601 3.03019 5.95401C2.94072 6.05867 2.89663 6.18867 2.90311 6.326C2.9043 6.33433 2.91705 6.49261 2.93837 6.75722C3.03306 7.93272 3.29678 11.2067 3.46719 12.7559C3.58779 13.8973 4.33665 14.6146 5.42137 14.6406C6.25842 14.6599 7.12075 14.6666 8.00253 14.6666C8.83309 14.6666 9.67662 14.6599 10.5396 14.6406C11.6619 14.6213 12.4101 13.9166 12.5372 12.7559Z" fill="#BDBDBD"/>
</svg>
