<svg width="16" height="13" viewBox="0 0 16 13" fill="none" xmlns="http://www.w3.org/2000/svg">
<path d="M1.77778 0.5C0.797222 0.5 0 1.26875 0 2.21429V3.07143H16V2.21429C16 1.26875 15.2028 0.5 14.2222 0.5H1.77778ZM16 5.64286H0V10.7857C0 11.7312 0.797222 12.5 1.77778 12.5H14.2222C15.2028 12.5 16 11.7312 16 10.7857V5.64286ZM3.11111 9.07143H4.88889C5.13333 9.07143 5.33333 9.26429 5.33333 9.5C5.33333 9.73571 5.13333 9.92857 4.88889 9.92857H3.11111C2.86667 9.92857 2.66667 9.73571 2.66667 9.5C2.66667 9.26429 2.86667 9.07143 3.11111 9.07143ZM6.22222 9.5C6.22222 9.26429 6.42222 9.07143 6.66667 9.07143H10.2222C10.4667 9.07143 10.6667 9.26429 10.6667 9.5C10.6667 9.73571 10.4667 9.92857 10.2222 9.92857H6.66667C6.42222 9.92857 6.22222 9.73571 6.22222 9.5Z" fill="#98BAB1"/>
</svg>
