<svg width="16" height="17" viewBox="0 0 16 17" fill="none" xmlns="http://www.w3.org/2000/svg">
<path d="M2.45714 0.656137C2.16026 0.424887 1.73839 0.453012 1.46964 0.718637L0.219636 1.96864C-0.0459894 2.23426 -0.0741144 2.65614 0.154011 2.95614L2.65401 6.20614C2.79464 6.39051 3.01651 6.49989 3.24776 6.49989H4.93839L8.34464 9.90614C7.88526 10.8124 8.03214 11.9499 8.79151 12.7061L12.2915 16.2061C12.6821 16.5968 13.3165 16.5968 13.7071 16.2061L15.7071 14.2061C16.0978 13.8155 16.0978 13.1811 15.7071 12.7905L12.2071 9.29051C11.4509 8.53426 10.3134 8.38426 9.40714 8.84364L6.00089 5.43739V3.74989C6.00089 3.51551 5.89151 3.29676 5.70714 3.15614L2.45714 0.656137ZM0.622761 12.878C0.225886 13.2749 0.00088556 13.8155 0.00088556 14.378C0.00088556 15.5499 0.950886 16.4999 2.12276 16.4999C2.68526 16.4999 3.22589 16.2749 3.62276 15.878L7.30401 12.1968C7.06026 11.5436 7.02276 10.8343 7.19151 10.1624L5.26339 8.23426L0.622761 12.878ZM16.0009 4.99989C16.0009 4.67176 15.9665 4.35301 15.9009 4.04676C15.8259 3.69676 15.3978 3.60614 15.1446 3.85926L13.1478 5.85614C13.054 5.94989 12.9259 6.00301 12.7946 6.00301H11.0009C10.7259 6.00301 10.5009 5.77801 10.5009 5.50301V3.70614C10.5009 3.57489 10.554 3.44676 10.6478 3.35301L12.6446 1.35614C12.8978 1.10301 12.8071 0.674887 12.4571 0.599887C12.1478 0.534262 11.829 0.499887 11.5009 0.499887C9.01651 0.499887 7.00089 2.51551 7.00089 4.99989V5.02489L9.66651 7.69051C10.7915 7.40614 12.0353 7.70614 12.9165 8.58739L13.4071 9.07801C14.9384 8.35926 16.0009 6.80301 16.0009 4.99989ZM3.25089 13.9999C3.25089 14.4155 2.91651 14.7499 2.50089 14.7499C2.08526 14.7499 1.75089 14.4155 1.75089 13.9999C1.75089 13.5843 2.08526 13.2499 2.50089 13.2499C2.91651 13.2499 3.25089 13.5843 3.25089 13.9999Z" fill="#98BAB1"/>
</svg>
