<svg width="16" height="13" viewBox="0 0 16 13" fill="none" xmlns="http://www.w3.org/2000/svg">
<path d="M15.6969 4.4625C15.8187 4.36563 16 4.45625 16 4.60938V11C16 11.8281 15.3281 12.5 14.5 12.5H1.5C0.671875 12.5 0 11.8281 0 11V4.6125C0 4.45625 0.178125 4.36875 0.303125 4.46562C1.00312 5.00937 1.93125 5.7 5.11875 8.01562C5.77813 8.49687 6.89062 9.50938 8 9.50313C9.11563 9.5125 10.25 8.47813 10.8844 8.01562C14.0719 5.7 14.9969 5.00625 15.6969 4.4625ZM8 8.5C8.725 8.5125 9.76875 7.5875 10.2937 7.20625C14.4406 4.19688 14.7562 3.93437 15.7125 3.18437C15.8937 3.04375 16 2.825 16 2.59375V2C16 1.17188 15.3281 0.5 14.5 0.5H1.5C0.671875 0.5 0 1.17188 0 2V2.59375C0 2.825 0.10625 3.04062 0.2875 3.18437C1.24375 3.93125 1.55938 4.19688 5.70625 7.20625C6.23125 7.5875 7.275 8.5125 8 8.5Z" fill="#98BAB1"/>
</svg>
