<svg width="16" height="16" viewBox="0 0 16 16" fill="none" xmlns="http://www.w3.org/2000/svg">
<path d="M8 0C8.55313 0 9 0.446875 9 1V2.08437C11.5125 2.50312 13.4969 4.4875 13.9156 7H15C15.5531 7 16 7.44688 16 8C16 8.55313 15.5531 9 15 9H13.9156C13.4969 11.5125 11.5125 13.4969 9 13.9156V15C9 15.5531 8.55313 16 8 16C7.44688 16 7 15.5531 7 15V13.9156C4.4875 13.4969 2.50312 11.5125 2.08437 9H1C0.446875 9 0 8.55313 0 8C0 7.44688 0.446875 7 1 7H2.08437C2.50312 4.4875 4.4875 2.50312 7 2.08437V1C7 0.446875 7.44688 0 8 0ZM4 8C4 10.2094 5.79063 12 8 12C10.2094 12 12 10.2094 12 8C12 5.79063 10.2094 4 8 4C5.79063 4 4 5.79063 4 8ZM8 10.5C6.61875 10.5 5.5 9.38125 5.5 8C5.5 6.61875 6.61875 5.5 8 5.5C9.38125 5.5 10.5 6.61875 10.5 8C10.5 9.38125 9.38125 10.5 8 10.5Z" fill="#02CA95"/>
</svg>
