<svg width="14" height="15" viewBox="0 0 14 15" fill="none" xmlns="http://www.w3.org/2000/svg">
<path d="M2 0.5C0.896875 0.5 0 1.39688 0 2.5V12.5C0 13.6031 0.896875 14.5 2 14.5H12C13.1031 14.5 14 13.6031 14 12.5V4.91563C14 4.38438 13.7906 3.875 13.4156 3.5L11 1.08438C10.625 0.709375 10.1156 0.5 9.58438 0.5H2ZM2 3.5C2 2.94688 2.44688 2.5 3 2.5H9C9.55313 2.5 10 2.94688 10 3.5V5.5C10 6.05312 9.55313 6.5 9 6.5H3C2.44688 6.5 2 6.05312 2 5.5V3.5ZM7 12.5C5.89687 12.5 5 11.6031 5 10.5C5 9.39688 5.89687 8.5 7 8.5C8.10312 8.5 9 9.39688 9 10.5C9 11.6031 8.10312 12.5 7 12.5Z" fill="#23224A"/>
</svg>
