<svg width="16" height="17" viewBox="0 0 16 17" fill="none" xmlns="http://www.w3.org/2000/svg">
<path d="M8 0.5C3.58192 0.5 0 4.08192 0 8.5C0 12.9181 3.58192 16.5 8 16.5C12.4181 16.5 16 12.9181 16 8.5C16 4.08192 12.4181 0.5 8 0.5ZM11.6923 9.73077H8C7.83679 9.73077 7.68026 9.66594 7.56486 9.55053C7.44945 9.43512 7.38462 9.27859 7.38462 9.11539V3.57692C7.38462 3.41371 7.44945 3.25719 7.56486 3.14178C7.68026 3.02637 7.83679 2.96154 8 2.96154C8.16321 2.96154 8.31974 3.02637 8.43514 3.14178C8.55055 3.25719 8.61539 3.41371 8.61539 3.57692V8.5H11.6923C11.8555 8.5 12.012 8.56483 12.1275 8.68024C12.2429 8.79565 12.3077 8.95218 12.3077 9.11539C12.3077 9.27859 12.2429 9.43512 12.1275 9.55053C12.012 9.66594 11.8555 9.73077 11.6923 9.73077Z" fill="#98BAB1"/>
</svg>
