<svg width="40" height="40" viewBox="0 0 40 40" fill="none" xmlns="http://www.w3.org/2000/svg">
<g clip-path="url(#clip0_4204_3177)">
<path d="M26.1655 0.7H26.8655C27.4313 0.7 27.9739 0.924761 28.374 1.32484C28.7741 1.72492 28.9988 2.26754 28.9988 2.83333V37.1667C28.9988 37.7325 28.7741 38.2751 28.374 38.6752C27.9739 39.0752 27.4313 39.3 26.8655 39.3H13.1322C12.5664 39.3 12.0237 39.0752 11.6237 38.6752C11.2236 38.2751 10.9988 37.7325 10.9988 37.1667V2.83333C10.9988 2.26754 11.2236 1.72492 11.6237 1.32484C12.0237 0.924761 12.5664 0.7 13.1322 0.7H26.1655ZM19.3669 1.63189L18.872 2.12686L19.3669 1.63189C18.845 1.10991 18.137 0.816667 17.3988 0.816667H13.8988C13.1606 0.816667 12.4527 1.10991 11.9307 1.63189C11.4087 2.15386 11.1155 2.86181 11.1155 3.6V7.46667C11.1155 8.20485 11.4087 8.9128 11.9307 9.43478L12.4074 8.95814L11.9307 9.43478C12.4527 9.95676 13.1606 10.25 13.8988 10.25H17.3988C18.137 10.25 18.845 9.95676 19.3669 9.43478C19.8889 8.9128 20.1822 8.20485 20.1822 7.46667V3.6C20.1822 2.86181 19.8889 2.15386 19.3669 1.63189Z" stroke="#BDD3CB" stroke-width="1.4"/>
<path d="M20.037 18.7626C20.0095 18.8617 19.9929 18.9635 19.9876 19.0662C19.9827 19.0895 19.9804 19.1131 19.9805 19.1369H20.1358C20.2239 19.1291 20.3087 19.1 20.383 19.0521C20.5946 18.917 20.7559 18.716 20.842 18.4802C20.8927 18.3594 20.9191 18.2298 20.9196 18.0989C20.9229 18.066 20.9229 18.0329 20.9196 18C20.7888 18.0255 20.6626 18.0707 20.5454 18.1342C20.4332 18.1868 20.3342 18.264 20.2559 18.3601C20.1579 18.4791 20.0836 18.6157 20.037 18.7626Z" fill="#BDD3CB"/>
<path d="M21.6399 22.2579C21.7762 22.054 21.8854 21.8333 21.9647 21.6012V21.5941C21.9802 21.5837 21.9925 21.569 22 21.5518C21.9402 21.5307 21.8833 21.5022 21.8305 21.467C21.7289 21.4016 21.6403 21.3178 21.5693 21.2199C21.3988 20.9883 21.323 20.7004 21.3574 20.4149C21.374 20.2828 21.4172 20.1555 21.4845 20.0407C21.5631 19.9177 21.6581 19.806 21.767 19.7088L21.8658 19.617L21.8235 19.5676C21.7468 19.4769 21.659 19.3962 21.5622 19.3275C21.4239 19.2309 21.2638 19.1702 21.0962 19.151H20.8137C20.7157 19.1678 20.619 19.1914 20.5242 19.2216C20.4111 19.262 20.2956 19.295 20.1782 19.3204C20.1107 19.3345 20.041 19.3345 19.9734 19.3204L19.691 19.2498C19.5372 19.2016 19.3785 19.1708 19.2179 19.158C19.0767 19.1449 18.9343 19.1634 18.8011 19.2123C18.668 19.2611 18.5474 19.3391 18.4482 19.4405C18.3045 19.579 18.1936 19.7479 18.1234 19.9348C18.054 20.1324 18.0159 20.3397 18.0104 20.5491C17.9965 20.6947 17.9965 20.8413 18.0104 20.9869C18.0323 21.1404 18.0677 21.2916 18.1163 21.4388C18.2075 21.7034 18.3283 21.9569 18.4765 22.1943C18.564 22.3402 18.6683 22.4752 18.7872 22.5968C18.8575 22.6609 18.9358 22.7155 19.0202 22.7592C19.1203 22.8102 19.2342 22.8275 19.345 22.8087C19.4254 22.7992 19.5039 22.7778 19.578 22.7451L19.8322 22.6604C19.9414 22.6355 20.0549 22.6355 20.1641 22.6604C20.2623 22.6764 20.3591 22.7 20.4536 22.731C20.5656 22.7746 20.6815 22.8077 20.7996 22.8298C20.9028 22.8444 21.008 22.8297 21.1032 22.7875C21.1984 22.7453 21.2847 22.6854 21.3574 22.611C21.4651 22.5047 21.5599 22.3862 21.6399 22.2579Z" fill="#BDD3CB"/>
</g>
<defs>
<clipPath id="clip0_4204_3177">
<rect width="40" height="40" fill="white"/>
</clipPath>
</defs>
</svg>
