<svg width="40" height="40" viewBox="0 0 40 40" fill="none" xmlns="http://www.w3.org/2000/svg">
<g clip-path="url(#clip0_4204_3172)">
<path d="M38.6067 3.29663H1.39333C1.02407 3.29751 0.67018 3.44459 0.40907 3.7057C0.14796 3.96681 0.000880253 4.3207 0 4.68996L0 29.4233C0.000880253 29.7926 0.14796 30.1465 0.40907 30.4076C0.67018 30.6687 1.02407 30.8157 1.39333 30.8166H17.645L16.9117 34.68C16.8379 35.0679 16.631 35.4178 16.3267 35.6695C16.0224 35.9211 15.6399 36.0586 15.245 36.0583H14.1183V36.695H25.975V36.0583H24.845C24.4501 36.0586 24.0676 35.9211 23.7633 35.6695C23.459 35.4178 23.2521 35.0679 23.1783 34.68L22.45 30.8166H38.6067C38.9759 30.8157 39.3298 30.6687 39.5909 30.4076C39.852 30.1465 39.9991 29.7926 40 29.4233V4.68996C39.9991 4.3207 39.852 3.96681 39.5909 3.7057C39.3298 3.44459 38.9759 3.29751 38.6067 3.29663ZM20.9817 28.91C20.9434 29.0187 20.8919 29.1222 20.8283 29.2183C20.7905 29.2789 20.7458 29.3348 20.695 29.385C20.6605 29.4204 20.6199 29.4492 20.575 29.47C20.5301 29.49 20.4802 29.4964 20.4317 29.4883C20.3748 29.4785 20.319 29.4634 20.265 29.4433C20.2206 29.4275 20.1748 29.4158 20.1283 29.4083C20.0725 29.4009 20.0156 29.4054 19.9617 29.4216L19.845 29.4633C19.8096 29.4774 19.7727 29.4874 19.735 29.4933C19.682 29.501 19.6279 29.4923 19.58 29.4683C19.5405 29.4472 19.5041 29.4208 19.4717 29.39C19.4149 29.3331 19.3656 29.2693 19.325 29.2C19.2555 29.0875 19.1996 28.9672 19.1583 28.8416C19.1356 28.7721 19.1189 28.7007 19.1083 28.6283C19.0986 28.5604 19.0947 28.4918 19.0967 28.4233C19.0991 28.3248 19.1177 28.2274 19.1517 28.135C19.1843 28.0464 19.2361 27.9662 19.3033 27.9C19.3664 27.8353 19.4479 27.7917 19.5367 27.775C19.5794 27.7664 19.6232 27.7636 19.6667 27.7666C19.7418 27.7737 19.8161 27.7882 19.8883 27.81C19.9333 27.8233 19.9767 27.8333 20.0217 27.8433C20.0541 27.85 20.0876 27.85 20.12 27.8433C20.1767 27.83 20.23 27.8116 20.2867 27.795C20.3309 27.7795 20.3768 27.7689 20.4233 27.7633C20.4676 27.7575 20.5124 27.7575 20.5567 27.7633C20.6358 27.7724 20.7114 27.801 20.7767 27.8466C20.8222 27.878 20.8631 27.9156 20.8983 27.9583L20.9183 27.9816L20.8717 28.025C20.82 28.0701 20.7756 28.1229 20.74 28.1816C20.7077 28.2362 20.6873 28.297 20.68 28.36C20.6629 28.4938 20.6988 28.6289 20.78 28.7366C20.8124 28.7837 20.8537 28.8239 20.9017 28.855C20.9267 28.872 20.9542 28.885 20.9833 28.8933L20.9817 28.91ZM20.0467 27.7533V27.7133C20.0497 27.6646 20.0587 27.6165 20.0733 27.57C20.0926 27.4988 20.1273 27.4328 20.175 27.3766C20.2126 27.3326 20.2585 27.2964 20.31 27.27C20.3663 27.2423 20.4256 27.221 20.4867 27.2066C20.492 27.2222 20.4948 27.2385 20.495 27.255C20.4956 27.316 20.4843 27.3766 20.4617 27.4333C20.4197 27.5449 20.3425 27.6397 20.2417 27.7033C20.2071 27.7257 20.1677 27.7394 20.1267 27.7433L20.0517 27.7533H20.0467ZM38.38 25.8866H1.56V4.8883H38.3783L38.38 25.8866Z" fill="#02CA95"/>
</g>
<defs>
<clipPath id="clip0_4204_3172">
<rect width="40" height="40" fill="white"/>
</clipPath>
</defs>
</svg>
