<?xml version="1.0" encoding="UTF-8"?>
<svg width="54px" height="40px" viewBox="0 0 54 40" version="1.1" xmlns="http://www.w3.org/2000/svg" xmlns:xlink="http://www.w3.org/1999/xlink">
    <!-- Generator: Sketch 48.2 (47327) - http://www.bohemiancoding.com/sketch -->
    <title>15activeDevice</title>
    <desc>Created with Sketch.</desc>
    <defs></defs>
    <g id="Page-1" stroke="none" stroke-width="1" fill="none" fill-rule="evenodd">
        <g id="15activeDevice" fill-rule="nonzero">
            <path d="M27,40 L17.58,40 C17.4,39.94 17.3,39.81 17.3,39.66 C17.3,39.47 17.45,39.32 17.65,39.32 C19.08,39.41 20.35,38.5 20.65,37.13 L21.53,33 L2.06,33 C1.36,33 0.53,32.17 0.53,31.47 L0.53,1.53 C0.53,0.83 1.36,0 2.06,0 L52.47,0 C53.17,0 54,0.83 54,1.53 L54,31.47 C54,32.17 53.17,33 52.47,33 L33,33 L33.88,37.13 C34.18,38.5 35.45,39.41 36.88,39.32 C37.08,39.32 37.23,39.47 37.23,39.66 C37.23,39.81 37.13,39.94 36.95,40 L27,40 Z M27,27 L52,27 L52,2 L2.53,2 L2.53,27 L27,27 Z" id="Shape" fill="#000000"></path>
            <g id="Group" transform="translate(26.000000, 28.000000)" fill="#FFFFFF">
                <path d="M2.64,3.227 C2.6,3.307 2.56,3.387 2.52,3.453 C2.48,3.52 2.427,3.587 2.387,3.64 C2.35862125,3.68227756 2.32227756,3.71862125 2.28,3.747 C2.23412861,3.78268911 2.18489718,3.81383552 2.133,3.84 C2.08916576,3.8670344 2.0384923,3.88091754 1.987,3.88 C1.94603303,3.87602403 1.9057219,3.86695402 1.867,3.853 C1.813,3.84 1.773,3.827 1.72,3.813 C1.667,3.8 1.613,3.787 1.573,3.76 C1.52,3.747 1.48,3.747 1.44,3.747 C1.4,3.747 1.347,3.747 1.293,3.773 C1.24,3.787 1.187,3.8 1.133,3.827 C1.08,3.84 1.027,3.853 0.987,3.88 C0.947,3.893 0.907,3.907 0.88,3.907 C0.84,3.907 0.8,3.893 0.76,3.88 C0.72,3.867 0.68,3.84 0.64,3.813 C0.6,3.787 0.56,3.733 0.507,3.68 C0.453,3.627 0.413,3.56 0.347,3.48 C0.293,3.4 0.253,3.32 0.2,3.227 C0.16,3.133 0.12,3.04 0.093,2.933 C0.0647000363,2.83685997 0.0426539313,2.73898862 0.027,2.64 C0.013,2.533 1.42108547e-14,2.44 1.42108547e-14,2.347 C1.42108547e-14,2.2 0.027,2.067 0.067,1.947 C0.107,1.827 0.173,1.72 0.24,1.627 C0.312960824,1.5376844 0.403941369,1.46476366 0.507,1.413 C0.609991168,1.36004921 0.72419492,1.33261288 0.84,1.333 C0.933,1.333 1.027,1.36 1.147,1.413 C1.267,1.467 1.347,1.493 1.387,1.493 C1.4,1.493 1.427,1.48 1.467,1.467 C1.507,1.453 1.573,1.427 1.653,1.4 C1.733,1.373 1.787,1.36 1.84,1.347 C1.893,1.333 1.933,1.333 1.987,1.333 C2.11744567,1.33090544 2.24612659,1.36333441 2.36,1.427 C2.48,1.493 2.573,1.573 2.64,1.68 C2.52770756,1.75222403 2.43222403,1.84770756 2.36,1.96 C2.30409101,2.07621619 2.27666759,2.20407788 2.28,2.333 C2.28,2.48 2.32,2.613 2.4,2.747 C2.48177573,2.87040396 2.59739158,2.96761849 2.733,3.027 C2.6916988,3.08837442 2.6603148,3.1558669 2.64,3.227 Z M1.347,0.707 C1.347,0.627 1.36,0.547 1.4,0.453 C1.44,0.373 1.48,0.293 1.547,0.227 C1.60603188,0.159360437 1.67859384,0.104853803 1.76,0.067 C1.83835163,0.0262595448 1.92475404,0.00337827603 2.013,3.55271368e-15 L2.013,0.08 C2.013,0.16 2,0.253 1.96,0.347 C1.92,0.427 1.88,0.507 1.813,0.573 C1.75885354,0.640334822 1.69057832,0.694954996 1.613,0.733 C1.54422479,0.773353525 1.4666562,0.796349522 1.387,0.8 C1.36,0.8 1.333,0.8 1.333,0.787 C1.347,0.747 1.347,0.72 1.347,0.707 Z" id="Shape"></path>
            </g>
        </g>
    </g>
</svg>