<svg width="74" height="93" viewBox="0 0 74 93" fill="none" xmlns="http://www.w3.org/2000/svg">
<path d="M73.06 75.84V93H4.29V79.35L39.39 46.2C43.1167 42.6467 45.63 39.6133 46.93 37.1C48.23 34.5 48.88 31.9433 48.88 29.43C48.88 25.79 47.6233 23.0167 45.11 21.11C42.6833 19.1167 39.0867 18.12 34.32 18.12C30.3333 18.12 26.7367 18.9 23.53 20.46C20.3233 21.9333 17.6367 24.1867 15.47 27.22L0.13 17.34C3.68333 12.0533 8.58 7.93666 14.82 4.98999C21.06 1.95666 28.21 0.439998 36.27 0.439998C43.03 0.439998 48.9233 1.56666 53.95 3.81999C59.0633 5.98666 63.0067 9.10666 65.78 13.18C68.64 17.1667 70.07 21.89 70.07 27.35C70.07 32.29 69.03 36.9267 66.95 41.26C64.87 45.5933 60.84 50.5333 54.86 56.08L33.93 75.84H73.06Z" fill="url(#paint0_linear_1_401)"/>
<defs>
<linearGradient id="paint0_linear_1_401" x1="8.75026e-07" y1="-34.5247" x2="10.8686" y2="106.135" gradientUnits="userSpaceOnUse">
<stop stop-color="#D5DDE0" stop-opacity="0.69"/>
<stop offset="1" stop-color="#D5DDE0" stop-opacity="0"/>
</linearGradient>
</defs>
</svg>
