<svg xmlns="http://www.w3.org/2000/svg" width="37" height="45" viewBox="0 0 37 45">
    <path fill="#fff" fill-rule="nonzero" d="M13.986 42.13l-.04-1.12H1V10.99h12.996V7H2.87C1.29 7 0 8.3 0 9.88v32.26C0 43.71 1.29 45 2.87 45h12.766c-.85-.67-1.65-1.7-1.65-2.87zM7.998 9h2.999v.5h-3V9zm1.5 35.5c-.83 0-1.5-.67-1.5-1.5s.67-1.5 1.5-1.5 1.499.67 1.499 1.5-.67 1.5-1.5 1.5zM33.64 0H18.325c-1.84 0-3.33 1.51-3.33 3.35v38.28c0 1.85 1.49 3.37 3.33 3.37h15.326C35.49 45 37 43.48 37 41.63V3.35C36.99 1.51 35.48 0 33.64 0zm-9.148 2.5h3V3h-3v-.5zm1.5 41.75c-.97 0-1.75-.78-1.75-1.75s.79-1.75 1.75-1.75 1.75.78 1.75 1.75-.78 1.75-1.75 1.75zM35.99 40H15.996V5H35.99v35zm-9.997 3.5c-.55 0-1-.45-1-1s.45-1 1-1 1 .45 1 1-.45 1-1 1zm-16.496.38c-.48 0-.87-.39-.87-.88 0-.48.39-.87.87-.87s.88.39.88.87-.4.88-.88.88z"/>
</svg>
