<svg width="40" height="40" viewBox="0 0 40 40" fill="none" xmlns="http://www.w3.org/2000/svg">
<g clip-path="url(#clip0_4204_3162)">
<path d="M27.3833 5.39123e-10H12.6167C11.9256 -1.40185e-05 11.2625 0.273381 10.7723 0.760502C10.282 1.24762 10.0044 1.90891 10 2.6V37.4C10.0044 38.0911 10.282 38.7524 10.7723 39.2395C11.2625 39.7266 11.9256 40 12.6167 40H27.3833C28.0744 40 28.7375 39.7266 29.2277 39.2395C29.718 38.7524 29.9956 38.0911 30 37.4V2.6C29.9956 1.90891 29.718 1.24762 29.2277 0.760502C28.7375 0.273381 28.0744 -1.40185e-05 27.3833 5.39123e-10V5.39123e-10ZM17.9333 2.11667H22.05C22.0854 2.11667 22.1193 2.13071 22.1443 2.15572C22.1693 2.18072 22.1833 2.21464 22.1833 2.25C22.1833 2.28536 22.1693 2.31928 22.1443 2.34428C22.1193 2.36929 22.0854 2.38333 22.05 2.38333H17.9333C17.898 2.38333 17.8641 2.36929 17.8391 2.34428C17.814 2.31928 17.8 2.28536 17.8 2.25C17.8 2.21464 17.814 2.18072 17.8391 2.15572C17.8641 2.13071 17.898 2.11667 17.9333 2.11667ZM16.5167 2.11667C16.543 2.11667 16.5688 2.12449 16.5907 2.13914C16.6127 2.15379 16.6298 2.17461 16.6399 2.19898C16.6499 2.22334 16.6526 2.25015 16.6474 2.27601C16.6423 2.30188 16.6296 2.32563 16.6109 2.34428C16.5923 2.36293 16.5685 2.37563 16.5427 2.38077C16.5168 2.38592 16.49 2.38328 16.4656 2.37318C16.4413 2.36309 16.4205 2.346 16.4058 2.32408C16.3912 2.30215 16.3833 2.27637 16.3833 2.25C16.387 2.21588 16.4022 2.18403 16.4264 2.15976C16.4507 2.1355 16.4825 2.12029 16.5167 2.11667ZM20 39.0167C19.7561 39.0167 19.5176 38.9443 19.3148 38.8088C19.112 38.6733 18.9539 38.4807 18.8605 38.2553C18.7672 38.0299 18.7428 37.782 18.7904 37.5427C18.838 37.3035 18.9554 37.0837 19.1279 36.9112C19.3004 36.7388 19.5201 36.6213 19.7594 36.5737C19.9986 36.5261 20.2466 36.5505 20.472 36.6439C20.6973 36.7372 20.89 36.8953 21.0255 37.0981C21.161 37.3009 21.2333 37.5394 21.2333 37.7833C21.2333 38.1104 21.1034 38.4241 20.8721 38.6554C20.6408 38.8867 20.3271 39.0167 20 39.0167ZM29.0833 35.5833H10.9V4.36667H29.0833V35.5833Z" fill="#02CA95"/>
</g>
<defs>
<clipPath id="clip0_4204_3162">
<rect width="40" height="40" fill="white"/>
</clipPath>
</defs>
</svg>
