<svg width="40" height="40" viewBox="0 0 40 40" fill="none" xmlns="http://www.w3.org/2000/svg">
<g clip-path="url(#clip0_4204_3164)">
<path d="M23.5841 3.9668H3.13411C2.51528 3.9668 1.92178 4.21263 1.4842 4.65021C1.04661 5.0878 0.800781 5.68129 0.800781 6.30013V37.6668C0.800781 38.2856 1.04661 38.8791 1.4842 39.3167C1.92178 39.7543 2.51528 40.0001 3.13411 40.0001H23.5841C24.203 40.0001 24.7964 39.7543 25.234 39.3167C25.6716 38.8791 25.9174 38.2856 25.9174 37.6668V6.30013C25.9174 5.68129 25.6716 5.0878 25.234 4.65021C24.7964 4.21263 24.203 3.9668 23.5841 3.9668ZM24.2341 37.5668C24.2341 37.7878 24.1463 37.9998 23.99 38.1561C23.8338 38.3123 23.6218 38.4001 23.4008 38.4001H3.33411C3.1131 38.4001 2.90114 38.3123 2.74486 38.1561C2.58858 37.9998 2.50078 37.7878 2.50078 37.5668V6.40013C2.50078 6.17912 2.58858 5.96715 2.74486 5.81087C2.90114 5.65459 3.1131 5.5668 3.33411 5.5668H23.3341C23.5538 5.57106 23.7633 5.66023 23.9186 5.8156C24.074 5.97096 24.1632 6.18045 24.1674 6.40013L24.2341 37.5668Z" fill="#BDD3CB"/>
<path d="M37.0999 0.000107083H13.1332C12.5762 0.000107083 12.0421 0.221356 11.6483 0.615183C11.2545 1.00901 11.0332 1.54315 11.0332 2.10011V2.78344H12.8999C12.8999 2.53591 12.9982 2.29851 13.1732 2.12347C13.3483 1.94844 13.5857 1.85011 13.8332 1.85011H36.3999C36.6474 1.85011 36.8848 1.94844 37.0598 2.12347C37.2349 2.29851 37.3332 2.53591 37.3332 2.78344V37.3001C37.3332 37.5476 37.2349 37.785 37.0598 37.9601C36.8848 38.1351 36.6474 38.2334 36.3999 38.2334H27.9499C27.9478 38.5675 27.8755 38.8975 27.7377 39.2018C27.5999 39.5062 27.3996 39.7782 27.1499 40.0001H37.1499C37.7055 39.9958 38.2371 39.7731 38.63 39.3802C39.0229 38.9873 39.2455 38.4557 39.2499 37.9001V2.10011C39.2499 1.82007 39.194 1.54285 39.0854 1.28475C38.9767 1.02665 38.8175 0.792893 38.6172 0.597222C38.4169 0.401551 38.1795 0.247923 37.9189 0.145377C37.6583 0.0428317 37.3798 -0.00656041 37.0999 0.000107083Z" fill="#BDD3CB"/>
</g>
<defs>
<clipPath id="clip0_4204_3164">
<rect width="40" height="40" fill="white"/>
</clipPath>
</defs>
</svg>
