<svg width="56" height="56" viewBox="0 0 56 56" fill="none" xmlns="http://www.w3.org/2000/svg">
<g clip-path="url(#clip0_4204_3168)">
<path d="M42.6535 17.2666V15.8199C42.633 14.9181 42.4131 14.032 42.0097 13.2251C41.6063 12.4183 41.0293 11.7108 40.3202 11.1532C39.2688 10.3166 38.4218 9.25138 37.8437 8.03846C37.2655 6.82555 36.9713 5.49684 36.9835 4.15323V2.7999C36.9784 2.07878 36.6976 1.38693 36.1987 0.86628C35.6997 0.345628 35.0204 0.0356368 34.3002 -0.000104168H33.0635C33.2003 0.114297 33.3108 0.25694 33.3873 0.418042C33.4639 0.579143 33.5046 0.754891 33.5068 0.933229C33.4019 1.27365 33.1901 1.57119 32.9027 1.7817C32.6153 1.99221 32.2677 2.10448 31.9115 2.10186C31.5553 2.09924 31.2094 1.98187 30.9251 1.76716C30.6409 1.55244 30.4334 1.25183 30.3335 0.909896C30.3401 0.732357 30.3828 0.558022 30.459 0.397546C30.5352 0.23707 30.6434 0.0938236 30.7768 -0.0234375H28.9102C28.7688 0.247295 28.5533 0.472224 28.2889 0.625092C28.0245 0.77796 27.722 0.85246 27.4169 0.839896C27.1026 0.868473 26.7869 0.804091 26.509 0.65475C26.2311 0.50541 26.0031 0.277694 25.8535 -0.000104168H24.0335C24.1703 0.114297 24.2808 0.25694 24.3573 0.418042C24.4339 0.579143 24.4746 0.754891 24.4768 0.933229C24.4651 1.13158 24.4138 1.32558 24.3261 1.50388C24.2384 1.68217 24.116 1.84116 23.966 1.97155C23.8161 2.10193 23.6416 2.20108 23.4529 2.26318C23.2642 2.32529 23.0649 2.3491 22.8668 2.33323C22.6657 2.34909 22.4634 2.32467 22.2719 2.26139C22.0803 2.1981 21.9033 2.09724 21.7512 1.96469C21.5991 1.83214 21.4749 1.67058 21.3861 1.48946C21.2972 1.30834 21.2453 1.11131 21.2335 0.909896C21.2432 0.736351 21.2874 0.566478 21.3635 0.410222C21.4396 0.253966 21.5461 0.114468 21.6768 -0.000104168H20.3002C19.5595 0.0059926 18.8508 0.302949 18.327 0.826735C17.8032 1.35052 17.5063 2.05918 17.5002 2.7999V4.10656C17.5169 5.44854 17.2271 6.77663 16.6529 7.98968C16.0787 9.20273 15.2353 10.2688 14.1868 11.1066C13.4777 11.6641 12.9007 12.3716 12.4973 13.1785C12.0939 13.9853 11.8741 14.8714 11.8535 15.7732V40.1799C11.8741 41.0817 12.0939 41.9678 12.4973 42.7747C12.9007 43.5815 13.4777 44.289 14.1868 44.8466C15.2353 45.6844 16.0787 46.7504 16.6529 47.9634C17.2271 49.1765 17.5169 50.5046 17.5002 51.8466V53.1532C17.4971 53.524 17.5671 53.8917 17.7061 54.2355C17.8452 54.5792 18.0506 54.8921 18.3106 55.1565C18.5706 55.4208 18.8801 55.6314 19.2215 55.7761C19.5629 55.9208 19.9294 55.9968 20.3002 55.9999H21.3968C21.2515 55.8036 21.17 55.5674 21.1635 55.3232C21.1991 54.9309 21.3883 54.5685 21.6899 54.315C21.9914 54.0616 22.3809 53.9375 22.7735 53.9699C23.1661 53.9375 23.5556 54.0616 23.8572 54.315C24.1587 54.5685 24.3479 54.9309 24.3835 55.3232C24.377 55.5674 24.2956 55.8036 24.1502 55.9999H25.9935C26.1552 55.8051 26.3588 55.6494 26.5891 55.5443C26.8194 55.4393 27.0704 55.3876 27.3235 55.3932C27.5732 55.3877 27.8208 55.4395 28.0473 55.5447C28.2739 55.6499 28.4733 55.8056 28.6302 55.9999H30.3335C30.1881 55.8036 30.1067 55.5674 30.1002 55.3232C30.1651 54.9432 30.3623 54.5985 30.657 54.3499C30.9516 54.1013 31.3247 53.965 31.7102 53.965C32.0957 53.965 32.4687 54.1013 32.7634 54.3499C33.058 54.5985 33.2553 54.9432 33.3202 55.3232C33.3137 55.5674 33.2322 55.8036 33.0869 55.9999H34.2069C34.9516 55.9937 35.6637 55.6936 36.1882 55.1648C36.7126 54.6359 37.0069 53.9213 37.0068 53.1766V51.8699C36.9947 50.5263 37.2888 49.1976 37.867 47.9847C38.4452 46.7717 39.2921 45.7065 40.3435 44.8699C41.0527 44.3124 41.6296 43.6048 42.033 42.798C42.4364 41.9912 42.6563 41.1051 42.6769 40.2032V24.1732H44.0535V17.1732L42.6535 17.2666ZM31.8969 3.59323C32.2895 3.56084 32.679 3.6849 32.9805 3.93838C33.2821 4.19186 33.4713 4.55423 33.5068 4.94656C33.429 5.31908 33.2253 5.65345 32.93 5.89346C32.6347 6.13347 32.2657 6.26449 31.8852 6.26449C31.5046 6.26449 31.1357 6.13347 30.8403 5.89346C30.545 5.65345 30.3413 5.31908 30.2635 4.94656C30.3049 4.55226 30.499 4.18983 30.8043 3.93687C31.1095 3.68392 31.5017 3.56057 31.8969 3.59323ZM27.3469 1.98323C27.7395 1.95084 28.129 2.0749 28.4305 2.32838C28.7321 2.58186 28.9213 2.94423 28.9569 3.33656C28.8919 3.71654 28.6947 4.06132 28.4 4.30989C28.1054 4.55845 27.7323 4.6948 27.3469 4.6948C26.9614 4.6948 26.5883 4.55845 26.2937 4.30989C25.999 4.06132 25.8018 3.71654 25.7368 3.33656C25.7724 2.94423 25.9616 2.58186 26.2632 2.32838C26.5647 2.0749 26.9542 1.95084 27.3469 1.98323ZM27.3469 6.0899C27.7395 6.05751 28.129 6.18157 28.4305 6.43505C28.7321 6.68853 28.9213 7.0509 28.9569 7.44323C28.8919 7.82321 28.6947 8.16798 28.4 8.41655C28.1054 8.66512 27.7323 8.80147 27.3469 8.80147C26.9614 8.80147 26.5883 8.66512 26.2937 8.41655C25.999 8.16798 25.8018 7.82321 25.7368 7.44323C25.7724 7.0509 25.9616 6.68853 26.2632 6.43505C26.5647 6.18157 26.9542 6.05751 27.3469 6.0899ZM22.8668 3.59323C23.2595 3.56084 23.649 3.6849 23.9505 3.93838C24.2521 4.19186 24.4413 4.55423 24.4768 4.94656C24.4413 5.33889 24.2521 5.70126 23.9505 5.95474C23.649 6.20823 23.2595 6.33228 22.8668 6.2999C22.4717 6.33255 22.0795 6.2092 21.7743 5.95625C21.469 5.7033 21.2749 5.34086 21.2335 4.94656C21.2749 4.55226 21.469 4.18983 21.7743 3.93687C22.0795 3.68392 22.4717 3.56057 22.8668 3.59323ZM22.8668 52.5932C22.6722 52.623 22.4736 52.614 22.2824 52.5667C22.0913 52.5194 21.9113 52.4347 21.753 52.3176C21.5947 52.2005 21.4611 52.0532 21.36 51.8843C21.2588 51.7154 21.192 51.5281 21.1635 51.3332C21.2048 50.9451 21.3965 50.5886 21.6974 50.34C21.9983 50.0914 22.3846 49.9705 22.7735 50.0032C23.1625 49.9705 23.5487 50.0914 23.8497 50.34C24.1506 50.5886 24.3422 50.9451 24.3835 51.3332C24.3366 51.7171 24.1426 52.0678 23.8423 52.3115C23.542 52.5553 23.1588 52.673 22.7735 52.6399L22.8668 52.5932ZM27.5335 54.2266C27.2749 54.1821 27.0343 54.0646 26.8402 53.8879C26.6461 53.7113 26.5066 53.4828 26.438 53.2295C26.3694 52.9762 26.3747 52.7085 26.4532 52.4581C26.5317 52.2076 26.6801 51.9849 26.881 51.816C27.0819 51.6471 27.3269 51.5392 27.5871 51.5049C27.8473 51.4707 28.1119 51.5115 28.3497 51.6226C28.5874 51.7337 28.7885 51.9105 28.9291 52.132C29.0698 52.3536 29.1442 52.6108 29.1435 52.8732C29.1312 53.0908 29.0722 53.3031 28.9705 53.4958C28.8688 53.6885 28.7267 53.857 28.554 53.9898C28.3813 54.1227 28.182 54.2168 27.9696 54.2657C27.7573 54.3146 27.5369 54.3172 27.3235 54.2732L27.5335 54.2266ZM27.5335 50.0966C27.2749 50.0521 27.0343 49.9346 26.8402 49.7579C26.6461 49.5813 26.5066 49.3528 26.438 49.0995C26.3694 48.8462 26.3747 48.5785 26.4532 48.3281C26.5317 48.0776 26.6801 47.8549 26.881 47.686C27.0819 47.5171 27.3269 47.4092 27.5871 47.3749C27.8473 47.3407 28.1119 47.3815 28.3497 47.4926C28.5874 47.6037 28.7885 47.7805 28.9291 48.002C29.0698 48.2236 29.1442 48.4808 29.1435 48.7432C29.1312 48.9608 29.0722 49.1731 28.9705 49.3658C28.8688 49.5585 28.7267 49.727 28.554 49.8598C28.3813 49.9927 28.182 50.0868 27.9696 50.1357C27.7573 50.1846 27.5369 50.1872 27.3235 50.1432L27.5335 50.0966ZM32.0135 52.5932C31.6209 52.6256 31.2314 52.5016 30.9299 52.2481C30.6283 51.9946 30.4391 51.6322 30.4035 51.2399C30.4684 50.8599 30.6657 50.5151 30.9603 50.2666C31.255 50.018 31.628 49.8817 32.0135 49.8817C32.399 49.8817 32.7721 50.018 33.0667 50.2666C33.3614 50.5151 33.5586 50.8599 33.6235 51.2399C33.6152 51.4589 33.5587 51.6733 33.4582 51.8681C33.3576 52.0628 33.2155 52.233 33.0418 52.3666C32.8681 52.5002 32.6671 52.594 32.4531 52.6412C32.2391 52.6884 32.0173 52.688 31.8035 52.6399L32.0135 52.5932ZM41.6269 38.2666C41.63 39.1344 41.4603 39.9942 41.1275 40.7957C40.7948 41.5972 40.3056 42.3244 39.6887 42.9348C39.0718 43.5452 38.3395 44.0266 37.5345 44.3508C36.7295 44.675 35.8679 44.8356 35.0002 44.8232H19.6702C17.9455 44.8171 16.2932 44.1292 15.0737 42.9097C13.8542 41.6902 13.1663 40.0379 13.1602 38.3132V17.6866C13.1663 15.9619 13.8542 14.3096 15.0737 13.0901C16.2932 11.8706 17.9455 11.1827 19.6702 11.1766H35.0002C36.7249 11.1827 38.3771 11.8706 39.5967 13.0901C40.8162 14.3096 41.504 15.9619 41.5102 17.6866L41.6269 38.2666Z" fill="#BDD3CB"/>
</g>
<defs>
<clipPath id="clip0_4204_3168">
<rect width="56" height="56" fill="white"/>
</clipPath>
</defs>
</svg>
