<svg xmlns="http://www.w3.org/2000/svg" width="70" height="40" viewBox="0 0 70 40">
    <path fill="#B8D4CB" fill-rule="nonzero" d="M42 38V17.5c0-.96-.52-1.5-1.5-1.5h-35c-.98 0-1.5.5-1.5 1.5V38H0c.05.09.13.32.21.32 0 0 2.07 1.25 4.64 1.42 2.57.18 5.14.27 5.15.26h26s2.36-.08 4.93-.25c2.57-.17 4.64-1.42 4.64-1.42.08 0 .38-.23.44-.32H42V38zM6 18h34v20H6V18zm46.95 22c.02-.01.03-.01.04-.02.14-.04.24-.17.24-.32a.34.34 0 0 0-.35-.34h-.07c-1.36.09-2.63-.82-2.93-2.19L49 33h19.47c.7 0 1.53-.83 1.53-1.53V1.53C70 .83 69.17 0 68.47 0H23.53C22.83 0 22 .83 22 1.53L22.02 15H24V2h44v25H43v10h4v1c-.04 1.54-3 2-3 2h8.95zm-6-9.17c-.03.06-.06.12-.09.17-.03.05-.07.1-.1.14-.03.04-.06.07-.08.08-.04.03-.07.05-.11.07-.03.02-.07.03-.11.03-.02 0-.06-.01-.09-.02l-.11-.03a.358.358 0 0 1-.11-.04c-.04-.01-.07-.01-.1-.01s-.07 0-.11.02c-.04.01-.08.02-.12.04-.04.01-.08.02-.11.04-.03.01-.06.02-.08.02-.03 0-.06-.01-.09-.02a.405.405 0 0 1-.09-.05c-.03-.02-.06-.06-.1-.1-.04-.04-.07-.09-.12-.15-.04-.06-.07-.12-.11-.19-.03-.07-.06-.14-.08-.22-.02-.07-.04-.15-.05-.22-.01-.08-.02-.15-.02-.22 0-.11.02-.21.05-.3a.92.92 0 0 1 .13-.24c.06-.07.12-.12.2-.16.08-.04.16-.06.25-.06.07 0 .14.02.23.06.09.04.15.06.18.06.01 0 .03-.01.06-.02s.08-.03.14-.05c.06-.02.1-.03.14-.04.04-.01.07-.01.11-.01.1 0 .19.02.28.07.09.05.16.11.21.19a.7.7 0 0 0-.21.21c-.04.08-.06.17-.06.28 0 .11.03.21.09.31.06.09.14.16.25.21-.02.02-.05.09-.07.15zM46 29.31c0-.06.01-.12.04-.19a.62.62 0 0 1 .11-.17c.04-.05.1-.09.16-.12s.13-.05.19-.05v.06c0 .06-.01.13-.04.2a.62.62 0 0 1-.11.17c-.04.05-.09.09-.15.12s-.11.05-.17.05c-.02 0-.04 0-.04-.01.01-.03.01-.05.01-.06z"/>
</svg>
