<svg width="74" height="93" viewBox="0 0 74 93" fill="none" xmlns="http://www.w3.org/2000/svg">
<path d="M48.58 37.05C56.5533 38.35 62.6633 41.34 66.91 46.02C71.1567 50.6133 73.28 56.3333 73.28 63.18C73.28 68.4667 71.8933 73.3633 69.12 77.87C66.3467 82.29 62.1 85.8433 56.38 88.53C50.7467 91.2167 43.8133 92.56 35.58 92.56C29.1667 92.56 22.84 91.7367 16.6 90.09C10.4467 88.3567 5.20333 85.93 0.87 82.81L9.06 66.69C12.5267 69.29 16.5133 71.3267 21.02 72.8C25.6133 74.1867 30.2933 74.88 35.06 74.88C40.3467 74.88 44.5067 73.8833 47.54 71.89C50.5733 69.81 52.09 66.9067 52.09 63.18C52.09 55.7267 46.4133 52 35.06 52H25.44V38.09L44.16 16.9H5.42V-6.19888e-06H69.12V13.65L48.58 37.05Z" fill="url(#paint0_linear_1_402)"/>
<defs>
<linearGradient id="paint0_linear_1_402" x1="1" y1="-30.9712" x2="10.4286" y2="100.091" gradientUnits="userSpaceOnUse">
<stop stop-color="#D5DDE0" stop-opacity="0.69"/>
<stop offset="1" stop-color="#D5DDE0" stop-opacity="0"/>
</linearGradient>
</defs>
</svg>
