<svg width="63" height="50" viewBox="0 0 63 50" fill="none" xmlns="http://www.w3.org/2000/svg">
    <path d="M7.088 34.287c.434 0 .787-.35.787-.781V7.725c0-1.726 1.41-3.125 3.15-3.125h40.95c1.74 0 3.15 1.399 3.15 3.125v25.78c0 .432.353.782.788.782.434 0 .787-.35.787-.781V7.725c0-2.579-2.126-4.688-4.725-4.688h-40.95c-2.599 0-4.725 2.11-4.725 4.688v25.693c0 .605.352.87.788.87zm54.337 3.125H1.575c-.867 0-1.575.703-1.575 1.563v1.562c0 3.438 2.836 6.25 6.3 6.25h50.4c3.464 0 6.3-2.812 6.3-6.25v-1.562c0-.772-.709-1.563-1.575-1.563zm0 3.125c0 2.585-2.12 4.688-4.725 4.688H6.3c-2.606 0-4.725-2.103-4.725-4.688v-1.562h59.85v1.562z" fill="#00C27E"/>
    <g clip-path="url(#3uosoy7u7a)">
        <path d="m26.037 16.298 4.859-.664v4.657h-4.86v-3.993zm0 8.522 4.859.664v-4.6h-4.86v3.936zm5.393.735 6.463.885v-5.556H31.43v4.671zm0-9.992v4.728h6.463v-5.613l-6.463.885z" fill="#00C27E"/>
    </g>
    <defs>
        <clipPath id="3uosoy7u7a">
            <path fill="#fff" transform="translate(26.037 13.838)" d="M0 0h11.856v13.442H0z"/>
        </clipPath>
    </defs>
</svg>
