<svg width="40" height="40" viewBox="0 0 40 40" fill="none" xmlns="http://www.w3.org/2000/svg">
<path d="M36.75 29.9999V9.71659C36.7413 9.34667 36.5882 8.99484 36.3235 8.73633C36.0587 8.47782 35.7034 8.33315 35.3333 8.33325H4.86667C4.49094 8.33325 4.13061 8.48251 3.86493 8.74818C3.59926 9.01386 3.45 9.3742 3.45 9.74992V29.9999H0V31.1499C0.0279577 31.2999 0.109102 31.4347 0.228518 31.5296C0.347934 31.6246 0.497597 31.6732 0.65 31.6666H39.35C39.4346 31.6688 39.5187 31.6541 39.5975 31.6232C39.6763 31.5924 39.7481 31.5461 39.8086 31.4871C39.8692 31.4281 39.9174 31.3575 39.9502 31.2795C39.9831 31.2016 40 31.1178 40 31.0333V29.9999H36.75ZM4.5 9.79992C4.5 9.69383 4.54214 9.59209 4.61716 9.51708C4.69217 9.44206 4.79391 9.39992 4.9 9.39992H18.0667C18.0709 9.57982 18.1443 9.75118 18.2715 9.87842C18.3987 10.0057 18.5701 10.079 18.75 10.0833H21.25C21.4299 10.079 21.6013 10.0057 21.7285 9.87842C21.8557 9.75118 21.9291 9.57982 21.9333 9.39992H35.2667C35.3728 9.39992 35.4745 9.44206 35.5495 9.51708C35.6245 9.59209 35.6667 9.69383 35.6667 9.79992V29.9999H4.5V9.79992Z" fill="#02CA95"/>
</svg>
