<svg width="40" height="40" viewBox="0 0 40 40" fill="none" xmlns="http://www.w3.org/2000/svg">
<g clip-path="url(#clip0_4204_3174)">
<path d="M3.25383 3.25383C4.90255 1.60511 7.13625 0.675137 9.46785 0.666667H30.5322C32.8637 0.675137 35.0975 1.60511 36.7462 3.25383C38.3949 4.90257 39.3249 7.13631 39.3333 9.46793C39.3333 9.46829 39.3333 9.46865 39.3333 9.469V30.531C39.3333 30.5314 39.3333 30.5317 39.3333 30.5321C39.3249 32.8637 38.3949 35.0974 36.7462 36.7462C35.0974 38.3949 32.8637 39.3249 30.5321 39.3333C30.5317 39.3333 30.5314 39.3333 30.531 39.3333H9.469C9.46865 39.3333 9.46829 39.3333 9.46793 39.3333C7.13631 39.3249 4.90257 38.3949 3.25383 36.7462C1.60511 35.0975 0.675137 32.8637 0.666667 30.5322V9.46785C0.675137 7.13625 1.60511 4.90255 3.25383 3.25383Z" stroke="#02CA95" stroke-width="1.33333"/>
<path d="M20.0925 15.1621C20.0238 15.4099 19.9823 15.6644 19.9689 15.9212C19.9569 15.9793 19.9509 16.0384 19.9513 16.0977H20.3396C20.5597 16.0784 20.7718 16.0057 20.9575 15.8859C21.4865 15.5481 21.8897 15.0457 22.1049 14.456C22.2317 14.1541 22.2977 13.8302 22.2991 13.5028C22.3074 13.4206 22.3074 13.3378 22.2991 13.2556C21.972 13.3193 21.6565 13.4324 21.3635 13.591C21.0829 13.7226 20.8355 13.9157 20.6397 14.1559C20.3948 14.4533 20.209 14.7949 20.0925 15.1621Z" fill="#02CA95"/>
<path d="M24.0997 23.9004C24.4405 23.3907 24.7135 22.8388 24.9117 22.2586V22.241C24.9506 22.2148 24.9812 22.178 25 22.1351C24.8505 22.0823 24.7082 22.0112 24.5763 21.9232C24.3222 21.7596 24.1007 21.5501 23.9232 21.3054C23.497 20.7264 23.3076 20.0067 23.3936 19.2929C23.435 18.9627 23.5431 18.6444 23.7113 18.3573C23.9077 18.0498 24.1452 17.7706 24.4175 17.5276L24.6646 17.2981L24.5587 17.1746C24.3671 16.9478 24.1476 16.7462 23.9055 16.5744C23.5598 16.3329 23.1594 16.1812 22.7404 16.133H22.0343C21.7893 16.1752 21.5474 16.2341 21.3105 16.3096C21.0278 16.4105 20.7389 16.4931 20.4455 16.5567C20.2767 16.5919 20.1024 16.5919 19.9336 16.5567L19.2275 16.3802C18.8431 16.2597 18.4463 16.1827 18.0447 16.1507C17.6917 16.1178 17.3357 16.1642 17.0029 16.2863C16.67 16.4085 16.3686 16.6034 16.1206 16.8568C15.7613 17.2032 15.4839 17.6253 15.3085 18.0925C15.135 18.5866 15.0397 19.1048 15.0261 19.6283C14.9913 19.9923 14.9913 20.3588 15.0261 20.7228C15.0807 21.1065 15.1694 21.4846 15.2909 21.8526C15.5187 22.5142 15.8207 23.1479 16.1912 23.7415C16.41 24.106 16.6707 24.4437 16.9679 24.7477C17.1436 24.9078 17.3395 25.0442 17.5505 25.1537C17.8008 25.2811 18.0856 25.3245 18.3625 25.2773C18.5635 25.2537 18.7599 25.2001 18.945 25.1184L19.5805 24.9066C19.8536 24.8445 20.1372 24.8445 20.4102 24.9066C20.6557 24.9466 20.8977 25.0057 21.134 25.0831C21.4141 25.1921 21.7036 25.2748 21.999 25.3302C22.2569 25.3665 22.5199 25.3298 22.7581 25.2243C22.996 25.1189 23.2117 24.9692 23.3936 24.783C23.6626 24.5174 23.8996 24.2212 24.0997 23.9004Z" fill="#02CA95"/>
</g>
<defs>
<clipPath id="clip0_4204_3174">
<rect width="40" height="40" fill="white"/>
</clipPath>
</defs>
</svg>
