<?xml version="1.0" encoding="UTF-8"?>
<svg width="48px" height="48px" viewBox="0 0 48 48" version="1.1" xmlns="http://www.w3.org/2000/svg" xmlns:xlink="http://www.w3.org/1999/xlink">
    <!-- Generator: Sketch 48.2 (47327) - http://www.bohemiancoding.com/sketch -->
    <title>9device</title>
    <desc>Created with Sketch.</desc>
    <defs></defs>
    <g id="Page-1" stroke="none" stroke-width="1" fill="none" fill-rule="evenodd">
        <g id="9device" transform="translate(1.000000, 1.000000)">
            <rect id="Rectangle-path" stroke="#000000" stroke-width="2" x="0" y="0" width="46" height="46" rx="10"></rect>
            <path d="M28.48,22.142 C28.4548605,22.6719777 28.5577634,23.2002124 28.78,23.682 C29.179,24.738 29.949,25.537 31.09,26.079 C30.7304999,27.1973466 30.1962205,28.25173 29.507,29.203 C28.565,30.486 27.638,31.143 26.725,31.171 C26.325,31.171 25.812,31.043 25.185,30.786 C24.5,30.529 23.915,30.401 23.43,30.401 C22.945,30.401 22.332,30.543 21.59,30.829 C20.991,31.057 20.535,31.171 20.22,31.171 C19.593,31.2 18.923,30.857 18.21,30.144 C17.667,29.602 17.125,28.86 16.583,27.919 C16.155,27.149 15.827,26.449 15.599,25.822 C15.199,24.624 15,23.468 15,22.356 C15,21.129 15.242,20.074 15.727,19.189 C16.184,18.362 16.79,17.734 17.547,17.306 C18.2706681,16.8877085 19.0857097,16.6528777 19.921,16.622 C20.378,16.622 21.077,16.792 22.018,17.135 C22.618,17.363 23.002,17.477 23.173,17.477 C23.345,17.477 23.701,17.377 24.243,17.177 C24.785,16.978 25.213,16.836 25.527,16.75 C26.069,16.607 26.554,16.55 26.982,16.579 C28.608,16.721 29.82,17.363 30.619,18.504 C29.164,19.36 28.451,20.573 28.479,22.142 L28.48,22.142 Z M26.04,15.082 L26.04,15.124 C25.128,16.179 24.143,16.664 23.088,16.579 C22.974,15.438 23.33,14.411 24.158,13.498 C24.5,13.098 24.942,12.756 25.484,12.471 C26.026,12.185 26.554,12.029 27.068,12 C27.153,13.141 26.811,14.168 26.04,15.081 L26.04,15.082 Z" id="Shape" fill="#000000" fill-rule="nonzero"></path>
        </g>
    </g>
</svg>