<svg xmlns="http://www.w3.org/2000/svg" width="96" height="103" viewBox="0 0 96 103">
    <g fill="#00C27E" fill-rule="nonzero">
        <path d="M96 81.131h-3.31V48.016C92.69 23.326 72.68 3.311 48 3.311c-24.681 0-44.69 20.016-44.69 44.705v33.115H0V48.016C0 21.498 21.49 0 48 0s48 21.498 48 48.016v33.115z"/>
        <path d="M73.962 20.187l1.21 1.13-2.26 2.42-1.209-1.13C65.303 16.63 56.91 13.246 48 13.246c-8.972 0-17.418 3.431-23.833 9.483l-1.204 1.136-2.271-2.409 1.204-1.136C28.918 13.695 38.175 9.934 48 9.934c9.758 0 18.956 3.709 25.962 10.253zM31.448 59.607v43.049H19.862c-6.4 0-11.586-5.189-11.586-11.59v-31.46h23.172zm-3.31 3.311H11.586v28.148a8.277 8.277 0 0 0 8.276 8.278h8.276V62.918zM67.862 62.918v36.426h8.276a8.277 8.277 0 0 0 8.276-8.278V62.918H67.862zm19.862-3.311v31.459c0 6.401-5.187 11.59-11.586 11.59H64.552v-43.05h23.172z"/>
    </g>
</svg>
