<svg xmlns="http://www.w3.org/2000/svg" width="18" height="26" viewBox="0 0 18 26">
    <g fill="#FFF" fill-rule="evenodd">
        <path d="M12.706 5.143H8a2 2 0 0 0-2 2v16.714c0 .171.021.337.062.496H1a1 1 0 0 1-1-1V1a1 1 0 0 1 1-1h10.706a1 1 0 0 1 1 1v4.143zM2.647 1.588a1.059 1.059 0 0 0 0 2.118h1.588a1.059 1.059 0 1 0 0-2.118H2.647z"/>
        <path d="M8.084 6.151h8.059a1 1 0 0 1 1 1v17.28a1 1 0 0 1-1 1H8.084a1 1 0 0 1-1-1V7.15a1 1 0 0 1 1-1zM9.18 7.41a.838.838 0 0 0 0 1.676h1.257a.838.838 0 1 0 0-1.676H9.18z"/>
    </g>
</svg>
