<svg id="Layer_1" data-name="Layer 1" xmlns="http://www.w3.org/2000/svg" viewBox="0 0 100 100"><defs><style>.cls-1{fill:none;stroke:#3bcb98;stroke-miterlimit:10;stroke-width:3px;}.cls-2{fill:#3bcb98;}</style></defs><title>all devices</title><path class="cls-1" d="M11,68.51h0a3.26,3.26,0,0,1-3.26-3.26V22.64A3.26,3.26,0,0,1,11,19.38H76a3.26,3.26,0,0,1,3.26,3.26v13"/><line class="cls-1" x1="61.49" y1="68.51" x2="30.98" y2="68.51"/><rect class="cls-1" x="65.47" y="39.5" width="27.16" height="39.15" rx="3.5" ry="3.5"/><rect class="cls-1" x="14.55" y="54.13" width="13.19" height="24.52" rx="3.5" ry="3.5"/><line class="cls-1" x1="43.5" y1="68.51" x2="43.5" y2="78.65"/><line class="cls-1" x1="34.98" y1="78.65" x2="52.03" y2="78.65"/><circle class="cls-2" cx="79.26" cy="74.78" r="1.2"/><circle class="cls-2" cx="21.26" cy="74.78" r="1.2"/><line class="cls-1" x1="30.98" y1="60.65" x2="61.49" y2="60.65"/></svg>