<svg xmlns="http://www.w3.org/2000/svg" width="29" height="35" viewBox="0 0 29 35">
    <path fill="#000" fill-rule="evenodd" d="M24.295 18.514c-.051.937.129 1.875.54 2.812.72 1.927 2.108 3.385 4.165 4.375-.617 1.979-1.568 3.88-2.854 5.703-1.697 2.343-3.368 3.54-5.013 3.593-.72 0-1.645-.234-2.777-.703-1.234-.469-2.288-.703-3.162-.703-.874 0-1.98.26-3.316.781-1.08.417-1.903.625-2.468.625-1.132.052-2.34-.573-3.625-1.875-.977-.99-1.954-2.343-2.931-4.062-.772-1.406-1.363-2.682-1.774-3.828C.36 23.045 0 20.936 0 18.905c0-2.24.437-4.167 1.311-5.781.823-1.51 1.916-2.656 3.278-3.437 1.363-.782 2.79-1.198 4.28-1.25.823 0 2.083.312 3.78.937 1.08.417 1.774.625 2.082.625.309 0 .952-.182 1.929-.547.977-.364 1.748-.625 2.313-.78.977-.261 1.851-.365 2.623-.313 2.93.26 5.116 1.432 6.556 3.515-2.623 1.562-3.908 3.776-3.857 6.64zM19.9 5.624v.079c-1.645 1.927-3.42 2.812-5.322 2.656-.206-2.083.437-3.958 1.928-5.625.617-.729 1.414-1.354 2.391-1.875C19.873.34 20.824.052 21.75 0c.154 2.083-.463 3.958-1.851 5.625z"/>
</svg>
