<?xml version="1.0" encoding="UTF-8"?>
<svg width="30px" height="32px" viewBox="0 0 30 32" version="1.1" xmlns="http://www.w3.org/2000/svg" xmlns:xlink="http://www.w3.org/1999/xlink">
    <!-- Generator: Sketch 46.2 (44496) - http://www.bohemiancoding.com/sketch -->
    <title>assistant-icon</title>
    <desc>Created with Sketch.</desc>
    <defs></defs>
    <g id="Page-1" stroke="none" stroke-width="1" fill="none" fill-rule="evenodd">
        <g id="HomePage" transform="translate(-679.000000, -2110.000000)" stroke-width="2" stroke="#B8D4CB">
            <g id="why-we-are-diffrent" transform="translate(0.000000, 1687.000000)">
                <g id="bot-assistant" transform="translate(620.000000, 365.000000)">
                    <g id="assistant-icon" transform="translate(60.000000, 59.000000)">
                        <polyline id="Shape" points="11 30 13 22 15 22 17 30"></polyline>
                        <path d="M10.819,18.083 L2.085,22.863 C0.8,23.564 0,24.911 0,26.375 L0,30 L28,30 L28,26.375 C28,24.911 27.2,23.564 25.915,22.863 L17.181,18.083" id="Shape"></path>
                        <path d="M6,8 C6,3.582 9.582,0 14,0 C18.418,0 22,3.582 22,8 C22,14 18.418,19 14,19 C9.582,19 6,14 6,8 Z" id="Shape" stroke-linecap="square"></path>
                        <path d="M6.038,7.212 C7.207,7.712 8.558,8 10,8 C12.621,8 14.941,7.05 16.4,5.589 C17.677,7.05 19.706,8 22,8" id="Shape"></path>
                    </g>
                </g>
            </g>
        </g>
    </g>
</svg>