<svg xmlns="http://www.w3.org/2000/svg" width="42" height="52" viewBox="0 0 42 52">
    <g fill="none" fill-rule="evenodd" transform="translate(1 1)">
        <path fill="#FFE2AE" fill-rule="nonzero" d="M34.5 12.376V35.15C34.5 43.35 27.784 50 19.5 50c-8.284 0-15-6.65-15-14.851V12.376l15-9.777 15 9.777z"/>
        <path fill="#FFEBCF" fill-rule="nonzero" d="M6 35.149V12.376L20.25 3.09l-.75-.495-15 9.782V35.15C4.5 43.35 11.216 50 19.5 50h.75C12.26 49.604 5.99 43.07 6 35.149z"/>
        <path fill="#EDC283" fill-rule="nonzero" d="M19.5 2.599l-.75.495L33 12.376V35.15c.01 7.92-6.26 14.455-14.25 14.851h.75c8.284 0 15-6.65 15-14.851V12.376L19.5 2.6z"/>
        <path stroke="#000" stroke-linecap="round" stroke-linejoin="round" stroke-width=".99" d="M19.5 50c-8.284 0-15-6.65-15-14.851V12.376l15-9.777 15 9.777V35.15C34.5 43.35 27.784 50 19.5 50z"/>
        <path fill="#54484A" fill-rule="nonzero" d="M38.85 20.297c0 .332.035.663 0 .99a14.898 14.898 0 0 1-4.35 9.614v-8.99a7.13 7.13 0 0 0-2-4.911 23.403 23.403 0 0 0 5.15-2.554 14.725 14.725 0 0 1 1.2 5.851z"/>
        <path fill="#645456" fill-rule="nonzero" d="M21.25 0C14.968-.002 9.06 2.958 5.34 7.97a19.774 19.774 0 0 0-1.575 2.476A14.718 14.718 0 0 0 0 20.297c0 .332 0 .663.035.99A14.739 14.739 0 0 0 4.5 30.901v-8.99c-.035-3.025 1.882-5.736 4.765-6.738a6.41 6.41 0 0 1 3.5-.143 6.77 6.77 0 0 1 1.765.673 19.051 19.051 0 0 0 4.565 1.93A23.597 23.597 0 0 0 32.5 17a23.403 23.403 0 0 0 7.305-4.163C36.953 5.127 29.543 0 21.25 0z"/>
        <path fill="#54484A" fill-rule="nonzero" d="M21.25 0c-.325 0-.65 0-.975.03 7.907.407 14.805 5.447 17.53 12.807a23.403 23.403 0 0 1-10.025 4.936 23.83 23.83 0 0 1-4 .494c.315 0 .635.03.955.03a23.68 23.68 0 0 0 5.03-.545c.926-.196 1.84-.447 2.735-.752a23.403 23.403 0 0 0 7.305-4.163C36.953 5.127 29.543 0 21.25 0z"/>
        <path fill="#6D6163" fill-rule="nonzero" d="M2.035 21.782c0-.327-.035-.658-.035-.99a14.718 14.718 0 0 1 3.765-9.837c.463-.862.99-1.69 1.575-2.475C11.864 2.385 19.53-.583 27.03.856 19.008-1.573 10.311 1.28 5.34 7.97a19.774 19.774 0 0 0-1.575 2.476A14.718 14.718 0 0 0 0 20.297c0 .332 0 .663.035.99A14.739 14.739 0 0 0 4.5 30.901v-1.906a14.665 14.665 0 0 1-2.465-7.213z"/>
        <path fill="#6D6163" fill-rule="nonzero" d="M16.535 16.198a6.77 6.77 0 0 0-1.765-.673c-.303-.07-.61-.12-.92-.149.234.096.463.205.685.327a19.051 19.051 0 0 0 4.565 1.93c.375.095.76.174 1.145.248a21.307 21.307 0 0 1-3.71-1.683z"/>
        <path stroke="#000" stroke-linecap="round" stroke-linejoin="round" stroke-width=".99" d="M32.5 17a7.13 7.13 0 0 1 2 4.91v8.991a14.899 14.899 0 0 0 4.365-9.614v-.99a14.725 14.725 0 0 0-1.2-5.851"/>
        <path stroke="#000" stroke-linecap="round" stroke-linejoin="round" stroke-width=".99" d="M37.65 14.446a23.571 23.571 0 0 0 2.155-1.61C37.304 6.07 31.247 1.214 24.043.197 16.838-.82 9.653 2.166 5.34 7.97a19.774 19.774 0 0 0-1.575 2.476A14.718 14.718 0 0 0 0 20.297c0 .332 0 .663.035.99A14.739 14.739 0 0 0 4.5 30.901v-8.99c-.035-3.025 1.882-5.736 4.765-6.738a6.41 6.41 0 0 1 3.5-.143 6.77 6.77 0 0 1 1.765.673 19.051 19.051 0 0 0 4.565 1.93A23.597 23.597 0 0 0 32.5 17a23.403 23.403 0 0 0 5.15-2.554z"/>
        <path fill="#EDC283" fill-rule="nonzero" d="M7.5 27.228H17c.552 0 1 .443 1 .99v5.445c0 .82-.672 1.486-1.5 1.486h-8c-.552 0-1-.444-1-.99v-6.931zM31 35.149h-8c-.552 0-1-.444-1-.99v-5.941c0-.547.448-.99 1-.99h9.5v6.435c0 .82-.672 1.486-1.5 1.486z"/>
        <path fill="#FFE2AE" fill-rule="nonzero" d="M34.5 26.792c2.577.372 4.487 2.56 4.487 5.139 0 2.578-1.91 4.766-4.487 5.138V26.792z"/>
        <path fill="#EDC283" fill-rule="nonzero" d="M34.5 26.792v.436a5.18 5.18 0 0 1 3.034 4.703 5.18 5.18 0 0 1-3.034 4.703v.45c2.6-.349 4.54-2.547 4.54-5.146 0-2.598-1.94-4.797-4.54-5.146z"/>
        <path fill="#FFE2AE" fill-rule="nonzero" d="M4.5 26.792V37.07C1.923 36.697.013 34.51.013 31.931c0-2.579 1.91-4.767 4.487-5.139z"/>
        <path fill="#FFEBCF" fill-rule="nonzero" d="M1.5 31.93a5.18 5.18 0 0 1 3-4.702v-.436c-2.577.372-4.487 2.56-4.487 5.139 0 2.578 1.91 4.766 4.487 5.138v-.435a5.18 5.18 0 0 1-3-4.703z"/>
        <path stroke="#000" stroke-linecap="round" stroke-linejoin="round" stroke-width=".99" d="M34.5 26.792V37.07c2.577-.372 4.487-2.56 4.487-5.138 0-2.579-1.91-4.767-4.487-5.139zM4.5 26.792V37.07C1.923 36.697.013 34.51.013 31.931c0-2.579 1.91-4.767 4.487-5.139zM15.25 23.525a5.548 5.548 0 0 0-5.5-.05M23.75 23.525a5.548 5.548 0 0 1 5.5-.05"/>
        <path fill="#FFF" fill-rule="nonzero" stroke="#000" stroke-linecap="round" stroke-linejoin="round" stroke-width=".99" d="M7 26.238h9.5c.552 0 1 .443 1 .99v5.94c0 .547-.448.99-1 .99H8c-.552 0-1-.443-1-.99v-6.93zM31 34.158h-8.5c-.552 0-1-.443-1-.99v-5.94c0-.547.448-.99 1-.99H32v6.93c0 .547-.448.99-1 .99z"/>
        <ellipse cx="13" cy="30.198" fill="#2C3E50" fill-rule="nonzero" stroke="#000" stroke-linecap="round" stroke-linejoin="round" stroke-width=".99" rx="1" ry="1"/>
        <ellipse cx="26" cy="30.198" fill="#2C3E50" fill-rule="nonzero" stroke="#000" stroke-linecap="round" stroke-linejoin="round" stroke-width=".99" rx="1" ry="1"/>
        <path stroke="#000" stroke-linecap="round" stroke-linejoin="round" stroke-width=".99" d="M21.95 35.644a2.494 2.494 0 0 1-2.45 1.982 2.494 2.494 0 0 1-2.45-1.982M15.5 39.45l.23.154a7.565 7.565 0 0 0 7.545 0l.23-.139"/>
    </g>
</svg>
