<svg xmlns="http://www.w3.org/2000/svg" width="152" height="235" viewBox="0 0 152 235">
    <g fill="none" fill-rule="evenodd" transform="translate(2 2)">
        <path fill="#FFE2AE" fill-rule="nonzero" d="M91.179 127.864v13.181l-.106.211-5.18 19.562 1.321 1.767c-2.854 2.188-9.078 3.506-12.963 3.506h-.462c-3.885 0-10.11-1.318-12.964-3.506l1.282-1.767-5.153-19.522-.133-.25v-13.182H91.18z"/>
        <path fill="#EDC283" fill-rule="nonzero" d="M91.179 138.41c-11.453 7.03-22.905 7.03-34.358 0v-10.546H91.18v10.545z"/>
        <path stroke="#000" stroke-linecap="round" stroke-linejoin="round" stroke-width="2.64" d="M56.821 126.545v13.182l.133.25 5.153 19.523-1.321 1.766c2.894 2.189 9.118 3.507 13.003 3.507h.422c3.885 0 10.11-1.318 12.964-3.507l-1.282-1.766 5.18-19.562.106-.21v-13.183H56.82z"/>
        <path fill="#FFE2AE" fill-rule="nonzero" d="M30.393 261H6.607v-60.636l23.786 9.227z"/>
        <path fill="#FFEBCF" fill-rule="nonzero" d="M6.607 200.364V261h3.964v-59.318z"/>
        <path stroke="#000" stroke-linecap="round" stroke-linejoin="round" stroke-width="2.64" d="M30.393 261H6.607v-60.636l23.786 9.227z"/>
        <path fill="#FFE2AE" fill-rule="nonzero" d="M117.607 261h23.786v-60.636l-23.786 9.227z"/>
        <path fill="#EDC283" fill-rule="nonzero" d="M141.393 200.364V261h-3.964v-59.318z"/>
        <path stroke="#000" stroke-linecap="round" stroke-linejoin="round" stroke-width="2.64" d="M117.607 261h23.786v-60.636l-23.786 9.227zM30.393 180.59v29"/>
        <path fill="#00C27E" fill-rule="nonzero" d="M145.82 194.524l2.18 7.158-30.393 10.545V261H30.393v-48.773L0 201.682l2.18-7.158 7.321-24.096a33.427 33.427 0 0 1 21.143-21.71l26.177-8.99 5.286 15.817L74 162.136l11.893-6.59 5.286-15.819 26.203 8.99a33.427 33.427 0 0 1 21.143 21.71l7.295 24.097z"/>
        <path fill="#00A66C" fill-rule="nonzero" d="M93.861 170.744L78.136 161.2l6.819-3.506zM64.75 157.694L54.35 171.1l17.232-9.9zM144.036 201.682l-2.18-7.158-7.321-24.096a33.427 33.427 0 0 0-21.143-21.71l-22.65-7.765.437-1.226 26.203 8.99a33.427 33.427 0 0 1 21.143 21.71l7.321 24.097 2.154 7.158h-3.964z"/>
        <path fill="#00DE90" fill-rule="nonzero" d="M6.145 194.524l7.32-24.096a33.427 33.427 0 0 1 21.143-21.71l22.65-7.765-.437-1.226-26.203 8.99a33.427 33.427 0 0 0-21.143 21.71l-7.321 24.097L0 201.682 3.964 203v-1.318l2.18-7.158z"/>
        <path stroke="#000" stroke-linecap="round" stroke-linejoin="round" stroke-width="2.64" d="M145.82 194.524l-7.321-24.096a33.427 33.427 0 0 0-21.143-21.71l-26.177-8.99-5.286 15.817L74 162.136l-11.893-6.59-5.286-15.819-26.203 8.99a33.427 33.427 0 0 0-21.143 21.71l-7.321 24.097L0 201.682l30.393 10.545V261h87.214v-48.773L148 201.682l-2.18-7.158z"/>
        <path fill="#3F635C" fill-rule="nonzero" stroke="#000" stroke-linecap="round" stroke-linejoin="round" stroke-width="2.64" d="M2.18 194.524l28.213 9.794-28.213-9.794M145.82 194.524l-28.213 9.794 28.213-9.794"/>
        <path stroke="#000" stroke-linecap="round" stroke-linejoin="round" stroke-width="2.64" d="M30.393 180.59v31.637M117.607 180.59v31.637"/>
        <path fill="#3F635C" fill-rule="nonzero" stroke="#000" stroke-linecap="round" stroke-linejoin="round" stroke-width="2.64" d="M91.179 139.938h-.106l-11.787 18.244 14.535 11.863 5.286-28.88a57.137 57.137 0 0 0-7.928-1.227z"/>
        <path fill="#00C27E" fill-rule="nonzero" stroke="#000" stroke-linecap="round" stroke-linejoin="round" stroke-width="2.64" d="M91.179 139.938h-.106l-11.787 18.244 14.535 11.863 5.286-28.88a57.137 57.137 0 0 0-7.928-1.227z"/>
        <path stroke="#000" stroke-linecap="round" stroke-linejoin="round" stroke-width="2.64" d="M93.636 148.955l-2.167 11.863"/>
        <path fill="#00C27E" fill-rule="nonzero" stroke="#000" stroke-linecap="round" stroke-linejoin="round" stroke-width="2.64" d="M56.954 139.978h-.133c-2.67.254-5.32.695-7.928 1.318l5.286 28.75 14.535-11.864-11.76-18.204z"/>
        <path stroke="#000" stroke-linecap="round" stroke-linejoin="round" stroke-width="2.64" d="M74 162.136v19.773"/>
        <path fill="#FFE2AE" fill-rule="nonzero" d="M113.643 32.955V93.59c0 21.84-17.749 39.545-39.643 39.545-21.894 0-39.643-17.705-39.643-39.545V32.955L74 6.92l39.643 26.035z"/>
        <path fill="#FFEBCF" fill-rule="nonzero" d="M38.321 93.59V32.956l37.661-24.73L74 6.907 34.357 32.955V93.59c0 21.84 17.749 39.545 39.643 39.545h1.982c-21.116-1.054-37.687-18.454-37.66-39.545z"/>
        <path fill="#EDC283" fill-rule="nonzero" d="M74 6.92L72.018 8.24l37.66 24.716V93.59c.027 21.09-16.544 38.49-37.66 39.545H74c21.894 0 39.643-17.705 39.643-39.545V32.955L74 6.92z"/>
        <path stroke="#000" stroke-linecap="round" stroke-linejoin="round" stroke-width="2.64" d="M74 133.136c-21.894 0-39.643-17.705-39.643-39.545V32.955L74 6.92l39.643 26.035V93.59c0 21.84-17.749 39.545-39.643 39.545z"/>
        <path fill="#54484A" fill-rule="nonzero" d="M125.14 54.045c0 .884.092 1.767 0 2.637a39.804 39.804 0 0 1-11.497 25.599V58.343a19.062 19.062 0 0 0-5.286-13.077 61.665 61.665 0 0 0 13.61-6.801 39.462 39.462 0 0 1 3.172 15.58z"/>
        <path fill="#645456" fill-rule="nonzero" d="M78.625 0C62.022-.005 46.408 7.876 36.577 21.223a52.708 52.708 0 0 0-4.162 6.59 39.358 39.358 0 0 0-9.95 26.232c0 .884 0 1.767.092 2.637a39.372 39.372 0 0 0 11.8 25.599V58.343c-.093-8.055 4.973-15.273 12.593-17.94a16.822 16.822 0 0 1 9.25-.383c1.632.376 3.202.98 4.665 1.793a50.148 50.148 0 0 0 12.065 5.14 61.921 61.921 0 0 0 14.945 1.82c4.47-.004 8.928-.49 13.294-1.45a62.41 62.41 0 0 0 7.188-2.057 61.665 61.665 0 0 0 19.306-11.086C120.127 13.651 100.542 0 78.625 0z"/>
        <path fill="#54484A" fill-rule="nonzero" d="M78.625 0c-.859 0-1.718 0-2.577.08 20.896 1.084 39.127 14.503 46.33 34.1a61.665 61.665 0 0 1-19.306 11.086 62.41 62.41 0 0 1-7.19 2.057 62.53 62.53 0 0 1-10.57 1.318c.832 0 1.678.079 2.523.079 4.471-.004 8.928-.49 13.294-1.45a62.412 62.412 0 0 0 7.228-2.004 61.665 61.665 0 0 0 19.306-11.086C120.127 13.651 100.542 0 78.625 0z"/>
        <path fill="#6D6163" fill-rule="nonzero" d="M27.843 58c0-.87-.093-1.753-.093-2.636A39.358 39.358 0 0 1 37.7 29.17a52.708 52.708 0 0 1 4.163-6.59C53.818 6.35 74.08-1.555 93.9 2.28 72.699-4.188 49.715 3.407 36.577 21.222a52.708 52.708 0 0 0-4.162 6.59 39.358 39.358 0 0 0-9.95 26.232c0 .884 0 1.767.092 2.637a39.372 39.372 0 0 0 11.8 25.599v-5.075A39.244 39.244 0 0 1 27.843 58z"/>
        <path fill="#6D6163" fill-rule="nonzero" d="M66.164 43.13a17.813 17.813 0 0 0-4.665-1.792 18.7 18.7 0 0 0-2.431-.395c.62.255 1.224.545 1.81.87a50.148 50.148 0 0 0 12.065 5.14c.99.251 2.008.462 3.026.66a56.108 56.108 0 0 1-9.805-4.482z"/>
        <path stroke="#000" stroke-linecap="round" stroke-linejoin="round" stroke-width="2.64" d="M108.357 45.266a19.062 19.062 0 0 1 5.286 13.077V82.28a39.804 39.804 0 0 0 11.536-25.6v-2.636a39.462 39.462 0 0 0-3.172-15.58"/>
        <path stroke="#000" stroke-linecap="round" stroke-linejoin="round" stroke-width="2.64" d="M121.968 38.465a62.332 62.332 0 0 0 5.695-4.285C121.053 16.163 105.046 3.231 86.006.523c-19.041-2.71-38.033 5.244-49.429 20.7a52.708 52.708 0 0 0-4.162 6.59 39.358 39.358 0 0 0-9.95 26.232c0 .884 0 1.767.092 2.637a39.372 39.372 0 0 0 11.8 25.599V58.343c-.093-8.055 4.973-15.273 12.593-17.94a16.822 16.822 0 0 1 9.25-.383c1.632.376 3.202.98 4.665 1.793a50.148 50.148 0 0 0 12.065 5.14 61.921 61.921 0 0 0 14.945 1.82c4.47-.004 8.928-.49 13.294-1.45a62.41 62.41 0 0 0 7.188-2.057 61.665 61.665 0 0 0 13.61-6.801z"/>
        <path fill="#EDC283" fill-rule="nonzero" d="M42.286 72.5h25.107a2.64 2.64 0 0 1 2.643 2.636v14.5a3.96 3.96 0 0 1-3.965 3.955H44.93a2.64 2.64 0 0 1-2.643-2.636V72.5zM104.393 93.59H83.25a2.64 2.64 0 0 1-2.643-2.635V75.136A2.64 2.64 0 0 1 83.25 72.5h25.107v17.136a3.96 3.96 0 0 1-3.964 3.955z"/>
        <path fill="#FFE2AE" fill-rule="nonzero" d="M113.643 71.34c6.81.992 11.86 6.817 11.86 13.683 0 6.865-5.05 12.69-11.86 13.682V71.34z"/>
        <path fill="#EDC283" fill-rule="nonzero" d="M113.643 71.34v1.16a13.8 13.8 0 0 1 8.02 12.523 13.8 13.8 0 0 1-8.02 12.522v1.2c6.873-.93 12-6.783 12-13.703 0-6.919-5.127-12.773-12-13.702z"/>
        <path fill="#FFE2AE" fill-rule="nonzero" d="M34.357 71.34v27.365c-6.81-.991-11.86-6.817-11.86-13.682 0-6.866 5.05-12.691 11.86-13.683z"/>
        <path fill="#FFEBCF" fill-rule="nonzero" d="M26.429 85.023A13.799 13.799 0 0 1 34.357 72.5v-1.16c-6.81.992-11.86 6.817-11.86 13.683 0 6.865 5.05 12.69 11.86 13.682v-1.16a13.799 13.799 0 0 1-7.928-12.522z"/>
        <path stroke="#000" stroke-linecap="round" stroke-linejoin="round" stroke-width="2.64" d="M113.643 71.34v27.365c6.81-.991 11.86-6.817 11.86-13.682 0-6.866-5.05-12.691-11.86-13.683zM34.357 71.34v27.365c-6.81-.991-11.86-6.817-11.86-13.682 0-6.866 5.05-12.691 11.86-13.683zM62.768 62.64a14.567 14.567 0 0 0-14.536-.132M85.232 62.64a14.567 14.567 0 0 1 14.536-.132"/>
        <path fill="#FFF" fill-rule="nonzero" stroke="#000" stroke-linecap="round" stroke-linejoin="round" stroke-width="2.64" d="M40.964 69.864h25.107a2.64 2.64 0 0 1 2.643 2.636v15.818a2.64 2.64 0 0 1-2.643 2.637H43.607a2.64 2.64 0 0 1-2.643-2.637V69.864zM104.393 90.955H81.929a2.64 2.64 0 0 1-2.643-2.637V72.5a2.64 2.64 0 0 1 2.643-2.636h25.107v18.454a2.64 2.64 0 0 1-2.643 2.637z"/>
        <path stroke="#000" stroke-linecap="round" stroke-linejoin="round" stroke-width="2.64" d="M34.357 69.864h6.607M68.714 72.5h10.572"/>
        <ellipse cx="56.821" cy="80.409" fill="#2C3E50" fill-rule="nonzero" stroke="#000" stroke-linecap="round" stroke-linejoin="round" stroke-width="2.64" rx="2.643" ry="2.636"/>
        <ellipse cx="91.179" cy="80.409" fill="#2C3E50" fill-rule="nonzero" stroke="#000" stroke-linecap="round" stroke-linejoin="round" stroke-width="2.64" rx="2.643" ry="2.636"/>
        <path stroke="#000" stroke-linecap="round" stroke-linejoin="round" stroke-width="2.64" d="M80.475 94.91A6.603 6.603 0 0 1 74 100.187a6.603 6.603 0 0 1-6.475-5.279M63.429 105.046l.607.409a19.864 19.864 0 0 0 19.94 0l.609-.37M71.357 114.51c1.754.233 3.532.233 5.286 0M107.036 69.864h6.607"/>
    </g>
</svg>
