<svg xmlns="http://www.w3.org/2000/svg" width="47" height="60" viewBox="0 0 47 60">
    <g fill="none" fill-rule="evenodd" transform="translate(-1 1)">
        <path fill="#FFE2AE" fill-rule="nonzero" d="M30.188 42.131v4.344l-.035.07-1.715 6.445.437.582c-.945.72-3.006 1.155-4.292 1.155h-.153c-1.286 0-3.347-.434-4.292-1.155l.424-.582-1.706-6.433-.044-.082V42.13h11.375z"/>
        <path fill="#EDC283" fill-rule="nonzero" d="M30.188 45.606c-3.792 2.317-7.584 2.317-11.375 0v-3.475h11.375v3.475z"/>
        <path stroke="#000" stroke-linecap="round" stroke-linejoin="round" stroke-width=".871" d="M18.813 41.697v4.343l.043.083 1.706 6.433-.437.582c.958.72 3.019 1.155 4.305 1.155h.14c1.286 0 3.347-.434 4.292-1.155l-.424-.582 1.715-6.446.035-.07v-4.343H18.813z"/>
        <path fill="#00C27E" fill-rule="nonzero" d="M48.278 64.096L49 66.455l-10.063 3.474V86H10.064V69.93L0 66.454l.722-2.359 2.424-7.94a11.039 11.039 0 0 1 7-7.153l8.666-2.963 1.75 5.213 3.938 2.171 3.938-2.171 1.75-5.213 8.675 2.963a11.039 11.039 0 0 1 7 7.153l2.415 7.94z"/>
        <path fill="#00A66C" fill-rule="nonzero" d="M31.076 56.26l-5.207-3.144 2.258-1.155zM21.438 51.96l-3.444 4.418 5.705-3.262zM47.688 66.455l-.722-2.359-2.424-7.94a11.039 11.039 0 0 0-7-7.153l-7.499-2.559.145-.404 8.675 2.963a11.039 11.039 0 0 1 7 7.153l2.424 7.94.713 2.359h-1.313z"/>
        <path fill="#00DE90" fill-rule="nonzero" d="M2.034 64.096l2.424-7.94a11.039 11.039 0 0 1 7-7.153l7.499-2.559-.145-.404-8.675 2.963a11.039 11.039 0 0 0-7 7.153l-2.424 7.94L0 66.455l1.313.434v-.434l.721-2.359z"/>
        <path stroke="#000" stroke-linecap="round" stroke-linejoin="round" stroke-width=".871" d="M48.278 64.096l-2.424-7.94a11.039 11.039 0 0 0-7-7.153l-8.666-2.963-1.75 5.213-3.938 2.171-3.938-2.171-1.75-5.213-8.675 2.963a11.039 11.039 0 0 0-7 7.153l-2.424 7.94L0 66.455l10.063 3.474V86h28.874V69.93L49 66.454l-.722-2.359z"/>
        <path fill="#3F635C" fill-rule="nonzero" stroke="#000" stroke-linecap="round" stroke-linejoin="round" stroke-width=".871" d="M30.188 46.11h-.035L26.25 52.12l4.813 3.91 1.75-9.517a19.001 19.001 0 0 0-2.626-.404z"/>
        <path fill="#00C27E" fill-rule="nonzero" stroke="#000" stroke-linecap="round" stroke-linejoin="round" stroke-width=".871" d="M30.188 46.11h-.035L26.25 52.12l4.813 3.91 1.75-9.517a19.001 19.001 0 0 0-2.626-.404z"/>
        <path stroke="#000" stroke-linecap="round" stroke-linejoin="round" stroke-width=".871" d="M31.001 49.08l-.717 3.91"/>
        <path fill="#00C27E" fill-rule="nonzero" stroke="#000" stroke-linecap="round" stroke-linejoin="round" stroke-width=".871" d="M18.856 46.123h-.044a19.18 19.18 0 0 0-2.625.434l1.75 9.473 4.813-3.909-3.894-5.998z"/>
        <path fill="#FFE2AE" fill-rule="nonzero" d="M37.625 10.859v19.98c0 7.196-5.876 13.03-13.125 13.03s-13.125-5.834-13.125-13.03v-19.98L24.5 2.28l13.125 8.579z"/>
        <path fill="#FFEBCF" fill-rule="nonzero" d="M12.688 30.838v-19.98L25.155 2.71l-.656-.434-13.125 8.583v19.98c0 7.196 5.876 13.03 13.125 13.03h.656c-6.991-.348-12.477-6.081-12.468-13.03z"/>
        <path fill="#EDC283" fill-rule="nonzero" d="M24.5 2.28l-.656.435 12.468 8.144v19.98c.01 6.949-5.477 12.682-12.468 13.03h.656c7.249 0 13.125-5.834 13.125-13.03v-19.98L24.5 2.28z"/>
        <path stroke="#000" stroke-linecap="round" stroke-linejoin="round" stroke-width=".871" d="M24.5 43.869c-7.249 0-13.125-5.834-13.125-13.03v-19.98L24.5 2.28l13.125 8.579v19.98c0 7.196-5.876 13.03-13.125 13.03z"/>
        <path fill="#54484A" fill-rule="nonzero" d="M41.431 17.808c0 .291.03.582 0 .869a13.087 13.087 0 0 1-3.806 8.435v-7.888a6.265 6.265 0 0 0-1.75-4.309 20.455 20.455 0 0 0 4.506-2.24 12.95 12.95 0 0 1 1.05 5.133z"/>
        <path fill="#645456" fill-rule="nonzero" d="M26.031 0A17.31 17.31 0 0 0 12.11 6.993c-.513.69-.973 1.415-1.378 2.172a12.933 12.933 0 0 0-3.294 8.643c0 .291 0 .582.03.869a12.946 12.946 0 0 0 3.907 8.435v-7.888a6.192 6.192 0 0 1 4.17-5.911 5.595 5.595 0 0 1 3.062-.126c.54.123 1.06.322 1.544.59a16.645 16.645 0 0 0 3.995 1.694 20.594 20.594 0 0 0 11.729-.556 20.455 20.455 0 0 0 6.392-3.652C39.772 4.498 33.287 0 26.03 0z"/>
        <path fill="#54484A" fill-rule="nonzero" d="M26.031 0c-.284 0-.569 0-.853.026 6.918.358 12.954 4.78 15.339 11.237a20.455 20.455 0 0 1-8.772 4.33 20.797 20.797 0 0 1-3.5.434c.276 0 .556.026.836.026a20.666 20.666 0 0 0 4.4-.477c.811-.173 1.61-.393 2.394-.66a20.455 20.455 0 0 0 6.392-3.653C39.772 4.498 33.287 0 26.03 0z"/>
        <path fill="#6D6163" fill-rule="nonzero" d="M9.218 19.111c0-.287-.03-.578-.03-.869a12.933 12.933 0 0 1 3.294-8.63c.405-.757.865-1.483 1.378-2.172C17.818 2.092 24.526-.512 31.089.751c-7.02-2.13-14.63.372-18.979 6.242-.513.69-.973 1.415-1.378 2.172a12.933 12.933 0 0 0-3.294 8.643c0 .291 0 .582.03.869a12.946 12.946 0 0 0 3.907 8.435v-1.673a12.89 12.89 0 0 1-2.157-6.328z"/>
        <path fill="#6D6163" fill-rule="nonzero" d="M21.906 14.212a5.915 5.915 0 0 0-1.545-.591 6.219 6.219 0 0 0-.805-.13c.205.084.406.18.6.286a16.645 16.645 0 0 0 3.994 1.694c.328.083.665.152 1.002.217a18.619 18.619 0 0 1-3.246-1.476z"/>
        <path stroke="#000" stroke-linecap="round" stroke-linejoin="round" stroke-width=".871" d="M35.875 14.915a6.265 6.265 0 0 1 1.75 4.309v7.888a13.087 13.087 0 0 0 3.82-8.435v-.869a12.95 12.95 0 0 0-1.05-5.134"/>
        <path stroke="#000" stroke-linecap="round" stroke-linejoin="round" stroke-width=".871" d="M40.381 12.674a20.629 20.629 0 0 0 1.886-1.411C40.078 5.326 34.779 1.065 28.475.173 22.17-.72 15.883 1.9 12.11 6.992c-.513.69-.973 1.415-1.378 2.172a12.933 12.933 0 0 0-3.294 8.643c0 .291 0 .582.03.869a12.946 12.946 0 0 0 3.907 8.435v-7.888a6.192 6.192 0 0 1 4.17-5.911 5.595 5.595 0 0 1 3.062-.126c.54.123 1.06.322 1.544.59a16.645 16.645 0 0 0 3.995 1.694 20.594 20.594 0 0 0 11.729-.556 20.455 20.455 0 0 0 4.506-2.24z"/>
        <path fill="#EDC283" fill-rule="nonzero" d="M14 23.889h8.313c.483 0 .875.389.875.869v4.777c0 .72-.588 1.303-1.313 1.303h-7A.872.872 0 0 1 14 29.97v-6.081zM34.563 30.838h-7a.872.872 0 0 1-.875-.868v-5.212c0-.48.391-.87.875-.87h8.312v5.647c0 .72-.588 1.303-1.312 1.303z"/>
        <path fill="#FFE2AE" fill-rule="nonzero" d="M37.625 23.507c2.255.326 3.926 2.246 3.926 4.508s-1.671 4.182-3.926 4.509v-9.017z"/>
        <path fill="#EDC283" fill-rule="nonzero" d="M37.625 23.507v.382a4.546 4.546 0 0 1 2.655 4.126 4.546 4.546 0 0 1-2.655 4.126v.396c2.276-.306 3.973-2.235 3.973-4.515s-1.697-4.21-3.973-4.515z"/>
        <path fill="#FFE2AE" fill-rule="nonzero" d="M11.375 23.507v9.017c-2.255-.327-3.926-2.247-3.926-4.509 0-2.262 1.671-4.182 3.926-4.508z"/>
        <path fill="#FFEBCF" fill-rule="nonzero" d="M8.75 28.015a4.545 4.545 0 0 1 2.625-4.126v-.382c-2.255.326-3.926 2.246-3.926 4.508s1.671 4.182 3.926 4.509v-.383a4.545 4.545 0 0 1-2.625-4.126z"/>
        <path stroke="#000" stroke-linecap="round" stroke-linejoin="round" stroke-width=".871" d="M37.625 23.507v9.017c2.255-.327 3.926-2.247 3.926-4.509 0-2.262-1.671-4.182-3.926-4.508zM11.375 23.507v9.017c-2.255-.327-3.926-2.247-3.926-4.509 0-2.262 1.671-4.182 3.926-4.508zM20.781 20.64a4.843 4.843 0 0 0-4.812-.043M28.219 20.64a4.843 4.843 0 0 1 4.812-.043"/>
        <path fill="#FFF" fill-rule="nonzero" stroke="#000" stroke-linecap="round" stroke-linejoin="round" stroke-width=".871" d="M13.563 23.02h8.312c.483 0 .875.39.875.869V29.1c0 .48-.392.869-.875.869h-7.438a.872.872 0 0 1-.874-.869v-6.08zM34.563 29.97h-7.438a.872.872 0 0 1-.875-.869v-5.212c0-.48.392-.869.875-.869h8.313v6.081c0 .48-.392.869-.876.869z"/>
        <ellipse cx="18.813" cy="26.495" fill="#2C3E50" fill-rule="nonzero" stroke="#000" stroke-linecap="round" stroke-linejoin="round" stroke-width=".871" rx="1" ry="1"/>
        <ellipse cx="30.188" cy="26.495" fill="#2C3E50" fill-rule="nonzero" stroke="#000" stroke-linecap="round" stroke-linejoin="round" stroke-width=".871" rx="1" ry="1"/>
        <path stroke="#000" stroke-linecap="round" stroke-linejoin="round" stroke-width=".871" d="M26.644 31.273a2.184 2.184 0 0 1-2.144 1.74 2.184 2.184 0 0 1-2.144-1.74M21 34.613l.201.134a6.604 6.604 0 0 0 6.602 0l.201-.121"/>
    </g>
</svg>
