<svg width="25" height="25" viewBox="0 0 25 25" fill="none" xmlns="http://www.w3.org/2000/svg">
<g clip-path="url(#clip0_1468_16)">
<path d="M17.627 11.223H13.6918C13.4221 11.223 13.2035 11.4416 13.2035 11.7113C13.2035 11.981 13.4221 12.1996 13.6918 12.1996H17.627C17.8967 12.1996 18.1153 11.981 18.1153 11.7113C18.1153 11.4416 17.8967 11.223 17.627 11.223Z" fill="white"/>
<path d="M17.6269 13.1761H12.7866C12.5169 13.1761 12.2983 13.3947 12.2983 13.6644C12.2983 13.9341 12.5169 14.1527 12.7866 14.1527H17.6269C17.8966 14.1527 18.1152 13.9341 18.1152 13.6644C18.1152 13.3947 17.8966 13.1761 17.6269 13.1761Z" fill="white"/>
<path d="M24.3242 14.1338C23.5678 13.4581 22.4188 13.4489 21.6516 14.1127L20.2148 15.3559V5.92613C20.2148 5.02777 19.4839 4.29688 18.5856 4.29688H6.4144C5.51604 4.29688 4.78514 5.02777 4.78514 5.92613V16.8709C4.72831 16.913 4.67223 16.9558 4.61692 17L0.184047 20.5328C-0.0269056 20.7008 -0.0616194 21.0081 0.106418 21.2191C0.20293 21.34 0.345027 21.4029 0.488651 21.4029C0.595272 21.4029 0.702655 21.3682 0.792682 21.2965L5.22555 17.7637C6.16568 17.0143 7.34557 16.6018 8.54758 16.6018H13.6873C14.2797 16.6018 14.7615 17.0835 14.7615 17.676C14.7615 18.2682 14.2797 18.7502 13.6873 18.7502H10.3922C10.1227 18.7502 9.9039 18.9688 9.9039 19.2385C9.9039 19.508 10.1227 19.7268 10.3922 19.7268H13.6873C13.7207 19.7268 13.7539 19.7258 13.7869 19.7243C13.8033 19.7258 13.8199 19.7268 13.8368 19.7268H14.686C15.9561 19.7268 17.1844 19.269 18.145 18.438L22.2906 14.8512C22.6877 14.5077 23.2822 14.5124 23.6738 14.8623C23.8989 15.0633 24.023 15.3404 24.0234 15.6424C24.0238 15.9443 23.9 16.2216 23.6751 16.4232L19.7311 19.9596C18.2131 21.3207 16.2544 22.0703 14.2155 22.0703H7.53802C7.40794 22.0703 7.28339 22.1222 7.19165 22.2143L5.25073 24.1674C5.06057 24.3587 5.06152 24.6679 5.25283 24.8581C5.34819 24.9527 5.47255 25 5.5971 25C5.72261 25 5.84811 24.9519 5.94348 24.8558L7.74115 23.0469H14.2156C16.4953 23.0469 18.6857 22.2086 20.3831 20.6867L24.3271 17.1505C24.7553 16.7665 25.0006 16.2165 25 15.6416C24.9994 15.0665 24.7532 14.517 24.3242 14.1338ZM14.2938 5.27344V7.56149L13.9862 7.25384C13.7956 7.06329 13.4865 7.06329 13.2957 7.25384L12.5 8.04958L11.7042 7.25384C11.6089 7.15866 11.4839 7.11079 11.359 7.11079C11.2341 7.11079 11.109 7.15866 11.0138 7.25384L10.7061 7.56149V5.27344H14.2938ZM17.5058 17.6996C16.9247 18.2024 16.2229 18.5371 15.4766 18.6766C15.6429 18.3804 15.7381 18.0391 15.7381 17.676C15.7381 16.5451 14.8182 15.6252 13.6873 15.6252H8.54758C7.57979 15.6252 6.62421 15.8516 5.76171 16.2752V5.92613C5.76171 5.56622 6.05448 5.27344 6.4144 5.27344H9.72956V8.74023C9.72956 8.93784 9.84858 9.11579 10.0311 9.19132C10.2133 9.26685 10.4235 9.22527 10.5631 9.08546L11.359 8.28972L12.1548 9.08546C12.3455 9.2762 12.6545 9.2762 12.8452 9.08546L13.641 8.28972L14.4369 9.08546C14.5302 9.17892 14.6551 9.22852 14.7821 9.22852C14.8451 9.22852 14.9086 9.21631 14.9689 9.19132C15.1514 9.11579 15.2704 8.93784 15.2704 8.74023V5.27344H18.5856C18.9455 5.27344 19.2383 5.56622 19.2383 5.92613V16.2008L17.5058 17.6996Z" fill="white"/>
<path d="M12.5 3.17383C12.7697 3.17383 12.9883 2.95525 12.9883 2.68555V0.488281C12.9883 0.218582 12.7697 0 12.5 0C12.2303 0 12.0117 0.218582 12.0117 0.488281V2.68555C12.0117 2.95525 12.2303 3.17383 12.5 3.17383Z" fill="white"/>
<path d="M21.3379 12.0117C21.3379 12.2814 21.5565 12.5 21.8262 12.5H24.0234C24.2931 12.5 24.5117 12.2814 24.5117 12.0117C24.5117 11.742 24.2931 11.5234 24.0234 11.5234H21.8262C21.5565 11.5234 21.3379 11.742 21.3379 12.0117Z" fill="white"/>
<path d="M0.976562 12.5H3.17383C3.44353 12.5 3.66211 12.2814 3.66211 12.0117C3.66211 11.742 3.44353 11.5234 3.17383 11.5234H0.976562C0.707054 11.5234 0.488281 11.742 0.488281 12.0117C0.488281 12.2814 0.706863 12.5 0.976562 12.5Z" fill="white"/>
<path d="M4.01122 4.21351C4.10658 4.30869 4.23152 4.35656 4.35664 4.35656C4.48157 4.35656 4.6065 4.30869 4.70187 4.21351C4.89241 4.02278 4.89241 3.71359 4.70187 3.52286L2.78327 1.60426C2.59253 1.41371 2.28354 1.41371 2.09262 1.60426C1.90207 1.79499 1.90207 2.10417 2.09262 2.29491L4.01122 4.21351Z" fill="white"/>
<path d="M20.6434 4.35656C20.7685 4.35656 20.8935 4.30869 20.9888 4.21351L22.9074 2.29491C23.098 2.10417 23.098 1.79499 22.9074 1.60426C22.7167 1.41371 22.4075 1.41371 22.2168 1.60426L20.2982 3.52286C20.1076 3.71359 20.1076 4.02278 20.2982 4.21351C20.3935 4.30869 20.5185 4.35656 20.6434 4.35656Z" fill="white"/>
</g>
<defs>
<clipPath id="clip0_1468_16">
<rect width="25" height="25" fill="white"/>
</clipPath>
</defs>
</svg>
