<svg width="16" height="17" viewBox="0 0 16 17" fill="none" xmlns="http://www.w3.org/2000/svg">
<path fill-rule="evenodd" clip-rule="evenodd" d="M6.25184 1.234C6.01284 1.09564 5.70694 1.17721 5.5686 1.41619L3.7832 4.50004H2.71448C1.58422 4.50004 0.667969 5.39547 0.667969 6.50004C0.667969 7.49511 1.41154 8.32044 2.38529 8.47431L3.03674 14.207C3.14202 15.1335 3.9259 15.8334 4.85834 15.8334H11.1442C12.0766 15.8334 12.8605 15.1335 12.9658 14.207L13.6173 8.47431C14.591 8.32044 15.3346 7.49511 15.3346 6.50004C15.3346 5.39547 14.4184 4.50004 13.2881 4.50004H12.2194L10.434 1.41619C10.2957 1.17721 9.98977 1.09564 9.75077 1.234C9.5118 1.37235 9.43024 1.67825 9.5686 1.91723L11.0639 4.50004H4.9387L6.434 1.91723C6.57237 1.67825 6.4908 1.37235 6.25184 1.234ZM7.0013 10.6667C7.0013 10.3906 6.77744 10.1667 6.5013 10.1667C6.22517 10.1667 6.0013 10.3906 6.0013 10.6667V12.3334C6.0013 12.6095 6.22517 12.8334 6.5013 12.8334C6.77744 12.8334 7.0013 12.6095 7.0013 12.3334V10.6667ZM10.0013 10.6667C10.0013 10.3906 9.77744 10.1667 9.5013 10.1667C9.22517 10.1667 9.0013 10.3906 9.0013 10.6667V12.3334C9.0013 12.6095 9.22517 12.8334 9.5013 12.8334C9.77744 12.8334 10.0013 12.6095 10.0013 12.3334V10.6667Z" fill="#02CA95"/>
</svg>
