<svg width="16" height="16" viewBox="0 0 16 16" fill="none" xmlns="http://www.w3.org/2000/svg">
<path d="M8 0C3.58125 0 0 3.58125 0 8C0 12.4187 3.58125 16 8 16C12.4187 16 16 12.4187 16 8C16 3.58125 12.4187 0 8 0ZM8 12.5C7.4375 12.5 7 12.0625 7 11.5C7 10.9375 7.40938 10.5 8 10.5C8.53438 10.5 9 10.9375 9 11.5C9 12.0625 8.53438 12.5 8 12.5ZM10.1594 8.0625L8.75 8.9375V9C8.75 9.40625 8.40625 9.75 8 9.75C7.59375 9.75 7.25 9.40625 7.25 9V8.5C7.25 8.25 7.375 8 7.625 7.84375L9.40625 6.78125C9.625 6.65625 9.75 6.4375 9.75 6.1875C9.75 5.8125 9.40938 5.5 9.03438 5.5H7.4375C7.03438 5.5 6.75 5.8125 6.75 6.1875C6.75 6.59375 6.40625 6.9375 6 6.9375C5.59375 6.9375 5.25 6.59375 5.25 6.1875C5.25 4.96875 6.21875 4 7.40938 4H9.00625C10.2812 4 11.25 4.96875 11.25 6.1875C11.25 6.9375 10.8438 7.65625 10.1594 8.0625Z" fill="#9AB6A7"/>
</svg>
