<svg width="92" height="73" viewBox="0 0 92 73" fill="none" xmlns="http://www.w3.org/2000/svg">
<path d="M22.5036 34.5685C19.2185 34.5797 15.9917 35.4433 13.1335 37.0762C17.1575 26.5731 23.8316 17.3115 32.4954 10.2082C32.9911 9.79651 33.4015 9.29044 33.7032 8.71885C34.005 8.14726 34.1921 7.52133 34.254 6.87681C34.3158 6.23229 34.2512 5.58179 34.0637 4.96246C33.8763 4.34313 33.5697 3.76709 33.1615 3.26724C32.7533 2.76739 32.2514 2.35351 31.6846 2.04923C31.1177 1.74496 30.497 1.55625 29.8578 1.49388C29.2187 1.4315 28.5736 1.49669 27.9594 1.68571C27.3452 1.87474 26.7739 2.18389 26.2782 2.59554C8.51504 17.1491 0.610413 37.3001 0.610413 49.7938C0.641019 54.2113 1.94652 58.5242 4.36751 62.206C6.7885 65.8878 10.2202 68.7791 14.2437 70.5269C16.8476 71.7989 19.6991 72.4719 22.5924 72.4973C25.139 72.6221 27.6842 72.2241 30.0738 71.3273C32.4633 70.4306 34.6473 69.0539 36.4934 67.2806C38.3395 65.5073 39.8093 63.3744 40.8135 61.0113C41.8177 58.6481 42.3355 56.1039 42.3355 53.5329C42.3355 50.9619 41.8177 48.4177 40.8135 46.0545C39.8093 43.6914 38.3395 41.5585 36.4934 39.7852C34.6473 38.0119 32.4633 36.6352 30.0738 35.7384C27.6842 34.8417 25.139 34.4437 22.5924 34.5685H22.5036Z" fill="url(#paint0_linear_130_105)"/>
<path d="M71.9747 34.5697C68.6891 34.5769 65.4613 35.4407 62.6046 37.0774C66.627 26.5852 73.2836 17.3268 81.9221 10.2093C82.4628 9.81633 82.918 9.31591 83.2597 8.73887C83.6014 8.16183 83.8224 7.52038 83.9091 6.85399C83.9958 6.1876 83.9463 5.51037 83.7637 4.86398C83.5811 4.2176 83.2693 3.61573 82.8474 3.09542C82.4255 2.57511 81.9025 2.14736 81.3105 1.83851C80.7185 1.52965 80.0702 1.34623 79.4053 1.29951C78.7404 1.2528 78.073 1.34378 77.4443 1.56687C76.8155 1.78996 76.2388 2.14043 75.7494 2.59672C57.9862 17.1502 50.0815 37.3013 50.0815 49.7949C50.1026 54.1624 51.37 58.4315 53.7324 62.0922C56.0949 65.7528 59.4524 68.6503 63.4039 70.4386C66.0738 71.7478 69.0059 72.4218 71.9747 72.4089C74.5213 72.5337 77.0666 72.1357 79.4561 71.239C81.8456 70.3423 84.0296 68.9655 85.8757 67.1922C87.7218 65.4189 89.1916 63.286 90.1958 60.9229C91.2 58.5597 91.7178 56.0155 91.7178 53.4445C91.7178 50.8735 91.2 48.3293 90.1958 45.9661C89.1916 43.603 87.7218 41.4701 85.8757 39.6968C84.0296 37.9235 81.8456 36.5468 79.4561 35.6501C77.0666 34.7533 74.5213 34.3553 71.9747 34.4801V34.5697Z" fill="url(#paint1_linear_130_105)"/>
<defs>
<linearGradient id="paint0_linear_130_105" x1="21.473" y1="1.47095" x2="21.473" y2="72.5197" gradientUnits="userSpaceOnUse">
<stop stop-color="#BED3CB" stop-opacity="0.67"/>
<stop offset="1" stop-color="#BED3CB" stop-opacity="0"/>
</linearGradient>
<linearGradient id="paint1_linear_130_105" x1="70.8997" y1="1.2876" x2="70.8997" y2="72.4313" gradientUnits="userSpaceOnUse">
<stop stop-color="#BED3CB" stop-opacity="0.67"/>
<stop offset="1" stop-color="#BED3CB" stop-opacity="0"/>
</linearGradient>
</defs>
</svg>
