<svg width="24" height="20" viewBox="0 0 24 20" fill="none" xmlns="http://www.w3.org/2000/svg">
<path d="M22.005 11.7703L23.9747 3.64527C24.1169 3.05863 23.6413 2.5 22.9996 2.5H6.63367L6.25175 0.749609C6.15658 0.31332 5.74708 0 5.27204 0H1C0.447708 0 0 0.419727 0 0.9375V1.5625C0 2.08027 0.447708 2.5 1 2.5H3.91179L6.83879 15.9154C6.13854 16.293 5.66667 17.0009 5.66667 17.8125C5.66667 19.0206 6.71133 20 8 20C9.28867 20 10.3333 19.0206 10.3333 17.8125C10.3333 17.2002 10.0647 16.6471 9.63233 16.25H18.3676C17.9353 16.6471 17.6667 17.2002 17.6667 17.8125C17.6667 19.0206 18.7113 20 20 20C21.2887 20 22.3333 19.0206 22.3333 17.8125C22.3333 16.9464 21.7963 16.198 21.0175 15.8436L21.2474 14.8953C21.3896 14.3086 20.914 13.75 20.2723 13.75H9.08821L8.8155 12.5H21.0299C21.4968 12.5 21.9015 12.1971 22.005 11.7703Z" fill="#00C27E"/>
</svg>
