<svg width="16" height="17" viewBox="0 0 16 17" fill="none" xmlns="http://www.w3.org/2000/svg">
<path d="M1.33203 2.33337H2.83203L5.16536 12.1667H12.4987" stroke="white" stroke-linecap="round" stroke-linejoin="round"/>
<path d="M6.5 15.1667C7.05228 15.1667 7.5 14.7189 7.5 14.1667C7.5 13.6144 7.05228 13.1667 6.5 13.1667C5.94772 13.1667 5.5 13.6144 5.5 14.1667C5.5 14.7189 5.94772 15.1667 6.5 15.1667Z" fill="white"/>
<path d="M10.832 15.1667C11.3843 15.1667 11.832 14.719 11.832 14.1667C11.832 13.6144 11.3843 13.1667 10.832 13.1667C10.2797 13.1667 9.83203 13.6144 9.83203 14.1667C9.83203 14.719 10.2797 15.1667 10.832 15.1667Z" fill="white"/>
<path d="M3.5 4.5H14.5254C14.9943 4.5 15.3167 4.97127 15.1468 5.4083L13.332 10.075C13.2323 10.3312 12.9856 10.5 12.7106 10.5H4.83333L3.5 4.5Z" fill="white"/>
</svg>
