<svg width="9" height="10" viewBox="0 0 9 10" fill="none" xmlns="http://www.w3.org/2000/svg">
    <path opacity=".4" d="M8.739 1.78a.462.462 0 0 0 0-.663L8.284.674a.482.482 0 0 0-.34-.137.493.493 0 0 0-.34.137L4.5 3.682 1.396.674a.482.482 0 0 0-.34-.137.493.493 0 0 0-.34.137l-.455.443a.462.462 0 0 0 0 .663L4.16 5.576a.482.482 0 0 0 .34.137.492.492 0 0 0 .34-.137l3.9-3.796z" fill="#5BC799"/>
    <path d="M8.739 5.53a.462.462 0 0 0 0-.663l-.455-.443a.482.482 0 0 0-.34-.137.493.493 0 0 0-.34.137L4.5 7.432 1.396 4.424a.482.482 0 0 0-.34-.137.493.493 0 0 0-.34.137l-.455.443a.462.462 0 0 0 0 .663L4.16 9.326a.482.482 0 0 0 .34.137.492.492 0 0 0 .34-.137l3.9-3.796z" fill="#5BC799"/>
</svg>
