<svg width="40" height="40" viewBox="0 0 40 40" fill="none" xmlns="http://www.w3.org/2000/svg">
<path d="M23.8025 22.9785C24.0367 23.2121 24.0367 23.5911 23.8025 23.8248C23.5683 24.0584 23.1882 24.0584 22.954 23.8248L20 20.8565L17.025 23.8238C16.7908 24.0574 16.4107 24.0574 16.1765 23.8238C15.9422 23.5902 15.9423 23.2111 16.1765 22.9775L19.1525 20.0112L16.1757 17.0215C15.9414 16.7879 15.9414 16.4089 16.1757 16.1752C16.4099 15.9416 16.7899 15.9416 17.0242 16.1752L20 19.1659L22.975 16.1987C23.2092 15.965 23.5892 15.965 23.8235 16.1987C24.0577 16.4323 24.0577 16.8113 23.8235 17.045L20.8475 20.0112L23.8025 22.9785Z" fill="#8A8A8A"/>
<rect x="0.5" y="0.5" width="38.9992" height="39" rx="19.4996" stroke="#E0E0E0"/>
</svg>
