<svg width="16" height="16" viewBox="0 0 16 16" fill="none" xmlns="http://www.w3.org/2000/svg">
<path d="M8 0C3.58192 0 0 3.58192 0 8C0 12.4181 3.58192 16 8 16C12.4181 16 16 12.4181 16 8C16 3.58192 12.4181 0 8 0ZM11.6923 9.23077H8C7.83679 9.23077 7.68026 9.16594 7.56486 9.05053C7.44945 8.93512 7.38462 8.77859 7.38462 8.61539V3.07692C7.38462 2.91371 7.44945 2.75719 7.56486 2.64178C7.68026 2.52637 7.83679 2.46154 8 2.46154C8.16321 2.46154 8.31974 2.52637 8.43514 2.64178C8.55055 2.75719 8.61539 2.91371 8.61539 3.07692V8H11.6923C11.8555 8 12.012 8.06483 12.1275 8.18024C12.2429 8.29565 12.3077 8.45218 12.3077 8.61539C12.3077 8.77859 12.2429 8.93512 12.1275 9.05053C12.012 9.16594 11.8555 9.23077 11.6923 9.23077Z" fill="#5BC58F"/>
</svg>
