<svg width="12" height="14" viewBox="0 0 12 14" fill="none" xmlns="http://www.w3.org/2000/svg">
<path d="M11.7037 11.6484C12.0551 12.0144 12.0551 12.6081 11.7037 12.9742C11.3524 13.3402 10.7824 13.3401 10.431 12.9742L5.99999 8.32415L1.53749 12.9726C1.18615 13.3386 0.616116 13.3386 0.264741 12.9726C-0.0866344 12.6066 -0.0865969 12.0128 0.264741 11.6468L4.72874 6.99994L0.263503 2.31634C-0.0878344 1.95037 -0.0878344 1.35658 0.263503 0.990562C0.614841 0.624546 1.18488 0.624585 1.53625 0.990562L5.99999 5.67572L10.4625 1.02728C10.8138 0.661304 11.3839 0.661304 11.7352 1.02728C12.0866 1.39326 12.0866 1.98705 11.7352 2.35306L7.27124 6.99994L11.7037 11.6484Z" fill="#161616"/>
</svg>
