<?xml version="1.0" encoding="UTF-8"?>
<svg width="309px" height="238px" viewBox="0 0 309 238" version="1.1" xmlns="http://www.w3.org/2000/svg" xmlns:xlink="http://www.w3.org/1999/xlink">
    <!-- Generator: Sketch 46.2 (44496) - http://www.bohemiancoding.com/sketch -->
    <title>Rectangle 4</title>
    <desc>Created with Sketch.</desc>
    <defs>
        <linearGradient x1="50%" y1="0%" x2="50%" y2="100%" id="linearGradient-1">
            <stop stop-color="#F2F5F4" offset="0%"></stop>
            <stop stop-color="#FFFFFF" offset="100%"></stop>
        </linearGradient>
    </defs>
    <g id="Page-1" stroke="none" stroke-width="1" fill="none" fill-rule="evenodd">
        <g id="content_form_v2" transform="translate(-1186.000000, -181.000000)" fill="url(#linearGradient-1)">
            <path d="M1289.95106,136.663323 L1457.37947,206.84772 L1457.37947,206.84772 C1480.29994,216.455762 1491.09179,242.82533 1481.48375,265.745799 C1479.86119,269.616488 1477.70512,273.241156 1475.07821,276.514419 L1362.07019,417.328008 L1362.07019,417.328008 C1346.5148,436.710792 1318.19182,439.81351 1298.80904,424.258123 C1291.2323,418.177512 1285.82682,409.808184 1283.40054,400.401057 L1228.98014,189.40307 L1228.98014,189.40307 C1222.77325,165.337807 1237.25033,140.797379 1261.31559,134.590489 C1270.83103,132.136275 1280.88827,132.864288 1289.95106,136.663323 Z" id="Rectangle-4" transform="translate(1356.268769, 283.664293) scale(1, -1) rotate(-74.000000) translate(-1356.268769, -283.664293) "></path>
        </g>
    </g>
</svg>