<svg xmlns="http://www.w3.org/2000/svg" width="64" height="64" viewBox="0 0 64 64">
    <g fill="none" fill-rule="nonzero">
        <path fill="#A67C52" d="M46.071 0a17.905 17.905 0 0 0-16.999 12.221 1.378 1.378 0 0 0 .87 1.746 1.368 1.368 0 0 0 1.404-.341L50.36 32.655a1.365 1.365 0 0 0-.345 1.4 1.379 1.379 0 0 0 1.743.874C59.08 32.504 64 25.671 64 17.925 64 8.041 55.957 0 46.071 0z"/>
        <circle cx="40" cy="14" r="4" fill="#87613E"/>
        <circle cx="53" cy="17" r="3" fill="#87613E"/>
        <path fill="#C19F85" d="M26.5 11C11.888 11 0 22.888 0 37.5S11.888 64 26.5 64 53 52.112 53 37.5 41.112 11 26.5 11z"/>
        <circle cx="19" cy="26" r="4" fill="#87613E"/>
        <circle cx="35" cy="31" r="3" fill="#DDC2B6"/>
        <circle cx="24" cy="49" r="3" fill="#DDC2B6"/>
        <circle cx="13" cy="39" r="3" fill="#87613E"/>
        <circle cx="37" cy="44" r="4" fill="#87613E"/>
    </g>
</svg>
