<svg width="24" height="19" viewBox="0 0 24 19" fill="none" xmlns="http://www.w3.org/2000/svg">
<path d="M21.5402 9.46208C23.7058 7.29646 23.7058 3.78931 21.5402 1.6237C19.6237 -0.292778 16.6034 -0.54192 14.3994 1.03342L14.3381 1.07558C13.7862 1.47038 13.6597 2.23697 14.0545 2.78508C14.4493 3.33319 15.2158 3.46351 15.764 3.06872L15.8253 3.02656C17.0557 2.14881 18.7383 2.2868 19.8039 3.35619C21.0113 4.56357 21.0113 6.51837 19.8039 7.72575L15.5033 12.034C14.2959 13.2414 12.3411 13.2414 11.1338 12.034C10.0644 10.9646 9.92638 9.28193 10.8041 8.05539L10.8463 7.99406C11.2411 7.44211 11.1108 6.67552 10.5626 6.28456C10.0145 5.8936 9.24412 6.02009 8.85316 6.5682L8.81099 6.62953C7.23182 8.82964 7.48096 11.85 9.39743 13.7665C11.5631 15.9321 15.0702 15.9321 17.2358 13.7665L21.5402 9.46208ZM1.62421 8.56517C-0.541404 10.7308 -0.541404 14.2379 1.62421 16.4035C3.54069 18.32 6.56105 18.5692 8.765 16.9938L8.82632 16.9517C9.37827 16.5569 9.50476 15.7903 9.10996 15.2422C8.71517 14.6941 7.94858 14.5637 7.40047 14.9585L7.33914 15.0007C6.10876 15.8784 4.4261 15.7404 3.36054 14.6711C2.15316 13.4598 2.15316 11.505 3.36054 10.2977L7.66111 5.99326C8.86849 4.78588 10.8233 4.78588 12.0307 5.99326C13.1001 7.06265 13.238 8.74532 12.3603 9.97569L12.3181 10.037C11.9233 10.589 12.0537 11.3556 12.6018 11.7465C13.1499 12.1375 13.9203 12.011 14.3113 11.4629L14.3534 11.4016C15.9326 9.1976 15.6835 6.17724 13.767 4.26077C11.6014 2.09515 8.09423 2.09515 5.92861 4.26077L1.62421 8.56517Z" fill="#272727"/>
</svg>
