<?xml version="1.0" encoding="UTF-8"?>
<svg width="16px" height="12px" viewBox="0 0 16 12" version="1.1" xmlns="http://www.w3.org/2000/svg" xmlns:xlink="http://www.w3.org/1999/xlink">
    <!-- Generator: Sketch 46.2 (44496) - http://www.bohemiancoding.com/sketch -->
    <title>credit-card-myAccount</title>
    <desc>Created with Sketch.</desc>
    <defs></defs>
    <g id="Page-1" stroke="none" stroke-width="1" fill="none" fill-rule="evenodd">
        <g id="credit-card-myAccount" fill-rule="nonzero" fill="#01CA9B">
            <path d="M16,3 L16,1 C16,0.4 15.6,0 15,0 L1,0 C0.4,0 0,0.4 0,1 L0,3 L16,3 Z M0,5 L0,11 C0,11.6 0.4,12 1,12 L15,12 C15.6,12 16,11.6 16,11 L16,5 L0,5 Z M6,9 L2,9 L2,8 L6,8 L6,9 Z M14,9 L12,9 L12,8 L14,8 L14,9 Z" id="Shape"></path>
        </g>
    </g>
</svg>