<svg xmlns="http://www.w3.org/2000/svg" width="32" height="31" viewBox="0 0 32 31">
    <g fill="#FFF" fill-rule="evenodd">
        <path d="M19 10H24V12H19zM19 29H24V31H19zM11 29H16V31H11zM30 18H32V23H30zM32 15h-2v-3h-3v-2h4c.553 0 1 .447 1 1v4zM31 31h-4v-2h3v-3h2v4c0 .553-.447 1-1 1zM8 31H4c-.553 0-1-.447-1-1v-4h2v3h3v2z"/>
        <path fill-rule="nonzero" d="M9 17.5c0-.728-.19-1.406-.499-2.016l2.575-2.208 5.625 5.625c1.939 1.939 4.948 2.31 7.299.899L13.733 11 24 2.2c-2.351-1.411-5.36-1.04-7.298.899l-5.625 5.625-2.575-2.208C8.81 5.906 9 5.228 9 4.5 9 2.019 6.981 0 4.5 0S0 2.019 0 4.5 2.019 9 4.5 9c.672 0 1.304-.158 1.877-.423L8.8 11l-2.423 2.423C5.804 13.158 5.172 13 4.5 13 2.019 13 0 15.019 0 17.5S2.019 22 4.5 22 9 19.981 9 17.5zm-7-13C2 3.122 3.121 2 4.5 2S7 3.122 7 4.5 5.879 7 4.5 7 2 5.878 2 4.5zM4.5 15C5.879 15 7 16.122 7 17.5S5.879 20 4.5 20 2 18.878 2 17.5 3.121 15 4.5 15z"/>
    </g>
</svg>
