<svg width="139" height="139" viewBox="0 0 139 139" fill="none" xmlns="http://www.w3.org/2000/svg">
<g filter="url(#filter0_b_130_438)">
<circle cx="69.5" cy="69.5" r="69.5" fill="#FCFCFC" fill-opacity="0.8"/>
<circle cx="69.5" cy="69.5" r="69" stroke="url(#paint0_linear_130_438)"/>
</g>
<path d="M34.7929 69.0468V72H20.9397V69.6643L28.4033 62.5765C29.2445 61.7711 29.8083 61.0731 30.0946 60.4824C30.3989 59.8739 30.5511 59.2743 30.5511 58.6837C30.5511 57.8066 30.2557 57.1355 29.6651 56.6701C29.0744 56.2047 28.2064 55.9721 27.0609 55.9721C25.1458 55.9721 23.6781 56.6254 22.6579 57.9319L20.2148 56.0526C20.9486 55.0682 21.933 54.3075 23.168 53.7706C24.4209 53.2157 25.8169 52.9383 27.3562 52.9383C29.3966 52.9383 31.0254 53.4216 32.2424 54.3881C33.4595 55.3546 34.0681 56.6701 34.0681 58.3346C34.0681 59.3548 33.8533 60.3124 33.4237 61.2073C32.9942 62.1022 32.1708 63.1224 30.9538 64.2679L25.9333 69.0468H34.7929ZM44.5682 72.2685C43.0647 72.2685 41.7223 71.8926 40.541 71.1409C39.3597 70.3713 38.429 69.2616 37.7489 67.8118C37.0688 66.3441 36.7287 64.608 36.7287 62.6034C36.7287 60.5988 37.0688 58.8716 37.7489 57.4218C38.429 55.9542 39.3597 54.8445 40.541 54.0927C41.7223 53.3231 43.0647 52.9383 44.5682 52.9383C46.0716 52.9383 47.414 53.3231 48.5953 54.0927C49.7945 54.8445 50.7341 55.9542 51.4143 57.4218C52.0944 58.8716 52.4345 60.5988 52.4345 62.6034C52.4345 64.608 52.0944 66.3441 51.4143 67.8118C50.7341 69.2616 49.7945 70.3713 48.5953 71.1409C47.414 71.8926 46.0716 72.2685 44.5682 72.2685ZM44.5682 69.2347C45.9105 69.2347 46.9665 68.6799 47.7362 67.5702C48.5237 66.4605 48.9174 64.8049 48.9174 62.6034C48.9174 60.4019 48.5237 58.7463 47.7362 57.6366C46.9665 56.5269 45.9105 55.9721 44.5682 55.9721C43.2437 55.9721 42.1877 56.5269 41.4002 57.6366C40.6305 58.7463 40.2457 60.4019 40.2457 62.6034C40.2457 64.8049 40.6305 66.4605 41.4002 67.5702C42.1877 68.6799 43.2437 69.2347 44.5682 69.2347ZM72.2538 72.2685C70.3565 72.2685 68.6383 71.8568 67.099 71.0335C65.5777 70.1923 64.3785 69.0378 63.5015 67.5702C62.6424 66.1025 62.2128 64.4469 62.2128 62.6034C62.2128 60.7599 62.6513 59.1043 63.5283 57.6366C64.4053 56.1689 65.6045 55.0235 67.1259 54.2001C68.6651 53.3589 70.3834 52.9383 72.2806 52.9383C73.8199 52.9383 75.2249 53.2068 76.4957 53.7437C77.7664 54.2807 78.8403 55.0593 79.7173 56.0795L77.4622 58.2004C76.1019 56.7327 74.4284 55.9989 72.4417 55.9989C71.153 55.9989 69.9986 56.2853 68.9784 56.858C67.9582 57.4129 67.1617 58.1915 66.5889 59.1938C66.0162 60.1961 65.7298 61.3326 65.7298 62.6034C65.7298 63.8742 66.0162 65.0107 66.5889 66.013C67.1617 67.0153 67.9582 67.8028 68.9784 68.3756C69.9986 68.9304 71.153 69.2079 72.4417 69.2079C74.4284 69.2079 76.1019 68.4651 77.4622 66.9795L79.7173 69.1273C78.8403 70.1475 77.7575 70.9261 76.4688 71.4631C75.198 72 73.793 72.2685 72.2538 72.2685ZM99.7607 53.2068V72H96.2705V63.9458H86.5517V72H83.0615V53.2068H86.5517V60.9657H96.2705V53.2068H99.7607ZM108.287 56.1332V61.8517H117.361V64.8049H108.287V72H104.796V53.2068H118.515V56.1332H108.287Z" fill="#00C27E"/>
<path d="M18.254 91H21.389C23.853 91 25.514 89.416 25.514 87.15C25.514 84.884 23.853 83.3 21.389 83.3H18.254V91ZM19.068 90.296V84.004H21.345C23.391 84.004 24.711 85.302 24.711 87.15C24.711 88.998 23.391 90.296 21.345 90.296H19.068ZM33.1169 91H33.9309V83.3H33.1169V91ZM44.3342 91.066C46.3032 91.066 47.2052 90.098 47.2052 88.965C47.2052 86.16 42.4642 87.436 42.4642 85.324C42.4642 84.554 43.0912 83.927 44.4992 83.927C45.1812 83.927 45.9512 84.136 46.6112 84.565L46.8862 83.916C46.2702 83.487 45.3682 83.234 44.4992 83.234C42.5412 83.234 41.6612 84.213 41.6612 85.346C41.6612 88.195 46.4022 86.897 46.4022 89.009C46.4022 89.768 45.7752 90.373 44.3342 90.373C43.3222 90.373 42.3432 89.977 41.7932 89.438L41.4742 90.065C42.0462 90.659 43.1792 91.066 44.3342 91.066ZM58.0978 91.066C59.2308 91.066 60.2428 90.681 60.9248 89.933L60.4078 89.416C59.7808 90.065 59.0108 90.34 58.1308 90.34C56.2718 90.34 54.8748 88.976 54.8748 87.15C54.8748 85.324 56.2718 83.96 58.1308 83.96C59.0108 83.96 59.7808 84.235 60.4078 84.873L60.9248 84.356C60.2428 83.608 59.2308 83.234 58.1088 83.234C55.7878 83.234 54.0718 84.895 54.0718 87.15C54.0718 89.405 55.7878 91.066 58.0978 91.066ZM71.6399 91.066C73.9499 91.066 75.6769 89.405 75.6769 87.15C75.6769 84.895 73.9499 83.234 71.6399 83.234C69.3079 83.234 67.5919 84.906 67.5919 87.15C67.5919 89.394 69.3079 91.066 71.6399 91.066ZM71.6399 90.34C69.7809 90.34 68.3949 88.987 68.3949 87.15C68.3949 85.313 69.7809 83.96 71.6399 83.96C73.4879 83.96 74.8629 85.313 74.8629 87.15C74.8629 88.987 73.4879 90.34 71.6399 90.34ZM86.3785 91.066C88.3475 91.066 89.5355 89.922 89.5355 87.711V83.3H88.7435V87.678C88.7435 89.504 87.8855 90.34 86.3785 90.34C84.8825 90.34 84.0245 89.504 84.0245 87.678V83.3H83.2105V87.711C83.2105 89.922 84.4095 91.066 86.3785 91.066ZM103.395 83.3V89.548L98.4344 83.3H97.7634V91H98.5774V84.752L103.527 91H104.198V83.3H103.395ZM113.983 91H114.797V84.004H117.503V83.3H111.277V84.004H113.983V91Z" fill="#00C27E"/>
<defs>
<filter id="filter0_b_130_438" x="-13" y="-13" width="165" height="165" filterUnits="userSpaceOnUse" color-interpolation-filters="sRGB">
<feFlood flood-opacity="0" result="BackgroundImageFix"/>
<feGaussianBlur in="BackgroundImage" stdDeviation="6.5"/>
<feComposite in2="SourceAlpha" operator="in" result="effect1_backgroundBlur_130_438"/>
<feBlend mode="normal" in="SourceGraphic" in2="effect1_backgroundBlur_130_438" result="shape"/>
</filter>
<linearGradient id="paint0_linear_130_438" x1="35" y1="34.5" x2="139" y2="42.5" gradientUnits="userSpaceOnUse">
<stop stop-color="#9ED1BE"/>
<stop offset="1" stop-color="#BED3CB" stop-opacity="0"/>
</linearGradient>
</defs>
</svg>
