<?xml version="1.0" encoding="UTF-8"?>
<svg width="233px" height="2px" viewBox="0 0 233 2" version="1.1" xmlns="http://www.w3.org/2000/svg" xmlns:xlink="http://www.w3.org/1999/xlink">
    <!-- Generator: Sketch 46.2 (44496) - http://www.bohemiancoding.com/sketch -->
    <title>dots</title>
    <desc>Created with Sketch.</desc>
    <defs></defs>
    <g id="Page-1" stroke="none" stroke-width="1" fill="none" fill-rule="evenodd">
        <g id="HomePage" transform="translate(-512.000000, -1267.000000)" fill="#D8D8D8">
            <g id="how-it-works" transform="translate(319.000000, 905.000000)">
                <g id="dots" transform="translate(193.000000, 362.000000)">
                    <circle id="Oval-6" cx="1" cy="1" r="1"></circle>
                    <circle id="Oval-6" cx="11" cy="1" r="1"></circle>
                    <circle id="Oval-6" cx="21" cy="1" r="1"></circle>
                    <circle id="Oval-6" cx="31" cy="1" r="1"></circle>
                    <circle id="Oval-6" cx="41" cy="1" r="1"></circle>
                    <circle id="Oval-6" cx="51" cy="1" r="1"></circle>
                    <circle id="Oval-6" cx="61" cy="1" r="1"></circle>
                    <circle id="Oval-6" cx="71" cy="1" r="1"></circle>
                    <circle id="Oval-6" cx="81" cy="1" r="1"></circle>
                    <circle id="Oval-6" cx="91" cy="1" r="1"></circle>
                    <circle id="Oval-6" cx="101" cy="1" r="1"></circle>
                    <circle id="Oval-6" cx="111" cy="1" r="1"></circle>
                    <circle id="Oval-6" cx="121" cy="1" r="1"></circle>
                    <circle id="Oval-6" cx="131" cy="1" r="1"></circle>
                    <circle id="Oval-6" cx="141" cy="1" r="1"></circle>
                    <circle id="Oval-6" cx="142" cy="1" r="1"></circle>
                    <circle id="Oval-6" cx="152" cy="1" r="1"></circle>
                    <circle id="Oval-6" cx="162" cy="1" r="1"></circle>
                    <circle id="Oval-6" cx="172" cy="1" r="1"></circle>
                    <circle id="Oval-6" cx="182" cy="1" r="1"></circle>
                    <circle id="Oval-6" cx="192" cy="1" r="1"></circle>
                    <circle id="Oval-6" cx="202" cy="1" r="1"></circle>
                    <circle id="Oval-6" cx="212" cy="1" r="1"></circle>
                    <circle id="Oval-6" cx="222" cy="1" r="1"></circle>
                    <circle id="Oval-6" cx="232" cy="1" r="1"></circle>
                </g>
            </g>
        </g>
    </g>
</svg>