<?xml version="1.0" encoding="UTF-8"?>
<svg width="48px" height="60px" viewBox="0 0 48 60" version="1.1" xmlns="http://www.w3.org/2000/svg" xmlns:xlink="http://www.w3.org/1999/xlink">
    <!-- Generator: Sketch 46.2 (44496) - http://www.bohemiancoding.com/sketch -->
    <title>estimate-icon</title>
    <desc>Created with Sketch.</desc>
    <defs></defs>
    <g id="Page-1" stroke="none" stroke-width="1" fill="none" fill-rule="evenodd" stroke-linejoin="round">
        <g id="HomePage" transform="translate(-395.000000, -1237.000000)" stroke="#02CA95" stroke-width="2">
            <g id="how-it-works" transform="translate(319.000000, 905.000000)">
                <g id="1" transform="translate(0.000000, 286.000000)">
                    <g id="estimate-icon" transform="translate(77.000000, 47.000000)">
                        <path d="M42.712,20 L28,20 L28,5.288 C28,5.182 28.129,5.128 28.204,5.203 L42.796,19.796 C42.871,19.872 42.818,20 42.712,20 L42.712,20 Z M43,20 L28,5 L5,5 L5,55 L43,55 L43,20 L43,20 Z" id="Stroke-179"></path>
                        <path d="M36.281,37.453 C36.281,43.433 31.433,48.281 25.453,48.281 C19.473,48.281 14.625,43.433 14.625,37.453 C14.625,31.473 19.473,26.625 25.453,26.625 C31.433,26.625 36.281,31.473 36.281,37.453 L36.281,37.453 Z M33.244,45.244 L46,58 L33.244,45.244 Z M19.625,34 L25.625,34 L19.625,34 Z M19.625,40 L31.625,40 L19.625,40 Z M5,5 L28,5 L38,15 L38,0 L0,0 L0,50 L5,50 L5,5 L5,5 Z" id="Stroke-180" stroke-linecap="round"></path>
                    </g>
                </g>
            </g>
        </g>
    </g>
</svg>