<svg width="80" height="80" viewBox="0 0 80 80" fill="none" xmlns="http://www.w3.org/2000/svg">
<path d="M79.6596 33.0903L71.2957 24.1213C71.1744 24 70.9331 23.8787 70.8118 23.8787L51.6596 16.3639C51.9021 16 52.0234 15.5148 51.7809 15.0297C51.5383 14.6671 51.1744 14.3032 50.6905 14.3032H46.0841V1.21161C46.0841 0.485161 45.5989 0 44.8712 0H34.9318C34.2054 0 33.7202 0.485161 33.7202 1.2129V14.3032H29.1138C28.6286 14.3032 28.266 14.5458 28.0234 15.031C27.7809 15.3935 27.9021 15.8787 28.1447 16.2439L10.2054 23.5135C10.0841 23.6348 9.96279 23.6348 9.8415 23.7561L0.387308 33.3329C0.144728 33.5755 0.0234375 34.0606 0.0234375 34.4245C0.144728 34.7884 0.387308 35.151 0.751179 35.2723L9.47763 38.7884V65.6968C9.47763 66.1819 9.72021 66.6671 10.2054 66.7884L39.2957 79.8787C39.417 79.8787 39.5383 80 39.7809 80C39.9021 80 40.0234 80 40.1447 79.8787L70.9318 67.151C71.417 66.9084 71.6596 66.5445 71.6596 66.0606V38.0606L79.1744 35.0297C79.5383 34.9084 79.7809 34.5458 79.9021 34.1819C80.0234 33.6968 80.0234 33.3329 79.6596 33.0903ZM35.0531 16.7277C35.7809 16.7277 36.266 16.2426 36.266 15.5148V2.42581H43.7809V15.5161C43.7809 16.2439 44.266 16.729 44.9938 16.729H48.266L40.0234 27.2735L31.7809 16.729H35.0531V16.7277ZM3.2957 33.8181L10.9318 26.0606L37.2351 36.8477L27.6596 43.8787C8.87247 36 13.9628 38.0606 3.2957 33.8181ZM38.5692 76.849L11.9021 64.849V39.7574L27.417 46.3032C27.7809 46.4245 28.266 46.4245 28.6299 46.1819L38.5692 38.9097V76.849ZM39.7809 35.2723L13.9615 24.7277L29.8415 18.1819L39.0544 30.0606C39.2957 30.3032 39.6609 30.5458 40.0221 30.5458C40.3873 30.5458 40.7512 30.4245 40.9925 30.0606L50.2054 18.3032L67.1744 24.9703L39.7809 35.2723ZM69.235 65.2129L40.8712 76.9716V39.0297L49.5989 46.1819C49.9628 46.4245 50.448 46.5458 50.8118 46.4245L69.235 39.031V65.2116V65.2129ZM50.5692 43.8787L42.0841 36.9703L70.2054 26.4245L76.7512 33.4542L50.5692 43.8787Z" fill="#02CA95"/>
</svg>
