<?xml version="1.0" encoding="UTF-8"?>
<svg width="57px" height="49px" viewBox="0 0 57 49" version="1.1" xmlns="http://www.w3.org/2000/svg" xmlns:xlink="http://www.w3.org/1999/xlink">
    <!-- Generator: Sketch 46.2 (44496) - http://www.bohemiancoding.com/sketch -->
    <title>get-icon</title>
    <desc>Created with Sketch.</desc>
    <defs></defs>
    <g id="Page-1" stroke="none" stroke-width="1" fill="none" fill-rule="evenodd" stroke-linecap="round">
        <g id="HomePage" transform="translate(-1156.000000, -1243.000000)" stroke-width="2" stroke="#02CA95">
            <g id="how-it-works" transform="translate(319.000000, 905.000000)">
                <g id="3" transform="translate(764.000000, 286.000000)">
                    <g id="get-icon" transform="translate(74.000000, 53.000000)">
                        <polygon id="Stroke-2" points="52 0 55 0 55 47 52 47"></polygon>
                        <path d="M30,15 L4.751,15 C2.127,15 0,17.127 0,19.751 L0,34 C0,31.8 1.8,30 4,30 L30,30 C33.314,30 36,27.314 36,24 L36,21 C36,17.686 33.314,15 30,15 L30,15 Z" id="Stroke-4"></path>
                        <path d="M7,30 L4,30 C1.8,30 0,31.8 0,34 C0,36.2 1.8,38 4,38 L7,38 L7,30 L7,30 Z" id="Stroke-6"></path>
                        <path d="M10,30 L7,30 L7,41.975 C14.707,41.768 21.224,36.851 23.803,30 L10,30 L10,30 Z" id="Stroke-8"></path>
                        <path d="M22.923,15 C19.914,9.21 13.936,5.211 7,5.025 L7,15 L22.923,15 L22.923,15 Z" id="Stroke-10"></path>
                        <path d="M29,15 L29,30" id="Stroke-12"></path>
                        <path d="M7,0 L7,15 L30,15 C33.314,15 36,17.686 36,21 L36,24 C36,27.314 33.314,30 30,30 L7,30 L7,47 L52,47 L52,0 L7,0 L7,0 Z" id="Stroke-14"></path>
                        <path d="M52,39 C47.582,39 44,42.582 44,47 L52,47 L52,39 L52,39 Z" id="Stroke-16"></path>
                        <path d="M44,0 C44,4.418 47.582,8 52,8 L52,0 L44,0 L44,0 Z" id="Stroke-18"></path>
                    </g>
                </g>
            </g>
        </g>
    </g>
</svg>