<svg width="20" height="20" viewBox="0 0 20 20" fill="none" xmlns="http://www.w3.org/2000/svg">
<path d="M7.44141 2.6875L8.80078 5H8.75H5.9375C5.07422 5 4.375 4.30078 4.375 3.4375C4.375 2.57422 5.07422 1.875 5.9375 1.875H6.02344C6.60547 1.875 7.14844 2.18359 7.44141 2.6875ZM2.5 3.4375C2.5 4 2.63672 4.53125 2.875 5H0V10H20V5H17.125C17.3633 4.53125 17.5 4 17.5 3.4375C17.5 1.53906 15.9609 0 14.0625 0H13.9766C12.7305 0 11.5742 0.660156 10.9414 1.73438L10 3.33984L9.05859 1.73828C8.42578 0.660156 7.26953 0 6.02344 0H5.9375C4.03906 0 2.5 1.53906 2.5 3.4375ZM15.625 3.4375C15.625 4.30078 14.9258 5 14.0625 5H11.25H11.1992L12.5586 2.6875C12.8555 2.18359 13.3945 1.875 13.9766 1.875H14.0625C14.9258 1.875 15.625 2.57422 15.625 3.4375ZM1.25 11.25V20H8.75V11.25H1.25ZM11.25 20H18.75V11.25H11.25V20Z" fill="#02CA95"/>
</svg>
