<svg width="16" height="17" viewBox="0 0 16 17" fill="none" xmlns="http://www.w3.org/2000/svg">
<g clip-path="url(#clip0_3854_1408)">
<path d="M15.9924 8.6497C15.9924 7.99419 15.938 7.51584 15.8202 7.01978H8.15942V9.97843H12.6561C12.5655 10.7137 12.0759 11.821 10.988 12.5651L10.9727 12.6641L13.3949 14.4976L13.5627 14.5139C15.1039 13.1232 15.9924 11.0769 15.9924 8.6497Z" fill="#4285F4"/>
<path d="M8.15942 16.445C10.3624 16.445 12.2119 15.7363 13.5627 14.5139L10.988 12.565C10.299 13.0345 9.37424 13.3623 8.15942 13.3623C6.00174 13.3623 4.17042 11.9716 3.51761 10.0493L3.42192 10.0573L0.903299 11.9618L0.870361 12.0513C2.21211 14.6556 4.96817 16.445 8.15942 16.445Z" fill="#34A853"/>
<path d="M3.51756 10.0494C3.34531 9.5533 3.24563 9.02176 3.24563 8.47257C3.24563 7.92332 3.34531 7.39184 3.5085 6.89577L3.50394 6.79013L0.95375 4.85498L0.870313 4.89376C0.317313 5.97449 0 7.18811 0 8.47257C0 9.75703 0.317313 10.9706 0.870313 12.0513L3.51756 10.0494Z" fill="#FBBC05"/>
<path d="M8.15942 3.58269C9.69155 3.58269 10.725 4.22934 11.3144 4.76974L13.6171 2.57286C12.2029 1.2884 10.3624 0.5 8.15942 0.5C4.96817 0.5 2.21211 2.28937 0.870361 4.89371L3.50855 6.89573C4.17042 4.97347 6.00174 3.58269 8.15942 3.58269Z" fill="#EB4335"/>
</g>
<defs>
<clipPath id="clip0_3854_1408">
<rect width="16" height="16" fill="white" transform="translate(0 0.5)"/>
</clipPath>
</defs>
</svg>
