<svg xmlns="http://www.w3.org/2000/svg" xmlns:xlink="http://www.w3.org/1999/xlink" width="58" height="91" viewBox="0 0 58 91">
    <defs>
        <path id="a" d="M0 0h82v101H0z"/>
    </defs>
    <g fill="none" fill-rule="evenodd" transform="translate(-9 -10)">
        <mask id="b" fill="#fff">
            <use xlink:href="#a"/>
        </mask>
        <g mask="url(#b)">
            <g transform="translate(10.209 11.186)">
                <path fill="#FFE2AE" fill-rule="nonzero" d="M34.084 47.868v4.935l-.04.079-1.936 7.323.494.661c-1.067.82-3.393 1.313-4.845 1.313h-.173c-1.453 0-3.78-.493-4.846-1.313l.479-.66-1.927-7.31-.049-.093v-4.935h12.843z"/>
                <path fill="#EDC283" fill-rule="nonzero" d="M34.084 51.816c-4.28 2.632-8.562 2.632-12.843 0v-3.948h12.843v3.948z"/>
                <path stroke="#000" stroke-linecap="round" stroke-linejoin="round" stroke-width=".99" d="M21.241 47.375v4.934l.05.094 1.926 7.309-.494.661c1.082.82 3.408 1.313 4.86 1.313h.159c1.452 0 3.779-.494 4.846-1.313l-.48-.661 1.937-7.324.04-.079v-4.934H21.24z"/>
                <path fill="#FFE2AE" fill-rule="nonzero" d="M11.361 97.71H2.47v-22.7l8.891 3.454z"/>
                <path fill="#FFEBCF" fill-rule="nonzero" d="M2.47 75.01v22.7h1.482V75.503z"/>
                <path stroke="#000" stroke-linecap="round" stroke-linejoin="round" stroke-width=".99" d="M11.361 97.71H2.47v-22.7l8.891 3.454z"/>
                <path fill="#FFE2AE" fill-rule="nonzero" d="M43.964 97.71h8.891v-22.7l-8.891 3.454z"/>
                <path fill="#EDC283" fill-rule="nonzero" d="M52.855 75.01v22.7h-1.482V75.503z"/>
                <path stroke="#000" stroke-linecap="round" stroke-linejoin="round" stroke-width=".99" d="M43.964 97.71h8.891v-22.7l-8.891 3.454z"/>
                <path fill="#00C27E" fill-rule="nonzero" d="M54.51 72.824l.815 2.68-11.361 3.947v18.26H11.36V79.45L0 75.503l.815-2.68 2.737-9.02a12.506 12.506 0 0 1 7.903-8.128l9.786-3.366 1.976 5.922 4.446 2.468 4.445-2.468 1.976-5.922 9.796 3.366a12.506 12.506 0 0 1 7.903 8.128l2.727 9.02z"/>
                <path fill="#00A66C" fill-rule="nonzero" d="M35.087 63.921l-5.878-3.573 2.549-1.312zM24.205 59.036l-3.888 5.018 6.442-3.706zM53.843 75.503l-.815-2.68-2.736-9.02a12.506 12.506 0 0 0-7.904-8.128l-8.467-2.907.163-.459 9.796 3.366a12.506 12.506 0 0 1 7.903 8.128l2.737 9.02.805 2.68h-1.482z"/>
                <path fill="#00DE90" fill-rule="nonzero" d="M2.297 72.824l2.737-9.021a12.506 12.506 0 0 1 7.903-8.128l8.467-2.907-.163-.459-9.796 3.366a12.506 12.506 0 0 0-7.903 8.128l-2.737 9.02L0 75.504l1.482.494v-.494l.815-2.68z"/>
                <path stroke="#000" stroke-linecap="round" stroke-linejoin="round" stroke-width=".99" d="M54.51 72.824l-2.736-9.021a12.506 12.506 0 0 0-7.904-8.128l-9.786-3.366-1.976 5.922-4.445 2.468-4.446-2.468-1.976-5.922-9.796 3.366a12.506 12.506 0 0 0-7.903 8.128l-2.737 9.02L0 75.504l11.361 3.948v18.26h32.603V79.45l11.361-3.948-.815-2.68z"/>
                <path fill="#3F635C" fill-rule="nonzero" stroke="#000" stroke-linecap="round" stroke-linejoin="round" stroke-width=".99" d="M.815 72.824l10.546 3.666L.815 72.824M54.51 72.824L43.964 76.49l10.546-3.666M34.084 52.388h-.04l-4.405 6.83 5.433 4.442 1.976-10.813a21.33 21.33 0 0 0-2.964-.459z"/>
                <path fill="#00C27E" fill-rule="nonzero" stroke="#000" stroke-linecap="round" stroke-linejoin="round" stroke-width=".99" d="M34.084 52.388h-.04l-4.405 6.83 5.433 4.442 1.976-10.813a21.33 21.33 0 0 0-2.964-.459z"/>
                <path stroke="#000" stroke-linecap="round" stroke-linejoin="round" stroke-width=".99" d="M35.003 55.764l-.81 4.441"/>
                <path fill="#00C27E" fill-rule="nonzero" stroke="#000" stroke-linecap="round" stroke-linejoin="round" stroke-width=".99" d="M21.29 52.403h-.049c-.998.095-1.989.26-2.964.494l1.976 10.763 5.434-4.442-4.397-6.815z"/>
                <path fill="#FFE2AE" fill-rule="nonzero" d="M42.482 12.337v22.7c0 8.177-6.635 14.805-14.82 14.805-8.184 0-14.819-6.628-14.819-14.805v-22.7l14.82-9.746 14.819 9.746z"/>
                <path fill="#FFEBCF" fill-rule="nonzero" d="M14.325 35.037v-22.7L28.404 3.08l-.741-.493-14.82 9.751v22.7c0 8.177 6.635 14.805 14.82 14.805h.74c-7.893-.395-14.088-6.909-14.078-14.805z"/>
                <path fill="#EDC283" fill-rule="nonzero" d="M27.663 2.59l-.741.494L41 12.337v22.7c.01 7.896-6.185 14.41-14.078 14.805h.74c8.185 0 14.82-6.628 14.82-14.805v-22.7l-14.82-9.746z"/>
                <path stroke="#000" stroke-linecap="round" stroke-linejoin="round" stroke-width=".99" d="M27.663 49.842c-8.185 0-14.82-6.628-14.82-14.805v-22.7l14.82-9.746 14.819 9.746v22.7c0 8.177-6.635 14.805-14.82 14.805z"/>
                <path fill="#54484A" fill-rule="nonzero" d="M46.78 20.233c0 .33.034.661 0 .987a14.911 14.911 0 0 1-4.298 9.583v-8.961a7.142 7.142 0 0 0-1.976-4.896 23.038 23.038 0 0 0 5.088-2.546 14.792 14.792 0 0 1 1.186 5.833z"/>
                <path fill="#645456" fill-rule="nonzero" d="M29.392 0a19.504 19.504 0 0 0-15.719 7.945 19.737 19.737 0 0 0-1.556 2.468 14.747 14.747 0 0 0-3.72 9.82c0 .33 0 .661.035.987a14.749 14.749 0 0 0 4.411 9.583v-8.961a7.033 7.033 0 0 1 4.708-6.717 6.28 6.28 0 0 1 3.458-.143c.61.14 1.197.367 1.744.671a18.732 18.732 0 0 0 4.51 1.925 23.115 23.115 0 0 0 13.243-.632 23.038 23.038 0 0 0 7.217-4.15A19.521 19.521 0 0 0 29.392 0z"/>
                <path fill="#54484A" fill-rule="nonzero" d="M29.392 0c-.322 0-.643 0-.964.03a19.525 19.525 0 0 1 17.32 12.766 23.038 23.038 0 0 1-9.904 4.92c-1.302.277-2.624.442-3.953.494.311 0 .627.03.944.03a23.194 23.194 0 0 0 4.969-.544 23.304 23.304 0 0 0 2.702-.75 23.038 23.038 0 0 0 7.217-4.15A19.521 19.521 0 0 0 29.392 0z"/>
                <path fill="#6D6163" fill-rule="nonzero" d="M10.408 21.713c0-.325-.035-.656-.035-.987a14.747 14.747 0 0 1 3.72-9.805c.457-.86.977-1.685 1.556-2.468a19.536 19.536 0 0 1 19.453-7.6 19.528 19.528 0 0 0-21.429 7.092 19.737 19.737 0 0 0-1.556 2.468 14.747 14.747 0 0 0-3.72 9.82c0 .33 0 .661.035.987a14.749 14.749 0 0 0 4.411 9.583v-1.9a14.706 14.706 0 0 1-2.435-7.19z"/>
                <path fill="#6D6163" fill-rule="nonzero" d="M24.733 16.147a6.653 6.653 0 0 0-1.743-.671c-.3-.07-.603-.12-.91-.148.232.095.458.204.677.325a18.732 18.732 0 0 0 4.51 1.925c.371.094.751.173 1.132.247a20.96 20.96 0 0 1-3.666-1.678z"/>
                <path stroke="#000" stroke-linecap="round" stroke-linejoin="round" stroke-width=".99" d="M40.506 16.946a7.142 7.142 0 0 1 1.976 4.896v8.961a14.911 14.911 0 0 0 4.312-9.583v-.987c.005-2.005-.399-3.989-1.185-5.833"/>
                <path stroke="#000" stroke-linecap="round" stroke-linejoin="round" stroke-width=".99" d="M45.594 14.4c.74-.494 1.45-1.03 2.129-1.604a19.526 19.526 0 0 0-34.05-4.851 19.737 19.737 0 0 0-1.556 2.468 14.747 14.747 0 0 0-3.72 9.82c0 .33 0 .661.035.987a14.749 14.749 0 0 0 4.411 9.583v-8.961a7.033 7.033 0 0 1 4.708-6.717 6.28 6.28 0 0 1 3.458-.143c.61.14 1.197.367 1.744.671a18.732 18.732 0 0 0 4.51 1.925 23.115 23.115 0 0 0 13.243-.632 23.038 23.038 0 0 0 5.088-2.546z"/>
                <path fill="#EDC283" fill-rule="nonzero" d="M15.807 27.142h9.386c.545 0 .988.442.988.987v5.428c0 .818-.664 1.48-1.482 1.48h-7.904a.987.987 0 0 1-.988-.987v-6.908zM39.024 35.037H31.12a.987.987 0 0 1-.987-.987V28.13c0-.545.442-.987.987-.987h9.386v6.415c0 .818-.663 1.48-1.482 1.48z"/>
                <path fill="#FFE2AE" fill-rule="nonzero" d="M42.482 26.707a5.178 5.178 0 0 1 4.433 5.123 5.178 5.178 0 0 1-4.433 5.122V26.707z"/>
                <path fill="#EDC283" fill-rule="nonzero" d="M42.482 26.707v.435a5.166 5.166 0 0 1 0 9.376v.449a5.178 5.178 0 0 0 4.486-5.13 5.178 5.178 0 0 0-4.486-5.13z"/>
                <path fill="#FFE2AE" fill-rule="nonzero" d="M12.843 26.707v10.245A5.178 5.178 0 0 1 8.41 31.83a5.178 5.178 0 0 1 4.433-5.123z"/>
                <path fill="#FFEBCF" fill-rule="nonzero" d="M9.88 31.83a5.166 5.166 0 0 1 2.963-4.688v-.435A5.178 5.178 0 0 0 8.41 31.83a5.178 5.178 0 0 0 4.433 5.122v-.434A5.166 5.166 0 0 1 9.88 31.83z"/>
                <path stroke="#000" stroke-linecap="round" stroke-linejoin="round" stroke-width=".99" d="M42.482 26.707v10.245a5.178 5.178 0 0 0 4.433-5.122 5.178 5.178 0 0 0-4.433-5.123zM12.843 26.707v10.245A5.178 5.178 0 0 1 8.41 31.83a5.178 5.178 0 0 1 4.433-5.123zM23.464 23.45a5.438 5.438 0 0 0-5.434-.049M31.861 23.45a5.438 5.438 0 0 1 5.434-.049"/>
                <path fill="#FFF" fill-rule="nonzero" stroke="#000" stroke-linecap="round" stroke-linejoin="round" stroke-width=".99" d="M15.313 26.155H24.7c.545 0 .988.442.988.987v5.922a.987.987 0 0 1-.988.986H16.3a.987.987 0 0 1-.988-.986v-6.91zM39.024 34.05h-8.397a.987.987 0 0 1-.988-.986v-5.922c0-.545.442-.987.988-.987h9.385v6.909a.987.987 0 0 1-.988.986z"/>
                <ellipse cx="21.241" cy="30.103" fill="#2C3E50" fill-rule="nonzero" stroke="#000" stroke-linecap="round" stroke-linejoin="round" stroke-width=".99" rx="1" ry="1"/>
                <ellipse cx="34.084" cy="30.103" fill="#2C3E50" fill-rule="nonzero" stroke="#000" stroke-linecap="round" stroke-linejoin="round" stroke-width=".99" rx="1" ry="1"/>
                <path stroke="#000" stroke-linecap="round" stroke-linejoin="round" stroke-width=".99" d="M30.083 35.53a2.47 2.47 0 0 1-4.84 0M23.71 39.326l.228.153a7.416 7.416 0 0 0 7.454 0l.227-.138M26.675 42.87c.655.086 1.32.086 1.976 0"/>
            </g>
        </g>
    </g>
</svg>
