<?xml version="1.0" encoding="UTF-8"?>
<svg width="240px" height="377px" viewBox="0 0 240 377" version="1.1" xmlns="http://www.w3.org/2000/svg" xmlns:xlink="http://www.w3.org/1999/xlink">
    <!-- Generator: Sketch 46.2 (44496) - http://www.bohemiancoding.com/sketch -->
    <title>Guys</title>
    <desc>Created with Sketch.</desc>
    <defs></defs>
    <g id="Page-1" stroke="none" stroke-width="1" fill="none" fill-rule="evenodd">
        <g id="HomePage" transform="translate(-846.000000, -413.000000)">
            <g id="top">
                <g id="bg-top">
                    <g id="Guys" transform="translate(848.000000, 415.000000)">
                        <path d="M145.392857,194 L145.392857,214 L145.224286,214.32 L136.964286,244 L139.071429,246.68 C134.52,250 124.595357,252 118.400357,252 L117.662857,252 C111.467857,252 101.543214,250 96.9917857,246.68 L99.0357143,244 L90.8178571,214.38 L90.6071429,214 L90.6071429,194 L145.392857,194 Z" id="Shape" fill="#FFE2AE" fill-rule="nonzero"></path>
                        <path d="M145.392857,210 C127.130952,220.666667 108.869048,220.666667 90.6071429,210 L90.6071429,194 L145.392857,194 L145.392857,210 Z" id="Shape" fill="#EDC283" fill-rule="nonzero"></path>
                        <path d="M90.6071429,192 L90.6071429,212 L90.8178571,212.38 L99.0357143,242 L96.9285714,244.68 C101.543214,248 111.467857,250 117.662857,250 L118.337143,250 C124.532143,250 134.456786,248 139.008214,244.68 L136.964286,242 L145.224286,212.32 L145.392857,212 L145.392857,192 L90.6071429,192 Z" id="Shape" stroke="#000000" stroke-width="4" stroke-linecap="round" stroke-linejoin="round"></path>
                        <polygon id="Shape" fill="#FFE2AE" fill-rule="nonzero" points="48.4642857 396 10.5357143 396 10.5357143 304 48.4642857 318"></polygon>
                        <polygon id="Shape" fill="#FFEBCF" fill-rule="nonzero" points="10.5357143 304 10.5357143 396 16.8571429 396 16.8571429 306"></polygon>
                        <polygon id="Shape" stroke="#000000" stroke-width="4" stroke-linecap="round" stroke-linejoin="round" points="48.4642857 396 10.5357143 396 10.5357143 304 48.4642857 318"></polygon>
                        <polygon id="Shape" fill="#FFE2AE" fill-rule="nonzero" points="187.535714 396 225.464286 396 225.464286 304 187.535714 318"></polygon>
                        <polygon id="Shape" fill="#EDC283" fill-rule="nonzero" points="225.464286 304 225.464286 396 219.142857 396 219.142857 306"></polygon>
                        <polygon id="Shape" stroke="#000000" stroke-width="4" stroke-linecap="round" stroke-linejoin="round" points="187.535714 396 225.464286 396 225.464286 304 187.535714 318"></polygon>
                        <path d="M48.4642857,274 L48.4642857,318" id="Shape" stroke="#000000" stroke-width="4" stroke-linecap="round" stroke-linejoin="round"></path>
                        <path d="M232.523214,295.14 L236,306 L187.535714,322 L187.535714,396 L48.4642857,396 L48.4642857,322 L0,306 L3.47678571,295.14 L15.1503571,258.58 C20.1985091,243.118144 32.7274107,230.876983 48.8646429,225.64 L90.6071429,212 L99.0357143,236 L118,246 L136.964286,236 L145.392857,212 L187.1775,225.64 C203.314732,230.876983 215.843634,243.118144 220.891786,258.58 L232.523214,295.14 Z" id="Shape" fill="#00C27E" fill-rule="nonzero"></path>
                        <polygon id="Shape" fill="#00A66C" fill-rule="nonzero" points="149.670357 259.06 124.595357 244.58 135.468214 239.26"></polygon>
                        <polygon id="Shape" fill="#00A66C" fill-rule="nonzero" points="103.25 239.26 86.6667857 259.6 114.143929 244.58"></polygon>
                        <path d="M229.678571,306 L226.201786,295.14 L214.528214,258.58 C209.480062,243.118144 196.951161,230.876983 180.813929,225.64 L144.6975,213.86 L145.392857,212 L187.1775,225.64 C203.314732,230.876983 215.843634,243.118144 220.891786,258.58 L232.565357,295.14 L236,306 L229.678571,306 Z" id="Shape" fill="#00A66C" fill-rule="nonzero"></path>
                        <path d="M9.79821429,295.14 L21.4717857,258.58 C26.5199376,243.118144 39.0488393,230.876983 55.1860714,225.64 L91.3025,213.86 L90.6071429,212 L48.8225,225.64 C32.6852679,230.876983 20.1563662,243.118144 15.1082143,258.58 L3.43464286,295.14 L0,306 L6.32142857,308 L6.32142857,306 L9.79821429,295.14 Z" id="Shape" fill="#00DE90" fill-rule="nonzero"></path>
                        <path d="M232.523214,295.14 L220.849643,258.58 C215.801491,243.118144 203.272589,230.876983 187.135357,225.64 L145.392857,212 L136.964286,236 L118,246 L99.0357143,236 L90.6071429,212 L48.8225,225.64 C32.6852679,230.876983 20.1563662,243.118144 15.1082143,258.58 L3.43464286,295.14 L0,306 L48.4642857,322 L48.4642857,396 L187.535714,396 L187.535714,322 L236,306 L232.523214,295.14 Z" id="Shape" stroke="#000000" stroke-width="4" stroke-linecap="round" stroke-linejoin="round"></path>
                        <polyline id="Shape" stroke="#000000" stroke-width="4" fill="#3F635C" fill-rule="nonzero" stroke-linecap="round" stroke-linejoin="round" points="3.47678571 295.14 48.4642857 310 3.47678571 295.14"></polyline>
                        <polyline id="Shape" stroke="#000000" stroke-width="4" fill="#3F635C" fill-rule="nonzero" stroke-linecap="round" stroke-linejoin="round" points="232.523214 295.14 187.535714 310 232.523214 295.14"></polyline>
                        <path d="M48.4642857,274 L48.4642857,322" id="Shape" stroke="#000000" stroke-width="4" stroke-linecap="round" stroke-linejoin="round"></path>
                        <path d="M187.535714,274 L187.535714,322" id="Shape" stroke="#000000" stroke-width="4" stroke-linecap="round" stroke-linejoin="round"></path>
                        <path d="M145.392857,212.32 L145.224286,212.32 L126.428571,240 L149.607143,258 L158.035714,214.18 C153.872684,213.278934 149.647937,212.657395 145.392857,212.32 L145.392857,212.32 Z" id="Shape" stroke="#000000" stroke-width="4" fill="#3F635C" fill-rule="nonzero" stroke-linecap="round" stroke-linejoin="round"></path>
                        <path d="M145.392857,212.32 L145.224286,212.32 L126.428571,240 L149.607143,258 L158.035714,214.18 C153.872684,213.278934 149.647937,212.657395 145.392857,212.32 L145.392857,212.32 Z" id="Shape" stroke="#000000" stroke-width="4" fill="#00C27E" fill-rule="nonzero" stroke-linecap="round" stroke-linejoin="round"></path>
                        <path d="M149.312143,226 L145.856429,244" id="Shape" stroke="#000000" stroke-width="4" stroke-linecap="round" stroke-linejoin="round"></path>
                        <path d="M90.8178571,212.38 L90.6071429,212.38 C86.3488963,212.766164 82.1243086,213.434461 77.9642857,214.38 L86.3928571,258 L109.571429,240 L90.8178571,212.38 Z" id="Shape" stroke="#000000" stroke-width="4" fill="#00C27E" fill-rule="nonzero" stroke-linecap="round" stroke-linejoin="round"></path>
                        <path d="M118,246 L118,276" id="Shape" stroke="#000000" stroke-width="4" stroke-linecap="round" stroke-linejoin="round"></path>
                        <path d="M181.214286,50 L181.214286,142 C181.214285,175.137084 152.912285,201.999999 118,201.999999 C83.0877145,201.999999 54.785715,175.137084 54.7857143,142 L54.7857143,50 L118,10.5 L181.214286,50 Z" id="Shape" fill="#FFE2AE" fill-rule="nonzero"></path>
                        <path d="M61.1071429,142 L61.1071429,50 L121.160714,12.48 L118,10.48 L54.7857143,50 L54.7857143,142 C54.7857143,175.137085 83.087714,202 118,202 C119.053571,202 120.107143,202 121.160714,202 C87.4885602,200.400023 61.0649749,174.000009 61.1071429,142 Z" id="Shape" fill="#FFEBCF" fill-rule="nonzero"></path>
                        <path d="M118,10.5 L114.839286,12.5 L174.892857,50 L174.892857,142 C174.935025,174.000009 148.51144,200.400023 114.839286,202 C115.892857,202 116.946429,202 118,202 C152.912286,202 181.214286,175.137085 181.214286,142 L181.214286,50 L118,10.5 Z" id="Shape" fill="#EDC283" fill-rule="nonzero"></path>
                        <path d="M118,202 C83.087714,202 54.7857143,175.137085 54.7857143,142 L54.7857143,50 L118,10.5 L181.214286,50 L181.214286,142 C181.214286,175.137085 152.912286,202 118,202 Z" id="Shape" stroke="#000000" stroke-width="4" stroke-linecap="round" stroke-linejoin="round"></path>
                        <path d="M199.546429,82 C199.546429,83.34 199.693929,84.68 199.546429,86 C198.597215,100.62763 192.082576,114.430085 181.214286,124.84 L181.214286,88.52 C181.175461,81.1280328 178.160007,74.0299619 172.785714,68.68 C180.441934,66.1049004 187.732104,62.638441 194.489286,58.36 C197.843722,65.8337957 199.564202,73.8763075 199.546429,82 L199.546429,82 Z" id="Shape" fill="#54484A" fill-rule="nonzero"></path>
                        <path d="M125.375,-1.11963441e-15 C98.8994708,-0.00788795627 74.0017492,11.9490871 58.3257143,32.2 C55.8564647,35.3734364 53.6379118,38.7158891 51.6882143,42.2 C41.4367755,53.1713574 35.7900378,67.3355469 35.8214286,82 C35.8214286,83.34 35.8214286,84.68 35.9689286,86 C36.9848459,100.705047 43.6856273,114.536227 54.7857143,124.84 L54.7857143,88.52 C54.6374489,76.2983209 62.716133,65.3476214 74.8667857,61.3 C79.6289061,59.7978377 84.7400761,59.5968561 89.6167857,60.72 C92.2187316,61.2897958 94.7228617,62.205504 97.055,63.44 C103.07966,66.829417 109.547881,69.4519119 116.293214,71.24 C124.088872,73.0788176 132.092225,74.0056997 140.125,74 C147.253862,73.9943482 154.361161,73.2567237 161.322857,71.8 C165.206192,70.9788295 169.034041,69.9369525 172.785714,68.68 C180.441934,66.1049004 187.732104,62.638441 194.489286,58.36 C197.644735,56.3595817 200.676956,54.1893654 203.571071,51.86 C191.553214,20.7117958 160.323177,-0.000110827934 125.375,-1.11963441e-15 Z" id="Shape" fill="#645456" fill-rule="nonzero"></path>
                        <path d="M125.375,0 C124.005357,0 122.635714,0 121.266071,0.12 C154.586881,1.76591111 183.65766,22.125884 195.1425,51.86 C192.248385,54.1893654 189.216163,56.3595817 186.060714,58.36 C179.303532,62.638441 172.013363,66.1049004 164.357143,68.68 C160.605469,69.9369525 156.777621,70.9788295 152.894286,71.8 C147.345602,72.9216785 141.705995,73.5907844 136.037143,73.8 C137.364643,73.8 138.713214,73.92 140.061786,73.92 C147.190647,73.9143482 154.297947,73.1767237 161.259643,71.72 C165.162525,70.9273778 169.011527,69.9122039 172.785714,68.68 C180.441934,66.1049004 187.732104,62.638441 194.489286,58.36 C197.644735,56.3595817 200.676956,54.1893654 203.571071,51.86 C191.553214,20.7117958 160.323177,-0.000110827934 125.375,3.55271368e-15 L125.375,0 Z" id="Shape" fill="#54484A" fill-rule="nonzero"></path>
                        <path d="M44.3975,88 C44.3975,86.68 44.25,85.34 44.25,84 C44.2341067,69.356212 49.8798356,55.2159023 60.1167857,44.26 C62.0664832,40.7758891 64.2850362,37.4334364 66.7542857,34.26 C85.8183165,9.63491975 118.126941,-2.35729757 149.733571,3.46 C115.925792,-6.35293322 79.2753215,5.17052402 58.3257143,32.2 C55.8564647,35.3734364 53.6379118,38.7158891 51.6882143,42.2 C41.4367755,53.1713574 35.7900378,67.3355469 35.8214286,82 C35.8214286,83.34 35.8214286,84.68 35.9689286,86 C36.9848459,100.705047 43.6856273,114.536227 54.7857143,124.84 L54.7857143,117.14 C48.6978202,108.456027 45.1159227,98.4084398 44.3975,88 Z" id="Shape" fill="#6D6163" fill-rule="nonzero"></path>
                        <path d="M105.504643,65.44 C103.172505,64.205504 100.668374,63.2897958 98.0664286,62.72 C96.7893845,62.4391501 95.4941812,62.2387134 94.1892857,62.12 C95.1773968,62.5071425 96.1412481,62.9478692 97.0760714,63.44 C103.100732,66.829417 109.568952,69.4519119 116.314286,71.24 C117.894643,71.62 119.517143,71.94 121.139643,72.24 C115.709765,70.4557096 110.473858,68.1785 105.504643,65.44 Z" id="Shape" fill="#6D6163" fill-rule="nonzero"></path>
                        <path d="M172.785714,68.68 C178.160007,74.0299619 181.175461,81.1280328 181.214286,88.52 L181.214286,124.84 C192.105759,114.43919 198.643363,100.635679 199.609643,86 C199.609643,84.68 199.609643,83.34 199.609643,82 C199.627416,73.8763075 197.906937,65.8337957 194.5525,58.36" id="Shape" stroke="#000000" stroke-width="4" stroke-linecap="round" stroke-linejoin="round"></path>
                        <path d="M194.489286,58.36 C197.644762,56.3596173 200.676985,54.1893995 203.571071,51.86 C193.029179,24.5237804 167.50638,4.90253138 137.144208,0.792793857 C106.782036,-3.31694366 76.4980751,8.75046046 58.3257143,32.2 C55.8564647,35.3734364 53.6379118,38.7158891 51.6882143,42.2 C41.4367755,53.1713574 35.7900378,67.3355469 35.8214286,82 C35.8214286,83.34 35.8214286,84.68 35.9689286,86 C36.9848459,100.705047 43.6856273,114.536227 54.7857143,124.84 L54.7857143,88.52 C54.6374489,76.2983209 62.716133,65.3476214 74.8667857,61.3 C79.6289061,59.7978377 84.7400761,59.5968561 89.6167857,60.72 C92.2187316,61.2897958 94.7228617,62.205504 97.055,63.44 C103.07966,66.829417 109.547881,69.4519119 116.293214,71.24 C124.088872,73.0788176 132.092225,74.0056997 140.125,74 C147.253862,73.9943482 154.361161,73.2567237 161.322857,71.8 C165.206192,70.9788295 169.034041,69.9369525 172.785714,68.68 C180.441934,66.1049004 187.732104,62.638441 194.489286,58.36 Z" id="Shape" stroke="#000000" stroke-width="4" stroke-linecap="round" stroke-linejoin="round"></path>
                        <path d="M67.4285714,110 L107.464286,110 C109.791771,110 111.678571,111.790861 111.678571,114 L111.678571,136 C111.678571,139.313708 108.848371,142 105.357143,142 L71.6428571,142 C69.3153714,142 67.4285714,140.209139 67.4285714,138 L67.4285714,110 Z" id="Shape" fill="#EDC283" fill-rule="nonzero"></path>
                        <path d="M134.857143,110 L168.571429,110 C170.898914,110 172.785714,111.790861 172.785714,114 L172.785714,138 C172.785714,140.209139 170.898914,142 168.571429,142 L128.535714,142 L128.535714,116 C128.535714,112.686292 131.365914,110 134.857143,110 L134.857143,110 Z" id="Shape" fill="#EDC283" fill-rule="nonzero" transform="translate(150.660714, 126.000000) rotate(180.000000) translate(-150.660714, -126.000000) "></path>
                        <path d="M181.214286,108.24 C192.073654,109.74453 200.125563,118.583574 200.125563,129 C200.125563,139.416426 192.073654,148.25547 181.214286,149.76 L181.214286,108.24 Z" id="Shape" fill="#FFE2AE" fill-rule="nonzero"></path>
                        <path d="M181.214286,108.24 L181.214286,110 C189.011829,113.428823 194.002033,120.843255 194.002033,129 C194.002033,137.156745 189.011829,144.571177 181.214286,148 L181.214286,149.82 C192.174733,148.410326 200.350152,139.528211 200.350152,129.03 C200.350152,118.531789 192.174733,109.649674 181.214286,108.24 L181.214286,108.24 Z" id="Shape" fill="#EDC283" fill-rule="nonzero"></path>
                        <path d="M54.7857143,108.24 L54.7857143,149.76 C43.9263459,148.25547 35.8744375,139.416426 35.8744375,129 C35.8744375,118.583574 43.9263459,109.74453 54.7857143,108.24 L54.7857143,108.24 Z" id="Shape" fill="#FFE2AE" fill-rule="nonzero"></path>
                        <path d="M42.1428571,129 C42.116582,120.874918 47.044678,113.468853 54.7857143,110 L54.7857143,108.24 C43.9263459,109.74453 35.8744375,118.583574 35.8744375,129 C35.8744375,139.416426 43.9263459,148.25547 54.7857143,149.76 L54.7857143,148 C47.044678,144.531147 42.116582,137.125082 42.1428571,129 L42.1428571,129 Z" id="Shape" fill="#FFEBCF" fill-rule="nonzero"></path>
                        <path d="M181.214286,108.24 L181.214286,149.76 C192.073654,148.25547 200.125563,139.416426 200.125563,129 C200.125563,118.583574 192.073654,109.74453 181.214286,108.24 L181.214286,108.24 Z" id="Shape" stroke="#000000" stroke-width="4" stroke-linecap="round" stroke-linejoin="round"></path>
                        <path d="M54.7857143,108.24 L54.7857143,149.76 C43.9263459,148.25547 35.8744375,139.416426 35.8744375,129 C35.8744375,118.583574 43.9263459,109.74453 54.7857143,108.24 L54.7857143,108.24 Z" id="Shape" stroke="#000000" stroke-width="4" stroke-linecap="round" stroke-linejoin="round"></path>
                        <path d="M100.089286,95.04 C92.955506,91.0480112 84.1197786,90.9717708 76.9107143,94.84" id="Shape" stroke="#000000" stroke-width="4" stroke-linecap="round" stroke-linejoin="round"></path>
                        <path d="M135.910714,95.04 C143.044494,91.0480112 151.880221,90.9717708 159.089286,94.84" id="Shape" stroke="#000000" stroke-width="4" stroke-linecap="round" stroke-linejoin="round"></path>
                        <path d="M65.3214286,106 L105.357143,106 C107.684629,106 109.571429,107.790861 109.571429,110 L109.571429,134 C109.571429,136.209139 107.684629,138 105.357143,138 L69.5357143,138 C67.2082286,138 65.3214286,136.209139 65.3214286,134 L65.3214286,106 Z" id="Shape" stroke="#000000" stroke-width="4" fill="#FFFFFF" fill-rule="nonzero" stroke-linecap="round" stroke-linejoin="round"></path>
                        <path d="M130.642857,106 L166.464286,106 C168.791771,106 170.678571,107.790861 170.678571,110 L170.678571,134 C170.678571,136.209139 168.791771,138 166.464286,138 L126.428571,138 L126.428571,110 C126.428571,107.790861 128.315371,106 130.642857,106 Z" id="Shape" stroke="#000000" stroke-width="4" fill="#FFFFFF" fill-rule="nonzero" stroke-linecap="round" stroke-linejoin="round" transform="translate(148.553571, 122.000000) rotate(180.000000) translate(-148.553571, -122.000000) "></path>
                        <path d="M54.7857143,106 L65.3214286,106" id="Shape" stroke="#000000" stroke-width="4" stroke-linecap="round" stroke-linejoin="round"></path>
                        <path d="M109.571429,110 L126.428571,110" id="Shape" stroke="#000000" stroke-width="4" stroke-linecap="round" stroke-linejoin="round"></path>
                        <ellipse id="Oval" stroke="#000000" stroke-width="4" fill="#2C3E50" fill-rule="nonzero" stroke-linecap="round" stroke-linejoin="round" cx="90.6071429" cy="122" rx="4.21428571" ry="4"></ellipse>
                        <ellipse id="Oval" stroke="#000000" stroke-width="4" fill="#2C3E50" fill-rule="nonzero" stroke-linecap="round" stroke-linejoin="round" cx="145.392857" cy="122" rx="4.21428571" ry="4"></ellipse>
                        <path d="M128.325,144 C127.327916,148.660648 123.010536,152.010025 118,152.010025 C112.989464,152.010025 108.672084,148.660648 107.675,144" id="Shape" stroke="#000000" stroke-width="4" stroke-linecap="round" stroke-linejoin="round"></path>
                        <path d="M101.142857,159.38 L102.112143,160 C111.939506,165.428544 124.081565,165.428544 133.908929,160 L134.878214,159.44" id="Shape" stroke="#000000" stroke-width="4" stroke-linecap="round" stroke-linejoin="round"></path>
                        <path d="M113.785714,173.74 C116.582971,174.092409 119.417029,174.092409 122.214286,173.74" id="Shape" stroke="#000000" stroke-width="4" stroke-linecap="round" stroke-linejoin="round"></path>
                        <path d="M170.678571,106 L181.214286,106" id="Shape" stroke="#000000" stroke-width="4" stroke-linecap="round" stroke-linejoin="round"></path>
                    </g>
                </g>
            </g>
        </g>
    </g>
</svg>