<svg width="65" height="65" viewBox="0 0 65 65" fill="none" xmlns="http://www.w3.org/2000/svg">
<path d="M64.2539 45.8751C63.3081 44.2982 61.6042 43.3333 59.7654 43.3333H59.5369C58.6781 43.3339 57.8325 43.5451 57.0745 43.9487L48.7492 48.3892V33.5835H52.5408C55.8315 33.5835 58.499 30.916 58.499 27.6253C58.499 24.3346 55.8315 21.667 52.5408 21.667H29.2495C26.2581 21.667 23.833 19.2419 23.833 16.2505C23.833 13.259 26.2581 10.8339 29.2495 10.8339H33.0411L39.216 19.0671C39.4206 19.3398 39.7417 19.5004 40.0827 19.5004H63.9156C64.5139 19.5004 64.9989 19.0154 64.9989 18.4171V1.08405C64.9989 0.485787 64.5139 0.000732422 63.9156 0.000732422H40.0827C39.7417 0.000732422 39.4206 0.161334 39.216 0.434058L33.0411 8.66725H29.2495C25.0614 8.66725 21.6663 12.0624 21.6663 16.2505C21.6663 20.4386 25.0614 23.8337 29.2495 23.8337H52.5408C54.6349 23.8337 56.3324 25.5312 56.3324 27.6253C56.3324 29.7193 54.6349 31.4169 52.5408 31.4169H48.7492V27.0836C48.7492 26.4853 48.2641 26.0003 47.6659 26.0003H17.3331C16.7348 26.0003 16.2497 26.4853 16.2497 27.0836V43.3333C15.4098 43.6266 14.5957 43.989 13.8155 44.4167H1.52588e-05V46.5833H12.9998V62.833H1.52588e-05V64.9996H41.049C42.031 64.9996 42.9945 64.7326 43.8364 64.2272L62.4575 53.055C64.9362 51.5683 65.7405 48.3538 64.2539 45.8751ZM42.2627 12.8146C43.955 12.2163 44.8418 10.3594 44.2434 8.66725C43.6452 6.97498 41.7882 6.08815 40.0961 6.68655C39.1705 7.01371 38.4425 7.74183 38.1154 8.66725H35.7494L40.6243 2.16736H62.8323V17.3338H40.6243L35.7494 10.8339H38.1154C38.7136 12.5262 40.5706 13.413 42.2627 12.8146ZM40.0827 9.75057C40.0827 9.15231 40.5677 8.66725 41.166 8.66725C41.7643 8.66725 42.2493 9.15231 42.2493 9.75057C42.2493 10.3488 41.7643 10.8339 41.166 10.8339C40.5677 10.8339 40.0827 10.3488 40.0827 9.75057ZM30.3328 28.1669H34.6661V32.5002H30.3328V28.1669ZM18.4164 28.1669H28.1662V33.5835C28.1662 34.1818 28.6513 34.6668 29.2495 34.6668H35.7494C36.3477 34.6668 36.8327 34.1818 36.8327 33.5835V28.1669H46.5826V49.544L44.8081 50.4897C45.4699 47.88 43.8907 45.2279 41.2808 44.5662C40.8892 44.4669 40.4868 44.4167 40.0827 44.4167H29.5323C26.1397 42.5673 22.2041 41.972 18.4164 42.7354V28.1669ZM61.3427 51.1971L42.7216 62.3694C42.2164 62.6727 41.6383 62.833 41.049 62.833H15.1664V46.15C19.4423 43.9632 24.5316 44.0742 28.7079 46.4457C28.8732 46.5385 29.0599 46.586 29.2495 46.5833H40.0827C41.5785 46.5833 42.791 47.7958 42.791 49.2916C42.791 50.7874 41.5785 51.9999 40.0827 51.9999H30.3328C29.7346 51.9999 29.2495 52.4849 29.2495 53.0832C29.2495 53.6814 29.7346 54.1665 30.3328 54.1665H42.2493C42.4272 54.1668 42.6025 54.1233 42.7596 54.0397L58.0939 45.8607C58.5382 45.6243 59.0337 45.5004 59.5369 45.5H59.7654C61.4592 45.4998 62.8324 46.8728 62.8326 48.5666C62.8326 49.6443 62.2671 50.6429 61.3427 51.1971Z" fill="white"/>
</svg>
