<?xml version="1.0" encoding="UTF-8"?>
<svg width="28px" height="32px" viewBox="0 0 28 32" version="1.1" xmlns="http://www.w3.org/2000/svg" xmlns:xlink="http://www.w3.org/1999/xlink">
    <!-- Generator: Sketch 46.2 (44496) - http://www.bohemiancoding.com/sketch -->
    <title>headphones-icon</title>
    <desc>Created with Sketch.</desc>
    <defs></defs>
    <g id="Page-1" stroke="none" stroke-width="1" fill="none" fill-rule="evenodd">
        <g id="HomePage" transform="translate(-1050.000000, -1846.000000)">
            <g id="why-we-are-diffrent" transform="translate(0.000000, 1687.000000)">
                <g id="support" transform="translate(992.000000, 100.000000)">
                    <g id="headphones-icon" transform="translate(59.000000, 60.000000)">
                        <path d="M2,22 L2,23.2132819 C2,26.4094792 4.686,29 8,29 L10,29" id="Shape" stroke="#B8D4CB" stroke-width="2"></path>
                        <path d="M1,13.9941435 L1,8.78477306 C1,3.93265007 5.029,0 10,0 L16,0 C20.971,0 25,3.93265007 25,8.78477306 L25,14" id="Shape" stroke="#B8D4CB" stroke-width="2"></path>
                        <path d="M7,12.212 C6.523,12.077 6.021,12 5.5,12 C2.462,12 0,14.462 0,17.5 C0,20.538 2.462,23 5.5,23 C6.021,23 6.523,22.923 7,22.788 L7,12.212 Z" id="Shape" stroke="#B8D4CB" stroke-width="2" stroke-linecap="square"></path>
                        <path d="M19,22.788 C19.477,22.923 19.979,23 20.5,23 C23.538,23 26,20.538 26,17.5 C26,14.462 23.538,12 20.5,12 C19.979,12 19.477,12.077 19,12.212 L19,22.788 Z" id="Shape" stroke="#B8D4CB" stroke-width="2" stroke-linecap="square"></path>
                        <rect id="Rectangle-path" stroke="#B8D4CB" stroke-width="2" stroke-linecap="square" x="10" y="28" width="6" height="2"></rect>
                        <rect id="Rectangle-path" fill="#B8D4CB" fill-rule="nonzero" x="10" y="28" width="6" height="2"></rect>
                    </g>
                </g>
            </g>
        </g>
    </g>
</svg>