<svg data-name="Layer 1" width="26" height="26" viewBox="0 0 49.216 49.475" xmlns="http://www.w3.org/2000/svg"><path d="M26.306 0c1.27.22 2.56.37 3.82.66a24.37 24.37 0 0 1 12.57 7.3c.184.185.32.411.4.66l-.63-.26a10.79 10.79 0 0 0-5.85-1 8 8 0 0 0-5.78 4.28 26 26 0 0 0-2.44 6.77 5.2 5.2 0 0 1-6 4 2.4 2.4 0 0 1-2.34-2.19 26.67 26.67 0 0 1-.16-3.23c0-.73 0-1.47-.06-2.19-.116-2.471-3.005-3.748-4.91-2.17a8 8 0 0 0-1.97 2.4 17.44 17.44 0 0 0-1.89 7.16c-.28 2.68-.39 5.38-.67 8.07a12.18 12.18 0 0 1-.75 2.89c-1.054 3-4.98 3.695-7 1.24a11.2 11.2 0 0 1-2.41-6.26c-1.671-12.062 5.69-23.545 17.35-27.06a44.56 44.56 0 0 1 4.6-.92l.71-.15zM6.046 40.86c.66.24 1.28.49 1.9.7 5.7 1.91 9.32-.86 11.15-5.3a47 47 0 0 0 1.7-5.32 5.28 5.28 0 0 1 6.38-3.87 2.17 2.17 0 0 1 1.88 1.77 30 30 0 0 1 .27 3.29c.05.89 0 1.79.09 2.66.14 2.219 2.634 3.45 4.48 2.21a7.27 7.27 0 0 0 2.23-2.38c1.41-2.28 1.74-4.92 2-7.53.26-2.61.4-5.38.68-8.07a11 11 0 0 1 .73-2.73c1.021-2.934 4.825-3.68 6.88-1.35a10 10 0 0 1 2.4 5.4c2.283 12.577-5.422 24.814-17.75 28.19-9.46 2.5-17.67 0-24.54-7-.15-.15-.28-.32-.42-.49-.14-.17-.03-.07-.06-.18z"/></svg>