<svg width="93" height="20" viewBox="0 0 93 20" fill="none" xmlns="http://www.w3.org/2000/svg">
<path d="M23.25 4.85416C23.25 4.0625 23.8539 3.4375 24.6188 3.4375C25.3838 3.4375 25.9877 4.0625 25.9877 4.85416V8.64583H31.0403V4.85416C31.0403 4.0625 31.6442 3.4375 32.4091 3.4375C33.174 3.4375 33.7779 4.0625 33.7779 4.85416V15.1458C33.7779 15.9375 33.174 16.5625 32.4091 16.5625C31.6442 16.5625 31.0403 15.9375 31.0403 15.1458V11.2708H25.9877V15.1458C25.9877 15.9375 25.3838 16.5625 24.6188 16.5625C23.8539 16.5625 23.25 15.9375 23.25 15.1458V4.85416Z" fill="#71C0C1"/>
<path d="M39.877 16.6667C36.9984 16.6667 34.8848 14.5833 34.8848 11.5625V11.5208C34.8848 8.70833 36.8172 6.375 39.6153 6.375C42.8159 6.375 44.2049 9.08333 44.2049 11.125C44.2049 11.9375 43.6614 12.4792 42.9367 12.4792H37.5822C37.8439 13.75 38.7094 14.4167 39.9172 14.4167C40.662 14.4167 41.2861 14.1667 41.8497 13.75C42.051 13.6042 42.2322 13.5208 42.514 13.5208C43.1179 13.5208 43.5607 14 43.5607 14.625C43.5607 15 43.3997 15.2708 43.1984 15.4583C42.3731 16.2083 41.2861 16.6667 39.877 16.6667ZM41.6283 10.7292C41.4672 9.47917 40.7627 8.625 39.6153 8.625C38.488 8.625 37.7633 9.45833 37.5419 10.7292H41.6283Z" fill="#71C0C1"/>
<path d="M45.0898 4.20826C45.0898 3.39576 45.7541 2.89575 46.5996 2.89575C47.445 2.89575 48.1093 3.39576 48.1093 4.20826V4.24992C48.1093 5.06242 47.445 5.58325 46.5996 5.58325C45.7541 5.58325 45.0898 5.06242 45.0898 4.24992V4.20826ZM45.2509 7.85409C45.2509 7.08326 45.8548 6.45825 46.5996 6.45825C47.3444 6.45825 47.9483 7.08326 47.9483 7.85409V15.1666C47.9483 15.9374 47.3444 16.5624 46.5996 16.5624C45.8548 16.5624 45.2509 15.9374 45.2509 15.1666V7.85409Z" fill="#71C0C1"/>
<path d="M58.9602 15.1666C58.9602 15.9374 58.3563 16.5624 57.6115 16.5624C56.8667 16.5624 56.2628 15.9374 56.2628 15.1666V15.0416C55.5985 15.9583 54.6927 16.6458 53.2836 16.6458C51.0492 16.6458 48.9355 14.8333 48.9355 11.5416V11.4999C48.9355 8.20826 51.0291 6.39576 53.2836 6.39576C54.7329 6.39576 55.6187 7.08325 56.2628 7.87492V4.29159C56.2628 3.52075 56.8667 2.89575 57.6115 2.89575C58.3563 2.89575 58.9602 3.52075 58.9602 4.29159V15.1666ZM51.6329 11.4999V11.5416C51.6329 13.1874 52.6998 14.2708 53.968 14.2708C55.2362 14.2708 56.2829 13.1874 56.2829 11.5416V11.4999C56.2829 9.85409 55.2362 8.77075 53.968 8.77075C52.6998 8.77075 51.6329 9.83326 51.6329 11.4999Z" fill="#71C0C1"/>
<path d="M60.1875 4.20826C60.1875 3.39576 60.8518 2.89575 61.6972 2.89575C62.5427 2.89575 63.207 3.39576 63.207 4.20826V4.24992C63.207 5.06242 62.5427 5.58325 61.6972 5.58325C60.8518 5.58325 60.1875 5.06242 60.1875 4.24992V4.20826ZM60.3485 7.85409C60.3485 7.08326 60.9524 6.45825 61.6972 6.45825C62.442 6.45825 63.0459 7.08326 63.0459 7.85409V15.1666C63.0459 15.9374 62.442 16.5624 61.6972 16.5624C60.9524 16.5624 60.3485 15.9374 60.3485 15.1666V7.85409Z" fill="#71C0C1"/>
<path d="M64.7369 4.95841C64.7369 4.16675 65.3408 3.54175 66.1058 3.54175H69.8298C72.809 3.54175 74.6006 5.37508 74.6006 8.00008V8.04175C74.6006 11.0209 72.346 12.5834 69.548 12.5834H67.4545V15.1459C67.4545 15.9376 66.8506 16.5626 66.0856 16.5626C65.3207 16.5626 64.7168 15.9376 64.7168 15.1459L64.7369 4.95841ZM69.6486 10.0417C71.0174 10.0417 71.8226 9.18758 71.8226 8.08341V8.04175C71.8226 6.77092 70.9571 6.08342 69.5882 6.08342H67.4746V10.0417H69.6486Z" fill="#71C0C1"/>
<path d="M74.4395 13.6042V13.5625C74.4395 11.3958 76.0297 10.4167 78.2843 10.4167C79.2505 10.4167 79.9349 10.5833 80.6193 10.8333V10.6667C80.6193 9.5 79.9148 8.85417 78.5661 8.85417C77.8213 8.85417 77.2174 8.95833 76.694 9.125C76.533 9.1875 76.4323 9.1875 76.2914 9.1875C75.6674 9.1875 75.1641 8.6875 75.1641 8.04167C75.1641 7.54167 75.4661 7.125 75.8888 6.95833C76.7544 6.625 77.6804 6.4375 78.9284 6.4375C80.418 6.4375 81.4849 6.85417 82.1492 7.54167C82.8537 8.27084 83.1758 9.375 83.1758 10.6875V15.2083C83.1758 15.9583 82.5921 16.5625 81.8674 16.5625C81.0823 16.5625 80.5589 16 80.5589 15.3958V15.375C79.8947 16.125 78.9888 16.625 77.6804 16.625C75.9291 16.6458 74.4395 15.5625 74.4395 13.6042ZM80.6596 12.9583V12.4583C80.1966 12.2292 79.5927 12.0833 78.9284 12.0833C77.7609 12.0833 77.0563 12.5625 77.0563 13.4375V13.4792C77.0563 14.2292 77.6602 14.6875 78.546 14.6875C79.8141 14.7083 80.6596 13.9792 80.6596 12.9583Z" fill="#71C0C1"/>
<path d="M84.7259 19.2083C84.3233 19.0625 83.8603 18.7292 83.8603 18.0417C83.8603 17.3542 84.3837 16.8958 84.9272 16.8958C85.1486 16.8958 85.2694 16.9375 85.3701 16.9583C85.5915 17.0208 85.7525 17.0625 85.9337 17.0625C86.4168 17.0625 86.6382 16.9792 86.8999 16.4792L86.9805 16.25L83.7395 8.4375C83.659 8.25 83.5986 7.97917 83.5986 7.79167C83.5986 7 84.1824 6.4375 84.9272 6.4375C85.6116 6.4375 85.9941 6.83333 86.2356 7.47917L88.309 13.2292L90.3019 7.5C90.5233 6.91667 90.9058 6.4375 91.6103 6.4375C92.3149 6.4375 92.8986 7 92.8986 7.72917C92.8986 7.95834 92.8383 8.27083 92.7779 8.39583L89.4564 16.6875C88.6512 18.7083 87.846 19.4583 86.2356 19.4583C85.5915 19.4583 85.1688 19.375 84.7259 19.2083Z" fill="#71C0C1"/>
<path d="M16.6671 3.54165C16.647 3.49998 16.6067 3.47915 16.5866 3.43748C16.1638 2.95832 15.7009 2.52082 15.1976 2.12498C15.1372 2.06248 15.0567 2.02082 14.9963 1.97915C14.956 1.93748 14.9158 1.91665 14.8554 1.87498C14.8353 1.85415 14.8151 1.85415 14.795 1.83331C14.5937 1.68748 14.3723 1.54165 14.1509 1.41665C14.1307 1.41665 14.1307 1.39582 14.1106 1.39582C14.0502 1.37498 14.0099 1.33331 13.9697 1.31248C12.5203 0.49998 10.8294 0.0624849 9.05799 0.145818C4.14631 0.374985 0.14046 4.60415 0.0196809 9.68748C-0.000448944 10.3125 0.0398105 10.9167 0.14046 11.5C0.14046 11.5417 0.442409 14.2083 2.09306 14.3958C2.63657 14.4583 3.13981 14.2291 3.44176 13.8333C3.66319 13.6041 3.82423 13.1458 3.94501 12.5625C4.06579 12 4.12617 11.4375 4.1463 10.8541C4.18656 9.39582 4.30734 8.31248 4.50864 7.47915C4.56903 7.22915 4.60929 6.99998 4.66968 6.81248C4.73007 6.60415 4.83072 6.39581 4.93137 6.20831C5.49501 5.02081 6.15929 4.91665 6.36059 4.91665C6.88397 4.79165 7.34696 5.14581 7.50799 5.47915C7.97098 6.41665 7.42747 7.58332 7.87033 8.54165C8.09176 9.02081 8.67553 9.12498 9.33981 9.04165C10.3463 8.87498 10.7288 8.20832 10.8898 7.72915C10.9301 7.60415 10.9703 7.47915 10.9703 7.41665L11.2522 6.31248C11.3528 6.02081 11.4534 5.74998 11.5138 5.56248C11.5944 5.35415 11.6346 5.22915 11.6346 5.22915C11.7151 5.06248 11.7957 4.91665 11.8762 4.77081C12.2989 3.97915 12.9833 3.37498 13.8288 3.10415C13.9093 3.08331 14.171 3.02082 14.3924 3.02082C14.9158 3.02082 15.8619 3.18748 16.4457 3.47915C16.506 3.52082 16.5463 3.54165 16.6067 3.58332C16.6067 3.58332 16.6067 3.58332 16.6268 3.58332L16.647 3.56248C16.6671 3.56248 16.6671 3.54165 16.6671 3.54165Z" fill="#71C0C1"/>
<path d="M2.35509 16.4374C2.37522 16.479 2.41548 16.4999 2.43561 16.5415C2.85834 17.0207 3.32133 17.4582 3.80444 17.854C3.86483 17.9165 3.94535 17.9582 4.00574 17.9999C4.046 18.0415 4.08626 18.0624 4.14665 18.104C4.16678 18.1249 4.18691 18.1249 4.20704 18.1457C4.40834 18.2915 4.62977 18.4374 4.8512 18.5624C4.87133 18.5624 4.87133 18.5832 4.89146 18.5832C4.95185 18.604 4.9921 18.6457 5.03236 18.6665C6.48172 19.479 8.17262 19.9165 9.94405 19.8332C14.8557 19.604 18.8415 15.3749 18.9824 10.2915C19.0025 9.66654 18.9622 9.06237 18.8616 8.47904C18.8616 8.43737 18.5596 5.7707 16.909 5.5832C16.3655 5.5207 15.8824 5.74987 15.5603 6.1457C15.3389 6.37487 15.1778 6.83321 15.057 7.41654C14.9363 7.97904 14.8759 8.54154 14.8557 9.12487C14.8155 10.5832 14.6746 11.6665 14.4934 12.4999C14.433 12.7499 14.3928 12.979 14.3324 13.1665C14.272 13.3749 14.1713 13.5832 14.0707 13.7707C13.507 14.9582 12.8428 15.0624 12.6415 15.0624C12.1181 15.1874 11.6551 14.8332 11.4941 14.4999C11.0311 13.5624 11.5746 12.3957 11.1317 11.4374C10.9103 10.9582 10.3265 10.854 9.66223 10.9374C8.65574 11.104 8.27327 11.7707 8.11224 12.2499C8.07198 12.3749 8.03172 12.4999 8.03172 12.5624L7.7499 13.6665C7.64925 13.9582 7.5486 14.229 7.48821 14.4165C7.40769 14.6249 7.36743 14.7499 7.3473 14.7499C7.26678 14.9165 7.18626 15.0624 7.10574 15.2082C6.68301 15.9999 5.9986 16.604 5.15314 16.8749C5.07262 16.8957 4.81094 16.9582 4.58951 16.9582C4.06613 16.9582 3.12003 16.7915 2.53626 16.4999C2.47587 16.4582 2.41548 16.4374 2.37522 16.3957C2.37522 16.3957 2.37522 16.3957 2.35509 16.3957C2.33496 16.3957 2.33496 16.4165 2.33496 16.4165C2.33496 16.4165 2.33496 16.4374 2.35509 16.4374Z" fill="#71C0C1"/>
</svg>
