<svg width="18" height="16" viewBox="0 0 18 16" fill="none" xmlns="http://www.w3.org/2000/svg">
<path d="M8.51564 0.178125C8.79376 -0.059375 9.20626 -0.059375 9.48439 0.178125L17.7344 7.17812C18.05 7.44688 18.0906 7.91875 17.8219 8.23438C17.5531 8.55 17.0813 8.59062 16.7656 8.32187L16 7.67188V13.5C16 14.8813 14.8813 16 13.5 16H4.50001C3.11939 16 2.00001 14.8813 2.00001 13.5V7.67188L1.23532 8.32187C0.919387 8.59062 0.446262 8.55 0.178137 8.23438C-0.0898635 7.91875 -0.051051 7.44688 0.264793 7.17812L8.51564 0.178125ZM3.50001 6.4V13.5C3.50001 14.0531 3.94689 14.5 4.50001 14.5H13.5C14.0531 14.5 14.5 14.0531 14.5 13.5V6.4L9.00001 1.73344L3.50001 6.4Z" fill="#23234A"/>
</svg>
