<svg xmlns="http://www.w3.org/2000/svg" width="16" height="25" viewBox="0 0 16 25">
    <g fill="#FFF" fill-rule="evenodd" opacity="1.00">
        <path d="M4.39 6.556H.741l.006 8.04 11.812 8.078c1.956-1.65 2.812-4.116 2.812-5.339v-3.341L4.39 6.556zM16 17.461c-.208 2.76-2.042 5.473-4.67 6.618-2.462 1.199-5.88.8-7.996-.864-1.956-1.523-3.04-3.618-3.178-5.994L.16 5.977h15.827L16 17.461zM5.45 6.556l9.922 6.704V6.556H5.45zM.745 15.351v1.552c.106 2.714 1.618 5.465 4.202 6.606 2.107 1.096 5.156.841 7.063-.48L.746 15.351z"/>
        <path d="M5.347 9.69a.209.209 0 1 0 0-.419.209.209 0 0 0 0 .418zm-.31-.684a.278.278 0 0 1 .147-.204l.167.02.807.44.073.11c.045-.15.037-.342.22-.423.164-.057.4-.062.53.073.119.122.188.289.13.46-.036.094-.142.18-.22.236.555.147 1.028.502 1.541.755.143.085.171.244.126.382l-.073.094c.061.07.18.082.257.147l4.254 2.877c.664.35.595 1.064.717 1.671a2.402 2.402 0 0 1-.607-.11c.015.067.025.135.037.2l.33 3.264c-.037.338-.322.57-.513.844l-.66.827-1.41-.917c.248-.31.57-.608.99-.587.212-.016.424.025.603.036-.224-.08-.477-.179-.603-.423-.424-.779-1.003-1.496-1.304-2.327-.139-.477-.025-.927.2-1.327-.037-.012-.068.005-.127-.014-.436-.061-.868-.175-1.3-.183l.97.57c-.204.718.081 1.414.46 1.98l-.57 1.358c-.086.175-.318.126-.477.11l-1.3-.183c-.04-.563.061-1.113.053-1.687.465.126.9.468 1.174.896v-.073l-1.227-1.98c-.216-.396-.04-.822.205-1.144 0 0-.275.011-.413-.082-.144.155-1.516 2.016-1.516 2.016-.114.093-.305.053-.44.036l-1.34-.204L5 14.853c.452.122.908.465 1.137.88-.13-.916.016-1.931-.053-2.897-.082-.264-.188-.522-.403-.733l-2.258-1.594v-.534c.326.208.64.652 1.047.44.143-.122.171-.313.126-.492l-.073-.131-1.08-.75c-.073-.326.077-.742-.13-1.01.583.3 1.153.643 1.723.974zm-2.64-.718a.48.48 0 0 0-.127.424c.029.171.192.31.33.42l1.688 1.157v-.183c-.453-.363-.925-.664-1.378-1.027-.171-.106-.187-.277-.22-.44.025-.196.114-.4.314-.497-.204-.004-.448-.009-.607.146zm.146 2.384c.11.18.212.375.367.514l.167-.147c-.118-.232-.366-.216-.534-.367zm-.293.24l.35.514c.078-.02.13-.098.2-.147-.114-.216-.358-.264-.55-.367zm-.257.237l.35.513.184-.183c-.126-.196-.35-.236-.534-.33zm1.268.11c-.436.33-.86.701-1.284 1.048.273.435.587.855.88 1.283.09.163.27.273.44.33.832.163 1.708.27 2.531.404-.057-.726.22-1.602-.424-2.09l-1.813.419c-.078.028-.155.102-.22.093.138-.358.204-.819.053-1.193l-.163-.294zm-1.561.11c.13.171.228.37.387.514l.163-.147c-.114-.212-.359-.265-.55-.367zm-.237.24l.33.494c.074-.033.16-.082.2-.163-.142-.2-.338-.257-.53-.33zm3.265 3.228c-.236-.012-.424.078-.624.147.2.04.412.065.624.09v-.237zm-.624.53c.216-.008.416.093.624.057-.008-.082.012-.171-.02-.24-.237-.02-.429.101-.604.183zm.587.167c-.236-.02-.416.094-.607.183l.607.09v-.273zm0 .367c-.248-.04-.424.09-.624.162.204.033.42.094.624.074V15.9zm-.02.346c-.245-.049-.416.077-.604.167.188.053.425.049.604.074v-.24zm2.934.974c.196.053.44.05.623.073-.008-.08.017-.17-.016-.24-.228-.008-.465.102-.607.167zm.607.183c-.244-.02-.428.094-.623.184.203.033.42.09.623.073v-.257zm-.644.53c.208.029.416.106.624.074-.004-.078.016-.167-.016-.236-.253-.062-.404.11-.608.162zm.587.184c-.244-.024-.42.11-.623.183l.644.074-.02-.257zm0 .35c-.24-.016-.448.086-.623.184l.623.073v-.257zm2.567 1.504c-.138.167-.11.46-.162.603.117-.159.268-.31.382-.477-.065-.057-.142-.09-.22-.126zm.294.183c-.134.172-.127.46-.147.624.135-.135.212-.29.35-.424.05-.106-.134-.139-.203-.2zm.313.2c-.166.163-.138.408-.166.624l.387-.477c-.078-.05-.143-.114-.22-.147zm.294.204c-.167.163-.139.403-.167.623l.387-.497c-.07-.057-.147-.09-.22-.126zm.293.183c-.13.175-.158.395-.167.624.123-.167.265-.322.367-.498-.065-.04-.126-.102-.2-.126zM15.696.105h-2.443v3.44h-1.61V.105H8.87v3.44H7.26V.105H4.489v3.44h-1.61V.105H.106v4.038h.58V.685h1.611v3.44h2.771V.686H6.68v3.44h2.771V.686h1.61v3.44h2.773V.686h1.571v3.463h.58V.105h-.29"/>
    </g>
</svg>
