<svg xmlns="http://www.w3.org/2000/svg" width="22" height="16" viewBox="0 0 22 16">
    <path fill="#FFF" fill-rule="nonzero" d="M20.625 8.264l-.344-1.324c-.132-.51.041-1.01.479-1.05.348-.033.629.334.629.66 0 .653-.378 1.182-.525 1.395-.036.053-.126.17-.239.32zm-.095 5.78a.505.505 0 0 1 .014.126c0 .224-.17.396-.423.396-.25 0-.39-.229-.39-.396 0-.224.171-.42.413-.413h.024l-.23-.355-.067-.107-.649-1.018-.134-.21-.423-.662s-.073-.12-.11-.232c-.008-.021-.012-.039-.015-.055a.107.107 0 0 0-.007-.028.555.555 0 0 1 .83-.576l-.07-.154-1.61-3.5.806-.6 2.041 7.785zm-3.802-.288l-.067.095-.232.328s-.174.23-.246.29a.404.404 0 1 1-.28-.697c.147 0 .26.053.33.14l.029.042.133-.38.015-.044a727.951 727.951 0 0 1 1.269-3.594c.047-.126.164-.338.423-.391.165-.035.254-.004.299.021l.265.574c-.39 0-.711.323-.711.808 0 .205.113.447.27.696l-1.497 2.112zm.186-6.937l-.412.305-.67.498a.453.453 0 0 1-.357.063c-.187-.054-.353-.246-.357-.414-.007-.232.135-.457.44-.452a.496.496 0 0 1 .32.127l.412-.304.176-.13 1.733-1.282-.13-.55-.9.68a2.404 2.404 0 0 1 .224-1.633c.127-.23.46-.747 1.078-1.064.112-.057.221-.103.319-.137.187.007.383.01.546.008.477-.011.65-.302.696-.489.031-.119.075-.4.092-.778.005-.129.005-.298.005-.468.632.198 1.21.85 1.267 1.575.068.889-.416 1.423-.769 1.686L16.914 6.82zM6.234 4.692L6.39 6.29a.904.904 0 0 0-.253.053l-.77-.58 1.656-3.557.152 1.824h7.648l.152-1.824 1.657 3.557-.771.58a.898.898 0 0 0-.252-.053l.156-1.6H6.233zM15 6.415a.968.968 0 0 0-.124 1.503l-.035.43-.078.966-.16 1.929c-.02.294-.075.58-.163.85L7.3 5.227h7.8L15 6.415zm-7.224 6.201a4.99 4.99 0 0 1-.17-.48h6.022l.5.48H7.776zm5.686 1.023H8.444c-.14-.139-.27-.301-.389-.481h5.827c-.112.147-.243.31-.42.48zm-2.432 1.08a3.58 3.58 0 0 1-1.941-.538h3.792c-.47.321-1.24.538-1.851.538zm-3.644-3.606h5.181l.5.48H7.472a8.525 8.525 0 0 1-.086-.48zm-.124-1.021h4.243l.5.48H7.31a12.175 12.175 0 0 1-.049-.48zm-.076-1.02h3.26l.497.479H7.22c-.01-.16-.022-.32-.035-.479zm-.073-1.024h2.269l.5.481H7.148l-.035-.48zm.314-1.022h.894l.5.48H7.41a.878.878 0 0 0 .045-.268.884.884 0 0 0-.029-.212zM7 6.442c-.063-.438-.103-.878-.103-.878l.861.92h-.706c-.017-.013-.034-.031-.052-.042zm-.473 1.243a.454.454 0 0 1-.358-.063l-.669-.498-.413-.305L1.374 4.06c-.352-.263-.838-.797-.769-1.686C.662 1.65 1.241.997 1.871.8c0 .17 0 .34.006.468.016.377.063.66.092.778.046.187.22.478.696.489.163.003.36-.001.547-.008.096.034.206.08.319.137.616.317.948.834 1.076 1.064.312.596.323 1.191.224 1.634l-.9-.681-.13.55 1.735 1.281.176.13.41.305a.476.476 0 0 1 .314-.125c.312-.007.456.218.449.45-.005.168-.172.36-.359.414zM2.707 10.36l-.068.154a.554.554 0 0 1 .828.576l-.007.028c-.003.016-.006.034-.012.048-.039.12-.113.239-.113.239l-.422.662-.135.21-.65 1.018-.066.107-.228.355h.023a.402.402 0 0 1 .412.413c0 .167-.14.396-.389.396-.254 0-.422-.172-.422-.396 0-.018-.002-.077.011-.125L3.512 6.26l.804.599-1.609 3.5zM3.9 9.545c.26.053.375.265.424.39.04.103.91 2.582 1.267 3.595l.015.044.135.38.026-.041a.408.408 0 0 1 .331-.14.404.404 0 1 1-.28.697c-.072-.061-.244-.29-.244-.29l-.234-.33-.067-.094-1.495-2.112c.155-.25.271-.49.271-.696 0-.485-.324-.808-.714-.808l.267-.574c.043-.025.134-.056.298-.021zm2.084-7.358a.417.417 0 0 1-.202-.357c0-.21.194-.415.407-.415.226 0 .41.186.41.415 0 .073-.02.14-.048.2L5.34 4.658c-.009-.07-.026-.174-.052-.33a2.513 2.513 0 0 0-.148-.507l.842-1.634zM7.797.665l.03.662h.38L8.176.665h.387l.048 1.026H7.469L7.405.665h.392zm.854 1.931H7.528l-.034-.533h1.131l.026.533zm.638-1.93l.023.66h.375l-.021-.66h.367l.021 1.025H8.988L8.955.665h.334zm.785 1.93H9.02l-.018-.533h1.06l.012.533zm.722-1.93l.003.66h.407v-.66h.353l-.013 1.025h-1.092L10.443.665h.354zm1.142 1.397h1.06l-.017.533h-1.055l.012-.533zm.03-1.398h.367l-.023.662h.377l.023-.662h.334l-.035 1.026h-1.065l.021-1.026zm-1.51 1.398h1.084l-.007.533h-1.068l-.009-.533zm.476.907H14.45l-.04.657H7.591l-.041-.657h3.383zm2.441-.907h1.131l-.032.533H13.35l.025-.533zm.062-1.398h.388l-.03.662h.379l.032-.662h.39l-.065 1.026H13.39l.047-1.026zm2.375.75c.214 0 .408.206.408.415 0 .152-.08.284-.202.357l.843 1.634c-.071.177-.123.35-.15.507-.026.156-.043.26-.053.33L15.45 2.03a.453.453 0 0 1-.048-.2c0-.23.184-.415.41-.415zM1.72 6.94l-.344 1.324c-.112-.148-.202-.266-.239-.32C.99 7.733.613 7.204.613 6.55c0-.325.28-.692.628-.66.438.041.61.54.478 1.05zm19.523 2.976a.689.689 0 0 0-.157.025l-.266-.957.135-.174c.404-.526.646-.83.827-1.18.28-.533.243-1.064.153-1.4-.202-.752-.796-.93-1.15-.911-.53.025-.854.319-.99.656a1.67 1.67 0 0 0-.053 1.006l.465 1.85c-.143.186-.266.381-.35.487l-.88-3.426 1.963-1.448a2.32 2.32 0 0 0 .75-2.878C21.34.878 20.841.53 20.41.372a2.091 2.091 0 0 0-.293-.092l-.007-.12c-.007-.09-.112-.13-.203-.148-.2-.043-.257.04-.257.07l-.006.12c-.48-.053-1.505-.047-1.505-.047l.002.282v.702l.407.048c.039.001.09.041.09.114 0 .077-.059.12-.114.134a.26.26 0 0 1-.093.015l-1.261-.14.153.48c.489.055.874.088 1.157.104.367 0 .63-.265.63-.593a.594.594 0 0 0-.562-.592V.593c.17.004.377.012.603.032a.613.613 0 0 0 .157.283c.097.103.2.183.292.242l-.004.147s.012.243-.01.444c-.022.204-.142.356-.584.372a5.903 5.903 0 0 1-.938-.068l.029.31c-.17.096-.34.235-.557.428-.143.13-.284.31-.409.511l-.528-1.02a.91.91 0 0 0 .178-.535c0-.504-.462-.913-.947-.913a.946.946 0 0 0-.767.37l.08-.958H6.86l.079.959A.943.943 0 0 0 6.17.826c-.485 0-.947.409-.947.913 0 .2.067.383.18.535l-.53 1.02a2.397 2.397 0 0 0-.409-.51c-.217-.194-.386-.333-.557-.428l.03-.31s-.519.08-.939.067c-.441-.016-.562-.168-.584-.372-.022-.201-.008-.444-.008-.444l-.006-.147c.091-.059.196-.139.294-.242a.616.616 0 0 0 .156-.283c.227-.02.432-.028.603-.032v.116a.595.595 0 0 0 .03 1.186c.32-.017.706-.05 1.194-.105l.153-.48-1.255.14a.266.266 0 0 1-.098-.015c-.057-.015-.114-.057-.115-.134-.001-.073.051-.113.09-.114l.408-.048V.437l.004-.282S2.838.15 2.356.202l-.005-.12c0-.03-.056-.113-.258-.07-.09.019-.194.059-.203.148-.001.018-.002.061-.006.12a2.09 2.09 0 0 0-.294.092C1.16.53.663.878.313 1.566c-.369.719-.379 2.05.748 2.878l1.964 1.448-.88 3.426c-.084-.106-.205-.301-.349-.486l.463-1.851a1.683 1.683 0 0 0-.053-1.006c-.136-.337-.457-.631-.99-.656-.354-.019-.948.159-1.15.912a1.95 1.95 0 0 0 .152 1.4c.183.349.424.653.828 1.179l.134.174-.263.957a.704.704 0 0 0-.158-.025.537.537 0 0 0-.56.534.559.559 0 0 0 1.033.299c.086-.127.165-.456.257-.773l.123-.428.364.471-1.064 3.998c-.142.605.399 1.124.957 1.122.5-.007.978-.408.958-.97-.01-.263-.113-.457-.28-.585l.913-1.444 1.72 2.43c.134.195.239.281.257.296a.951.951 0 0 0 .68.284c.479 0 .97-.427.97-.958 0-.53-.418-.978-.97-.879-.01.002-.43-1.154-1.259-3.468a1.567 1.567 0 0 0-.354-.582c-.177-.168-.433-.166-.535-.16a.936.936 0 0 0-.167.028l.912-1.97 1.143.86a.957.957 0 0 0 .722.207l.316 3.236a4.077 4.077 0 0 0 1.406 2.71 4.132 4.132 0 0 0 2.7 1.006 4.107 4.107 0 0 0 4.105-3.716l.316-3.236a.955.955 0 0 0 .722-.206l1.142-.862.912 1.97a.904.904 0 0 0-.167-.028c-.101-.005-.358-.007-.534.16a1.554 1.554 0 0 0-.354.583l-1.218 3.477c-.594-.108-1.012.34-1.012.87s.493.958.97.958a.955.955 0 0 0 .681-.284c.017-.015.122-.101.258-.295l1.72-2.431.91 1.444c-.166.128-.27.322-.279.586-.02.561.46.962.958.969.56.002 1.102-.517.957-1.122-.01-.048-.837-3.151-1.063-3.998l.362-.47.125.427c.093.317.171.646.256.773.1.159.275.261.474.261.31 0 .56-.248.56-.56a.537.537 0 0 0-.56-.534z" opacity="1.00"/>
</svg>
