<?xml version="1.0" encoding="UTF-8"?>
<svg width="21px" height="21px" viewBox="0 0 21 21" version="1.1" xmlns="http://www.w3.org/2000/svg" xmlns:xlink="http://www.w3.org/1999/xlink">
    <!-- Generator: Sketch 48.2 (47327) - http://www.bohemiancoding.com/sketch -->
    <title>icon-phone</title>
    <desc>Created with Sketch.</desc>
    <defs></defs>
    <g id="Page-1" stroke="none" stroke-width="1" fill="none" fill-rule="evenodd">
        <g id="icon-phone" fill="#00CA94" fill-rule="nonzero">
            <path d="M15.6331055,20.671875 C15.6331055,20.671875 15.6331055,20.671875 15.6331055,20.671875 C12.6615234,20.671875 8.75324706,18.6046875 5.39406738,15.2778076 C0.904394531,10.755835 -1.13049316,5.32946778 0.645996094,2.55168458 C0.710595703,2.39018555 0.807495117,2.26098633 0.936694336,2.16408692 L2.58398438,0.516796875 C2.93928223,0.193798828 3.3914795,0 3.90827637,0 C4.48967286,0 5.03876953,0.258398437 5.4909668,0.678295898 L8.43024902,3.61757813 C9.27004395,4.45737305 9.33464356,5.74936523 8.55944825,6.49226075 L6.68605956,8.36564942 C7.42895508,9.43154297 8.3010498,10.4651367 9.23774414,11.4341309 C10.2067383,12.403125 11.240332,13.24292 12.3062256,13.9858155 L14.1796142,12.1124268 C14.5349122,11.7571289 14.9871094,11.5956299 15.5039062,11.5956299 C16.0853028,11.5956299 16.6343994,11.8540283 17.0865967,12.2739258 L20.0258789,15.213208 C20.4134766,15.6008056 20.6395752,16.1176025 20.7041748,16.6343994 C20.7364745,17.1834961 20.5426758,17.7325928 20.187378,18.0878906 L18.5400878,19.7351806 C18.4431884,19.8320801 18.3139892,19.9289795 18.1524902,20.0258789 C17.4418945,20.4457764 16.6020997,20.671875 15.6331055,20.671875 Z M3.90827637,1.29199219 C3.77907715,1.29199219 3.61757812,1.32429199 3.52067872,1.45349122 L1.84108887,3.10078125 C1.84108887,3.10078125 1.80878906,3.13308105 1.80878906,3.16538086 L1.77648926,3.22998047 C0.290698242,5.45866699 2.29328614,10.3359375 6.33076172,14.3411133 C9.36694336,17.4095947 13.0168213,19.3798828 15.6331055,19.3798828 C16.3760009,19.3798828 16.9573975,19.2183838 17.4418945,18.9276855 L17.5064942,18.8953858 C17.5710937,18.8630859 17.5710937,18.8630859 17.5710937,18.8630859 L19.2183838,17.2157959 C19.3798828,17.0542969 19.3798828,16.860498 19.3798828,16.7635986 C19.3798828,16.5375 19.2506836,16.3437012 19.0891845,16.1499023 L16.1499023,13.1783203 C15.9561036,12.9845215 15.7300048,12.8876221 15.5039062,12.8876221 C15.374707,12.8876221 15.213208,12.9199219 15.1163086,13.0491211 L13.2106201,14.9548095 C12.7907227,15.374707 12.1124268,15.4070069 11.6279297,15.0517089 C10.4974365,14.2765136 9.39924317,13.3398194 8.39794922,12.3385254 C7.36435547,11.3049316 6.45996094,10.2390381 5.68476562,9.10854492 C5.32946778,8.59174805 5.36176758,7.91345214 5.78166505,7.52585449 L7.68735352,5.62016602 C7.94575195,5.36176758 7.88115234,4.8772705 7.5581543,4.55427245 L4.61887208,1.61499023 C4.36047364,1.3888916 4.134375,1.29199219 3.90827637,1.29199219 Z" id="Shape"></path>
        </g>
    </g>
</svg>