<svg xmlns="http://www.w3.org/2000/svg" width="26" height="21" viewBox="0 0 26 21">
    <path fill="#B8D4CB" fill-rule="nonzero" d="M25.855 2.574c-.94.418-1.953.7-3.015.828A5.279 5.279 0 0 0 25.148.496a10.515 10.515 0 0 1-3.335 1.274 5.251 5.251 0 0 0-8.945 4.79 14.908 14.908 0 0 1-10.821-5.49 5.23 5.23 0 0 0-.711 2.645c0 1.82.926 3.426 2.336 4.367a5.205 5.205 0 0 1-2.379-.656v.066a5.255 5.255 0 0 0 4.21 5.149 5.204 5.204 0 0 1-1.382.183c-.34 0-.668-.031-.988-.094a5.252 5.252 0 0 0 4.902 3.645 10.508 10.508 0 0 1-6.52 2.246c-.425 0-.84-.023-1.25-.07a14.858 14.858 0 0 0 8.047 2.355c9.657 0 14.938-8 14.938-14.933 0-.23-.004-.457-.016-.684a10.501 10.501 0 0 0 2.621-2.715"/>
</svg>
