<?xml version="1.0" encoding="UTF-8"?>
<svg width="80px" height="81px" viewBox="0 0 80 81" version="1.1" xmlns="http://www.w3.org/2000/svg" xmlns:xlink="http://www.w3.org/1999/xlink">
    <!-- Generator: Sketch 46.2 (44496) - http://www.bohemiancoding.com/sketch -->
    <title>icon-instagram</title>
    <desc>Created with Sketch.</desc>
    <defs></defs>
    <g id="Page-1" stroke="none" stroke-width="1" fill="none" fill-rule="evenodd">
        <g id="icon-instagram">
            <path d="M64,80.1 L16,80.1 C7.2,80.1 0,72.9 0,64.1 L0,16 C0,7.2 7.2,0 16,0 L64,0 C72.8,0 80,7.2 80,16 L80,64 C80.1,72.8 72.8,80.1 64,80.1 Z" id="Shape" fill="#B8D4CB" fill-rule="nonzero"></path>
            <path d="M52.4,68.5 L27.6,68.5 C18.8,68.5 11.6,61.3 11.6,52.5 L11.6,27.6 C11.6,18.8 18.8,11.6 27.6,11.6 L52.5,11.6 C61.3,11.6 68.5,18.8 68.5,27.6 L68.5,52.5 C68.5,61.2 61.2,68.5 52.4,68.5 Z" id="Shape" stroke="#FFFFFF" stroke-width="4.0051"></path>
            <circle id="Oval" stroke="#FFFFFF" stroke-width="4.0051" cx="40" cy="40" r="13.4"></circle>
            <circle id="Oval" fill="#FFFFFF" fill-rule="nonzero" cx="57.4" cy="23.3" r="4"></circle>
        </g>
    </g>
</svg>