<svg width="16" height="16" viewBox="0 0 16 16" fill="none" xmlns="http://www.w3.org/2000/svg">
    <path d="M2 4.5h2c0 .551.449 1 1 1h1c.551 0 1-.449 1-1h7a.5.5 0 1 0 0-1H7c0-.551-.449-1-1-1H5c-.551 0-1 .449-1 1H2a.5.5 0 1 0 0 1zM14 7.5h-3c0-.551-.448-1-1-1H9c-.552 0-1 .449-1 1H2a.5.5 0 1 0 0 1h6c0 .552.448 1 1 1h1c.552 0 1-.448 1-1h3a.5.5 0 1 0 0-1zM14 11.5H7c0-.552-.449-1-1-1H5c-.551 0-1 .448-1 1H2a.5.5 0 1 0 0 1h2c0 .552.449 1 1 1h1c.551 0 1-.448 1-1h7a.5.5 0 1 0 0-1z" fill="#5BC798"/>
</svg>
