<svg width="29" height="26" viewBox="0 0 29 26" fill="none" xmlns="http://www.w3.org/2000/svg">
    <path d="M5.782 22.844a.615.615 0 0 0-.226-.777c-.025-.016-.053.022-.027.039a.569.569 0 0 1 .21.723c-.014.026.03.042.043.015zM4.475 22.417a.35.35 0 0 1-.223.253c-.029.01-.008.052.02.042a.402.402 0 0 0 .247-.28.024.024 0 0 0 0-.017.024.024 0 0 0-.014-.012.024.024 0 0 0-.03.014z" fill="#fff"/>
    <path d="M10.489 10.511h-.114V7.454c0-.47-.19-.92-.527-1.252a1.814 1.814 0 0 0-1.272-.518H1.991a1.825 1.825 0 0 0-1.273.518 1.768 1.768 0 0 0-.527 1.251V24.23c0 .47.19.92.527 1.252.338.332.795.518 1.273.518h6.585c.477 0 .935-.186 1.272-.518.338-.332.527-.782.527-1.252V12.688h.114v-2.177z" fill="#3F3D56"/>
    <path d="M9.992 7.466v16.752a1.303 1.303 0 0 1-.393.935 1.345 1.345 0 0 1-.95.387H2.03c-.356 0-.698-.14-.95-.387a1.31 1.31 0 0 1-.393-.935V7.466a1.303 1.303 0 0 1 .393-.934 1.345 1.345 0 0 1 .95-.387h.803a.619.619 0 0 0 .29.79.647.647 0 0 0 .301.075h3.773a.647.647 0 0 0 .53-.278.622.622 0 0 0 .06-.587h.86a1.363 1.363 0 0 1 .95.387 1.32 1.32 0 0 1 .394.934z" fill="#F8FAF9"/>
    <path d="M.368 8.908H0v1.944h.368V8.908zM.368 11.078H0v1.13h.368v-1.13zM.368 12.434H0v1.13h.368v-1.13z" fill="#3F3D56"/>
    <path d="M3.538 6.603c.102 0 .184-.081.184-.181 0-.1-.082-.18-.184-.18a.182.182 0 0 0-.184.18c0 .1.083.18.184.18z" fill="#fff"/>
    <path d="M27.836.757H17.084c-.309 0-.605.12-.823.335-.218.215-.341.506-.341.81v17.815c0 .432.174.846.484 1.15.31.306.732.477 1.17.477h9.771a1.678 1.678 0 0 0 1.17-.476A1.625 1.625 0 0 0 29 19.717V1.902c0-.304-.123-.595-.341-.81a1.174 1.174 0 0 0-.823-.335z" fill="#3F3D56"/>
    <path d="M16.785 18.713V2.35H28.12v16.363a.513.513 0 0 1-.154.366.53.53 0 0 1-.372.151H17.311a.53.53 0 0 1-.372-.151.513.513 0 0 1-.154-.366z" fill="#fff"/>
    <path d="M22.46 21.086a.808.808 0 0 1-.444-.132.774.774 0 0 1-.12-1.208.802.802 0 0 1 .869-.17c.146.059.27.16.358.289a.776.776 0 0 1-.1.99.807.807 0 0 1-.564.231zm0-1.422a.654.654 0 0 0-.599.393.627.627 0 0 0 .14.695.651.651 0 0 0 .706.138.63.63 0 0 0 .21-1.039.654.654 0 0 0-.458-.187zM24.763 1.424h-4.607a.067.067 0 0 0-.068.067v.15c0 .036.03.066.068.066h4.607c.037 0 .068-.03.068-.067v-.15a.067.067 0 0 0-.068-.066z" fill="#D5DDE0"/>
    <g opacity=".3" fill="#CACACA">
        <path opacity=".3" d="m20.887 2.321-4.114 5.902V5.969l2.543-3.648h1.57zM28.145 2.321v2.265l-10.226 14.67h-.618a.532.532 0 0 1-.373-.152.515.515 0 0 1-.155-.367V12.73L24.03 2.32h4.116zM28.145 7.403v4.086l-5.415 7.767h-2.847l8.262-11.853zM28.145 14.023V16.7l-1.782 2.556h-1.865l3.647-5.233z"/>
    </g>
    <path d="M4.237 5.913c.135-.193.279-.378.427-.56a16.263 16.263 0 0 1 1.959-2.016 15.228 15.228 0 0 1 1.684-1.275A13.304 13.304 0 0 1 10.82.768c.444-.17.897-.314 1.357-.43.463-.117.933-.203 1.406-.26l.179-.02c.06-.007.119-.011.179-.016l.179-.015.09-.007.09-.004c.119-.005.239-.011.359-.015l.36-.001a12.3 12.3 0 0 1 1.442.105c.478.07.952.164 1.42.284.118.03.234.065.35.098l.175.05.173.056.346.114.341.126.17.064.168.07.336.14.331.151.168.077c.055.025.108.054.163.08l.325.165c.056.027.108.056.16.085l.16.088.16.087c.053.03.108.059.16.09l.313.186c.83.502 1.625 1.063 2.383 1.678l-1.445 1.778a19.399 19.399 0 0 0-1.99-1.735l-.263-.196c-.044-.034-.09-.064-.134-.095l-.134-.093-.134-.093c-.045-.032-.09-.063-.136-.092l-.274-.175-.137-.088-.14-.082-.279-.167-.284-.155-.143-.077-.144-.073-.29-.144-.295-.133-.15-.066-.149-.061c-.1-.04-.199-.082-.3-.12-.402-.15-.813-.278-1.228-.385-.418-.101-.84-.178-1.267-.23l-.32-.034c-.108-.008-.216-.014-.323-.02l-.081-.006-.08-.002-.162-.004c-.055 0-.108-.003-.162-.004l-.162.002c-.435.005-.869.037-1.299.098-.434.061-.864.15-1.288.262a12.47 12.47 0 0 0-2.49.968 14.5 14.5 0 0 0-1.177.677 16.807 16.807 0 0 0-1.124.786 16.175 16.175 0 0 0-1.562 1.368 9.53 9.53 0 0 0-.479.51z" fill="#107DF3"/>
    <path d="m21.602 6.015 4.372.842-1.49-4.39-2.882 3.548zM25.974 19.887a9.722 9.722 0 0 1-.427.56 16.173 16.173 0 0 1-1.96 2.017 15.321 15.321 0 0 1-1.684 1.274c-.792.52-1.634.954-2.511 1.293-.444.17-.897.315-1.356.431a11.13 11.13 0 0 1-1.407.258l-.178.022-.18.015-.178.015-.09.007-.09.004-.36.015h-.36a12.32 12.32 0 0 1-1.44-.106 13.488 13.488 0 0 1-1.423-.283c-.117-.03-.233-.065-.35-.098l-.174-.048-.173-.056-.345-.114-.341-.126-.171-.064-.167-.07-.337-.14-.33-.151-.166-.077c-.056-.025-.11-.054-.163-.08l-.326-.165c-.056-.026-.108-.056-.161-.085l-.16-.088-.16-.087c-.053-.03-.107-.059-.158-.09l-.313-.186a21.2 21.2 0 0 1-2.383-1.677l1.446-1.779c.625.625 1.29 1.205 1.99 1.735l.262.197c.044.033.09.063.134.094l.134.093.135.094c.044.03.089.063.135.091l.274.175.138.088.139.083.278.166.285.155.142.079.144.072.29.145.295.132.148.066.15.06c.099.04.198.082.299.12.403.15.813.279 1.229.385.417.102.84.178 1.266.23l.321.034.322.021.081.005.081.003.162.004.162.003.162-.002c.434-.004.868-.037 1.298-.097.434-.062.864-.15 1.289-.263.86-.232 1.693-.556 2.489-.968a14.553 14.553 0 0 0 1.746-1.056 15.747 15.747 0 0 0 2.114-1.774 8.53 8.53 0 0 0 .482-.511z" fill="#107DF3"/>
    <path d="m8.61 19.785-4.373-.843 1.49 4.39 2.883-3.547z" fill="#107DF3"/>
</svg>
