<svg xmlns="http://www.w3.org/2000/svg" width="92" height="15" viewBox="0 0 92 15">
    <g fill="none" fill-rule="nonzero">
        <g fill="#178CD3">
            <path d="M9.318 8.033l1.063 2.452a12.15 12.15 0 0 0 .93-1.654c.134-.266.237-.532.34-.798H9.318z"/>
            <path d="M12.449 1.314l-.015-.192-.162-.088c-.074-.03-1.92-.916-5.981-.916h-.015C2.216.118.37.99.296 1.034l-.178.088-.015.192c0 .089-.118 2.319.03 3.397l.015.192c.088.709.265 2.17 1.078 3.928C2.23 11 3.869 12.89 6.069 14.428l.192.133.192-.133a15.642 15.642 0 0 0 2.924-2.614l-1.373-3.16-1.713 1.654-.015-8.093L11.77 7.71c.428-1.24.56-2.26.634-2.806l.03-.192c.133-1.078.015-3.308.015-3.397z"/>
        </g>
        <path fill="#178CD3" d="M19.936 5.228a1.23 1.23 0 0 0-.59-.414 2.134 2.134 0 0 0-.71-.133c-.133 0-.266.015-.398.045-.133.03-.266.073-.4.147a.73.73 0 0 0-.295.266.672.672 0 0 0-.118.399c0 .25.089.428.28.56.193.134.414.237.695.34.28.09.59.192.9.281.326.089.621.222.902.399.28.162.516.399.694.68.192.28.28.664.28 1.136 0 .458-.088.857-.25 1.196-.163.34-.4.62-.695.842-.295.222-.62.384-1.004.502a4.611 4.611 0 0 1-1.21.163 4.363 4.363 0 0 1-1.478-.237c-.457-.162-.87-.428-1.27-.782l1.285-1.403c.192.25.414.443.694.576.28.133.576.206.871.206.148 0 .296-.014.443-.059.148-.03.281-.088.4-.162a1.03 1.03 0 0 0 .295-.266.65.65 0 0 0 .103-.384.695.695 0 0 0-.28-.59 2.661 2.661 0 0 0-.71-.37 9.93 9.93 0 0 0-.93-.295 5.192 5.192 0 0 1-.93-.399 2.339 2.339 0 0 1-.709-.664c-.192-.28-.28-.65-.28-1.093 0-.443.088-.827.265-1.152.177-.325.399-.605.694-.827.296-.221.62-.384 1.004-.502a3.907 3.907 0 0 1 1.167-.162c.458 0 .916.059 1.344.192.428.132.827.354 1.166.664l-1.225 1.3zM27.452 5.346a1.794 1.794 0 0 0-.65-.502 2.131 2.131 0 0 0-.9-.178c-.34 0-.65.06-.945.192-.296.133-.547.31-.753.547a2.657 2.657 0 0 0-.503.842c-.118.324-.177.679-.177 1.048 0 .384.06.738.177 1.063.119.325.281.591.488.827.207.237.458.414.738.547.28.133.59.192.9.192a2 2 0 0 0 .99-.237c.28-.147.517-.369.71-.65l1.505 1.123c-.34.487-.782.842-1.314 1.078a3.98 3.98 0 0 1-1.639.34 5.31 5.31 0 0 1-1.772-.296 4.216 4.216 0 0 1-1.403-.856c-.399-.37-.694-.827-.916-1.359-.221-.532-.324-1.122-.324-1.787 0-.65.103-1.255.324-1.787.222-.531.532-.989.916-1.358.399-.37.857-.665 1.403-.857.546-.206 1.122-.295 1.772-.295.236 0 .473.015.724.06.25.043.502.102.738.206.236.088.472.221.694.369.222.148.428.34.605.561l-1.388 1.167zM29.83 3.22h1.801v3.056h3.5V3.22h1.802V11.4H35.13V7.87h-3.5v3.53H29.83zM44.715 8.255c0 .487-.074.93-.221 1.344a2.99 2.99 0 0 1-.65 1.063 3.26 3.26 0 0 1-1.078.709c-.428.162-.93.25-1.492.25a4.233 4.233 0 0 1-1.506-.25 2.75 2.75 0 0 1-1.078-.709 2.793 2.793 0 0 1-.65-1.063 3.947 3.947 0 0 1-.221-1.344V3.234h1.802v4.962c0 .25.044.487.118.709.074.221.192.398.34.56.147.163.324.281.531.37.207.089.428.133.664.133.237 0 .458-.044.665-.133.207-.089.37-.207.517-.37.148-.162.266-.339.34-.56a2.23 2.23 0 0 0 .118-.71V3.22h1.801v5.036zM47.816 4.814h-2.333V3.22h6.468v1.595h-2.333V11.4h-1.802zM52.557 9.746l4.15-4.932h-4.003V3.22h6.188v1.595l-4.076 4.932h4.209v1.67h-6.468z"/>
        <path fill="#68BD45" d="M59.542 3.22h1.801v3.396l3.175-3.397h2.363l-3.648 3.795 3.958 4.386h-2.525l-3.323-3.883V11.4h-1.801zM67.723 3.22h1.801v6.526h3.338v1.67h-5.14zM73.66 3.22h1.8v8.18h-1.8zM81.943 5.346a1.794 1.794 0 0 0-.65-.502 2.131 2.131 0 0 0-.9-.178c-.34 0-.65.074-.945.207-.296.133-.547.31-.753.547a2.657 2.657 0 0 0-.502.841c-.119.325-.178.68-.178 1.049 0 .384.06.738.178 1.063.118.325.28.59.487.827.207.236.458.413.738.546.28.133.591.192.901.192a2 2 0 0 0 .99-.236c.28-.148.516-.37.708-.65l1.507 1.123c-.34.487-.783.841-1.315 1.078a3.98 3.98 0 0 1-1.639.34 5.31 5.31 0 0 1-1.772-.296 4.216 4.216 0 0 1-1.403-.857c-.399-.369-.694-.827-.915-1.358-.222-.532-.325-1.122-.325-1.787 0-.65.103-1.255.325-1.787.221-.531.531-.99.915-1.358.399-.37.857-.665 1.403-.857.546-.207 1.122-.295 1.772-.295.236 0 .473.015.724.059.25.044.502.103.738.207.236.088.473.221.694.369.222.147.428.34.606.56l-1.389 1.153zM84.35 3.22h1.802v3.396l3.175-3.397h2.363l-3.648 3.795L92 11.4h-2.525l-3.323-3.883V11.4h-1.801V3.22z"/>
    </g>
</svg>
