<svg xmlns="http://www.w3.org/2000/svg" width="40" height="25" viewBox="0 0 40 25">
    <g fill="none" fill-rule="nonzero">
        <path fill="#ED1C24" d="M0 18.182v6.753h40v-6.753H0zm6.44 2.832s-.176-.22-.669-.22c-.58 0-.718.448-.718.887 0 .595.192.9.627.9a.62.62 0 0 0 .276-.043v-.713h.493v.944s-.217.21-.784.21c-.754 0-1.109-.537-1.109-1.24a1.63 1.63 0 0 1 .184-.814c.191-.334.531-.534 1.019-.534.24-.016.48.043.687.168v.456l-.005-.001zm.885 1.926h-.484v-2.7l.484-.057v2.762-.005zm1.151.04c-.499 0-.822-.318-.822-.943 0-.626.298-1.004.84-1.004.498 0 .82.317.82.943 0 .626-.295 1.002-.838 1.002v.002zm2.007 0a.655.655 0 0 1-.442-.159l-.397.148v-2.734l.485-.057v1.098a.5.5 0 0 1 .47-.245c.417 0 .673.318.673.926-.005.886-.454 1.015-.788 1.015l-.001.008zm2.46-.046l-.453.028v-.236a.469.469 0 0 1-.47.25c-.383 0-.527-.293-.527-.577 0-.582.47-.61.784-.625l.205-.01v-.086c0-.112 0-.288-.34-.288a.646.646 0 0 0-.461.168v-.373s.17-.143.599-.143c.647 0 .67.38.67.617v1.27l-.007.005zm.906.014h-.483v-2.7l.485-.057v2.762l-.002-.005zm2.564 0l-.203-.735h-.773l-.197.735h-.47l.768-2.525h.658l.74 2.525h-.523zm1.176.032a.86.86 0 0 1-.538-.137l-.017-.398c.144.12.326.183.512.18.146 0 .276-.03.276-.172 0-.108-.06-.14-.194-.216l-.191-.104c-.195-.108-.366-.233-.366-.55 0-.49.394-.544.627-.544a.777.777 0 0 1 .499.14v.394a.652.652 0 0 0-.45-.183c-.188 0-.23.08-.23.159 0 .108.078.148.194.208l.197.105a.564.564 0 0 1 .361.53c.011.532-.439.58-.68.58v.008zm1.458 0a.86.86 0 0 1-.538-.137l-.017-.398c.144.12.326.183.512.18.146 0 .276-.03.276-.172 0-.108-.06-.14-.194-.216l-.191-.104c-.195-.108-.366-.233-.366-.55 0-.49.394-.544.627-.544a.777.777 0 0 1 .5.14v.394a.652.652 0 0 0-.45-.183c-.19 0-.231.08-.231.159 0 .108.078.148.194.208l.198.105a.564.564 0 0 1 .36.53c.011.532-.442.58-.679.58l-.001.008zm1.508-.032h-.486V21.06h.49v1.879l-.004.01zm-.245-2.212a.238.238 0 0 1-.194-.058.244.244 0 0 1-.082-.187.248.248 0 0 1 .079-.194.241.241 0 0 1 .197-.063c.07-.01.141.01.195.057a.244.244 0 0 1 .081.187.248.248 0 0 1-.08.188.241.241 0 0 1-.194.06l-.002.01zm1.137 2.246a.86.86 0 0 1-.538-.137l-.017-.399c.145.12.327.184.514.18.146 0 .276-.029.276-.172 0-.108-.06-.14-.194-.216l-.191-.103c-.195-.108-.366-.233-.366-.55 0-.49.394-.544.627-.544a.777.777 0 0 1 .5.14v.393a.652.652 0 0 0-.45-.182c-.19 0-.231.08-.231.159 0 .108.078.147.194.208l.2.104a.564.564 0 0 1 .36.53c.008.531-.442.579-.684.579v.01zm1.933-.075a.775.775 0 0 1-.374.071.492.492 0 0 1-.428-.18.758.758 0 0 1-.096-.458v-.93h-.191v-.34h.191v-.317l.484-.1v.42h.425v.34h-.425v.903a.435.435 0 0 0 .037.216c.04.059.109.091.18.086a.3.3 0 0 0 .216-.065l-.019.354zm1.647.028l-.453.029v-.237a.469.469 0 0 1-.47.251c-.383 0-.53-.293-.53-.578 0-.581.471-.61.785-.624l.205-.011v-.086c0-.111 0-.287-.34-.287a.646.646 0 0 0-.461.168v-.373s.17-.143.599-.143c.647 0 .67.38.67.616v1.27l-.005.005zm1.981.015h-.484v-1.1c0-.18 0-.4-.293-.4a.274.274 0 0 0-.211.076.281.281 0 0 0-.087.209v1.216h-.485V21.06h.47v.23a.554.554 0 0 1 .507-.259.566.566 0 0 1 .405.143c.129.147.192.342.174.539v1.226l.004.01zm1.644-.097a.826.826 0 0 1-.532.133c-.313 0-.807-.125-.807-.953 0-.305.07-.99.821-.99.186-.01.37.038.529.137v.4a.523.523 0 0 0-.397-.16c-.205 0-.461.057-.461.588 0 .333.102.596.484.596a.5.5 0 0 0 .383-.16l-.02.409zm1.78-.718h-1.097c0 .248.074.49.52.49.181.01.358-.05.496-.168l-.022.391s-.166.137-.605.137c-.38 0-.875-.14-.875-.953 0-.588.262-.987.825-.987.737 0 .75.653.75 1.038v.057l.009-.005z"/>
        <path fill="#ED1C24" d="M11.95 22.622a.208.208 0 0 0 .063.173.229.229 0 0 0 .181.061.266.266 0 0 0 .195-.07.243.243 0 0 0 .078-.184v-.264l-.157.01c-.204.014-.36.06-.36.274zM10.104 21.3a.206.206 0 0 0-.17.071.263.263 0 0 0-.063.193v.674a.24.24 0 0 0 .213.099c.208 0 .306-.153.306-.528s-.098-.51-.286-.51zM23.897 22.622a.208.208 0 0 0 .064.173.229.229 0 0 0 .181.061.266.266 0 0 0 .195-.07.243.243 0 0 0 .078-.184v-.264l-.157.01c-.205.014-.36.06-.36.274zM15.845 20.78c-.015.095-.035.19-.06.282l-.2.756h.519l-.204-.756a1.89 1.89 0 0 1-.055-.283zM8.573 21.299c-.19 0-.261.155-.261.518 0 .332.056.52.258.52s.261-.155.261-.517c0-.33-.058-.521-.258-.521zM29.357 21.299c-.258 0-.266.35-.266.52h.52c-.005-.246-.029-.52-.254-.52z"/>
        <path fill="#005399" d="M0 0v17.662h40V0H0zm7.731 10.935L7.39 9.72H5.947l-.365 1.214H4.35l1.328-3.96c.057-.129.09-.266.1-.406 0-.156-.106-.228-.304-.228h-.157v-.436h1.894a.492.492 0 0 1 .532.4l1.323 4.63H7.731zm2.874 0H9.407V6.623a.239.239 0 0 0-.066-.213.242.242 0 0 0-.214-.067h-.07v-.438h1.169a.354.354 0 0 1 .28.104.35.35 0 0 1 .1.28v4.646zm2.026 0h-1.185V6.623a.239.239 0 0 0-.067-.214.242.242 0 0 0-.216-.066h-.08v-.438h1.168a.356.356 0 0 1 .38.385v4.645zm2.055 0h-1.183V7.88a.242.242 0 0 0-.065-.216.246.246 0 0 0-.216-.07h-.069v-.429h1.152a.354.354 0 0 1 .282.104.35.35 0 0 1 .1.281v3.385zm-.66-4.027c-.425 0-.683-.202-.683-.543 0-.342.258-.54.683-.54.425 0 .684.203.684.54 0 .336-.252.543-.684.543zm4.75 4.027H17.69a.315.315 0 0 1-.268-.087.31.31 0 0 1-.089-.267v-.053a2.13 2.13 0 0 1-.508.324c-.203.08-.42.12-.638.12-.645 0-.955-.346-.955-1.062 0-.566.226-.935.706-1.123a2.73 2.73 0 0 1 .448-.144c.274-.06.425-.09.911-.166v-.084c0-.33-.114-.443-.434-.443a2.88 2.88 0 0 0-1.17.295l-.263-.725c.252-.137.523-.24.804-.302.298-.07.603-.106.91-.107.964 0 1.3.333 1.3 1.29v1.797c0 .24.074.332.28.332h.053v.405h-.002zm3.861 0h-1.184V8.547c0-.379-.06-.478-.313-.478a.831.831 0 0 0-.638.311v2.555h-1.184V7.88a.244.244 0 0 0-.066-.216.247.247 0 0 0-.216-.07h-.065v-.429h1.125c.1-.018.202.014.275.084a.31.31 0 0 1 .09.271v.156c.439-.406.764-.55 1.228-.55a.929.929 0 0 1 .715.264c.19.202.233.39.233.987v2.558zm3.514 0h-2.98v-.779l1.595-2.224h-.856a.238.238 0 0 0-.204.058.234.234 0 0 0-.075.197v.067h-.44V7.57c0-.28.128-.408.41-.408h2.473v.778l-1.579 2.201h1.654v.795h.002zm5.654 1.598c-2.225 0-3.887-1.65-3.887-3.86s1.662-3.861 3.887-3.861c2.224 0 3.886 1.654 3.886 3.861 0 2.207-1.668 3.86-3.886 3.86z"/>
        <path fill="#005399" d="M6.234 9.35h1.039l-.487-2.077zM16.104 10.01c0 .277.084.38.321.38.278-.022.535-.136.718-.32v-.72a3.806 3.806 0 0 0-.735.181c-.238.08-.304.205-.304.48zM31.69 5.195c-1.805 0-3.119 1.311-3.119 3.117 0 1.805 1.314 3.117 3.118 3.117 1.804 0 3.116-1.312 3.116-3.117 0-1.806-1.313-3.117-3.116-3.117zm-1.02 5.2h-1.08V7.203c0-.32.125-.436.44-.436h.638v3.625l.002.001zm1.561 0h-1.086V6.631c0-.263-.042-.313-.265-.313h-.057v-.458h.97c.32 0 .437.11.437.436v4.096l.001.001zm1.556 0H32.71V6.767h.636c.317 0 .441.115.441.436v3.19z"/>
    </g>
</svg>
