<svg xmlns="http://www.w3.org/2000/svg" width="60" height="60" viewBox="0 0 60 60">
    <path fill="#02CA95" fill-rule="nonzero" d="M46.504 32.01l-6.488-8.26a13.938 13.938 0 0 0 3.926-8.756H53.99v1.1a5.006 5.006 0 0 0-3.998 4.898 4.998 4.998 0 1 0 5.997-4.898v-2.1a1 1 0 0 0-1-.999H43.943a13.904 13.904 0 0 0-2.929-7.601l1.395-1.395h11.765a2.999 2.999 0 1 0 0-2H41.994a1 1 0 0 0-.707.294l-1.614 1.614c-5.555-5.35-14.395-5.183-19.745.371a13.964 13.964 0 0 0-3.873 8.717H7.658l-3.267-7.35a2.989 2.989 0 1 0-2.07.266l3.773 8.49a1 1 0 0 0 .914.593h9.047a13.932 13.932 0 0 0 3.856 8.674l-8.44 8.439C6.016 31.289.93 35.05.112 40.506c-.817 5.456 2.944 10.542 8.4 11.36.165.024.33.045.496.061v5.049a1 1 0 0 0 1 1h9.18a2.999 2.999 0 1 0 0-2h-8.181v-4.049a9.99 9.99 0 1 0 2.699-19.224l7.697-7.696a13.903 13.903 0 0 0 17.112.069l5.546 7.059c-7.658 1.068-13 8.141-11.931 15.798 1.068 7.658 8.142 13 15.8 11.931 7.657-1.068 12.999-8.141 11.93-15.799A13.999 13.999 0 0 0 46.504 32.01zm11.484-11.018a2.999 2.999 0 1 1-5.998 0 2.999 2.999 0 0 1 5.998 0zM56.988 2a1 1 0 1 1 0 2 1 1 0 0 1 0-2zM3.009 4a1 1 0 1 1 0-2 1 1 0 0 1 0 2zm18.993 51.976a1 1 0 1 1 0 2 1 1 0 0 1 0-2zm-7.997-7.078a7.93 7.93 0 0 1-7.997 0V46.98a3.998 3.998 0 0 1 7.997 0v1.918zm-5.998-9.914a2 2 0 1 1 3.998 0 2 2 0 0 1-3.998 0zm7.997-2.308a7.997 7.997 0 0 1 2 5.307 7.954 7.954 0 0 1-2 5.271v-.274a5.997 5.997 0 0 0-3.106-5.25 3.998 3.998 0 1 0-5.784 0 5.997 5.997 0 0 0-3.105 5.25v.274a7.996 7.996 0 1 1 11.995-10.578zm20.992-12.961a11.91 11.91 0 0 1-13.995 0v-2.423a3.299 3.299 0 0 1 3.299-3.299h2.22l-1.451 3.626a1 1 0 0 0 .222 1.079l1.999 2a1 1 0 0 0 1.413 0l2-2a1 1 0 0 0 .221-1.079l-1.449-3.626h2.222a3.299 3.299 0 0 1 3.299 3.299v2.423zM30.142 7.483a.994.994 0 0 0-.091.197c-.506 1.517-3.237 2.091-4.995 2.258.268-3.35 1.844-4.94 4.943-4.94 2.837 0 4.398 1.342 4.845 4.14l-3.33-1.998a1 1 0 0 0-1.372.343zm1.235 1.908l3.573 2.144c-.401 2.447-3.417 4.459-4.951 4.459a6.298 6.298 0 0 1-4.86-4.05c1.712-.141 4.802-.66 6.238-2.553zm-.553 12.36l-.825.826-.826-.827.826-2.066.825 2.066zm3.536-5.711a6.94 6.94 0 0 0 2.636-5.044C36.996 4.387 33.19 3 29.999 3 26.807 3 23 4.387 23 10.996a6.939 6.939 0 0 0 2.636 5.047 5.28 5.28 0 0 0-4.635 5.249v.607c-4.382-4.968-3.906-12.548 1.062-16.93 4.97-4.381 12.55-3.906 16.931 1.063a11.994 11.994 0 0 1 0 15.867v-.608a5.28 5.28 0 0 0-4.635-5.251zM52.99 55.7a11.91 11.91 0 0 1-13.995 0v-2.422a3.299 3.299 0 0 1 3.299-3.299h2.219l-1.45 3.626a1 1 0 0 0 .221 1.079l2 2a1 1 0 0 0 1.413 0l2-2a1 1 0 0 0 .221-1.079l-1.45-3.626h2.223a3.299 3.299 0 0 1 3.299 3.299V55.7zm-5.62-14.323v-.001l3.573 2.144c-.4 2.448-3.416 4.46-4.95 4.46a6.298 6.298 0 0 1-4.86-4.05c1.712-.141 4.801-.66 6.238-2.553zm-6.32.548c.267-3.35 1.844-4.94 4.942-4.94 2.837 0 4.399 1.341 4.845 4.14l-3.33-2a1 1 0 0 0-1.463.542c-.506 1.516-3.236 2.09-4.995 2.258zm5.768 11.811l-.826.827-.825-.827.825-2.066.826 2.066zm8.17.152v-.61a5.28 5.28 0 0 0-4.634-5.252 6.94 6.94 0 0 0 2.636-5.044c0-6.61-3.806-7.997-6.998-7.997-3.191 0-6.997 1.388-6.997 7.997a6.939 6.939 0 0 0 2.636 5.047 5.28 5.28 0 0 0-4.635 5.249v.607c-4.372-4.972-3.885-12.547 1.088-16.918 4.972-4.372 12.547-3.885 16.919 1.088a11.987 11.987 0 0 1 2.985 7.926c-.001 2.913-1.068 5.726-3 7.907z"/>
</svg>
