<svg xmlns="http://www.w3.org/2000/svg" width="68" height="64" viewBox="0 0 68 64">
    <g fill="none" fill-rule="nonzero">
        <circle cx="23.081" cy="20.376" r="18.987" fill="#02CA95"/>
        <path fill="#02CA95" d="M67.911 49.945c0-.042 0-.084-.014-.125a.404.404 0 0 0-.027-.125c-.014-.041-.014-.083-.028-.11a.415.415 0 0 0-.056-.111.415.415 0 0 0-.055-.111.248.248 0 0 0-.07-.097c-.027-.028-.04-.07-.068-.097-.028-.028-.056-.055-.097-.083l-.083-.083c-.028-.028-.07-.042-.111-.07-.028-.013-.056-.041-.097-.055l-15.276-7.534a.415.415 0 0 0-.138-.055c-.264-.097-6.565-2.3-11.717.014l-11.37 4.113c-.028.014-.07.028-.097.041-1.634.748-2.493 2.424-2.147 4.183.346 1.745 1.759 2.977 3.532 3.06h.027c.111 0 .61-.027 5.79-.36 2.257-.138 4.584-.29 4.791-.304a1.256 1.256 0 0 0 1.205-1.219 1.256 1.256 0 0 0-1.232-1.288c-.07 0-.07 0-4.917.305-2.424.152-5.138.332-5.595.36-.873-.07-1.08-.803-1.136-1.025-.097-.47.042-1.094.693-1.413l11.356-4.113c.028-.014.056-.028.097-.041 3.989-1.815 9.196-.18 9.82.013l6.8 3.352-3.74 8.822a7.593 7.593 0 0 0-6.163-.817l-15.262 4.584a7.183 7.183 0 0 1-5.498-.568L3.124 46.04c-.859-.47-.582-1.288-.512-1.454.083-.222.443-.914 1.315-.679l18.572 6.19a1.265 1.265 0 0 0 1.593-.789 1.26 1.26 0 0 0-.79-1.592L4.69 41.496c-.028-.013-.041-.013-.07-.013-1.841-.499-3.628.387-4.334 2.16-.72 1.787-.042 3.67 1.648 4.598l23.918 12.99a9.667 9.667 0 0 0 7.41.762l15.261-4.584a5.016 5.016 0 0 1 4.141.568l7.783 4.903c.042.027.07.041.111.055.014 0 .014.014.028.014h.014c.014.014.027.014.055.014.028.014.07.028.097.041.014 0 .042.014.055.014.028.014.07.014.097.028.014 0 .042 0 .056.014.055 0 .097.014.152.014.055 0 .11 0 .166-.014.014 0 .042 0 .056-.014.041 0 .069-.014.11-.028.014 0 .042-.014.056-.014.028-.013.07-.027.097-.041.014-.014.041-.014.055-.028a.794.794 0 0 0 .097-.055.105.105 0 0 1 .056-.028c.027-.014.055-.041.083-.055.013-.014.041-.028.055-.042l.07-.07.055-.055a.29.29 0 0 0 .055-.083c.014-.013.028-.041.042-.055 0 0 0-.014.013-.014 0-.014.014-.028.014-.028.014-.027.042-.069.056-.11l5.54-11.8c.013-.041.027-.07.041-.11a.954.954 0 0 1 .042-.112c.013-.041.013-.083.013-.124 0-.042.014-.083.014-.125.014-.041.014-.083.014-.124zm-2.908.637l-4.418 9.403-4.474-2.825 3.837-9.057 5.055 2.479z"/>
        <path fill="#FFF" d="M21.308 21.637h3.518a2.6 2.6 0 0 1 2.604 2.603 2.6 2.6 0 0 1-2.604 2.604h-6.33c-.692 0-1.26.568-1.26 1.26 0 .693.568 1.26 1.26 1.26h3.31v2.48c0 .692.569 1.26 1.261 1.26.693 0 1.26-.568 1.26-1.26v-2.48h.513a5.13 5.13 0 0 0 5.124-5.124 5.13 5.13 0 0 0-5.124-5.124h-3.518a2.6 2.6 0 0 1-2.604-2.604 2.6 2.6 0 0 1 2.604-2.603h6.218c.693 0 1.26-.568 1.26-1.26 0-.693-.567-1.26-1.26-1.26h-3.199V8.964c0-.693-.568-1.26-1.26-1.26-.693 0-1.26.567-1.26 1.26v2.437h-.513a5.13 5.13 0 0 0-5.124 5.124c.014 2.812 2.313 5.11 5.124 5.11z"/>
        <path fill="#02CA95" d="M23.08 40.61c11.163 0 20.235-9.085 20.235-20.234C43.315 9.228 34.23.13 23.08.13 11.932.129 2.833 9.214 2.833 20.376c0 11.163 9.085 20.234 20.248 20.234zm0-37.96c9.779 0 17.728 7.949 17.728 17.726 0 9.778-7.95 17.727-17.727 17.727-9.778 0-17.727-7.95-17.727-17.727 0-9.777 7.95-17.727 17.727-17.727z"/>
    </g>
</svg>
