<?xml version="1.0" encoding="UTF-8"?>
<svg width="40px" height="49px" viewBox="0 0 40 49" version="1.1" xmlns="http://www.w3.org/2000/svg" xmlns:xlink="http://www.w3.org/1999/xlink">
    <!-- Generator: Sketch 46.2 (44496) - http://www.bohemiancoding.com/sketch -->
    <title>iPad_Pro</title>
    <desc>Created with Sketch.</desc>
    <defs></defs>
    <g id="Page-1" stroke="none" stroke-width="1" fill="none" fill-rule="evenodd">
        <g id="HomePage" transform="translate(-426.000000, -382.000000)" fill="#018C50">
            <g id="top">
                <g id="ipad" transform="translate(426.000000, 382.000000)">
                    <path d="M38.76,5 L13.23,5 C12.55,5 12,5.54 12,6.24 L12,46.77 C12,47.47 12.55,48.01 13.23,48.01 L38.76,48.01 C39.44,48.01 40,47.47 40,46.77 L40,6.24 C40,5.54 39.45,5 38.76,5 Z M26,6.38 C26.34,6.38 26.62,6.66 26.62,7 C26.62,7.34 26.34,7.62 26,7.62 C25.66,7.62 25.38,7.34 25.38,7 C25.38,6.66 25.66,6.38 26,6.38 Z M26.02,47.01 C25.47,47.01 25.02,46.55 25.02,46.01 C25.02,45.47 25.47,45.01 26.02,45.01 C26.57,45.01 27.02,45.47 27.02,46.01 C27.01,46.55 26.56,47.01 26.02,47.01 Z M38,44 L14,44 L14,9 L38,9 L38,44 Z M12,47.93 C11.43,47.81 11,47.34 11,46.72 L11,44 L2,44 L2,4 L34,4 L34,1.5 C34,0.65 33.33,0 32.5,0 L1.5,0 C0.67,0 0,0.65 0,1.5 L0,46.5 C0,47.35 0.67,48 1.5,48 L12,48 L12,47.93 Z M17,1.25 C17.41,1.25 17.75,1.59 17.75,2 C17.75,2.41 17.41,2.75 17,2.75 C16.59,2.75 16.25,2.41 16.25,2 C16.25,1.59 16.59,1.25 17,1.25 Z" id="iPad_Pro"></path>
                </g>
            </g>
        </g>
    </g>
</svg>