<?xml version="1.0" encoding="UTF-8"?>
<svg width="650px" height="648px" viewBox="0 0 650 648" version="1.1" xmlns="http://www.w3.org/2000/svg" xmlns:xlink="http://www.w3.org/1999/xlink">
    <!-- Generator: Sketch 46.2 (44496) - http://www.bohemiancoding.com/sketch -->
    <title>iPad_Pro</title>
    <desc>Created with Sketch.</desc>
    <defs></defs>
    <g id="Page-1" stroke="none" stroke-width="1" fill="none" fill-rule="evenodd">
        <g id="iPad_Pro" fill-rule="nonzero">
            <rect id="Rectangle" fill="#FFFFFF" x="0" y="0" width="650" height="648"></rect>
            <path d="M568.88,91.2372422 L236.99,91.2372422 C228.15,91.2372422 221,97.8508644 221,106.424078 L221,602.813164 C221,611.386378 228.15,618 236.99,618 L568.88,618 C577.72,618 585,611.386378 585,602.813164 L585,106.424078 C585,97.8508644 577.85,91.2372422 568.88,91.2372422 Z M403,108.138721 C407.42,108.138721 411.06,111.568007 411.06,115.732139 C411.06,119.896272 407.42,123.325557 403,123.325557 C398.58,123.325557 394.94,119.896272 394.94,115.732139 C394.94,111.568007 398.58,108.138721 403,108.138721 Z M403.26,605.752552 C396.11,605.752552 390.26,600.118725 390.26,593.505103 C390.26,586.891481 396.11,581.257655 403.26,581.257655 C410.41,581.257655 416.26,586.891481 416.26,593.505103 C416.13,600.118725 410.28,605.752552 403.26,605.752552 Z M559,568.887732 L247,568.887732 L247,140.227036 L559,140.227036 L559,568.887732 Z M221,617.020204 C213.59,615.55051 208,609.79421 208,602.200792 L208,568.887732 L91,568.887732 L91,78.9897938 L507,78.9897938 L507,48.3711727 C507,37.9608415 498.29,30 487.5,30 L84.5,30 C73.71,30 65,37.9608415 65,48.3711727 L65,599.506353 C65,609.916684 73.71,617.877526 84.5,617.877526 L221,617.877526 L221,617.020204 Z M286,45.3093106 C291.33,45.3093106 295.75,49.473443 295.75,54.4948969 C295.75,59.5163508 291.33,63.6804832 286,63.6804832 C280.67,63.6804832 276.25,59.5163508 276.25,54.4948969 C276.25,49.473443 280.67,45.3093106 286,45.3093106 Z" id="Shape" fill="#00C27E"></path>
        </g>
    </g>
</svg>