<?xml version="1.0" encoding="UTF-8"?>
<svg width="647px" height="603px" viewBox="0 0 647 603" version="1.1" xmlns="http://www.w3.org/2000/svg" xmlns:xlink="http://www.w3.org/1999/xlink">
    <!-- Generator: Sketch 46.2 (44496) - http://www.bohemiancoding.com/sketch -->
    <title>iPhone_7</title>
    <desc>Created with Sketch.</desc>
    <defs></defs>
    <g id="Page-1" stroke="none" stroke-width="1" fill="none" fill-rule="evenodd">
        <g id="iPhone_7" fill-rule="nonzero">
            <rect id="Rectangle" fill="#FFFFFF" x="0" y="0" width="647" height="603"></rect>
            <path d="M247.405025,565.753777 L246.854903,551.218667 L68.7530397,551.218667 L68.7530397,161.625777 L247.542555,161.625777 L247.542555,109.844444 L94.471224,109.844444 C72.7414213,109.844444 55,126.715556 55,147.220444 L55,565.883556 C55,586.258667 72.7414213,603 94.471224,603 L270.097541,603 C258.407458,594.304889 247.405025,580.937777 247.405025,565.753777 Z M165.024318,135.8 L206.283437,135.8 L206.283437,142.288889 L165.024318,142.288889 L165.024318,135.8 Z M185.653877,596.511111 C174.238855,596.511111 165.024318,587.816 165.024318,577.044444 C165.024318,566.272889 174.238855,557.577777 185.653877,557.577777 C197.068901,557.577777 206.283437,566.272889 206.283437,577.044444 C206.283437,587.816 197.068901,596.511111 185.653877,596.511111 Z M517.789787,19 L307.093218,19 C281.787624,19 261.295595,38.5964444 261.295595,62.4755556 L261.295595,559.264889 C261.295595,583.273777 281.787624,603 307.093218,603 L517.927318,603 C543.23291,603 564,583.273777 564,559.264889 L564,62.4755556 C563.86247,38.5964444 543.09538,19 517.789787,19 Z M391.949473,51.4444444 L433.208593,51.4444444 L433.208593,57.9333333 L391.949473,57.9333333 L391.949473,51.4444444 Z M412.579033,593.266667 C399.238585,593.266667 388.511213,583.144 388.511213,570.555556 C388.511213,557.967111 399.376115,547.844444 412.579033,547.844444 C425.781951,547.844444 436.646852,557.967111 436.646852,570.555556 C436.646852,583.144 425.919482,593.266667 412.579033,593.266667 Z M550.10943,538.111111 L275.048635,538.111111 L275.048635,83.8888889 L550.10943,83.8888889 L550.10943,538.111111 Z M412.579033,583.533333 C405.014861,583.533333 398.825993,577.693333 398.825993,570.555556 C398.825993,563.417777 405.014861,557.577777 412.579033,557.577777 C420.143205,557.577777 426.332073,563.417777 426.332073,570.555556 C426.332073,577.693333 420.143205,583.533333 412.579033,583.533333 Z M185.653877,588.464889 C179.052418,588.464889 173.688733,583.403556 173.688733,577.044444 C173.688733,570.815111 179.052418,565.753777 185.653877,565.753777 C192.255336,565.753777 197.756553,570.815111 197.756553,577.044444 C197.756553,583.273777 192.255336,588.464889 185.653877,588.464889 Z" id="Shape" fill="#00C27E"></path>
        </g>
    </g>
</svg>