<?xml version="1.0" encoding="UTF-8"?>
<svg width="37px" height="45px" viewBox="0 0 37 45" version="1.1" xmlns="http://www.w3.org/2000/svg" xmlns:xlink="http://www.w3.org/1999/xlink">
    <!-- Generator: Sketch 46.2 (44496) - http://www.bohemiancoding.com/sketch -->
    <title>iPhone_7</title>
    <desc>Created with Sketch.</desc>
    <defs></defs>
    <g id="Page-1" stroke="none" stroke-width="1" fill="none" fill-rule="evenodd">
        <g id="HomePage" transform="translate(-236.000000, -385.000000)" fill-rule="nonzero" fill="#FFFFFF">
            <g id="top">
                <g id="iphone" transform="translate(236.000000, 385.000000)">
                    <path d="M13.9862199,42.13 L13.9462307,41.01 L0.999729803,41.01 L0.999729803,10.99 L13.9962172,10.99 L13.9962172,7 L2.86922453,7 C1.28965145,7 0,8.3 0,9.88 L0,42.14 C0,43.71 1.28965145,45 2.86922453,45 L15.6357741,45 C14.7860038,44.33 13.9862199,43.3 13.9862199,42.13 Z M7.99783842,9 L10.9970278,9 L10.9970278,9.5 L7.99783842,9.5 L7.99783842,9 Z M9.49743313,44.5 C8.66765739,44.5 7.99783842,43.83 7.99783842,43 C7.99783842,42.17 8.66765739,41.5 9.49743313,41.5 C10.3272089,41.5 10.9970278,42.17 10.9970278,43 C10.9970278,43.83 10.3272089,44.5 9.49743313,44.5 Z M33.6409079,0 L18.3250473,0 C16.4855444,0 14.995947,1.51 14.995947,3.35 L14.995947,41.63 C14.995947,43.48 16.4855444,45 18.3250473,45 L33.6509052,45 C35.490408,45 37,43.48 37,41.63 L37,3.35 C36.9900027,1.51 35.4804107,0 33.6409079,0 Z M24.4933802,2.5 L27.4925696,2.5 L27.4925696,3 L24.4933802,3 L24.4933802,2.5 Z M25.9929749,44.25 C25.023237,44.25 24.2434477,43.47 24.2434477,42.5 C24.2434477,41.53 25.0332343,40.75 25.9929749,40.75 C26.9527155,40.75 27.742502,41.53 27.742502,42.5 C27.742502,43.47 26.9627128,44.25 25.9929749,44.25 Z M35.9902729,40 L15.9956768,40 L15.9956768,5 L35.9902729,5 L35.9902729,40 Z M25.9929749,43.5 C25.4431235,43.5 24.9932451,43.05 24.9932451,42.5 C24.9932451,41.95 25.4431235,41.5 25.9929749,41.5 C26.5428263,41.5 26.9927047,41.95 26.9927047,42.5 C26.9927047,43.05 26.5428263,43.5 25.9929749,43.5 Z M9.49743313,43.88 C9.01756282,43.88 8.6276682,43.49 8.6276682,43 C8.6276682,42.52 9.01756282,42.13 9.49743313,42.13 C9.97730343,42.13 10.3771954,42.52 10.3771954,43 C10.3771954,43.48 9.97730343,43.88 9.49743313,43.88 Z" id="iPhone_7"></path>
                </g>
            </g>
        </g>
    </g>
</svg>