<?xml version="1.0" encoding="UTF-8"?>
<svg width="481px" height="108px" viewBox="0 0 481 108" version="1.1" xmlns="http://www.w3.org/2000/svg" xmlns:xlink="http://www.w3.org/1999/xlink">
    <!-- Generator: Sketch 46.2 (44496) - http://www.bohemiancoding.com/sketch -->
    <title>remarket-de</title>
    <desc>Created with Sketch.</desc>
    <defs>
        <path d="M80.385,16.754 C78.252,22.341 75.166,27.458 71.205,31.976 C67.621,36.076 63.308,39.617 58.392,42.501 L58.103,42.674 C56.934,43.348 55.694,44.003 54.201,44.715 L53.545,45.023 C52.533,45.489 51.501,45.903 50.447,46.301 C49.89,46.514 49.331,46.722 48.779,46.919 C48.005,47.18 47.217,47.417 46.425,47.646 C45.556,47.9 44.684,48.144 43.815,48.351 C43.295,48.462 42.778,48.576 42.253,48.685 L41.845,48.758 L39.543,49.15 C39.118,49.23 38.689,49.309 38.252,49.362 C35.886,49.658 33.79,49.801 31.847,49.809 C29.889,49.816 27.853,49.687 25.435,49.405 C23.39,49.161 21.252,48.756 18.715,48.115 C18.026,47.938 17.337,47.764 16.689,47.585 C15.105,47.095 13.573,46.434 12.129,45.625 C5.067,41.659 0.602,34.257 0.483,26.317 C0.457,24.434 0.693,22.488 1.19,20.533 C1.472,19.402 1.836,18.317 2.235,17.364 L39.039,17.249 L39.451,29.949 L51.865,17.173 L62.016,17.082 L62.365,17.071 C63.75,16.917 65.159,16.634 66.56,16.237 C68.743,15.617 70.783,14.758 72.619,13.687 C77.69,10.722 81.438,6.155 83.439,0.925 C83.244,5.845 82.318,10.76 80.659,15.533 L80.385,16.754 Z" id="path-1"></path>
        <path d="M3.507,60.992 C1.674,55.898 0.697,50.478 0.606,44.882 L0.597,44.55 C0.584,43.228 0.631,41.851 0.746,40.263 L0.804,39.516 C0.902,38.434 1.048,37.348 1.222,36.263 C1.312,35.68 1.405,35.102 1.512,34.535 C1.668,33.753 1.852,32.969 2.046,32.184 C2.257,31.319 2.481,30.467 2.737,29.625 C2.885,29.129 3.052,28.637 3.221,28.139 L3.364,27.741 L4.158,25.627 C4.303,25.22 4.446,24.814 4.619,24.414 C5.564,22.231 6.459,20.435 7.437,18.773 C8.413,17.114 9.549,15.453 11.008,13.558 C12.247,11.946 13.682,10.344 15.516,8.519 L15.859,8.173 C16.338,7.699 16.812,7.218 17.302,6.777 C26.221,-1.056 40.01,-1.255 49.101,7.521 C49.843,8.237 50.531,8.99 51.143,9.765 L23.72,56.391 L21.141,60.982 C20.586,62.23 20.129,63.566 19.778,64.948 C19.232,67.107 18.971,69.26 18.997,71.353 C19.088,77.06 21.197,82.51 24.813,86.841 C20.574,84.241 16.756,81.049 13.361,77.252 L12.155,76.099 C8.395,71.572 5.488,66.498 3.507,60.992 Z" id="path-3"></path>
        <path d="M74.242,40.211 C75.911,49.413 71.528,58.814 63.345,63.603 C61.69,64.57 59.846,65.345 57.867,65.907 C56.775,66.219 55.676,66.448 54.667,66.59 L32.949,29.736 L24.64,15.964 C23.826,14.862 22.887,13.796 21.849,12.796 C20.233,11.237 18.47,9.917 16.612,8.871 C11.464,5.975 5.626,4.985 0.05,5.795 C4.46,3.608 9.194,2.037 14.116,1.143 C26.251,-1.047 38.806,1.048 49.475,7.044 C56.911,11.22 63.225,17.18 67.709,24.24 L68.178,25.034 C70.293,28.494 71.992,32.259 73.235,36.215 C73.631,37.478 73.933,38.819 74.242,40.211 Z" id="path-5"></path>
        <path d="M17.1,14.04 C16.8,13.98 16.08,13.86 15.24,13.86 C11.4,13.86 8.16,15.72 6.78,18.9 L6.78,14.22 L0,14.22 L0,43.44 L6.96,43.44 L6.96,29.52 C6.96,24.06 9.42,20.94 14.82,20.94 C15.54,20.94 16.32,21 17.1,21.12 L17.1,14.04 Z M26.48,25.62 L40.82,25.62 C40.7,22.2 38.42,19.14 33.62,19.14 C29.24,19.14 26.72,22.5 26.48,25.62 Z M41.6,33.24 L47.48,35.1 C45.92,40.2 41.3,44.34 34.28,44.34 C26.36,44.34 19.34,38.58 19.34,28.68 C19.34,19.44 26.18,13.32 33.56,13.32 C42.56,13.32 47.84,19.26 47.84,28.5 C47.84,29.64 47.72,30.6 47.66,30.72 L26.3,30.72 C26.48,35.16 29.96,38.34 34.28,38.34 C38.48,38.34 40.64,36.12 41.6,33.24 Z M60.4,43.44 L60.4,26.1 C60.4,22.38 62.74,19.62 66.46,19.62 C70.42,19.62 72.1,22.26 72.1,25.62 L72.1,43.44 L78.94,43.44 L78.94,26.1 C78.94,22.5 81.34,19.62 85,19.62 C88.9,19.62 90.64,22.2 90.64,25.62 L90.64,43.44 L97.36,43.44 L97.36,24.48 C97.36,16.74 92.32,13.38 87.04,13.38 C83.26,13.38 79.84,14.7 77.56,18.54 C76,15.12 72.64,13.38 68.8,13.38 C65.5,13.38 61.84,14.94 60.16,17.94 L60.16,14.22 L53.5,14.22 L53.5,43.44 L60.4,43.44 Z M103.08,35.52 C103.08,30.3 106.92,27.42 111.9,26.7 L119.4,25.56 C121.08,25.32 121.56,24.48 121.56,23.46 C121.56,21 119.88,19.02 116.04,19.02 C112.38,19.02 110.34,21.36 110.04,24.3 L103.68,22.86 C104.22,17.82 108.78,13.32 115.98,13.32 C124.98,13.32 128.4,18.42 128.4,24.24 L128.4,38.76 C128.4,41.4 128.7,43.14 128.76,43.44 L122.28,43.44 C122.22,43.26 121.98,42.06 121.98,39.72 C120.6,41.94 117.72,44.34 112.98,44.34 C106.86,44.34 103.08,40.14 103.08,35.52 Z M114.3,38.88 C118.2,38.88 121.56,37.02 121.56,31.32 L121.56,30 L113.94,31.14 C111.78,31.5 110.04,32.7 110.04,35.1 C110.04,37.08 111.54,38.88 114.3,38.88 Z M152.9,14.04 C152.6,13.98 151.88,13.86 151.04,13.86 C147.2,13.86 143.96,15.72 142.58,18.9 L142.58,14.22 L135.8,14.22 L135.8,43.44 L142.76,43.44 L142.76,29.52 C142.76,24.06 145.22,20.94 150.62,20.94 C151.34,20.94 152.12,21 152.9,21.12 L152.9,14.04 Z M185.08,14.22 L175.84,14.22 L164.62,26.04 L164.62,0 L157.72,0 L157.72,43.44 L164.62,43.44 L164.62,35.28 L168.22,31.5 L176.8,43.44 L185.32,43.44 L173.08,26.58 L185.08,14.22 Z M192.84,25.62 L207.18,25.62 C207.06,22.2 204.78,19.14 199.98,19.14 C195.6,19.14 193.08,22.5 192.84,25.62 Z M207.96,33.24 L213.84,35.1 C212.28,40.2 207.66,44.34 200.64,44.34 C192.72,44.34 185.7,38.58 185.7,28.68 C185.7,19.44 192.54,13.32 199.92,13.32 C208.92,13.32 214.2,19.26 214.2,28.5 C214.2,29.64 214.08,30.6 214.02,30.72 L192.66,30.72 C192.84,35.16 196.32,38.34 200.64,38.34 C204.84,38.34 207,36.12 207.96,33.24 Z M228.68,5.28 L222.38,5.28 L222.38,9.66 C222.38,12.24 221,14.22 217.88,14.22 L216.38,14.22 L216.38,20.4 L221.78,20.4 L221.78,35.1 C221.78,40.56 225.14,43.8 230.54,43.8 C233.06,43.8 234.38,43.32 234.8,43.14 L234.8,37.38 C234.5,37.44 233.36,37.62 232.4,37.62 C229.82,37.62 228.68,36.54 228.68,33.96 L228.68,20.4 L234.74,20.4 L234.74,14.22 L228.68,14.22 L228.68,5.28 Z M240.28,38.94 C240.28,36.24 242.44,34.02 245.14,34.02 C247.84,34.02 250.06,36.24 250.06,38.94 C250.06,41.64 247.84,43.8 245.14,43.8 C242.44,43.8 240.28,41.64 240.28,38.94 Z" id="path-7"></path>
        <path d="M6.96,28.74 C6.96,34.32 10.08,38.04 14.82,38.04 C19.38,38.04 22.56,34.26 22.56,28.68 C22.56,23.1 19.44,19.62 14.88,19.62 C10.32,19.62 6.96,23.16 6.96,28.74 Z M29.28,0 L29.28,38.1 C29.28,40.74 29.52,42.96 29.58,43.44 L22.92,43.44 C22.8,42.78 22.62,40.86 22.62,39.66 C21.24,42.12 18.18,44.16 14.04,44.16 C5.64,44.16 0,37.56 0,28.74 C0,20.34 5.7,13.44 13.92,13.44 C19.02,13.44 21.6,15.78 22.5,17.64 L22.5,0 L29.28,0 Z M43.26,25.62 L57.6,25.62 C57.48,22.2 55.2,19.14 50.4,19.14 C46.02,19.14 43.5,22.5 43.26,25.62 Z M58.38,33.24 L64.26,35.1 C62.7,40.2 58.08,44.34 51.06,44.34 C43.14,44.34 36.12,38.58 36.12,28.68 C36.12,19.44 42.96,13.32 50.34,13.32 C59.34,13.32 64.62,19.26 64.62,28.5 C64.62,29.64 64.5,30.6 64.44,30.72 L43.08,30.72 C43.26,35.16 46.74,38.34 51.06,38.34 C55.26,38.34 57.42,36.12 58.38,33.24 Z" id="path-9"></path>
    </defs>
    <g id="Page-1" stroke="none" stroke-width="1" fill="none" fill-rule="evenodd">
        <g id="remarket-de">
            <g id="Group-3" transform="translate(24.000000, 58.000000)">
                <mask id="mask-2" fill="white">
                    <use xlink:href="#path-1"></use>
                </mask>
                <g id="Clip-2"></g>
                <polygon id="Fill-1" fill="#FFFFFF" mask="url(#mask-2)" points="0.48 49.84 83.52 49.84 83.52 0.88 0.48 0.88"></polygon>
            </g>
            <g id="Group-6" transform="translate(0.000000, 10.000000)">
                <mask id="mask-4" fill="white">
                    <use xlink:href="#path-3"></use>
                </mask>
                <g id="Clip-5"></g>
                <polygon id="Fill-4" fill="#FFFFFF" mask="url(#mask-4)" points="0.48 86.92 51.24 86.92 51.24 0.88 0.48 0.88"></polygon>
            </g>
            <g id="Group-9" transform="translate(32.000000, 0.000000)">
                <mask id="mask-6" fill="white">
                    <use xlink:href="#path-5"></use>
                </mask>
                <g id="Clip-8"></g>
                <polygon id="Fill-7" fill="#FFFFFF" mask="url(#mask-6)" points="0.04 66.68 74.68 66.68 74.68 0.2 0.04 0.2"></polygon>
            </g>
            <g id="Group-12" transform="translate(161.000000, 27.000000)">
                <mask id="mask-8" fill="white">
                    <use xlink:href="#path-7"></use>
                </mask>
                <g id="Clip-11"></g>
                <polygon id="Fill-10" fill="#FFFFFF" mask="url(#mask-8)" points="-0.08 44.36 250.12 44.36 250.12 -0.04 -0.08 -0.04"></polygon>
            </g>
            <g id="Group-15" transform="translate(416.000000, 27.000000)">
                <mask id="mask-10" fill="white">
                    <use xlink:href="#path-9"></use>
                </mask>
                <g id="Clip-14"></g>
                <polygon id="Fill-13" fill="#FFFFFF" mask="url(#mask-10)" points="-0.08 44.36 64.72 44.36 64.72 -0.04 -0.08 -0.04"></polygon>
            </g>
        </g>
    </g>
</svg>