<?xml version="1.0" encoding="UTF-8"?>
<svg width="162px" height="36px" viewBox="0 0 162 36" version="1.1" xmlns="http://www.w3.org/2000/svg" xmlns:xlink="http://www.w3.org/1999/xlink">
    <!-- Generator: Sketch 46.2 (44496) - http://www.bohemiancoding.com/sketch -->
    <title>logo</title>
    <desc>Created with Sketch.</desc>
    <defs></defs>
    <g id="Page-1" stroke="none" stroke-width="1" fill="none" fill-rule="evenodd">
        <g id="HomePage" transform="translate(-236.000000, -33.000000)" fill="#FFFFFF">
            <g id="top">
                <g id="menu" transform="translate(236.000000, 30.000000)">
                    <g id="logo" transform="translate(0.000000, 3.000000)">
                        <g id="sign">
                            <path d="M34.7950289,24.9179767 L34.886474,24.5109651 C35.4393931,22.9198837 35.7481214,21.2817558 35.8130636,19.6416512 C35.1460405,21.3851395 33.896763,22.9072326 32.2064451,23.8956047 C31.5942486,24.2526047 30.9144798,24.5388372 30.1865607,24.7456047 C29.7198266,24.8780465 29.2498555,24.9723372 28.7883815,25.0237326 L28.672052,25.0274884 L25.2883815,25.0577326 L21.1504913,29.3164302 L21.0129191,25.0830349 L8.74491329,25.1213837 C8.61199422,25.4390465 8.49060694,25.8007907 8.39653179,26.1777558 C8.23104046,26.8292907 8.15234104,27.4780581 8.16104046,28.1056744 C8.20069364,30.7523372 9.68890173,33.2195116 12.0430058,34.5417558 C12.5243064,34.811186 13.0351445,35.0317907 13.5629769,35.1950698 C13.7790462,35.2547674 14.0086705,35.312686 14.2382948,35.3717907 C15.0839595,35.5852791 15.7967052,35.7204884 16.4784971,35.8015349 C17.2843064,35.8958256 17.9630636,35.9385233 18.6155202,35.9363488 C19.2633237,35.9335814 19.9619075,35.8861395 20.7507225,35.7873023 C20.896185,35.7695116 21.0392197,35.7432209 21.1808382,35.7165349 L21.9484104,35.5860698 L22.0843642,35.5617558 C22.2593642,35.525186 22.4317341,35.4872326 22.6049133,35.4502674 C22.8946243,35.3814767 23.1853468,35.3000349 23.4750578,35.2154302 C23.7390751,35.1391279 24.0016763,35.0598605 24.2598266,34.9730814 C24.4437283,34.9074535 24.6298555,34.8378721 24.815578,34.766907 C25.1669942,34.6344651 25.5109249,34.4962907 25.8483815,34.3409186 L26.0670809,34.2383256 C26.5647688,34.0009186 26.9778902,33.782686 27.3675434,33.5579302 L27.4638439,33.500407 C29.1027746,32.5391163 30.5402023,31.3588023 31.7350578,29.9920814 C33.0553468,28.486 34.084104,26.7802674 34.7950289,24.9179767 Z" id="Fill-3"></path>
                            <path d="M1.16895954,23.6641628 C1.82930636,25.4993721 2.79817919,27.1906744 4.0517052,28.6995233 L4.45369942,29.084 C5.58543353,30.3497093 6.85797688,31.413593 8.27092486,32.2803953 C7.06575145,30.8367791 6.36251445,29.0199535 6.33236994,27.1177326 C6.32367052,26.4201395 6.41066474,25.7023837 6.59274566,24.9826512 C6.70968208,24.5220698 6.86202312,24.0765116 7.04713873,23.6608023 L7.90676301,22.130407 L17.0478324,6.58845349 C16.8436994,6.33009302 16.6144798,6.07884884 16.367052,5.84045349 C13.3368208,2.91506977 8.74028902,2.98148837 5.76731214,5.59237209 C5.60404624,5.73924419 5.44583815,5.89975581 5.28641618,6.0575 L5.17190751,6.17294186 C4.56052023,6.78118605 4.08245665,7.31530233 3.66933526,7.8525814 C3.18297688,8.48434884 2.80424855,9.03803488 2.47913295,9.59093023 C2.15300578,10.1450116 1.85479769,10.7435698 1.53979769,11.4712093 C1.48193642,11.6046395 1.43419075,11.7398488 1.38583815,11.8756512 L1.12141618,12.5803605 L1.07367052,12.713 C1.01742775,12.8788488 0.961589595,13.0431163 0.912427746,13.2083721 C0.827052023,13.4888721 0.752196532,13.7731279 0.68199422,14.0613372 C0.617254335,14.3228605 0.555953757,14.5843837 0.50416185,14.8451163 C0.468352601,15.0338953 0.437398844,15.2268256 0.407456647,15.4209419 C0.349190751,15.782686 0.300635838,16.1446279 0.268063584,16.5053837 L0.248641618,16.7542558 C0.210404624,17.2838256 0.19482659,17.7428256 0.198872832,18.1834419 L0.201907514,18.2941395 C0.232254335,20.1593953 0.557976879,21.9659419 1.16895954,23.6641628 Z" id="Fill-4"></path>
                            <path d="M35.4139017,13.4035116 C35.3111272,12.9397674 35.2103757,12.4926279 35.0782659,12.0715814 C34.6641329,10.753093 34.097659,9.49786047 33.3928035,8.34462791 L33.2362139,8.07994186 C31.7415318,5.72682558 29.6368786,3.74 27.1583526,2.34797674 C23.6021098,0.349488372 19.4170809,-0.348895349 15.372052,0.381116279 C13.7313006,0.679011628 12.1534682,1.20265116 10.6832659,1.93167442 C12.5421098,1.66165116 14.487948,1.99176744 16.2041618,2.95701163 C16.8234393,3.30551163 17.4111561,3.74553488 17.9495087,4.26522093 C18.2956647,4.59869767 18.6086416,4.95411628 18.8801445,5.32139535 L21.6495954,9.91198837 L28.8891329,22.1966628 C29.2251734,22.1492209 29.5915607,22.0731163 29.9557225,21.9689419 C30.6154624,21.7815465 31.2300867,21.5233837 31.7815896,21.2009767 C34.5093642,19.6045581 35.9702601,16.4710233 35.4139017,13.4035116 Z" id="Fill-5"></path>
                        </g>
                        <path d="M59.7,14.68 C59.6,14.66 59.36,14.62 59.08,14.62 C57.8,14.62 56.72,15.24 56.26,16.3 L56.26,14.74 L54,14.74 L54,24.48 L56.32,24.48 L56.32,19.84 C56.32,18.02 57.14,16.98 58.94,16.98 C59.18,16.98 59.44,17 59.7,17.04 L59.7,14.68 Z M63.16,18.54 L67.94,18.54 C67.9,17.4 67.14,16.38 65.54,16.38 C64.08,16.38 63.24,17.5 63.16,18.54 Z M68.2,21.08 L70.16,21.7 C69.64,23.4 68.1,24.78 65.76,24.78 C63.12,24.78 60.78,22.86 60.78,19.56 C60.78,16.48 63.06,14.44 65.52,14.44 C68.52,14.44 70.28,16.42 70.28,19.5 C70.28,19.88 70.24,20.2 70.22,20.24 L63.1,20.24 C63.16,21.72 64.32,22.78 65.76,22.78 C67.16,22.78 67.88,22.04 68.2,21.08 Z M74.8,24.48 L74.8,18.7 C74.8,17.46 75.58,16.54 76.82,16.54 C78.14,16.54 78.7,17.42 78.7,18.54 L78.7,24.48 L80.98,24.48 L80.98,18.7 C80.98,17.5 81.78,16.54 83,16.54 C84.3,16.54 84.88,17.4 84.88,18.54 L84.88,24.48 L87.12,24.48 L87.12,18.16 C87.12,15.58 85.44,14.46 83.68,14.46 C82.42,14.46 81.28,14.9 80.52,16.18 C80,15.04 78.88,14.46 77.6,14.46 C76.5,14.46 75.28,14.98 74.72,15.98 L74.72,14.74 L72.5,14.74 L72.5,24.48 L74.8,24.48 Z M89.36,21.84 C89.36,20.1 90.64,19.14 92.3,18.9 L94.8,18.52 C95.36,18.44 95.52,18.16 95.52,17.82 C95.52,17 94.96,16.34 93.68,16.34 C92.46,16.34 91.78,17.12 91.68,18.1 L89.56,17.62 C89.74,15.94 91.26,14.44 93.66,14.44 C96.66,14.44 97.8,16.14 97.8,18.08 L97.8,22.92 C97.8,23.8 97.9,24.38 97.92,24.48 L95.76,24.48 C95.74,24.42 95.66,24.02 95.66,23.24 C95.2,23.98 94.24,24.78 92.66,24.78 C90.62,24.78 89.36,23.38 89.36,21.84 Z M93.1,22.96 C94.4,22.96 95.52,22.34 95.52,20.44 L95.52,20 L92.98,20.38 C92.26,20.5 91.68,20.9 91.68,21.7 C91.68,22.36 92.18,22.96 93.1,22.96 Z M106.3,14.68 C106.2,14.66 105.96,14.62 105.68,14.62 C104.4,14.62 103.32,15.24 102.86,16.3 L102.86,14.74 L100.6,14.74 L100.6,24.48 L102.92,24.48 L102.92,19.84 C102.92,18.02 103.74,16.98 105.54,16.98 C105.78,16.98 106.04,17 106.3,17.04 L106.3,14.68 Z M117.36,14.74 L114.28,14.74 L110.54,18.68 L110.54,10 L108.24,10 L108.24,24.48 L110.54,24.48 L110.54,21.76 L111.74,20.5 L114.6,24.48 L117.44,24.48 L113.36,18.86 L117.36,14.74 Z M120.28,18.54 L125.06,18.54 C125.02,17.4 124.26,16.38 122.66,16.38 C121.2,16.38 120.36,17.5 120.28,18.54 Z M125.32,21.08 L127.28,21.7 C126.76,23.4 125.22,24.78 122.88,24.78 C120.24,24.78 117.9,22.86 117.9,19.56 C117.9,16.48 120.18,14.44 122.64,14.44 C125.64,14.44 127.4,16.42 127.4,19.5 C127.4,19.88 127.36,20.2 127.34,20.24 L120.22,20.24 C120.28,21.72 121.44,22.78 122.88,22.78 C124.28,22.78 125,22.04 125.32,21.08 Z M132.56,11.76 L130.46,11.76 L130.46,13.22 C130.46,14.08 130,14.74 128.96,14.74 L128.46,14.74 L128.46,16.8 L130.26,16.8 L130.26,21.7 C130.26,23.52 131.38,24.6 133.18,24.6 C134.02,24.6 134.46,24.44 134.6,24.38 L134.6,22.46 C134.5,22.48 134.12,22.54 133.8,22.54 C132.94,22.54 132.56,22.18 132.56,21.32 L132.56,16.8 L134.58,16.8 L134.58,14.74 L132.56,14.74 L132.56,11.76 Z M136.76,22.98 C136.76,23.88 137.48,24.6 138.38,24.6 C139.28,24.6 140.02,23.88 140.02,22.98 C140.02,22.08 139.28,21.34 138.38,21.34 C137.48,21.34 136.76,22.08 136.76,22.98 Z M146.74,16.58 C148.22,16.58 148.88,17.54 149.1,18.4 L151.18,17.64 C150.78,16.08 149.34,14.44 146.72,14.44 C143.92,14.44 141.74,16.6 141.74,19.6 C141.74,22.56 143.92,24.78 146.78,24.78 C149.34,24.78 150.8,23.12 151.26,21.6 L149.22,20.86 C149,21.6 148.3,22.66 146.78,22.66 C145.32,22.66 144.06,21.56 144.06,19.6 C144.06,17.64 145.32,16.58 146.74,16.58 Z M155.64,18.76 C155.68,17.52 156.38,16.56 157.66,16.56 C159.12,16.56 159.66,17.52 159.66,18.72 L159.66,24.48 L161.98,24.48 L161.98,18.32 C161.98,16.18 160.82,14.46 158.42,14.46 C157.4,14.46 156.3,14.82 155.64,15.68 L155.64,10 L153.32,10 L153.32,24.48 L155.64,24.48 L155.64,18.76 Z" id="remarket.ch"></path>
                    </g>
                </g>
            </g>
        </g>
    </g>
</svg>