<svg xmlns="http://www.w3.org/2000/svg" width="38" height="22" viewBox="0 0 38 22">
    <path fill="#02CA95" fill-rule="evenodd" d="M22.8 20.629V9.5c0-.521-.282-.814-.814-.814h-19c-.532 0-.815.271-.815.814v11.129H0c.027.048.07.173.114.173 0 0 1.124.679 2.519.771 1.395.098 2.79.147 2.796.141h14.114s1.281-.043 2.676-.135c1.395-.093 2.519-.771 2.519-.771.043 0 .206-.125.239-.174H22.8v-.005zM3.257 9.77h18.457V20.63H3.257V9.77zm25.487 11.943c.011-.005.017-.005.022-.01a.18.18 0 0 0 .13-.174.184.184 0 0 0-.19-.185h-.038a1.526 1.526 0 0 1-1.59-1.189l-.478-2.242h10.57c.38 0 .83-.45.83-.83V.83C38 .45 37.55 0 37.17 0H12.772c-.38 0-.83.45-.83.83l.01 7.313h1.076V1.086h23.885v13.571H23.343v5.429h2.171v.543c-.021.836-1.628 1.085-1.628 1.085h4.858zm-3.257-4.978c-.016.033-.032.065-.049.093-.016.027-.038.054-.054.076a.16.16 0 0 1-.043.043.365.365 0 0 1-.06.038.11.11 0 0 1-.06.016.201.201 0 0 1-.049-.01l-.06-.017a.194.194 0 0 1-.06-.022c-.02-.005-.037-.005-.053-.005-.017 0-.038 0-.06.01-.022.006-.044.012-.065.023-.022.005-.044.01-.06.021-.016.006-.033.011-.043.011-.017 0-.033-.005-.05-.01-.016-.006-.032-.017-.048-.028-.016-.01-.033-.032-.054-.054-.022-.022-.038-.049-.066-.082-.021-.032-.038-.065-.06-.103a.945.945 0 0 1-.07-.239c-.005-.043-.01-.081-.01-.119 0-.06.01-.114.026-.163a.5.5 0 0 1 .071-.13.334.334 0 0 1 .109-.087.294.294 0 0 1 .135-.033c.038 0 .076.011.125.033a.32.32 0 0 0 .098.033c.005 0 .016-.006.032-.011.017-.006.044-.017.076-.027.033-.011.055-.017.076-.022.022-.006.038-.006.06-.006.054 0 .103.011.152.038a.3.3 0 0 1 .114.104.38.38 0 0 0-.114.114.33.33 0 0 0-.032.152c0 .06.016.114.048.168a.313.313 0 0 0 .136.114.287.287 0 0 0-.038.081zm-.516-.825c0-.032.006-.065.022-.103.016-.033.033-.065.06-.092a.261.261 0 0 1 .087-.065.244.244 0 0 1 .103-.028v.033c0 .033-.006.07-.022.109-.016.032-.032.065-.06.092a.24.24 0 0 1-.081.065.2.2 0 0 1-.092.027c-.011 0-.022 0-.022-.005.005-.017.005-.027.005-.033z"/>
</svg>
