<?xml version="1.0" encoding="UTF-8"?>
<svg width="580px" height="540px" viewBox="0 0 580 540" version="1.1" xmlns="http://www.w3.org/2000/svg" xmlns:xlink="http://www.w3.org/1999/xlink">
    <!-- Generator: Sketch 46.2 (44496) - http://www.bohemiancoding.com/sketch -->
    <title>Mac</title>
    <desc>Created with Sketch.</desc>
    <defs></defs>
    <g id="Page-1" stroke="none" stroke-width="1" fill="none" fill-rule="evenodd">
        <g id="Mac" fill-rule="nonzero">
            <rect id="Rectangle" fill="#FFFFFF" x="0" y="0" width="580" height="540"></rect>
            <path d="M347,422.993934 L347,248.747206 C347,240.58736 342.765714,235.997446 334.785714,235.997446 L49.7857143,235.997446 C41.8057143,235.997446 37.5714286,240.247366 37.5714286,248.747206 L37.5714286,422.993934 L5,422.993934 C5.40714286,423.758919 6.05857143,425.713883 6.71,425.713883 C6.71,425.713883 23.5657143,436.338683 44.4928571,437.783656 C65.42,439.313627 86.3471429,440.078613 86.4285714,439.993614 C86.4285714,439.993614 192.285714,439.993614 192.285714,439.993614 L298.142857,439.993614 C298.142857,439.993614 317.36,439.313627 338.287143,437.868654 C359.214286,436.423682 376.07,425.798881 376.07,425.798881 C376.721429,425.798881 379.164286,423.843918 379.652857,423.078932 L347,423.078932 L347,422.993934 Z M53.8571429,252.997127 L330.714286,252.997127 L330.714286,422.993934 L53.8571429,422.993934 L53.8571429,252.997127 Z M436.164286,439.993614 L436.164286,439.993614 C436.327143,439.908616 436.408571,439.908616 436.49,439.823618 C437.63,439.483624 438.444286,438.378645 438.444286,437.103669 C438.444286,435.488699 437.222857,434.213723 435.594286,434.213723 C435.35,434.213723 435.268571,434.213723 435.024286,434.213723 C423.95,434.978709 413.608571,427.243854 411.165714,415.599073 L404,380.494732 L562.541429,380.494732 C568.241429,380.494732 575,373.439864 575,367.489976 L575,113.004756 C575,107.054867 568.241429,100 562.541429,100 L196.601429,100 C190.901429,100 184.142857,107.054867 184.142857,113.004756 L184.305714,227.497605 L200.428571,227.497605 L200.428571,116.999681 L558.714286,116.999681 L558.714286,329.49569 L355.142857,329.49569 L355.142857,380.494732 L355.142857,414.494093 L387.714286,414.494093 L387.714286,422.993934 C387.388571,436.083688 363.285714,439.993614 363.285714,439.993614 L436.164286,439.993614 Z M387.307143,362.050078 C387.062857,362.560069 386.818571,363.070059 386.574286,363.495051 C386.33,363.920043 386.004286,364.345035 385.76,364.685029 C385.515714,365.025022 385.271429,365.280018 385.108571,365.365016 C384.782857,365.620011 384.538571,365.790008 384.212857,365.960005 C383.968571,366.130002 383.642857,366.215 383.317143,366.215 C383.154286,366.215 382.828571,366.130002 382.584286,366.045003 C382.258571,365.960005 382.014286,365.875007 381.688571,365.790008 C381.362857,365.70501 381.037143,365.620011 380.792857,365.450014 C380.467143,365.365016 380.222857,365.365016 379.978571,365.365016 C379.734286,365.365016 379.408571,365.365016 379.082857,365.535013 C378.757143,365.620011 378.431429,365.70501 378.105714,365.875007 C377.78,365.960005 377.454286,366.045003 377.21,366.215 C376.965714,366.299999 376.721429,366.384997 376.558571,366.384997 C376.314286,366.384997 376.07,366.299999 375.825714,366.215 C375.581429,366.130002 375.337143,365.960005 375.092857,365.790008 C374.848571,365.620011 374.604286,365.280018 374.278571,364.940024 C373.952857,364.60003 373.708571,364.175038 373.301429,363.665048 C372.975714,363.155058 372.731429,362.645067 372.405714,362.050078 C372.161429,361.45509 371.917143,360.860101 371.754286,360.180113 C371.591429,359.585125 371.428571,358.905137 371.347143,358.310149 C371.265714,357.630161 371.184286,357.035173 371.184286,356.440184 C371.184286,355.505201 371.347143,354.655217 371.591429,353.890232 C371.835714,353.125246 372.242857,352.445259 372.65,351.85027 C373.138571,351.255281 373.627143,350.830289 374.278571,350.490295 C374.93,350.150302 375.581429,349.980305 376.314286,349.980305 C376.884286,349.980305 377.454286,350.150302 378.187143,350.490295 C378.92,350.830289 379.408571,351.000286 379.652857,351.000286 C379.734286,351.000286 379.897143,350.915287 380.141429,350.830289 C380.385714,350.745291 380.792857,350.575294 381.281429,350.405297 C381.77,350.2353 382.095714,350.150302 382.421429,350.065303 C382.747143,349.980305 382.991429,349.980305 383.317143,349.980305 C384.131429,349.980305 384.864286,350.150302 385.597143,350.575294 C386.33,351.000286 386.9,351.510276 387.307143,352.190264 C386.574286,352.700254 386.004286,353.295243 385.597143,353.97523 C385.271429,354.655217 385.108571,355.420203 385.108571,356.355185 C385.108571,357.290168 385.352857,358.140152 385.841429,358.990136 C386.33,359.755121 386.981429,360.35011 387.877143,360.775102 C387.714286,360.945099 387.47,361.540088 387.307143,362.050078 Z M379.571429,349.130321 C379.571429,348.620331 379.652857,348.11034 379.897143,347.515351 C380.141429,347.005361 380.385714,346.49537 380.792857,346.070378 C381.118571,345.645386 381.607143,345.305393 382.095714,345.050398 C382.584286,344.795402 383.154286,344.625406 383.642857,344.625406 C383.642857,344.710404 383.642857,344.795402 383.642857,344.880401 L383.642857,345.135396 C383.642857,345.645386 383.561429,346.240375 383.317143,346.835364 C383.072857,347.345355 382.828571,347.855345 382.421429,348.280337 C382.095714,348.705329 381.688571,349.045323 381.2,349.300318 C380.711429,349.555313 380.304286,349.72531 379.815714,349.72531 C379.652857,349.72531 379.49,349.72531 379.49,349.640311 C379.571429,349.385316 379.571429,349.215319 379.571429,349.130321 Z" id="Mac_Compare_2_" fill="#00C27E"></path>
        </g>
    </g>
</svg>