<?xml version="1.0" encoding="UTF-8"?>
<svg width="70px" height="40px" viewBox="0 0 70 40" version="1.1" xmlns="http://www.w3.org/2000/svg" xmlns:xlink="http://www.w3.org/1999/xlink">
    <!-- Generator: Sketch 46.2 (44496) - http://www.bohemiancoding.com/sketch -->
    <title>Mac_header</title>
    <desc>Created with Sketch.</desc>
    <defs></defs>
    <g id="Page-1" stroke="none" stroke-width="1" fill="none" fill-rule="evenodd">
        <g id="Mac_header" fill-rule="nonzero" fill="#000000">
            <path d="M42,38 L42,17.5 C42,16.54 41.48,16 40.5,16 L5.5,16 C4.52,16 4,16.5 4,17.5 L4,38 L0,38 C0.05,38.09 0.13,38.32 0.21,38.32 C0.21,38.32 2.28,39.57 4.85,39.74 C7.42,39.92 9.99,40.01 10,40 C10,40 23,40 23,40 L36,40 C36,40 38.36,39.92 40.93,39.75 C43.5,39.58 45.57,38.33 45.57,38.33 C45.65,38.33 45.95,38.1 46.01,38.01 L42,38.01 L42,38 Z M6,18 L40,18 L40,38 L6,38 L6,18 Z M52.95,40 L52.95,40 C52.97,39.99 52.98,39.99 52.99,39.98 C53.13,39.94 53.23,39.81 53.23,39.66 C53.23,39.47 53.08,39.32 52.88,39.32 C52.85,39.32 52.84,39.32 52.81,39.32 C51.45,39.41 50.18,38.5 49.88,37.13 L49,33 L68.47,33 C69.17,33 70,32.17 70,31.47 L70,1.53 C70,0.83 69.17,0 68.47,0 L23.53,0 C22.83,0 22,0.83 22,1.53 L22.02,15 L24,15 L24,2 L68,2 L68,27 L43,27 L43,33 L43,37 L47,37 L47,38 C46.96,39.54 44,40 44,40 L52.95,40 Z M46.95,30.83 C46.92,30.89 46.89,30.95 46.86,31 C46.83,31.05 46.79,31.1 46.76,31.14 C46.73,31.18 46.7,31.21 46.68,31.22 C46.64,31.25 46.61,31.27 46.57,31.29 C46.54,31.31 46.5,31.32 46.46,31.32 C46.44,31.32 46.4,31.31 46.37,31.3 C46.33,31.29 46.3,31.28 46.26,31.27 C46.22,31.26 46.18,31.25 46.15,31.23 C46.11,31.22 46.08,31.22 46.05,31.22 C46.02,31.22 45.98,31.22 45.94,31.24 C45.9,31.25 45.86,31.26 45.82,31.28 C45.78,31.29 45.74,31.3 45.71,31.32 C45.68,31.33 45.65,31.34 45.63,31.34 C45.6,31.34 45.57,31.33 45.54,31.32 C45.51,31.31 45.48,31.29 45.45,31.27 C45.42,31.25 45.39,31.21 45.35,31.17 C45.31,31.13 45.28,31.08 45.23,31.02 C45.19,30.96 45.16,30.9 45.12,30.83 C45.09,30.76 45.06,30.69 45.04,30.61 C45.02,30.54 45,30.46 44.99,30.39 C44.98,30.31 44.97,30.24 44.97,30.17 C44.97,30.06 44.99,29.96 45.02,29.87 C45.05,29.78 45.1,29.7 45.15,29.63 C45.21,29.56 45.27,29.51 45.35,29.47 C45.43,29.43 45.51,29.41 45.6,29.41 C45.67,29.41 45.74,29.43 45.83,29.47 C45.92,29.51 45.98,29.53 46.01,29.53 C46.02,29.53 46.04,29.52 46.07,29.51 C46.1,29.5 46.15,29.48 46.21,29.46 C46.27,29.44 46.31,29.43 46.35,29.42 C46.39,29.41 46.42,29.41 46.46,29.41 C46.56,29.41 46.65,29.43 46.74,29.48 C46.83,29.53 46.9,29.59 46.95,29.67 C46.86,29.73 46.79,29.8 46.74,29.88 C46.7,29.96 46.68,30.05 46.68,30.16 C46.68,30.27 46.71,30.37 46.77,30.47 C46.83,30.56 46.91,30.63 47.02,30.68 C47,30.7 46.97,30.77 46.95,30.83 Z M46,29.31 C46,29.25 46.01,29.19 46.04,29.12 C46.07,29.06 46.1,29 46.15,28.95 C46.19,28.9 46.25,28.86 46.31,28.83 C46.37,28.8 46.44,28.78 46.5,28.78 C46.5,28.79 46.5,28.8 46.5,28.81 L46.5,28.84 C46.5,28.9 46.49,28.97 46.46,29.04 C46.43,29.1 46.4,29.16 46.35,29.21 C46.31,29.26 46.26,29.3 46.2,29.33 C46.14,29.36 46.09,29.38 46.03,29.38 C46.01,29.38 45.99,29.38 45.99,29.37 C46,29.34 46,29.32 46,29.31 Z" id="Mac_Compare_2_"></path>
        </g>
    </g>
</svg>