<svg width="20" height="20" viewBox="0 0 20 20" fill="none" xmlns="http://www.w3.org/2000/svg">
<path d="M10.944 7.55238H8.67844V5.28678C8.67844 5.07834 8.50927 4.90918 8.30083 4.90918C8.0924 4.90918 7.92323 5.07834 7.92323 5.28678V7.55238H5.65763C5.44919 7.55238 5.28003 7.72155 5.28003 7.92999C5.28003 8.13842 5.44919 8.30759 5.65763 8.30759H7.92323V10.5732C7.92323 10.7816 8.0924 10.9508 8.30083 10.9508C8.50927 10.9508 8.67844 10.7816 8.67844 10.5732V8.30759H10.944C11.1525 8.30759 11.3216 8.13842 11.3216 7.92999C11.3216 7.72155 11.1525 7.55238 10.944 7.55238Z" fill="white"/>
<path d="M19.5243 19.3607L13.9135 13.5257C15.3446 12.0904 16.2312 10.1118 16.2312 7.92962C16.2312 3.557 12.6742 0 8.30162 0C3.92901 0 0.372009 3.557 0.372009 7.92962C0.372009 12.3022 3.92901 15.8592 8.30162 15.8592C10.221 15.8592 11.9825 15.1731 13.3554 14.0347L18.9798 19.8841C19.0538 19.9615 19.1527 20 19.252 20C19.3464 20 19.4405 19.9649 19.5137 19.8946C19.664 19.75 19.6685 19.511 19.5243 19.3607ZM1.12721 7.92962C1.12721 3.97349 4.3455 0.755201 8.30162 0.755201C12.2577 0.755201 15.476 3.97349 15.476 7.92962C15.476 11.8857 12.2577 15.104 8.30162 15.104C4.3455 15.104 1.12721 11.8857 1.12721 7.92962Z" fill="white"/>
</svg>
