<svg width="16" height="17" viewBox="0 0 16 17" fill="none" xmlns="http://www.w3.org/2000/svg">
<path d="M10.3 6H15.25C15.5719 6 15.8563 6.20312 15.9594 6.50625C16.0625 6.80937 15.9625 7.14375 15.7094 7.34062L11.6219 10.5219L13.2156 15.5219C13.3156 15.8344 13.2 16.1781 12.9281 16.3656C12.6594 16.5531 12.3 16.5438 12.0406 16.3406L8 13.2L3.95938 16.3406C3.7 16.5438 3.34063 16.5531 3.07094 16.3656C2.80157 16.1781 2.68563 15.8344 2.78532 15.5219L4.37813 10.5219L0.289599 7.34062C0.0366926 7.14375 -0.0633386 6.80937 0.0406301 6.50625C0.14463 6.20312 0.429693 6 0.750005 6H5.70313L7.28438 1.0225C7.38438 0.711375 7.675 0.5 8 0.5C8.32813 0.5 8.61563 0.711375 8.71563 1.0225L10.3 6Z" fill="#FFE500"/>
</svg>
