<svg width="26" height="20" viewBox="0 0 26 20" fill="none" xmlns="http://www.w3.org/2000/svg">
<path d="M22.7148 18.6546C22.6795 18.645 22.6441 18.6358 22.6088 18.6257C22.4269 18.5731 22.2649 18.4687 22.1431 18.3258C22.0213 18.1828 21.9451 18.0076 21.9241 17.8221C21.8998 17.6081 21.9222 17.401 22.0175 17.2048C22.1116 17.0112 22.2703 16.8553 22.4671 16.7629C22.6639 16.6706 22.887 16.6476 23.099 16.6976C23.2497 16.7338 23.3738 16.8123 23.4752 16.928C23.5038 16.9116 23.4916 16.8849 23.4916 16.8638C23.4927 16.5894 23.4922 16.315 23.4924 16.0406C23.4924 15.9537 23.4816 15.955 23.5741 15.9554C23.6722 15.9554 23.7703 15.9564 23.8686 15.9554C23.9024 15.9548 23.9211 15.9632 23.9174 16.0007C23.9157 16.0188 23.9174 16.0369 23.9174 16.055C23.9174 16.8782 23.9174 17.7014 23.9174 18.5246C23.9174 18.6394 23.9327 18.6231 23.8148 18.6242C23.7321 18.6251 23.6493 18.6251 23.5664 18.6242C23.4937 18.6237 23.4935 18.6231 23.4927 18.5481C23.4937 18.5026 23.4911 18.4572 23.4849 18.4122C23.4283 18.4755 23.3619 18.5296 23.2882 18.5727C23.2183 18.6123 23.141 18.6297 23.0651 18.6538C23.0559 18.6641 23.044 18.662 23.0325 18.6628H22.9974C22.9827 18.6638 22.9668 18.6595 22.9546 18.6719H22.8258C22.8137 18.6593 22.7982 18.6635 22.7831 18.6628H22.7482C22.7364 18.662 22.7242 18.6638 22.7148 18.6546Z" fill="#161616"/>
<path d="M6.94144 18.6538C6.90895 18.6447 6.87647 18.6367 6.84416 18.6276C6.46115 18.5204 6.18378 18.1855 6.15065 17.7906C6.13298 17.5794 6.15893 17.3758 6.25814 17.1838C6.3549 16.9966 6.51272 16.8469 6.7063 16.7586C6.89988 16.6702 7.11799 16.6485 7.32565 16.6967C7.44857 16.7252 7.5614 16.7858 7.65225 16.8722C7.67185 16.8903 7.68556 16.9155 7.71777 16.9287C7.73443 16.8597 7.71593 16.7904 7.73056 16.7136C7.85655 16.7136 7.98456 16.7136 8.11247 16.7136C8.14008 16.7136 8.1503 16.7276 8.14928 16.753C8.14882 16.7711 8.14928 16.7892 8.14928 16.8073V18.5269C8.14928 18.5359 8.14928 18.545 8.14928 18.5541C8.14781 18.6219 8.14781 18.6226 8.07732 18.6232C7.98529 18.6239 7.89327 18.6237 7.80124 18.6232C7.72532 18.6227 7.72513 18.6224 7.72412 18.5513C7.72348 18.509 7.72357 18.4668 7.72311 18.4245C7.72311 18.4222 7.72016 18.4199 7.71391 18.4106C7.65133 18.4657 7.59657 18.5283 7.52258 18.5694C7.44859 18.6104 7.36908 18.6284 7.29077 18.6535C7.28157 18.6632 7.26933 18.6613 7.25782 18.6617H7.22387C7.20914 18.6627 7.19322 18.6583 7.18107 18.6707H7.05224C7.04018 18.6581 7.02463 18.6624 7.00954 18.6617H6.97457C6.96269 18.6617 6.95055 18.6636 6.94144 18.6538Z" fill="#161616"/>
<path d="M18.8126 18.6551C18.7567 18.6395 18.6993 18.628 18.6452 18.6077C18.2936 18.4765 18.0924 18.2211 18.0237 17.8627C17.9792 17.6389 18.0102 17.4069 18.1119 17.202C18.2057 17.01 18.3632 16.8553 18.5585 16.7634C18.7537 16.6715 18.975 16.648 19.1857 16.6966C19.3402 16.7321 19.4659 16.8132 19.5836 16.9444C19.5885 16.8871 19.589 16.8296 19.5854 16.7723C19.5816 16.7224 19.6027 16.7114 19.6485 16.7126C19.7498 16.7152 19.851 16.7162 19.9522 16.7126C20.004 16.7106 20.012 16.7318 20.0117 16.776C20.01 17.0142 20.0109 17.2523 20.0109 17.4905C20.0109 17.8432 20.0109 18.196 20.0109 18.5487C20.0109 18.6227 20.0101 18.6233 19.9379 18.6237C19.8366 18.6243 19.7354 18.6231 19.6342 18.6242C19.6 18.6242 19.5841 18.6143 19.5859 18.5775C19.5887 18.5238 19.5867 18.4699 19.5867 18.3935C19.519 18.47 19.4593 18.5276 19.3861 18.5693C19.3109 18.6124 19.2275 18.6314 19.1456 18.6554C19.1352 18.6645 19.1227 18.6621 19.1106 18.6624C19.0912 18.6649 19.0698 18.6557 19.0527 18.6714H18.9055C18.8884 18.6554 18.8671 18.6647 18.8477 18.6624C18.8354 18.6619 18.8229 18.6638 18.8126 18.6551Z" fill="#161616"/>
<path d="M11.4321 18.6549C11.4025 18.647 11.3729 18.6395 11.3435 18.6311C11.1177 18.5658 10.9816 18.3922 10.9538 18.1355C10.9415 18.0213 10.9418 17.9068 10.942 17.7922C10.9425 17.5872 10.9425 17.3822 10.942 17.1771C10.942 17.0804 10.9512 17.0927 10.852 17.0921C10.7723 17.0915 10.6926 17.0906 10.6128 17.0921C10.5734 17.0931 10.5575 17.0793 10.5586 17.0401C10.5603 16.9467 10.5601 16.8531 10.5586 16.7598C10.5581 16.7253 10.5694 16.7119 10.606 16.7127C10.6948 16.7149 10.7838 16.7139 10.8729 16.7127C10.9407 16.7127 10.9417 16.7116 10.9419 16.6419C10.9426 16.497 10.9419 16.3521 10.9419 16.2078C10.9419 16.1353 10.9429 16.1353 11.0178 16.1346C11.1158 16.134 11.214 16.1368 11.3122 16.1334C11.3589 16.1318 11.3686 16.1493 11.3681 16.1908C11.3661 16.3386 11.367 16.4863 11.3675 16.634C11.3675 16.7122 11.3684 16.7127 11.4474 16.7128C11.6283 16.7128 11.8091 16.7128 11.9898 16.7128C12.0542 16.7128 12.0542 16.7143 12.0552 16.7776C12.056 16.862 12.0529 16.9465 12.0564 17.0312C12.0584 17.08 12.0393 17.0925 11.9928 17.092C11.8179 17.0899 11.6431 17.0911 11.4682 17.0912C11.4468 17.0912 11.4253 17.0912 11.4038 17.0912C11.3787 17.0912 11.3625 17.0997 11.3635 17.1274C11.3635 17.1365 11.3635 17.1455 11.3635 17.1546C11.3635 17.4173 11.3612 17.6792 11.3643 17.9415C11.3673 18.1908 11.4765 18.2819 11.7299 18.2585C11.8295 18.2494 11.9197 18.2149 12.0137 18.1679C12.0506 18.275 12.0851 18.3798 12.1233 18.4831C12.1362 18.5182 12.1226 18.5316 12.0939 18.5453C12.014 18.5833 11.9302 18.6129 11.8441 18.6337C11.8174 18.6403 11.7908 18.6472 11.7641 18.6539C11.7538 18.663 11.7413 18.6607 11.7292 18.661C11.7098 18.6635 11.6884 18.6543 11.6713 18.6701H11.5241C11.5071 18.654 11.4857 18.6633 11.4663 18.661C11.4547 18.662 11.4422 18.664 11.4321 18.6549Z" fill="#161616"/>
<path d="M16.9173 18.6532C16.864 18.6398 16.81 18.6285 16.7576 18.6125C16.3802 18.4977 16.1207 18.1778 16.09 17.7883C16.078 17.6371 16.0858 17.4873 16.1313 17.3409C16.2459 16.9716 16.5699 16.7143 16.9675 16.6813C17.1359 16.6672 17.304 16.669 17.4688 16.7157C17.5775 16.7474 17.6797 16.7978 17.7707 16.8644C17.7926 16.8801 17.8053 16.8936 17.7871 16.9228C17.7253 17.0225 17.6663 17.1233 17.6035 17.2281C17.4953 17.1573 17.3893 17.0996 17.2687 17.071C16.873 16.9769 16.5206 17.2402 16.51 17.6397C16.5079 17.7212 16.5135 17.8027 16.5376 17.8811C16.6281 18.1807 16.883 18.3043 17.156 18.2839C17.2909 18.2733 17.4209 18.2287 17.5333 18.1544L17.6032 18.1091L17.8048 18.443C17.6913 18.5373 17.5564 18.6031 17.4115 18.6348C17.3878 18.6403 17.3642 18.6467 17.3406 18.6529C17.3264 18.6673 17.308 18.6602 17.2914 18.662H17.2531C17.2333 18.6646 17.2114 18.6551 17.1936 18.671H17.0463C17.0336 18.6577 17.017 18.6629 17.0016 18.662H16.9648C16.9484 18.6604 16.9309 18.6671 16.9173 18.6532Z" fill="#161616"/>
<path d="M9.42643 18.6724H9.29763C9.2961 18.6704 9.29502 18.668 9.29443 18.6656C9.29385 18.6631 9.29379 18.6605 9.29425 18.658C9.29471 18.6555 9.29567 18.6532 9.2971 18.6511C9.29852 18.6489 9.30036 18.6472 9.3025 18.6458C9.32083 18.636 9.34129 18.6309 9.36207 18.6309C9.38286 18.6309 9.40332 18.636 9.42165 18.6458C9.42378 18.6472 9.42562 18.649 9.42703 18.6511C9.42844 18.6532 9.4294 18.6556 9.42985 18.6581C9.4303 18.6606 9.43023 18.6631 9.42964 18.6656C9.42905 18.6681 9.42796 18.6704 9.42643 18.6724Z" fill="#353535"/>
<path d="M13.4567 18.6723H13.3279C13.3264 18.6702 13.3253 18.6679 13.3247 18.6655C13.3241 18.663 13.3241 18.6604 13.3245 18.6579C13.325 18.6554 13.3259 18.653 13.3274 18.6509C13.3288 18.6488 13.3306 18.647 13.3328 18.6457C13.3511 18.6358 13.3717 18.6306 13.3926 18.6306C13.4134 18.6306 13.434 18.6358 13.4523 18.6457C13.4544 18.6471 13.4562 18.6489 13.4576 18.651C13.459 18.6532 13.4599 18.6555 13.4603 18.658C13.4607 18.6605 13.4606 18.6631 13.46 18.6655C13.4593 18.668 13.4582 18.6703 13.4567 18.6723Z" fill="#383838"/>
<path d="M18.849 18.6557C18.87 18.6523 18.89 18.6526 18.9046 18.6721H18.8503C18.8448 18.6689 18.8428 18.6654 18.8442 18.6617C18.8457 18.6579 18.8474 18.6557 18.849 18.6557Z" fill="#707070"/>
<path d="M17.2866 18.6562L17.3392 18.6528V18.6716H17.2849C17.2788 18.6675 17.2769 18.6638 17.2794 18.6605C17.2801 18.6593 17.2812 18.6582 17.2825 18.6575C17.2837 18.6567 17.2851 18.6563 17.2866 18.6562Z" fill="#C4C4C4"/>
<path d="M17.1934 18.6723C17.2079 18.6517 17.2284 18.6535 17.2493 18.6561C17.254 18.6602 17.2553 18.664 17.2533 18.6674C17.2513 18.6708 17.2495 18.6723 17.2477 18.6723H17.1934Z" fill="#474747"/>
<path d="M16.9182 18.6533L16.9707 18.6566C16.9777 18.6593 16.9798 18.6626 16.9784 18.666C16.9771 18.6694 16.9745 18.6719 16.9723 18.6719H16.918L16.9182 18.6533Z" fill="#BFBFBF"/>
<path d="M13.3248 18.6564C13.3256 18.6614 13.3263 18.6664 13.3271 18.6713H13.2727C13.2712 18.6696 13.2701 18.6676 13.2694 18.6655C13.2686 18.6633 13.2684 18.661 13.2686 18.6587C13.2689 18.6565 13.2696 18.6543 13.2707 18.6523C13.2719 18.6503 13.2734 18.6486 13.2753 18.6472C13.294 18.6385 13.3111 18.638 13.3248 18.6564Z" fill="#717171"/>
<path d="M13.2707 18.656C13.2717 18.6611 13.2722 18.6663 13.2721 18.6715H13.2178C13.2181 18.6655 13.2181 18.6594 13.2178 18.6534C13.2362 18.6388 13.2538 18.6383 13.2707 18.656Z" fill="#C0C0C0"/>
<path d="M11.6719 18.6722C11.6788 18.6643 11.6877 18.6586 11.6975 18.6557C11.7073 18.6528 11.7177 18.6528 11.7276 18.6557C11.7325 18.6599 11.734 18.6637 11.732 18.6672C11.73 18.6707 11.7282 18.6722 11.7263 18.6722H11.6719Z" fill="#727272"/>
<path d="M11.4683 18.6554C11.4894 18.6521 11.5101 18.6498 11.5237 18.6724H11.4694C11.4639 18.669 11.4618 18.6654 11.4634 18.6615C11.4649 18.6575 11.4665 18.6554 11.4683 18.6554Z" fill="#666666"/>
<path d="M9.57222 18.653C9.57222 18.6591 9.57222 18.6652 9.57222 18.671H9.51787C9.51633 18.6693 9.51517 18.6673 9.51446 18.6651C9.51376 18.663 9.51352 18.6607 9.51377 18.6584C9.51401 18.6561 9.51474 18.6539 9.5159 18.6519C9.51706 18.65 9.51863 18.6482 9.5205 18.6469C9.53925 18.6376 9.55664 18.6378 9.57222 18.653Z" fill="#C9C9C9"/>
<path d="M19.0527 18.6724C19.0675 18.6528 19.0875 18.6525 19.1085 18.656C19.1134 18.6601 19.1149 18.6639 19.1129 18.6674C19.1109 18.6708 19.109 18.6724 19.1071 18.6724H19.0527Z" fill="#6D6D6D"/>
<path d="M9.51827 18.6559C9.51736 18.6611 9.517 18.6664 9.51718 18.6717H9.46285C9.46134 18.6699 9.46024 18.6678 9.4596 18.6655C9.45897 18.6632 9.45882 18.6608 9.45917 18.6585C9.45952 18.6561 9.46036 18.6539 9.46163 18.6519C9.46291 18.6499 9.46459 18.6482 9.46656 18.6469C9.48585 18.6381 9.5036 18.638 9.51827 18.6559Z" fill="#878787"/>
<path d="M9.4648 18.6577C9.46426 18.6626 9.46371 18.6676 9.46299 18.6724H9.42676C9.42683 18.667 9.42723 18.6615 9.42794 18.6561C9.44071 18.6445 9.45303 18.6442 9.4648 18.6577Z" fill="#535353"/>
<path d="M9.29523 18.6558C9.29593 18.661 9.29635 18.6662 9.2965 18.6714H9.26032C9.25746 18.6684 9.25586 18.6645 9.25586 18.6603C9.25586 18.6561 9.25746 18.6522 9.26032 18.6492C9.26592 18.6457 9.2726 18.6445 9.27905 18.6457C9.2855 18.6469 9.29126 18.6505 9.29523 18.6558Z" fill="#565656"/>
<path d="M11.4678 18.6554C11.4695 18.6609 11.4699 18.6667 11.4689 18.6724H11.4326C11.4326 18.6667 11.4326 18.6609 11.4326 18.655L11.4678 18.6554Z" fill="#BBBBBB"/>
<path d="M9.25896 18.6572C9.25896 18.6623 9.25987 18.6675 9.26014 18.6727H9.22389C9.22109 18.6695 9.2196 18.6652 9.21974 18.6609C9.21987 18.6566 9.22162 18.6525 9.22461 18.6495C9.23775 18.6437 9.24963 18.6443 9.25896 18.6572Z" fill="#7D7D7D"/>
<path d="M9.22203 18.6563C9.22276 18.6615 9.2231 18.6668 9.22302 18.6721H9.18681C9.18399 18.6689 9.18249 18.6647 9.18263 18.6604C9.18276 18.6561 9.18452 18.652 9.18754 18.649C9.19314 18.6456 9.19977 18.6445 9.20613 18.6458C9.2125 18.6472 9.21816 18.6509 9.22203 18.6563Z" fill="#AEAEAE"/>
<path d="M11.7277 18.6723C11.7273 18.6668 11.7277 18.6613 11.7289 18.6559L11.7646 18.6553C11.7646 18.6609 11.7646 18.6667 11.7639 18.6723H11.7277Z" fill="#B6B6B6"/>
<path d="M9.18617 18.6558C9.18617 18.6615 9.18662 18.667 9.18662 18.6726H9.15039C9.15039 18.6664 9.15039 18.6601 9.15039 18.6537C9.15283 18.6513 9.15571 18.6495 9.15886 18.6483C9.16201 18.6471 9.16536 18.6466 9.16871 18.6468C9.17205 18.647 9.17533 18.6479 9.17833 18.6494C9.18133 18.651 9.184 18.6531 9.18617 18.6558Z" fill="#D3D3D3"/>
<path d="M7.25556 18.6561L7.2908 18.6543C7.2908 18.6604 7.2908 18.6664 7.2908 18.6725H7.25457C7.2485 18.6684 7.24669 18.6645 7.24904 18.6611C7.2514 18.6576 7.2533 18.6561 7.25556 18.6561Z" fill="#C2C2C2"/>
<path d="M7.25475 18.6555C7.25378 18.6609 7.25338 18.6664 7.25358 18.6719H7.21735C7.21119 18.6674 7.20947 18.6635 7.21219 18.6604C7.21307 18.6592 7.2142 18.6582 7.2155 18.6574C7.2168 18.6567 7.21823 18.6563 7.2197 18.6562L7.25475 18.6555Z" fill="#808080"/>
<path d="M13.457 18.6716C13.457 18.6664 13.4578 18.6611 13.4584 18.656C13.4623 18.6508 13.468 18.6472 13.4744 18.646C13.4807 18.6448 13.4873 18.6459 13.4929 18.6492C13.4949 18.6511 13.4964 18.6534 13.4972 18.656C13.498 18.6586 13.4981 18.6614 13.4975 18.6641C13.4961 18.6692 13.4947 18.6716 13.4932 18.6716H13.457Z" fill="#5B5B5B"/>
<path d="M13.4941 18.6722C13.4945 18.667 13.495 18.6618 13.4955 18.6567C13.5046 18.6438 13.5166 18.6433 13.5298 18.6489C13.5318 18.6508 13.5333 18.6533 13.5342 18.656C13.535 18.6587 13.5352 18.6616 13.5346 18.6644C13.5333 18.6695 13.5318 18.6722 13.5304 18.6722H13.4941Z" fill="#898989"/>
<path d="M13.5313 18.6725C13.5312 18.6671 13.5315 18.6617 13.5322 18.6563C13.5362 18.651 13.5419 18.6474 13.5482 18.646C13.5546 18.6447 13.5611 18.6458 13.5668 18.6491C13.5688 18.651 13.5704 18.6535 13.5712 18.6562C13.572 18.6589 13.5722 18.6618 13.5716 18.6646C13.5703 18.6698 13.5689 18.6725 13.5674 18.6725H13.5313Z" fill="#BABABA"/>
<path d="M13.5674 18.6724C13.5674 18.6666 13.5674 18.6608 13.5674 18.6551C13.5719 18.65 13.578 18.6469 13.5846 18.6463C13.5911 18.6458 13.5977 18.6478 13.6029 18.652C13.6029 18.6588 13.6029 18.6656 13.6029 18.6724H13.5674Z" fill="#E3E3E3"/>
<path d="M7.21913 18.6565C7.21823 18.6618 7.21741 18.6669 7.21678 18.6722H7.18066C7.18879 18.6544 7.20306 18.6531 7.21913 18.6565Z" fill="#3F3F3F"/>
<path d="M16.9723 18.6722L16.9707 18.6565H17.007C17.014 18.659 17.0167 18.6622 17.015 18.6659C17.0133 18.6696 17.0111 18.672 17.009 18.672L16.9723 18.6722Z" fill="#737373"/>
<path d="M17.0098 18.6722C17.0098 18.6669 17.0087 18.6617 17.0078 18.6565C17.0239 18.6532 17.0382 18.6544 17.0462 18.6722H17.0098Z" fill="#3D3D3D"/>
<path d="M7.01293 18.6565C7.02905 18.6532 7.04336 18.6544 7.05133 18.6722H7.0151C7.01003 18.6695 7.00804 18.6662 7.00904 18.6628C7.01003 18.6594 7.01148 18.6565 7.01293 18.6565Z" fill="#424242"/>
<path d="M17.249 18.6724C17.249 18.667 17.2495 18.6616 17.2507 18.6562H17.287C17.2862 18.6615 17.2857 18.6668 17.2855 18.6721L17.249 18.6724Z" fill="#7E7E7E"/>
<path d="M7.01236 18.6565C7.01326 18.6617 7.01399 18.667 7.01453 18.6722H6.97825C6.97272 18.6689 6.97063 18.6655 6.97217 18.6616C6.97372 18.6577 6.97553 18.6558 6.97725 18.6558L7.01236 18.6565Z" fill="#848484"/>
<path d="M18.8482 18.6559C18.8495 18.6613 18.8499 18.6668 18.8495 18.6723H18.8131C18.8131 18.6667 18.8124 18.6609 18.8125 18.6553L18.8482 18.6559Z" fill="#B6B6B6"/>
<path d="M6.97665 18.6558C6.97766 18.6613 6.978 18.6668 6.97765 18.6723H6.94141C6.94141 18.6662 6.94141 18.6601 6.94141 18.6541L6.97665 18.6558Z" fill="#C5C5C5"/>
<path d="M19.1075 18.6722C19.1072 18.6667 19.1076 18.6612 19.1089 18.6559L19.1445 18.6553C19.1446 18.6609 19.1443 18.6666 19.1437 18.6722H19.1075Z" fill="#B4B4B4"/>
<path d="M22.715 18.6545L22.7505 18.656C22.7572 18.6591 22.7595 18.6626 22.7576 18.6664C22.7556 18.6702 22.7537 18.6721 22.7516 18.6723H22.7153C22.7148 18.6664 22.7147 18.6605 22.715 18.6545Z" fill="#BFBFBF"/>
<path d="M22.7521 18.6719C22.7523 18.6664 22.752 18.6609 22.751 18.6555L22.786 18.6562C22.7933 18.6586 22.796 18.6617 22.7943 18.6656C22.7926 18.6694 22.7905 18.6719 22.7883 18.6719H22.7521Z" fill="#7C7C7C"/>
<path d="M22.7884 18.6723C22.7879 18.667 22.787 18.6617 22.7861 18.6565C22.8023 18.653 22.8165 18.6547 22.8246 18.6723H22.7884Z" fill="#3D3D3D"/>
<path d="M22.9541 18.6721C22.9621 18.6542 22.9765 18.6533 22.9926 18.6564C22.9968 18.6605 22.9979 18.6643 22.9959 18.6676C22.9939 18.6709 22.9921 18.6721 22.9904 18.6721H22.9541Z" fill="#454545"/>
<path d="M22.9912 18.6722C22.9918 18.667 22.9926 18.6617 22.9934 18.6565L23.0285 18.6558C23.0338 18.6598 23.0353 18.6636 23.0333 18.6671C23.0313 18.6707 23.0294 18.6722 23.0275 18.6722H22.9912Z" fill="#888888"/>
<path d="M23.0284 18.672C23.0281 18.6665 23.0285 18.661 23.0294 18.6556L23.0647 18.6533V18.6721L23.0284 18.672Z" fill="#C8C8C8"/>
<path d="M3.08909 16.9214C3.3821 16.5628 4.0376 16.5885 4.29877 17.0006C4.31496 16.9972 4.3226 16.9842 4.33171 16.9727C4.48558 16.7802 4.68951 16.6863 4.93586 16.6758C5.04049 16.6714 5.14485 16.6758 5.24589 16.7042C5.52685 16.7842 5.68927 16.971 5.74338 17.2508C5.75533 17.3101 5.7615 17.3703 5.76179 17.4307C5.76105 17.8018 5.7609 18.173 5.76133 18.5442C5.76133 18.6227 5.76069 18.6233 5.68237 18.6236C5.57498 18.6236 5.46768 18.6243 5.36028 18.6236C5.29062 18.6231 5.28951 18.6223 5.28942 18.554C5.28899 18.246 5.28899 17.9382 5.28942 17.6307C5.28942 17.5824 5.28777 17.5341 5.28657 17.4857C5.28441 17.4344 5.27458 17.3837 5.2574 17.3352C5.20402 17.1747 5.09092 17.0875 4.92003 17.0737C4.61874 17.0495 4.41886 17.2215 4.40377 17.5191C4.40101 17.5735 4.4022 17.6278 4.4022 17.6822C4.4022 17.9688 4.4022 18.2554 4.4022 18.5421C4.4022 18.6287 4.41223 18.6236 4.31689 18.6236C4.23407 18.6236 4.15125 18.6236 4.06843 18.6236C3.9672 18.6236 3.97833 18.6306 3.97824 18.538C3.97824 18.224 3.97824 17.9102 3.97824 17.5967C3.97901 17.5333 3.97377 17.47 3.9626 17.4076C3.921 17.187 3.78259 17.0725 3.55419 17.071C3.2793 17.0698 3.10694 17.2234 3.09489 17.4937C3.08568 17.6924 3.09074 17.8918 3.09001 18.091C3.08946 18.2479 3.08835 18.4048 3.09093 18.562C3.09166 18.609 3.07814 18.6264 3.0289 18.6249C2.92473 18.6219 2.82028 18.6225 2.71602 18.6249C2.67525 18.6258 2.6608 18.6105 2.66467 18.5723C2.66545 18.5572 2.66545 18.5421 2.66467 18.527V16.8065C2.66467 16.7915 2.66559 16.7763 2.66467 16.7612C2.66236 16.7284 2.67221 16.7121 2.71068 16.7129C2.82111 16.715 2.93154 16.7143 3.04197 16.7129C3.07639 16.7129 3.09222 16.7235 3.09065 16.7599C3.08743 16.8139 3.08909 16.8678 3.08909 16.9214Z" fill="#161616"/>
<path d="M13.6047 18.6517L13.5686 18.6547L13.5324 18.6558L13.4955 18.6564L13.4587 18.6558L13.3262 18.6564L13.2718 18.6558L13.2182 18.6533C13.1619 18.6392 13.1047 18.6279 13.0494 18.6106C12.6892 18.4973 12.4415 18.1856 12.4088 17.8057C12.3948 17.6426 12.4014 17.4803 12.4507 17.3221C12.5795 16.9096 12.951 16.6578 13.4015 16.6712C13.8467 16.6845 14.1703 16.9665 14.2481 17.4266C14.2688 17.5494 14.264 17.6731 14.2658 17.7966C14.2658 17.8328 14.2521 17.8454 14.2177 17.8436C14.1962 17.8424 14.1748 17.8436 14.1532 17.8436H12.8297C12.8628 18.0248 12.9493 18.1586 13.1126 18.2364C13.2929 18.3223 13.4794 18.3179 13.6678 18.2618C13.7803 18.2285 13.8801 18.1712 13.9824 18.1048C14.0436 18.1954 14.1013 18.2834 14.1627 18.3692C14.1875 18.404 14.1654 18.417 14.1427 18.4335C14.0012 18.535 13.8384 18.6041 13.6663 18.6356C13.6453 18.6394 13.6235 18.6398 13.6047 18.6517Z" fill="#161616"/>
<path d="M9.18682 18.6554L9.15056 18.6536C9.05283 18.6291 8.95243 18.6166 8.85663 18.5834C8.75833 18.5498 8.66403 18.5058 8.5754 18.4521C8.54227 18.4319 8.53721 18.4134 8.55939 18.3804C8.61838 18.2926 8.67396 18.2026 8.73 18.1151C8.76166 18.1113 8.7773 18.1333 8.79737 18.1447C9.02743 18.2764 9.2736 18.3301 9.53855 18.292C9.60886 18.2819 9.67585 18.262 9.73539 18.2224C9.79493 18.1828 9.8346 18.1304 9.82898 18.0572C9.82365 17.9879 9.77009 17.9547 9.71266 17.9295C9.61383 17.886 9.5091 17.8661 9.40161 17.857C9.27278 17.8466 9.14624 17.8276 9.0243 17.7853C8.98954 17.7738 8.95547 17.7603 8.92225 17.745C8.57825 17.5807 8.50693 17.1583 8.77804 16.8902C8.90467 16.7649 9.06452 16.7048 9.23753 16.684C9.486 16.6542 9.733 16.6719 9.97236 16.752C10.0565 16.7802 10.1375 16.8149 10.2132 16.8726C10.1592 16.975 10.1051 17.0758 10.053 17.1776C10.0366 17.2095 10.0184 17.2007 9.9939 17.1895C9.87777 17.1352 9.75532 17.095 9.62929 17.07C9.52033 17.0494 9.41091 17.0406 9.30048 17.0592C9.24526 17.0682 9.19317 17.0842 9.14688 17.1153C9.08964 17.1536 9.05734 17.2072 9.0624 17.2759C9.06746 17.3447 9.11845 17.3806 9.17863 17.4021C9.28621 17.4408 9.3995 17.4474 9.5126 17.4585C9.65671 17.4723 9.7965 17.5024 9.92828 17.5633C10.1168 17.6505 10.2379 17.7882 10.253 17.9988C10.2688 18.2162 10.1767 18.3845 9.99408 18.5053C9.89101 18.5735 9.77533 18.6116 9.65432 18.6355C9.62735 18.6409 9.60067 18.6473 9.57379 18.6536L9.51987 18.6562L9.46539 18.6576L9.42793 18.6562H9.29661L9.2598 18.6569H9.22299L9.18682 18.6554Z" fill="#161616"/>
<path d="M15.1654 16.931C15.3576 16.6472 15.6399 16.6521 15.9307 16.6852C15.9483 16.7074 15.9318 16.726 15.9261 16.7449C15.9007 16.8316 15.8746 16.9183 15.848 17.0047C15.8236 17.0848 15.8235 17.0841 15.735 17.0673C15.693 17.0593 15.6504 17.0529 15.6078 17.0481C15.384 17.0229 15.2154 17.1466 15.1703 17.3691C15.1572 17.4373 15.151 17.5066 15.1519 17.5759C15.1528 17.896 15.1528 18.2158 15.1519 18.5354C15.1519 18.6295 15.164 18.6199 15.0621 18.6204C14.9824 18.6209 14.9026 18.6209 14.8228 18.6204C14.7136 18.6199 14.7282 18.6295 14.7281 18.5305C14.7276 18.1984 14.7276 17.8665 14.7281 17.5349C14.7281 17.2904 14.7281 17.0459 14.7281 16.8013C14.7281 16.7023 14.7144 16.7115 14.8231 16.7107C14.912 16.7107 15.001 16.7126 15.09 16.7099C15.1355 16.7086 15.1577 16.719 15.1532 16.7691C15.1487 16.8193 15.1522 16.8688 15.1522 16.9184L15.1654 16.931Z" fill="#161616"/>
<path d="M21.0018 16.916C21.023 16.9206 21.0271 16.9111 21.0318 16.9047C21.162 16.7339 21.3384 16.6626 21.5517 16.6714C21.6161 16.6741 21.6805 16.6778 21.7443 16.6815C21.7781 16.6835 21.7931 16.6951 21.7805 16.7333C21.7463 16.836 21.7144 16.9396 21.6849 17.0441C21.6745 17.0803 21.6533 17.0823 21.623 17.0767C21.5719 17.0671 21.5208 17.0572 21.4694 17.0503C21.2427 17.0197 21.0737 17.1361 21.0217 17.3558C21.0048 17.427 21.0018 17.4988 21.0018 17.5712C21.0018 17.8877 21.0018 18.2041 21.0018 18.5206C21.0018 18.5417 21.0009 18.5628 21.0018 18.584C21.0032 18.6112 20.9896 18.6211 20.9633 18.621C20.8469 18.621 20.7305 18.6205 20.6141 18.621C20.5865 18.621 20.5761 18.6089 20.5773 18.5829C20.5783 18.5648 20.5773 18.5467 20.5773 18.5285V16.802C20.5773 16.7839 20.5782 16.7658 20.5773 16.7476C20.5758 16.7205 20.5899 16.7114 20.6161 16.7114C20.7294 16.712 20.8427 16.7125 20.956 16.7114C20.9928 16.7114 21.003 16.7272 21.002 16.7605C21.0004 16.813 21.0018 16.8659 21.0018 16.916Z" fill="#161616"/>
<path d="M22.3614 17.6709C22.3631 17.6137 22.3655 17.5571 22.3798 17.5006C22.4524 17.2049 22.6873 17.0325 22.9916 17.0541C23.2836 17.0748 23.4977 17.2857 23.5277 17.5794C23.54 17.7016 23.5296 17.8202 23.4798 17.9336C23.3785 18.1641 23.1708 18.2927 22.9393 18.2845C22.6679 18.2749 22.4543 18.1049 22.3853 17.8588C22.3684 17.7976 22.3603 17.7343 22.3614 17.6709Z" fill="white"/>
<path d="M6.57333 17.6747C6.56978 17.6071 6.57784 17.5393 6.59716 17.4743C6.6729 17.2001 6.9061 17.0363 7.19397 17.0535C7.47788 17.0704 7.69093 17.2651 7.73502 17.5437C7.75526 17.6719 7.7456 17.7958 7.6982 17.9167C7.6093 18.1418 7.40371 18.2929 7.15118 18.2845C6.87288 18.2754 6.65523 18.0965 6.59284 17.8407C6.57885 17.7852 6.56891 17.7288 6.57333 17.6747Z" fill="white"/>
<path d="M19.6262 17.6663C19.619 17.905 19.5302 18.1011 19.3094 18.2195C18.9664 18.403 18.5306 18.1849 18.4649 17.8008C18.4444 17.6876 18.4507 17.5713 18.4833 17.4609C18.5607 17.2021 18.7794 17.0455 19.0532 17.0525C19.3256 17.0594 19.5391 17.2275 19.6043 17.4868C19.6198 17.5454 19.6272 17.6058 19.6262 17.6663Z" fill="white"/>
<path d="M12.8574 17.4849C12.8631 17.2831 13.0281 17.0863 13.2415 17.0438C13.3359 17.0248 13.4305 17.024 13.5236 17.0506C13.699 17.1006 13.832 17.2637 13.852 17.4483C13.855 17.4755 13.8498 17.4886 13.8212 17.4887H13.7844C13.4932 17.4887 13.2021 17.4887 12.9109 17.4887C12.893 17.4887 12.8752 17.4863 12.8574 17.4849Z" fill="#FEFEFE"/>
<path d="M8.78081 15.3105C12.8515 15.3105 16.1515 12.0625 16.1515 8.05599C16.1515 4.04945 12.8515 0.801514 8.78081 0.801514C4.71011 0.801514 1.41016 4.04945 1.41016 8.05599C1.41016 12.0625 4.71011 15.3105 8.78081 15.3105Z" fill="#EA001B"/>
<path d="M17.725 15.3105C21.7957 15.3105 25.0956 12.0625 25.0956 8.05599C25.0956 4.04945 21.7957 0.801514 17.725 0.801514C13.6544 0.801514 10.3545 4.04945 10.3545 8.05599C10.3545 12.0625 13.6544 15.3105 17.725 15.3105Z" fill="#F79E1B"/>
<path fill-rule="evenodd" clip-rule="evenodd" d="M13.2529 2.28638C11.4911 3.61198 10.3545 5.70204 10.3545 8.05338C10.3545 10.4047 11.4911 12.4948 13.2529 13.8204C15.0149 12.4948 16.1514 10.4047 16.1514 8.05338C16.1514 5.70204 15.0149 3.61198 13.2529 2.28638Z" fill="#FF5A00"/>
</svg>
