<svg xmlns="http://www.w3.org/2000/svg" width="24" height="24" viewBox="0 0 24 24">
    <g fill="none" fill-rule="evenodd" stroke="#00C27E" stroke-linecap="round" stroke-linejoin="round" stroke-width="2" transform="translate(1 1)">
        <path d="M10 11v4c0 1.657 2.686 3 6 3s6-1.343 6-3v-4"/>
        <path d="M10 15v4c0 1.657 2.686 3 6 3s6-1.343 6-3v-4"/>
        <ellipse cx="16" cy="11" rx="6" ry="3"/>
        <path d="M7 4L7 7 4 7"/>
        <path d="M7 14c-3.866 0-7-3.134-7-7s3.134-7 7-7c3.171 0 5.85 2.109 6.71 5.001"/>
    </g>
</svg>
