<svg xmlns="http://www.w3.org/2000/svg" width="62" height="62" viewBox="0 0 62 62">
    <g fill="#868D89" fill-opacity=".3" fill-rule="nonzero">
        <path d="M55 0H3a3 3 0 0 0-3 3v40a3 3 0 0 0 3 3h31v-6H13a1 1 0 0 1-1-1V7a1 1 0 0 1 1-1h38a1 1 0 0 1 1 1v15h6V3a3 3 0 0 0-3-3zM6 25a2 2 0 1 1-.001-3.999A2 2 0 0 1 6 25z"/>
        <path d="M39 24a3 3 0 0 0-3 3v32a3 3 0 0 0 3 3h20a3 3 0 0 0 3-3V27a3 3 0 0 0-3-3H39zm10 35a2 2 0 1 1-.001-3.999A2 2 0 0 1 49 59zm9-30v22a1 1 0 0 1-1 1H41a1 1 0 0 1-1-1V29a1 1 0 0 1 1-1h16a1 1 0 0 1 1 1z"/>
    </g>
</svg>
