<svg xmlns="http://www.w3.org/2000/svg" width="62" height="58" viewBox="0 0 62 58">
    <g fill="#B8D4CB" fill-rule="nonzero">
        <path d="M57.428 26.657C54.71 37.669 42.55 46 28 46c-2.313 0-4.651-.224-6.961-.666l-.137.069C24.761 50.637 32.036 54 40 54c2.253 0 4.503-.274 6.695-.816l7.79 4.674a.996.996 0 0 0 1.008.012c.313-.178.507-.51.507-.87v-8.331c3.874-3.167 6-7.294 6-11.669 0-3.808-1.619-7.391-4.572-10.343z"/>
        <path d="M7 50a1.003 1.003 0 0 1-1-1V35.605C2.127 31.742 0 26.926 0 22 0 9.869 12.561 0 28 0s28 9.869 28 22-12.561 22-28 22c-2.406 0-4.84-.256-7.241-.762L7.447 49.895c-.141.07-.294.105-.447.105z"/>
    </g>
</svg>
