<?xml version="1.0" encoding="UTF-8"?>
<svg width="16px" height="14px" viewBox="0 0 16 14" version="1.1" xmlns="http://www.w3.org/2000/svg" xmlns:xlink="http://www.w3.org/1999/xlink">
    <!-- Generator: Sketch 46.2 (44496) - http://www.bohemiancoding.com/sketch -->
    <title>overview_myAccount</title>
    <desc>Created with Sketch.</desc>
    <defs></defs>
    <g id="Page-1" stroke="none" stroke-width="1" fill="none" fill-rule="evenodd">
        <g id="overview_myAccount" fill-rule="nonzero" fill="#01CA9B">
            <path d="M16,4 L0,4 L0,1 C-6.76353751e-17,0.44771525 0.44771525,1.01453063e-16 1,0 L15,0 C15.5522847,3.38176876e-17 16,0.44771525 16,1 L16,4 Z M5,14 L1,14 C0.44771525,14 6.76353751e-17,13.5522847 0,13 L0,6 L5,6 L5,14 Z M15,14 L7,14 L7,6 L16,6 L16,13 C16,13.5522847 15.5522847,14 15,14 Z" id="Shape"></path>
        </g>
    </g>
</svg>