<svg xmlns="http://www.w3.org/2000/svg" width="40" height="35" viewBox="0 0 40 35">
    <path fill="#02CA95" fill-rule="nonzero" d="M35.696 6.5a.46.46 0 0 0-.242-.122L19.915.147c.081-.122-4.855 1.895-14.81 6.05-.06.06-.121.06-.182.12L.19 11.114c-.122.121-.182.364-.182.546.06.182.182.364.364.425l4.37 1.76v13.475c0 .242.122.485.364.546l14.568 6.555c.06 0 .121.06.242.06.061 0 .122 0 .182-.06l15.417-6.373c.243-.121.365-.304.365-.546V13.48l3.763-1.518c.182-.06.303-.242.364-.425.04-.161-1.396-1.84-4.31-5.037zm-34.05 4.855l3.823-3.884 13.172 5.402-4.796 3.52c-9.407-3.945-6.858-2.913-12.2-5.038zm17.662 21.548l-13.353-6.01V14.33l7.77 3.277c.181.06.424.06.606-.06l4.977-3.642v18.998zm.607-20.82L6.987 6.804l7.951-3.277 4.977-1.965 5.22 2.025 8.498 3.339-13.718 5.159zm.546 20.88V13.965l4.37 3.582c.183.12.426.182.608.12l9.226-3.702v13.11L20.46 32.964zm4.856-16.57l-4.249-3.46 14.082-5.28 3.278 3.52-13.11 5.22z"/>
</svg>
