<?xml version="1.0" encoding="UTF-8"?>
<svg width="35px" height="26px" viewBox="0 0 35 26" version="1.1" xmlns="http://www.w3.org/2000/svg" xmlns:xlink="http://www.w3.org/1999/xlink">
    <!-- Generator: Sketch 46.2 (44496) - http://www.bohemiancoding.com/sketch -->
    <title>paypal</title>
    <desc>Created with Sketch.</desc>
    <defs></defs>
    <g id="Page-1" stroke="none" stroke-width="1" fill="none" fill-rule="evenodd">
        <g id="HomePage" transform="translate(-1193.000000, -4142.000000)" fill-rule="nonzero">
            <g id="footer" transform="translate(0.000000, 3800.000000)">
                <g id="paypal" transform="translate(1193.000000, 342.000000)">
                    <path d="M32.7173913,0 L2.2826087,0 C1.02184783,0 0,1.027 0,2.29411765 L0,23.7058824 C0,24.973 1.02184783,26 2.2826087,26 L32.7173913,26 C33.9781522,26 35,24.973 35,23.7058824 L35,2.29411765 C35,1.027 33.9781522,0 32.7173913,0 Z" id="Shape" fill="#E6E6E6"></path>
                    <path d="M22.2873913,9.33170588 L20.1569565,9.33170588 C20.0116304,9.33170588 19.8876087,9.438 19.8647826,9.58252941 L19.0034783,15.0731176 C18.9867391,15.1817059 19.0696739,15.2795882 19.1792391,15.2795882 L20.2726087,15.2795882 C20.3745652,15.2795882 20.4613043,15.2046471 20.4772826,15.1037059 L20.7215217,13.5467647 C20.7443478,13.4022353 20.8683696,13.2959412 21.0136957,13.2959412 L21.6878261,13.2959412 C23.0908696,13.2959412 23.9011957,12.6130588 24.1127174,11.2602941 C24.2078261,10.6684118 24.1165217,10.2034706 23.841087,9.87847059 C23.5375,9.52135294 23.0003261,9.33170588 22.2873913,9.33170588 Z M22.5331522,11.3375294 C22.4167391,12.1060588 21.8323913,12.1060588 21.2678261,12.1060588 L20.9467391,12.1060588 L21.1719565,10.6707059 C21.1856522,10.5842941 21.2602174,10.5200588 21.3477174,10.5200588 C21.8156522,10.5200588 22.2265217,10.5009412 22.4304348,10.7402941 C22.5422826,10.8725882 22.5757609,11.0675882 22.5331522,11.3375294 Z" id="Shape" fill="#009EE3"></path>
                    <path d="M7.09130435,9.33170588 L4.96086957,9.33170588 C4.81554348,9.33170588 4.69152174,9.438 4.66869565,9.58252941 L3.8073913,15.0731176 C3.79065217,15.1817059 3.87358696,15.2795882 3.98315217,15.2795882 L5.00043478,15.2795882 C5.14576087,15.2795882 5.26978261,15.1732941 5.2926087,15.0287647 L5.52543478,13.5475294 C5.54826087,13.403 5.67228261,13.2967059 5.8176087,13.2967059 L6.49173913,13.2967059 C7.89478261,13.2967059 8.7051087,12.6138235 8.91663043,11.2610588 C9.01173913,10.6691765 8.92043478,10.2042353 8.645,9.87923529 C8.34065217,9.52135294 7.80423913,9.33170588 7.09130435,9.33170588 Z M7.33706522,11.3375294 C7.22065217,12.1060588 6.63630435,12.1060588 6.07173913,12.1060588 L5.7498913,12.1060588 L5.9751087,10.6707059 C5.98880435,10.5842941 6.06336957,10.5200588 6.15086957,10.5200588 L6.29847826,10.5200588 C6.68271739,10.5200588 7.04641304,10.5200588 7.23358696,10.7402941 C7.34543478,10.8725882 7.37967391,11.0675882 7.33706522,11.3375294 Z" id="Shape" fill="#113984"></path>
                    <path d="M13.4597826,11.3130588 L12.4394565,11.3130588 C12.3519565,11.3130588 12.2773913,11.3772941 12.2636957,11.4637059 L12.2188043,11.7504706 C12.1198913,11.6059412 11.9228261,11.2167059 10.9420652,11.2167059 C9.81521739,11.2167059 8.85195652,12.0754706 8.66478261,13.2791176 C8.5673913,13.8794118 8.70586957,14.4537059 9.04445652,14.8544118 C9.35565217,15.2222353 9.8,15.3759412 10.3295652,15.3759412 C11.2380435,15.3759412 11.7417391,14.7894118 11.7417391,14.7894118 L11.696087,15.0746471 C11.6793478,15.1832353 11.7622826,15.2811176 11.8718478,15.2811176 L12.7909783,15.2811176 C12.9363043,15.2811176 13.0603261,15.1748235 13.0831522,15.0302941 L13.6347826,11.5202941 C13.6515217,11.4109412 13.568587,11.3130588 13.4597826,11.3130588 Z M12.0377174,13.3089412 C11.9395652,13.8947059 11.4761957,14.2877647 10.8865217,14.2877647 C10.5905435,14.2877647 10.353913,14.1921765 10.2017391,14.0109412 C10.051087,13.8312353 9.99402174,13.5758235 10.0419565,13.2905882 C10.1340217,12.7101765 10.6042391,12.3041176 11.1855435,12.3041176 C11.4754348,12.3041176 11.7105435,12.4004706 11.8657609,12.5832353 C12.0209783,12.7675294 12.0826087,13.0252353 12.0377174,13.3089412 Z" id="Shape" fill="#113984"></path>
                    <path d="M28.6558696,11.3130588 L27.6355435,11.3130588 C27.5480435,11.3130588 27.4734783,11.3772941 27.4597826,11.4637059 L27.4148913,11.7504706 C27.3159783,11.6059412 27.118913,11.2167059 26.1381522,11.2167059 C25.0113043,11.2167059 24.0480435,12.0754706 23.8608696,13.2791176 C23.7634783,13.8794118 23.9019565,14.4537059 24.2405435,14.8544118 C24.5517391,15.2222353 24.996087,15.3759412 25.5256522,15.3759412 C26.4341304,15.3759412 26.9378261,14.7894118 26.9378261,14.7894118 L26.8921739,15.0746471 C26.8754348,15.1832353 26.9583696,15.2811176 27.0679348,15.2811176 L27.9870652,15.2811176 C28.1323913,15.2811176 28.256413,15.1748235 28.2792391,15.0302941 L28.8308696,11.5202941 C28.8483696,11.4109412 28.7646739,11.3130588 28.6558696,11.3130588 Z M27.2338043,13.3089412 C27.1348913,13.8947059 26.6722826,14.2877647 26.0826087,14.2877647 C25.7866304,14.2877647 25.55,14.1921765 25.3978261,14.0109412 C25.2471739,13.8312353 25.1901087,13.5758235 25.2380435,13.2905882 C25.3301087,12.7101765 25.8003261,12.3041176 26.3816304,12.3041176 C26.6715217,12.3041176 26.9066304,12.4004706 27.0618478,12.5832353 C27.2170652,12.7675294 27.2786957,13.0252353 27.2338043,13.3089412 Z" id="Shape" fill="#009EE3"></path>
                    <path d="M18.8931522,11.3130588 L17.8675,11.3130588 C17.7693478,11.3130588 17.6780435,11.362 17.6225,11.4438235 L16.2080435,13.5375882 L15.6084783,11.5256471 C15.5711957,11.3994706 15.4555435,11.3130588 15.3246739,11.3130588 L14.3165217,11.3130588 C14.1947826,11.3130588 14.1088043,11.4331176 14.1483696,11.5493529 L15.2775,14.8804118 L14.2153261,16.3868824 C14.1316304,16.5054118 14.216087,16.6682941 14.3598913,16.6682941 L15.3840217,16.6682941 C15.481413,16.6682941 15.5719565,16.6201176 15.6275,16.5405882 L19.0377174,11.5937059 C19.1206522,11.4744118 19.0361957,11.3130588 18.8931522,11.3130588 Z" id="Shape" fill="#113984"></path>
                    <path d="M29.8580435,9.48311765 L28.9838043,15.0746471 C28.9670652,15.1832353 29.05,15.2811176 29.1595652,15.2811176 L30.0391304,15.2811176 C30.1844565,15.2811176 30.3084783,15.1748235 30.3313043,15.0302941 L31.1933696,9.53970588 C31.2101087,9.43111765 31.1271739,9.33323529 31.0176087,9.33323529 L30.0330435,9.33323529 C29.9463043,9.33170588 29.8717391,9.39594118 29.8580435,9.48311765 Z" id="Shape" fill="#009EE3"></path>
                </g>
            </g>
        </g>
    </g>
</svg>