<svg width="31" height="20" viewBox="0 0 31 20" fill="none" xmlns="http://www.w3.org/2000/svg">
<rect width="31" height="20" rx="2" fill="#F5F5F5"/>
<path d="M20.2783 6.1394H18.2047C18.0827 6.1394 17.9607 6.27069 17.8997 6.40197L17.0459 12.1784C17.0459 12.3097 17.1069 12.3753 17.2289 12.3753H18.3267C18.4486 12.3753 18.5096 12.3097 18.5096 12.1784L18.7536 10.5374C18.7536 10.4061 18.8756 10.2748 19.0585 10.2748H19.7294C21.1322 10.2748 21.925 9.55274 22.108 8.10864C22.23 7.51787 22.108 6.99274 21.864 6.66453C21.4981 6.33633 20.9492 6.1394 20.2783 6.1394ZM20.5223 8.30556C20.4003 9.09325 19.8514 9.09325 19.3025 9.09325H18.9366L19.1805 7.58351C19.1805 7.51787 19.2415 7.45222 19.3635 7.45222H19.4855C19.8514 7.45222 20.2173 7.45222 20.4003 7.71479C20.5223 7.78043 20.5223 7.97735 20.5223 8.30556Z" fill="#139AD6"/>
<path d="M5.33593 6.1394H3.26231C3.14033 6.1394 3.01835 6.27069 2.95736 6.40197L2.10352 12.1784C2.10352 12.3097 2.16451 12.3753 2.28648 12.3753H3.26231C3.38428 12.3753 3.50626 12.244 3.56725 12.1127L3.81121 10.5374C3.81121 10.4061 3.93318 10.2748 4.11615 10.2748H4.78703C6.18977 10.2748 6.98263 9.55274 7.1656 8.10864C7.28758 7.51787 7.1656 6.99274 6.92164 6.66453C6.55571 6.33633 6.0678 6.1394 5.33593 6.1394ZM5.57989 8.30556C5.45791 9.09325 4.90901 9.09325 4.36011 9.09325H4.05516L4.29912 7.58351C4.29912 7.51787 4.36011 7.45222 4.48208 7.45222H4.60406C4.97 7.45222 5.33593 7.45222 5.5189 7.71479C5.57989 7.78043 5.64087 7.97735 5.57989 8.30556Z" fill="#263B80"/>
<path d="M11.6181 8.23993H10.6423C10.5813 8.23993 10.4593 8.30557 10.4593 8.37121L10.3984 8.69941L10.3374 8.56813C10.0934 8.23993 9.66649 8.10864 9.17858 8.10864C8.08078 8.10864 7.10496 9.02762 6.922 10.2748C6.80002 10.9312 6.98299 11.522 7.28793 11.9158C7.59287 12.3097 8.0198 12.4409 8.56869 12.4409C9.48353 12.4409 9.97144 11.8502 9.97144 11.8502L9.91045 12.1784C9.91045 12.3097 9.97144 12.3753 10.0934 12.3753H11.0082C11.1302 12.3753 11.2522 12.244 11.3132 12.1127L11.8621 8.43685C11.8011 8.37121 11.6791 8.23993 11.6181 8.23993ZM10.2154 10.3404C10.0934 10.9312 9.66649 11.3907 9.0566 11.3907C8.75166 11.3907 8.50771 11.2594 8.38573 11.1281C8.26375 10.9312 8.20276 10.6686 8.20276 10.3404C8.26375 9.74967 8.75166 9.29018 9.30056 9.29018C9.60551 9.29018 9.78847 9.42146 9.97144 9.55274C10.1544 9.74967 10.2154 10.0779 10.2154 10.3404Z" fill="#263B80"/>
<path d="M26.499 8.23993H25.5232C25.4622 8.23993 25.3402 8.30557 25.3402 8.37121L25.2792 8.69941L25.2182 8.56813C24.9743 8.23993 24.5474 8.10864 24.0594 8.10864C22.9616 8.10864 21.9858 9.02762 21.8029 10.2748C21.6809 10.9312 21.8638 11.522 22.1688 11.9158C22.4737 12.3097 22.9007 12.4409 23.4496 12.4409C24.3644 12.4409 24.8523 11.8502 24.8523 11.8502L24.7913 12.1784C24.7913 12.3097 24.8523 12.3753 24.9743 12.3753H25.8891C26.0111 12.3753 26.1331 12.244 26.1941 12.1127L26.7429 8.43685C26.682 8.37121 26.621 8.23993 26.499 8.23993ZM25.0963 10.3404C24.9743 10.9312 24.5474 11.3907 23.9375 11.3907C23.6325 11.3907 23.3886 11.2594 23.2666 11.1281C23.1446 10.9312 23.0836 10.6686 23.0836 10.3404C23.1446 9.74967 23.6325 9.29018 24.1814 9.29018C24.4864 9.29018 24.6693 9.42146 24.8523 9.55274C25.0963 9.74967 25.1572 10.0779 25.0963 10.3404Z" fill="#139AD6"/>
<path d="M16.9237 8.23999H15.8869C15.7649 8.23999 15.7039 8.30563 15.6429 8.37127L14.3012 10.6031L13.6913 8.50255C13.6303 8.37127 13.5693 8.30563 13.3863 8.30563H12.4105C12.2885 8.30563 12.2275 8.43691 12.2275 8.5682L13.3253 12.0472L12.2885 13.6226C12.2275 13.7538 12.2885 13.9508 12.4105 13.9508H13.3863C13.5083 13.9508 13.5693 13.8851 13.6303 13.8195L16.9847 8.63384C17.1677 8.43691 17.0457 8.23999 16.9237 8.23999Z" fill="#263B80"/>
<path d="M27.6585 6.33648L26.8047 12.2442C26.8047 12.3755 26.8657 12.4411 26.9877 12.4411H27.8415C27.9635 12.4411 28.0855 12.3098 28.1464 12.1785L29.0003 6.40212C29.0003 6.27084 28.9393 6.20519 28.8173 6.20519H27.8415C27.7805 6.13955 27.7195 6.2052 27.6585 6.33648Z" fill="#139AD6"/>
</svg>
