<svg width="18" height="20" viewBox="0 0 18 20" fill="none" xmlns="http://www.w3.org/2000/svg">
<path d="M9 10C11.8406 10 14.1429 7.76172 14.1429 5C14.1429 2.23828 11.8406 0 9 0C6.15938 0 3.85714 2.23828 3.85714 5C3.85714 7.76172 6.15938 10 9 10ZM12.6 11.25H11.929C11.0371 11.6484 10.0446 11.875 9 11.875C7.95536 11.875 6.96696 11.6484 6.07098 11.25H5.4C2.41875 11.25 0 13.6016 0 16.5V18.125C0 19.1602 0.863839 20 1.92857 20H16.0714C17.1362 20 18 19.1602 18 18.125V16.5C18 13.6016 15.5813 11.25 12.6 11.25Z" fill="#00C27E"/>
</svg>
