<?xml version="1.0" encoding="UTF-8"?>
<svg width="28px" height="32px" viewBox="0 0 28 32" version="1.1" xmlns="http://www.w3.org/2000/svg" xmlns:xlink="http://www.w3.org/1999/xlink">
    <!-- Generator: Sketch 46.2 (44496) - http://www.bohemiancoding.com/sketch -->
    <title>phone-icon</title>
    <desc>Created with Sketch.</desc>
    <defs></defs>
    <g id="Page-1" stroke="none" stroke-width="1" fill="none" fill-rule="evenodd">
        <g id="HomePage" transform="translate(-1133.000000, -3891.000000)" fill-rule="nonzero" fill="#00CB94">
            <g id="footer" transform="translate(0.000000, 3800.000000)">
                <g id="phone-icon" transform="translate(1133.000000, 91.000000)">
                    <path d="M26,23.586 L22,27.586 L22,17 L20,17 L20,27.586 L16,23.586 L14.586,25 L20.293,30.707 C20.488,30.902 20.744,31 21,31 C21.256,31 21.512,30.902 21.707,30.707 L27.414,25 L26,23.586 Z" id="Shape"></path>
                    <path d="M14.758,28 L3,28 C2.448,28 2,27.552 2,27 L2,5 C2,4.448 2.448,4 3,4 L19,4 C19.552,4 20,4.448 20,5 L20,15 L22,15 L22,3 C22,1.346 20.654,0 19,0 L3,0 C1.346,0 0,1.346 0,3 L0,29 C0,30.654 1.346,32 3,32 L18.758,32 L14.758,28 Z" id="Shape"></path>
                </g>
            </g>
        </g>
    </g>
</svg>