<svg xmlns="http://www.w3.org/2000/svg" width="22" height="29" viewBox="0 0 22 29">
    <path fill="#000" fill-rule="nonzero" d="M21.672 17.88c-.12-.43-.467-.786-.94-.982.086-.05.183-.097.292-.138a.483.483 0 1 0-.337-.907c-.516.19-.932.512-1.21.918a2.694 2.694 0 0 0-1.171.536c-1.346-2.443-4.284-4.142-7.686-4.142-1.147 0-2.257.19-3.303.563-.993-.781-2.388-.97-3.937-.526a.484.484 0 0 0-.206.81c.528.517.824 1.047.94 1.692-.834.733-1.15 1.434-1.387 1.956-.147.326-.254.562-.428.712-.017.01-.082.035-.319.035l-.33-.004c-.333 0-.714.033-1.015.278-.704.58-.718 2.8-.175 3.47.103.128.4.494 1.747.553-.11.128-.258.236-.424.303a.483.483 0 0 0-.268.63c.048.119.517 1.119 2.534 1.186.265.28.817.814 1.496 1.209-.006.699.059 1.845.502 2.287.423.42 1.234.465 1.564.465.414 0 1.162-.065 1.517-.503.164-.203.284-.58.362-.907a9.981 9.981 0 0 0 3.297-.173c.07.425.196.886.429 1.118.433.432 1.314.465 1.574.465.41 0 1.152-.065 1.507-.504.505-.624.504-2.29.472-3.069 1.498-1.33 2.32-3.065 2.32-4.91 0-.72-.128-1.416-.365-2.072.118-.113.24-.215.37-.293-.02.591.217 1.114.64 1.392.21.14.459.208.709.207.276 0 .554-.083.783-.248.436-.316.603-.841.446-1.408zm-5.71 6.75a.482.482 0 0 0-.173.399c.062 1.054-.022 2.369-.243 2.64-.049.047-.305.149-.755.149-.495 0-.823-.119-.878-.17-.083-.116-.19-.634-.223-1.087a.484.484 0 0 0-.618-.429 8.997 8.997 0 0 1-3.89.225.485.485 0 0 0-.555.397c-.065.383-.187.823-.249.915-.05.046-.313.149-.767.149-.49 0-.813-.119-.874-.18-.143-.17-.245-1.063-.215-1.872a.483.483 0 0 0-.27-.451c-.84-.416-1.54-1.198-1.616-1.286a.494.494 0 0 0-.369-.168c-.794 0-1.265-.163-1.533-.316.4-.348.65-.833.65-1.321a.483.483 0 0 0-.509-.483c-.005 0-.115.005-.28.005-.844 0-1.298-.127-1.38-.202-.242-.3-.21-1.847.038-2.116.048-.038.182-.058.398-.058l.33.004c.333 0 .678-.033.95-.267.34-.293.506-.66.682-1.05.24-.53.51-1.129 1.33-1.782a.477.477 0 0 0 .166-.489 3.848 3.848 0 0 0-.696-1.817c.987-.134 1.81.074 2.413.61.13.168.359.236.564.155a8.77 8.77 0 0 1 3.231-.602c4.135 0 7.499 2.768 7.499 6.17 0 1.628-.767 3.165-2.158 4.328zm4.694-6.125a.36.36 0 0 1-.386.018c-.15-.099-.23-.365-.198-.648.004-.036.013-.09.03-.155l.062.011c.336.072.532.261.573.406.07.258-.043.34-.08.368zm-8.873-14.52a.484.484 0 0 0 .485-.483V.682a.484.484 0 0 0-.97 0v2.82c0 .267.217.483.485.483zm1.973-.362a.484.484 0 0 0 .486-.484V1.828a.484.484 0 0 0-.97 0v1.311c0 .267.216.484.484.484zm-2.774 8.545a2.934 2.934 0 0 0 2.936-2.924c0-.067-.006-.133-.01-.199a2.298 2.298 0 0 0 1.826-2.243 2.303 2.303 0 1 0-4.553-.473c-.066-.004-.132-.01-.2-.01a2.934 2.934 0 0 0-2.935 2.925 2.933 2.933 0 0 0 2.936 2.924zm2.45-6.692c.735 0 1.332.595 1.332 1.326 0 .645-.466 1.182-1.079 1.3a2.947 2.947 0 0 0-1.558-1.551 1.33 1.33 0 0 1 1.306-1.075zm-2.45 1.81c1.084 0 1.965.878 1.965 1.957 0 1.08-.882 1.958-1.965 1.958a1.964 1.964 0 0 1-1.966-1.958c0-1.08.882-1.958 1.966-1.958zM9.809 5.418a.484.484 0 0 0 .485-.483V2.643a.484.484 0 0 0-.97 0v2.293c0 .267.217.483.485.483z"/>
</svg>
