<svg xmlns="http://www.w3.org/2000/svg" width="35" height="26">
  <path fill="#FCCC12" d="M32.717 0H2.283A2.288 2.288 0 0 0 0 2.294v21.412A2.288 2.288 0 0 0 2.283 26h30.434A2.288 2.288 0 0 0 35 23.706V2.294A2.288 2.288 0 0 0 32.717 0z"/>
  <path fill="#FFF" d="M28.212 15.967l.321-1.522H2.298l-.322 1.522h26.236"/>
  <path fill="#EB1B24" d="M31.372 12.37l.356-1.629h-2.235c0 .012-.463 2.142-.463 2.151h.573c.005 0 .352-1.608.352-1.608h1.085s-.341 1.612-.352 1.623h1.653l-.217.995h-1.643c0 .01-.331 1.517-.331 1.517h-1.241c0 .005-.111.543-.115.548h1.828c0-.005.326-1.522.326-1.522h1.644c0-.005.432-2.065.432-2.074h-1.652"/>
  <path fill="#231F20" d="M27.326 12.847c.236 0 .397.161.397.427 0 .045-.005.086-.01.132h-1.021c.107-.338.333-.559.634-.559zm.508 2l.13-.599a2.08 2.08 0 0 1-.713.136c-.321 0-.603-.11-.618-.497h1.658c.061-.196.096-.392.096-.572 0-.553-.321-1.006-1.01-1.006-.895 0-1.437.734-1.437 1.543 0 .693.461 1.101 1.181 1.101a2.39 2.39 0 0 0 .713-.106zm-2.728-.508c-.327 0-.548-.141-.548-.548 0-.477.301-.874.778-.874.151 0 .321.046.492.111l.121-.573a2.003 2.003 0 0 0-.659-.12c-.788 0-1.461.587-1.461 1.492 0 .743.457 1.095 1.115 1.095.221 0 .407-.04.543-.096l.13-.588a1.442 1.442 0 0 1-.511.101zm-3.471.538l.276-1.271c.11-.512.362-.688.623-.688.336 0 .377.252.312.538l-.302 1.422h.719l.316-1.458c.155-.728-.182-1.11-.709-1.11-.291 0-.572.116-.813.372l.064-.296h-.668l-.537 2.492h.719v-.001zm-2.582-.719c0-.251.221-.392.588-.392.07 0 .226.005.366.024l-.03.142c-.086.296-.326.497-.612.497-.208.001-.312-.1-.312-.271zm.692-1.834c-.331 0-.668.075-.778.111l-.121.577c.161-.045.478-.13.759-.13.377 0 .513.115.513.311 0 .035 0 .075-.01.116l-.01.05a5.184 5.184 0 0 0-.434-.035c-.712 0-1.285.276-1.285.93 0 .427.332.683.764.683a.95.95 0 0 0 .738-.321l-.055.262h.639l.311-1.427c.025-.106.035-.217.035-.322 0-.428-.237-.805-1.066-.805zm-3.481 2.553l.276-1.271c.11-.512.362-.688.623-.688.336 0 .376.252.312.538l-.302 1.422h.718l.317-1.458c.154-.728-.182-1.11-.709-1.11-.292 0-.573.116-.814.372l.065-.296h-.668l-.538 2.492h.72v-.001zm-1.286-3.181a.367.367 0 0 0 .372.402c.246 0 .422-.177.437-.402s-.15-.401-.372-.401a.424.424 0 0 0-.437.401zm-.101.689l-.538 2.492h.713l.538-2.492h-.713zm-2.029 2.492l.281-1.302h1.085l.131-.638h-1.081l.166-.799h1.141l.14-.639h-1.883l-.713 3.377h.733v.001zm-.708-1.944l.115-.548h-.768l.15-.693-.749.165-.467 2.13c-.13.604.201.936.804.936.125 0 .336-.025.488-.075l.12-.548c-.12.03-.271.061-.402.061-.206 0-.352-.07-.301-.322l.236-1.104h.774v-.002zm-2.723 1.211c0 .2-.246.235-.452.235-.262 0-.553-.07-.708-.12l-.121.562c.226.056.512.101.784.101.643 0 1.166-.241 1.166-.844 0-.779-.935-.644-.935-.99 0-.155.151-.211.387-.211.226 0 .543.091.648.121l.12-.568a2.74 2.74 0 0 0-.703-.095c-.698 0-1.12.312-1.12.829-.001.758.934.632.934.98zm-2.704.808c.789 0 1.322-.573 1.442-1.321.126-.748-.291-1.322-1.08-1.322s-1.322.574-1.442 1.322c-.125.748.292 1.321 1.08 1.321zm.066-.578c-.286 0-.512-.226-.407-.743.105-.518.357-.743.644-.743.286 0 .512.23.402.743-.106.513-.353.743-.639.743zm-3.029-.528h.316c1.01 0 1.572-.496 1.572-1.326 0-.617-.437-1.02-1.186-1.02h-.933l-.713 3.377h.724l.22-1.031zm.125-.617l.236-1.11h.302c.332 0 .492.136.492.452 0 .407-.256.658-.728.658h-.302"/>
</svg>
