<?xml version="1.0" encoding="UTF-8"?>
<svg width="177px" height="158px" viewBox="0 0 177 158" version="1.1" xmlns="http://www.w3.org/2000/svg" xmlns:xlink="http://www.w3.org/1999/xlink">
    <!-- Generator: Sketch 46.2 (44496) - http://www.bohemiancoding.com/sketch -->
    <title>„</title>
    <desc>Created with Sketch.</desc>
    <defs>
        <linearGradient x1="50%" y1="0%" x2="50%" y2="100%" id="linearGradient-1">
            <stop stop-color="#DDF8F0" offset="0%"></stop>
            <stop stop-color="#DDF8F0" stop-opacity="0" offset="100%"></stop>
        </linearGradient>
    </defs>
    <g id="Page-1" stroke="none" stroke-width="1" fill="none" fill-rule="evenodd">
        <g id="HomePage" transform="translate(-236.000000, -2538.000000)" fill="url(#linearGradient-1)">
            <g id="testimonials" transform="translate(236.000000, 2538.000000)">
                <path d="M70.9752475,10.0253807 C77.6584493,16.7090013 81,25.3975777 81,36.0913706 C81,43.5770256 78.0594353,53.7359764 72.1782178,66.5685279 L32.0792079,158 L0,158 L31.2772277,67.3705584 C24.8613541,64.6971102 19.915859,60.4196572 16.4405941,54.5380711 C12.9653292,48.656485 11.2277228,42.5076463 11.2277228,36.0913706 C11.2277228,25.9322673 14.5692735,17.3773613 21.2524752,10.4263959 C27.935677,3.47543056 36.3563849,0 46.5148515,0 C56.138662,0 64.2920458,3.34176015 70.9752475,10.0253807 Z M166.975248,10.0253807 C173.658449,16.7090013 177,25.3975777 177,36.0913706 C177,43.5770256 174.059435,53.7359764 168.178218,66.5685279 L128.079208,158 L96,158 L127.277228,67.3705584 C120.861354,64.6971102 115.915859,60.4196572 112.440594,54.5380711 C108.965329,48.656485 107.227723,42.5076463 107.227723,36.0913706 C107.227723,25.9322673 110.569274,17.3773613 117.252475,10.4263959 C123.935677,3.47543056 132.356385,0 142.514851,0 C152.138662,0 160.292046,3.34176015 166.975248,10.0253807 Z" id="„"></path>
            </g>
        </g>
    </g>
</svg>