<svg xmlns="http://www.w3.org/2000/svg" width="99" height="88" viewBox="0 0 99 88">
    <defs>
        <linearGradient id="a" x1="50%" x2="50%" y1="0%" y2="100%">
            <stop offset="0%" stop-color="#FFF"/>
            <stop offset="100%" stop-color="#DDF8F0" stop-opacity="0"/>
        </linearGradient>
    </defs>
    <path fill="url(#a)" fill-rule="evenodd" d="M39.496 359.163c3.688 3.689 5.532 8.483 5.532 14.385 0 4.13-1.623 9.737-4.868 16.818L18.03 440.822H.33l17.26-50.013c-3.54-1.475-6.27-3.836-8.188-7.082-1.917-3.245-2.876-6.639-2.876-10.18 0-5.606 1.844-10.327 5.532-14.162 3.688-3.836 8.335-5.754 13.94-5.754 5.311 0 9.81 1.844 13.499 5.532zm52.977 0c3.688 3.689 5.532 8.483 5.532 14.385 0 4.13-1.623 9.737-4.868 16.818l-22.128 50.456H53.306l17.26-50.013c-3.54-1.475-6.27-3.836-8.188-7.082-1.917-3.245-2.876-6.639-2.876-10.18 0-5.606 1.844-10.327 5.532-14.162 3.688-3.836 8.335-5.754 13.94-5.754 5.312 0 9.811 1.844 13.5 5.532z" opacity=".241" transform="translate(.314 -353.266)"/>
</svg>
