<svg xmlns="http://www.w3.org/2000/svg" width="44" height="44" viewBox="0 0 44 44">
    <g fill="#dee0df" fill-rule="nonzero">
        <path d="M28.31 22.387l1.002-1.001 10.36 10.36a6.716 6.716 0 1 1-9.497 9.499L20.26 31.33l1.002-1.002 9.914 9.915a5.3 5.3 0 1 0 7.496-7.495L28.31 22.388zM19.79 17.528l-1.002 1.001-5.812-5.812-.015-3.19L7.66 4.224 2.654 9.232l5.3 5.3 3.191.016 5.688 5.687-1.002 1.002-5.275-5.276-3.19-.015L.65 9.232l7.009-7.01 6.714 6.715.015 3.19z"/>
        <path d="M27.371 29.944l1.001-1.001 6.666 6.665-1.001 1.002zM36.869 10.534l5.132-5.132.421.933a9.166 9.166 0 0 1 .82 3.784 9.205 9.205 0 0 1-9.205 9.204 9.01 9.01 0 0 1-1.764-.178L9.988 43.715.44 34.167l24.57-22.284a9.01 9.01 0 0 1-.178-1.764A9.205 9.205 0 0 1 34.037.914c1.315 0 2.595.283 3.783.82l.934.42-5.132 5.133 3.247 3.247zm0 2.002l-5.25-5.25 4.632-4.631a7.706 7.706 0 0 0-2.214-.325 7.789 7.789 0 0 0-7.789 7.789c0 .609.078 1.22.23 1.845l.1.409L2.493 34.217l7.445 7.446 21.845-24.085.409.1c.624.151 1.236.23 1.845.23a7.789 7.789 0 0 0 7.788-7.79c0-.756-.11-1.499-.324-2.214l-4.632 4.632z"/>
    </g>
</svg>
