<svg xmlns="http://www.w3.org/2000/svg" width="22" height="22" viewBox="0 0 22 22">
    <path fill="#FFFFFE" fill-rule="evenodd" d="M20.182 15.499l-.728 1.27a.724.724 0 0 1-.994.268l-2.02-1.176a7.247 7.247 0 0 1-3.986 2.326V19.8a.73.73 0 0 1-.727.733h-1.455a.73.73 0 0 1-.726-.733v-1.614A7.247 7.247 0 0 1 5.56 15.86l-2.02 1.176a.724.724 0 0 1-.994-.268l-.728-1.27c-.2-.35-.081-.8.266-1.001l2.029-1.182A7.348 7.348 0 0 1 3.727 11c0-.81.145-1.585.386-2.315L2.084 7.504a.737.737 0 0 1-.266-1.002l.728-1.27c.2-.35.645-.471.993-.269L5.56 6.14a7.247 7.247 0 0 1 3.987-2.326V2.2a.73.73 0 0 1 .726-.733h1.455a.73.73 0 0 1 .727.733v1.614A7.247 7.247 0 0 1 16.44 6.14l2.02-1.177a.724.724 0 0 1 .994.269l.728 1.27c.2.351.081.8-.267 1.002l-2.028 1.181c.241.73.386 1.504.386 2.315 0 .812-.145 1.587-.386 2.316l2.028 1.182c.348.202.468.65.267 1zm1.09-1.905l-1.703-.992c.096-.52.159-1.052.159-1.602 0-.548-.063-1.08-.159-1.601l1.704-.992a1.473 1.473 0 0 0 .532-2.003l-1.455-2.54a1.448 1.448 0 0 0-1.986-.537l-1.722 1a8.718 8.718 0 0 0-2.733-1.616V1.467C13.91.657 13.258 0 12.454 0H9.546C8.742 0 8.09.657 8.09 1.467V2.71a8.718 8.718 0 0 0-2.734 1.617l-1.72-1.001a1.448 1.448 0 0 0-1.987.536L.195 6.403a1.473 1.473 0 0 0 .532 2.004l1.704.992A8.863 8.863 0 0 0 2.272 11c0 .55.063 1.081.159 1.602l-1.704.992a1.473 1.473 0 0 0-.532 2.003l1.455 2.54a1.448 1.448 0 0 0 1.986.537l1.721-1c.804.689 1.718 1.253 2.734 1.616v1.244c0 .81.65 1.467 1.455 1.467h2.908c.804 0 1.455-.657 1.455-1.467V19.29c1.016-.363 1.93-.927 2.733-1.617l1.722 1.001a1.448 1.448 0 0 0 1.986-.536l1.455-2.54a1.473 1.473 0 0 0-.532-2.004zM11 13.2A2.19 2.19 0 0 1 8.818 11c0-1.215.977-2.2 2.182-2.2s2.182.985 2.182 2.2A2.19 2.19 0 0 1 11 13.2zm0-5.867c-2.009 0-3.636 1.64-3.636 3.666S8.99 14.667 11 14.667c2.009 0 3.637-1.641 3.637-3.667 0-2.025-1.628-3.666-3.637-3.666z"/>
</svg>
