<?xml version="1.0" encoding="UTF-8"?>
<svg width="22px" height="22px" viewBox="0 0 22 22" version="1.1" xmlns="http://www.w3.org/2000/svg" xmlns:xlink="http://www.w3.org/1999/xlink">
    <!-- Generator: Sketch 48.2 (47327) - http://www.bohemiancoding.com/sketch -->
    <title>repair-icon-white</title>
    <desc>Created with Sketch.</desc>
    <defs></defs>
    <g id="Page-1" stroke="none" stroke-width="1" fill="none" fill-rule="evenodd">
        <g id="repair-icon-white" transform="translate(-1.000000, 0.000000)" fill="#02B392">
            <path d="M21.182,15.499 L20.454,16.769 C20.3584852,16.9371613 20.1996622,17.0601192 20.0129359,17.1104639 C19.8262097,17.1608086 19.6271027,17.134355 19.46,17.037 L17.44,15.861 C16.4003031,17.0499811 15.0006361,17.8667462 13.454,18.187 L13.454,19.8 C13.4547973,19.9936085 13.3786504,20.1796039 13.2423111,20.3170684 C13.1059718,20.4545329 12.9206085,20.532206 12.727,20.533 L11.272,20.533 C10.8692219,20.5307964 10.5443387,20.2027807 10.546,19.8 L10.546,18.186 C8.99936394,17.8657462 7.59969686,17.0489811 6.56,15.86 L4.54,17.036 C4.37289733,17.133355 4.17379033,17.1598086 3.98706405,17.1094639 C3.80033777,17.0591192 3.64151478,16.9361613 3.546,16.768 L2.818,15.498 C2.618,15.148 2.737,14.698 3.084,14.497 L5.113,13.315 C4.86113278,12.5689982 4.73080408,11.7873636 4.727,11 C4.727,10.19 4.872,9.415 5.113,8.685 L3.084,7.504 C2.73570626,7.2993467 2.61707037,6.85245512 2.818,6.502 L3.546,5.232 C3.746,4.882 4.191,4.761 4.539,4.963 L6.56,6.14 C7.59995722,4.95083233 9.00000349,4.13405088 10.547,3.814 L10.547,2.2 C10.5453387,1.79721934 10.8702219,1.46920361 11.273,1.467 L12.728,1.467 C12.9216085,1.46779402 13.1069718,1.54546705 13.2433111,1.68293157 C13.3796504,1.82039609 13.4557973,2.00639147 13.455,2.2 L13.455,3.814 C15.0012756,4.13445669 16.4005635,4.95120542 17.44,6.14 L19.46,4.963 C19.6272246,4.8657266 19.8264238,4.83942477 20.0131649,4.88996133 C20.1999059,4.94049789 20.3586543,5.06366887 20.454,5.232 L21.182,6.502 C21.382,6.853 21.263,7.302 20.915,7.504 L18.887,8.685 C19.128,9.415 19.273,10.189 19.273,11 C19.273,11.812 19.128,12.587 18.887,13.316 L20.915,14.498 C21.263,14.7 21.383,15.148 21.182,15.498 L21.182,15.499 Z M22.272,13.594 L20.569,12.602 C20.665,12.082 20.728,11.55 20.728,11 C20.728,10.452 20.665,9.92 20.569,9.399 L22.273,8.407 C22.9694596,7.99808143 23.2067672,7.10460935 22.805,6.404 L21.35,3.864 C21.159141,3.52805386 20.8419338,3.28231919 20.4689514,3.18146744 C20.095969,3.08061569 19.6981493,3.13301231 19.364,3.327 L17.642,4.327 C16.8375955,3.62558678 15.9112359,3.07783813 14.909,2.711 L14.909,1.467 C14.91,0.657 14.258,0 13.454,0 L10.546,0 C9.742,0 9.09,0.657 9.09,1.467 L9.09,2.71 C8.08733564,3.07703003 7.16062364,3.62512561 6.356,4.327 L4.636,3.326 C4.30188348,3.13161043 3.90391275,3.07888263 3.53070268,3.17955731 C3.1574926,3.280232 2.84002883,3.52595069 2.649,3.862 L1.195,6.403 C0.792558687,7.10383371 1.02994506,7.99804853 1.727,8.407 L3.431,9.399 C3.32957191,9.9267426 3.2763527,10.4626166 3.272,11 C3.272,11.55 3.335,12.081 3.431,12.602 L1.727,13.594 C1.03054044,14.0029186 0.793232827,14.8963907 1.195,15.597 L2.65,18.137 C2.84085903,18.4729461 3.15806616,18.7186808 3.5310486,18.8195326 C3.90403104,18.9203843 4.3018507,18.8679877 4.636,18.674 L6.357,17.674 C7.161,18.363 8.075,18.927 9.091,19.29 L9.091,20.534 C9.091,21.344 9.741,22.001 10.546,22.001 L13.454,22.001 C14.258,22.001 14.909,21.344 14.909,20.534 L14.909,19.29 C15.925,18.927 16.839,18.363 17.642,17.673 L19.364,18.674 C19.6980275,18.8680695 20.0957551,18.920618 20.4687228,18.819958 C20.8416905,18.719298 21.1589721,18.4737763 21.35,18.138 L22.805,15.598 C23.2074413,14.8971663 22.9700549,14.0029515 22.273,13.594 L22.272,13.594 Z M12,13.2 C11.4188267,13.1978831 10.8623281,12.9648432 10.4530653,12.5522043 C10.0438026,12.1395654 9.81534237,11.5811711 9.818,11 C9.818,9.785 10.795,8.8 12,8.8 C13.205,8.8 14.182,9.785 14.182,11 C14.1846576,11.5811711 13.9561974,12.1395654 13.5469347,12.5522043 C13.1376719,12.9648432 12.5811733,13.1978831 12,13.2 Z M12,7.333 C9.991,7.333 8.364,8.973 8.364,10.999 C8.364,13.025 9.99,14.667 12,14.667 C14.009,14.667 15.637,13.026 15.637,11 C15.637,8.975 14.009,7.334 12,7.334 L12,7.333 Z" id="Shape"></path>
        </g>
    </g>
</svg>