<svg xmlns="http://www.w3.org/2000/svg" xmlns:xlink="http://www.w3.org/1999/xlink" width="131" height="131" viewBox="0 0 131 131">
    <defs>
        <rect id="b" width="61" height="61" rx="15"/>
        <filter id="a" width="272.1%" height="272.1%" x="-86.1%" y="-61.5%" filterUnits="objectBoundingBox">
            <feOffset dy="15" in="SourceAlpha" result="shadowOffsetOuter1"/>
            <feGaussianBlur in="shadowOffsetOuter1" result="shadowBlurOuter1" stdDeviation="15"/>
            <feColorMatrix in="shadowBlurOuter1" values="0 0 0 0 0.490196078 0 0 0 0 0.490196078 0 0 0 0 0.490196078 0 0 0 0.17 0"/>
        </filter>
    </defs>
    <g fill="none" fill-rule="evenodd">
        <g transform="rotate(-45 72.678 14.03)">
            <use fill="#000" filter="url(#a)" xlink:href="#b"/>
            <use fill="#FFF" xlink:href="#b"/>
        </g>
        <path fill="#9013FE" fill-rule="nonzero" d="M66.976 44.641c-.974.16-2.094.762-3.058 1.726-1.493 1.493-2.117 3.36-1.58 4.477l-.124.124c-1.115-.55-2.992.073-4.491 1.572-.966.966-1.565 2.087-1.724 3.062l7 7a4.479 4.479 0 0 1-.007 6.327 4.479 4.479 0 0 1-6.327.007.987.987 0 0 1 .002-1.395.987.987 0 0 1 1.395-.002 2.503 2.503 0 0 0 3.54-3.54l-6.989-6.989c-.975.16-2.097.759-3.063 1.725-1.493 1.493-2.117 3.36-1.58 4.477l-.124.124c-1.115-.55-2.992.073-4.49 1.572-.964.963-1.566 2.083-1.727 3.056-4.507-5.419-3.771-14.046 1.767-20.171l-.521-.521a.987.987 0 0 1 .001-1.396.987.987 0 0 1 1.396-.001l.52.52c6.131-5.54 14.766-6.273 20.184-1.754zm-32.08 11.215s.982 3.007 1.54 3.565a1.43 1.43 0 0 0 2.023-.003c.56-.559.56-1.465.003-2.023-.558-.558-3.565-1.54-3.565-1.54zm1.531-4.204s.737 2.256 1.155 2.675a1.073 1.073 0 0 0 1.518-.002c.42-.42.42-1.1.002-1.518-.419-.418-2.675-1.155-2.675-1.155z"/>
    </g>
</svg>
