<svg xmlns="http://www.w3.org/2000/svg" xmlns:xlink="http://www.w3.org/1999/xlink" width="215" height="215" viewBox="0 0 215 215">
    <defs>
        <rect id="b" width="121" height="121" rx="15"/>
        <filter id="a" width="186.8%" height="186.8%" x="-43.4%" y="-31%" filterUnits="objectBoundingBox">
            <feOffset dy="15" in="SourceAlpha" result="shadowOffsetOuter1"/>
            <feGaussianBlur in="shadowOffsetOuter1" result="shadowBlurOuter1" stdDeviation="15"/>
            <feColorMatrix in="shadowBlurOuter1" values="0 0 0 0 0.490196078 0 0 0 0 0.490196078 0 0 0 0 0.490196078 0 0 0 0.17 0"/>
        </filter>
    </defs>
    <g fill="none" fill-rule="evenodd">
        <g transform="rotate(-45 121.956 35.044)">
            <use fill="#000" filter="url(#a)" xlink:href="#b"/>
            <use fill="#FFF" xlink:href="#b"/>
        </g>
        <path stroke="#03C970" stroke-width="3" d="M105.922 108.29l-9.02-4.05-5.3-11.084-8.976-3.995-11.228 11.228a2.5 2.5 0 0 0 0 3.536l17.677 17.677a2.5 2.5 0 0 0 3.536 0l13.311-13.311z"/>
        <path fill="#03C970" d="M72.458 98.621L74.58 96.5l21.92 21.92-2.121 2.122z"/>
        <path stroke="#03C970" stroke-width="3" d="M110.342 103.872l-9.33-3.8-4.96-11.334-8.636-4.368 13.68-13.68a2.5 2.5 0 0 1 3.536 0l17.677 17.678a2.5 2.5 0 0 1 0 3.536l-11.967 11.968z"/>
        <path fill="#03C970" d="M99.328 71.751l-2.12 2.122 21.92 21.92 2.12-2.121z"/>
        <g stroke="#03C970" stroke-linecap="round" stroke-linejoin="round" stroke-width="3">
            <path d="M76.631 78.045l3.606 3.606M85.186 71.044v5.657M69.63 86.6h5.657-5.657z"/>
        </g>
        <g stroke="#03C970" stroke-linecap="round" stroke-linejoin="round" stroke-width="3">
            <path d="M114.955 116.369l-3.606-3.606M122.663 108.52h-5.657M107.107 124.077v-5.657"/>
        </g>
    </g>
</svg>
