<svg xmlns="http://www.w3.org/2000/svg" width="40" height="49" viewBox="0 0 40 49">
    <path fill="#FFF" fill-rule="nonzero" d="M20 .219c-7.168 0-13 5.832-13 13V19H3c-1.645 0-3 1.355-3 3v24c0 1.645 1.355 3 3 3h34c1.645 0 3-1.355 3-3V22c0-1.645-1.355-3-3-3h-4v-5.781c0-7.168-5.832-13-13-13zm0 2c6.09 0 11 4.91 11 11V19H9v-5.781c0-6.09 4.91-11 11-11zM3 21h34c.563 0 1 .438 1 1v24c0 .563-.438 1-1 1H3c-.563 0-1-.438-1-1V22c0-.563.438-1 1-1zm5 11a1.999 1.999 0 1 0 0 4 1.999 1.999 0 1 0 0-4zm8 0a1.999 1.999 0 1 0 0 4 1.999 1.999 0 1 0 0-4zm8 0a1.999 1.999 0 1 0 0 4 1.999 1.999 0 1 0 0-4zm8 0a1.999 1.999 0 1 0 0 4 1.999 1.999 0 1 0 0-4z"/>
</svg>
