<svg width="25" height="25" viewBox="0 0 25 25" fill="none" xmlns="http://www.w3.org/2000/svg">
<g clip-path="url(#clip0_1468_7)">
<path d="M2.9166 20.8332C2.22625 20.8332 1.66663 21.3928 1.66663 22.0832C1.66663 22.7736 2.22625 23.3332 2.9166 23.3332C3.60696 23.3332 4.16658 22.7736 4.16658 22.0832C4.16658 21.3928 3.60696 20.8332 2.9166 20.8332ZM2.9166 22.4999C2.6865 22.4999 2.49995 22.3133 2.49995 22.0832C2.49995 21.8531 2.6865 21.6665 2.9166 21.6665C3.14671 21.6665 3.33326 21.8531 3.33326 22.0832C3.33326 22.3133 3.14671 22.4999 2.9166 22.4999Z" fill="#BED3CB"/>
<path d="M24.713 17.6447C24.3493 17.0382 23.6939 16.6671 22.9867 16.6671H22.8988C22.5685 16.6674 22.2433 16.7486 21.9517 16.9038L18.7497 18.6117V12.9172H20.208C21.4736 12.9172 22.4996 11.8912 22.4996 10.6256C22.4996 9.35993 21.4736 8.33396 20.208 8.33396H11.2498C10.0993 8.33396 9.16651 7.40121 9.16651 6.25066C9.16651 5.1001 10.0993 4.16736 11.2498 4.16736H12.7081L15.0831 7.33397C15.1618 7.43887 15.2853 7.50064 15.4164 7.50064H24.5829C24.813 7.50064 24.9996 7.31408 24.9996 7.08398V0.417423C24.9996 0.187322 24.813 0.000762939 24.5829 0.000762939H15.4164C15.2853 0.000762939 15.1618 0.0625327 15.0831 0.167427L12.7081 3.33404H11.2498C9.639 3.33404 8.33319 4.63985 8.33319 6.25066C8.33319 7.86146 9.639 9.16727 11.2498 9.16727H20.208C21.0134 9.16727 21.6663 9.82018 21.6663 10.6256C21.6663 11.431 21.0134 12.0839 20.208 12.0839H18.7497V10.4173C18.7497 10.1872 18.5631 10.0006 18.333 10.0006H6.66655C6.43645 10.0006 6.2499 10.1872 6.2499 10.4173V16.6671C5.92683 16.78 5.61371 16.9193 5.31366 17.0838H0V17.9171H4.99992V24.167H0V25.0003H15.7881C16.1658 25.0003 16.5363 24.8976 16.8601 24.7033L24.0221 20.4062C24.9755 19.8344 25.2848 18.5981 24.713 17.6447ZM16.2549 4.92917C16.9058 4.69907 17.2468 3.98486 17.0167 3.33404C16.7866 2.68317 16.0724 2.34208 15.4216 2.57223C15.0656 2.69806 14.7856 2.97811 14.6598 3.33404H13.7498L15.6247 0.834082H24.1663V6.66732H15.6247L13.7498 4.16736H14.6598C14.8899 4.81823 15.6041 5.15932 16.2549 4.92917ZM15.4164 3.7507C15.4164 3.5206 15.603 3.33404 15.8331 3.33404C16.0632 3.33404 16.2497 3.5206 16.2497 3.7507C16.2497 3.9808 16.0632 4.16736 15.8331 4.16736C15.603 4.16736 15.4164 3.9808 15.4164 3.7507ZM11.6665 10.8339H13.3331V12.5006H11.6665V10.8339ZM7.08321 10.8339H10.8332V12.9172C10.8332 13.1473 11.0197 13.3339 11.2498 13.3339H13.7498C13.9799 13.3339 14.1664 13.1473 14.1664 12.9172V10.8339H17.9164V19.0559L17.2339 19.4196C17.4884 18.4159 16.881 17.3958 15.8772 17.1413C15.7266 17.1031 15.5718 17.0838 15.4164 17.0838H11.3586C10.0537 16.3725 8.54001 16.1436 7.08321 16.4372V10.8339ZM23.5934 19.6917L16.4314 23.9887C16.2371 24.1054 16.0147 24.167 15.7881 24.167H5.83324V17.7505C7.47779 16.9094 9.43521 16.9521 11.0415 17.8642C11.1051 17.8999 11.1769 17.9182 11.2498 17.9171H15.4164C15.9917 17.9171 16.4581 18.3835 16.4581 18.9588C16.4581 19.5341 15.9917 20.0004 15.4164 20.0004H11.6665C11.4364 20.0004 11.2498 20.187 11.2498 20.4171C11.2498 20.6472 11.4364 20.8337 11.6665 20.8337H16.2497C16.3182 20.8338 16.3856 20.8171 16.446 20.785L22.3438 17.6392C22.5147 17.5483 22.7052 17.5006 22.8988 17.5005H22.9867C23.6381 17.5004 24.1663 18.0285 24.1664 18.6799C24.1664 19.0944 23.9489 19.4785 23.5934 19.6917Z" fill="#BED3CB"/>
</g>
<defs>
<clipPath id="clip0_1468_7">
<rect width="25" height="25" fill="white"/>
</clipPath>
</defs>
</svg>
