<svg xmlns="http://www.w3.org/2000/svg" width="59" height="24" viewBox="0 0 59 24">
    <g fill="#02CA95" fill-rule="evenodd">
        <path d="M3.56 1.096h6.626l-.28 1.376H4.848L4.35 4.855H9.04l-.268 1.3H4.07l-.547 2.662h5.096l-.28 1.376H1.675l1.886-9.097zm9.379 4.32l-2.154-4.32h1.746l1.49 3.262 2.6-3.262h1.873l-3.759 4.447 2.256 4.65h-1.708l-1.63-3.53-2.868 3.53H8.887l4.052-4.778zm6.69-4.32h3.656c.476 0 .875.049 1.198.146.322.098.59.225.802.383.213.157.376.335.49.535.116.2.198.401.25.605.05.204.08.403.089.599.008.195.012.365.012.51l-.019.229c-.013.144-.05.32-.114.529a3.48 3.48 0 0 1-.3.675 2.48 2.48 0 0 1-.573.675 3.02 3.02 0 0 1-.937.516c-.378.136-.843.204-1.395.204h-2.727l-.726 3.491h-1.593l1.886-9.097zm.7 4.306h2.408c.357 0 .652-.053.886-.159.233-.106.416-.244.547-.414.132-.17.226-.359.28-.567.056-.208.084-.414.084-.618 0-.127-.02-.263-.058-.408a1.057 1.057 0 0 0-.216-.407 1.137 1.137 0 0 0-.459-.313c-.2-.08-.46-.12-.784-.12h-2.064l-.624 3.006zm8.397-.165h2.331c.688 0 1.213-.142 1.574-.427.361-.285.542-.694.542-1.23 0-.246-.045-.448-.134-.605a.933.933 0 0 0-.363-.363 1.545 1.545 0 0 0-.523-.172c-.195-.03-.4-.045-.611-.045h-2.23l-.586 2.842zm-.765-4.141h3.937c.196 0 .455.017.778.05.322.035.639.128.949.281.31.153.577.384.803.694.225.31.337.742.337 1.294 0 .722-.182 1.285-.548 1.688-.365.404-.87.665-1.516.784v.025c.382.145.64.36.771.644.132.284.197.618.197 1 0 .314-.025.628-.076.943a5.03 5.03 0 0 0-.064.943c0 .127.01.254.032.382.021.127.066.25.134.37h-1.67a1.554 1.554 0 0 1-.082-.345 3.12 3.12 0 0 1-.02-.356c0-.34.026-.674.077-1 .051-.328.077-.657.077-.988 0-.263-.05-.467-.147-.612a.825.825 0 0 0-.388-.312 1.79 1.79 0 0 0-.548-.115 10.01 10.01 0 0 0-.625-.019h-1.898l-.777 3.746h-1.619l1.886-9.097zm8.843 0h6.626l-.28 1.376h-5.06l-.496 2.383h4.689l-.268 1.3h-4.701l-.548 2.662h5.096l-.28 1.376h-6.664l1.886-9.097zm7.696 6.09c-.034.705.14 1.202.522 1.491.383.289.905.433 1.568.433.212 0 .44-.025.681-.076.242-.051.461-.134.656-.249a1.59 1.59 0 0 0 .491-.446c.132-.182.197-.41.197-.681 0-.255-.061-.467-.184-.637a1.526 1.526 0 0 0-.484-.427 3.38 3.38 0 0 0-.695-.293c-.263-.08-.535-.16-.815-.236a12.243 12.243 0 0 1-.727-.21c-.28-.09-.552-.221-.815-.395a2.328 2.328 0 0 1-.669-.682c-.183-.28-.274-.637-.274-1.07 0-.408.076-.786.23-1.134.152-.348.373-.648.662-.898.289-.251.643-.446 1.064-.587.42-.14.898-.21 1.433-.21.476 0 .922.051 1.338.153.416.102.777.268 1.083.497.306.23.544.529.714.898.17.37.246.822.23 1.357h-1.53c-.008-.569-.166-.979-.471-1.23-.306-.25-.77-.375-1.39-.375-.11 0-.262.013-.458.038-.195.026-.39.085-.586.178a1.495 1.495 0 0 0-.51.402c-.144.174-.216.414-.216.72 0 .22.05.403.153.548a1.3 1.3 0 0 0 .414.37c.174.101.376.186.605.254.23.068.471.132.726.191.323.085.648.178.975.28.327.102.624.245.892.427.267.183.484.423.65.72.165.297.248.684.248 1.16 0 .356-.068.709-.204 1.057a2.548 2.548 0 0 1-.656.943c-.301.28-.692.508-1.172.682-.48.174-1.064.261-1.752.261-.535 0-1.02-.062-1.453-.185a2.868 2.868 0 0 1-1.102-.573 2.454 2.454 0 0 1-.688-1c-.157-.408-.227-.897-.21-1.466H44.5zm8.13 0c-.035.705.14 1.202.522 1.491.382.289.904.433 1.567.433.212 0 .44-.025.681-.076.243-.051.461-.134.657-.249a1.59 1.59 0 0 0 .49-.446c.132-.182.198-.41.198-.681 0-.255-.062-.467-.185-.637a1.526 1.526 0 0 0-.484-.427 3.38 3.38 0 0 0-.695-.293c-.263-.08-.535-.16-.815-.236a12.243 12.243 0 0 1-.726-.21c-.28-.09-.553-.221-.816-.395a2.328 2.328 0 0 1-.669-.682c-.182-.28-.274-.637-.274-1.07 0-.408.077-.786.23-1.134.152-.348.373-.648.662-.898.289-.251.644-.446 1.064-.587.42-.14.898-.21 1.434-.21.475 0 .921.051 1.337.153.417.102.778.268 1.083.497.306.23.544.529.714.898.17.37.246.822.23 1.357h-1.53c-.008-.569-.165-.979-.471-1.23-.306-.25-.769-.375-1.389-.375-.11 0-.263.013-.459.038-.195.026-.39.085-.586.178a1.495 1.495 0 0 0-.51.402c-.144.174-.216.414-.216.72 0 .22.05.403.153.548a1.3 1.3 0 0 0 .414.37c.174.101.376.186.605.254.23.068.472.132.726.191.323.085.648.178.975.28.327.102.625.245.892.427.268.183.484.423.65.72.166.297.248.684.248 1.16 0 .356-.068.709-.203 1.057a2.548 2.548 0 0 1-.657.943c-.301.28-.692.508-1.172.682-.48.174-1.064.261-1.752.261-.535 0-1.02-.062-1.452-.185a2.868 2.868 0 0 1-1.103-.573 2.454 2.454 0 0 1-.688-1c-.157-.408-.227-.897-.21-1.466h1.53zM3.577 18.45h3.234l-.7-4.312H6.09L3.577 18.45zm2.236-4.977h.85l1.49 8.188h-.814l-.413-2.546H3.187l-1.513 2.546h-.86l5-8.188zm7.57 8.188h-.666l.206-1.078H12.9a2.84 2.84 0 0 1-.888.883c-.371.237-.778.355-1.222.355-.26 0-.498-.028-.716-.086a1.541 1.541 0 0 1-.568-.275 1.243 1.243 0 0 1-.373-.493 1.822 1.822 0 0 1-.132-.728c0-.16.031-.394.092-.7l.814-3.795h.723l-.826 3.818c-.023.092-.042.19-.057.293a2.072 2.072 0 0 0-.023.304c0 .19.034.355.103.493.069.137.16.248.275.332.115.084.247.146.396.184.15.038.304.057.464.057.268 0 .522-.057.763-.172.24-.115.463-.277.665-.487.203-.21.38-.467.533-.769.153-.302.272-.64.356-1.014l.654-3.04h.722l-1.273 5.918zm2.144-1.927c0 .29.047.532.143.723.095.191.222.344.378.459.157.114.337.194.54.24.202.046.406.07.613.07.16 0 .329-.022.504-.064.176-.042.337-.107.482-.195.145-.088.266-.2.361-.338a.843.843 0 0 0 .144-.493.81.81 0 0 0-.144-.493 1.36 1.36 0 0 0-.367-.339 2.76 2.76 0 0 0-.51-.252 35.452 35.452 0 0 1-.573-.224 12.327 12.327 0 0 1-.574-.246 2.223 2.223 0 0 1-.51-.321 1.514 1.514 0 0 1-.361-.447 1.313 1.313 0 0 1-.138-.625c0-.29.069-.537.206-.74.138-.203.314-.369.528-.499.214-.13.451-.225.71-.287a3.358 3.358 0 0 1 1.605.011c.261.07.485.18.672.333.188.153.333.35.436.591.103.24.151.533.143.877h-.722a1.265 1.265 0 0 0-.08-.585 1.07 1.07 0 0 0-.293-.4 1.19 1.19 0 0 0-.453-.236 2.058 2.058 0 0 0-.562-.075c-.16 0-.326.016-.498.046-.173.03-.33.082-.47.155-.142.073-.26.174-.356.304a.83.83 0 0 0-.144.505c0 .137.035.26.104.367.069.107.16.202.275.286.115.084.246.16.396.23.149.068.307.137.475.206.207.084.423.17.648.258.226.088.432.197.62.327.187.13.344.287.47.47.126.184.189.413.189.688 0 .336-.07.62-.212.849-.142.229-.327.414-.556.556a2.43 2.43 0 0 1-.769.304 4.005 4.005 0 0 1-.848.091c-.29 0-.572-.038-.843-.114a1.963 1.963 0 0 1-.717-.367 1.793 1.793 0 0 1-.493-.648c-.122-.264-.176-.583-.16-.958h.71zm5.32-3.99h4.45l-.126.573-4.599 4.736h3.796l-.126.608h-4.679l.126-.585 4.564-4.725h-3.532l.126-.607zm4.851 1.766c.046-.337.144-.627.293-.872.149-.244.334-.445.556-.602a2.37 2.37 0 0 1 .757-.35c.283-.076.58-.114.894-.114.199 0 .419.019.66.057.24.038.464.107.67.206.207.1.379.234.516.402.138.168.207.386.207.653 0 .146-.014.306-.04.482-.027.176-.06.354-.098.533-.038.18-.078.356-.12.528a54.65 54.65 0 0 0-.11.453 48.32 48.32 0 0 1-.177.82c-.05.218-.09.4-.12.544-.03.146-.054.264-.07.356a1.671 1.671 0 0 0-.022.275c0 .107.042.174.126.2.084.028.168.041.252.041a1.599 1.599 0 0 0 .287-.023l-.103.562c-.191.038-.39.057-.596.057-.406 0-.616-.21-.631-.63a2.253 2.253 0 0 1 .023-.322l-.023-.022c-.207.344-.497.61-.872.797a2.607 2.607 0 0 1-1.18.28c-.276 0-.528-.03-.758-.091a1.607 1.607 0 0 1-.59-.287 1.358 1.358 0 0 1-.39-.505 1.764 1.764 0 0 1-.144-.745c0-.313.056-.577.167-.791.11-.214.262-.39.453-.528a2.38 2.38 0 0 1 .653-.327c.245-.08.501-.143.769-.189.39-.06.743-.09 1.06-.086.318.004.591-.025.82-.086.237-.06.415-.172.534-.332.118-.16.177-.436.177-.826 0-.176-.04-.32-.12-.43a.84.84 0 0 0-.298-.258 1.3 1.3 0 0 0-.402-.126 3.006 3.006 0 0 0-1.084.034 1.82 1.82 0 0 0-.561.224c-.168.103-.308.24-.419.413-.11.172-.185.38-.223.625h-.723zm3.578.986l-.023-.023a.642.642 0 0 1-.258.166c-.11.042-.227.075-.35.098a3.008 3.008 0 0 1-.372.046 25.433 25.433 0 0 0-1.066.086 3.041 3.041 0 0 0-.763.172 1.528 1.528 0 0 0-.597.39c-.16.172-.24.414-.24.728 0 .19.036.353.108.487a.98.98 0 0 0 .293.333c.122.088.264.15.424.189.16.038.325.057.493.057.581 0 1.051-.157 1.41-.47.36-.313.597-.734.712-1.261l.23-.998zm3.188-5.023h.723l-.723 3.349h.023c.206-.352.493-.648.86-.89a2.17 2.17 0 0 1 1.216-.36c.26 0 .498.03.716.091.218.062.407.155.568.281.16.127.285.29.373.493.088.203.132.446.132.729 0 .16-.031.393-.092.7l-.814 3.795h-.723l.826-3.819c.023-.092.042-.189.057-.292.015-.103.023-.205.023-.304 0-.199-.034-.365-.103-.499a.92.92 0 0 0-.275-.327 1.14 1.14 0 0 0-.396-.183 1.863 1.863 0 0 0-.464-.058c-.26 0-.513.058-.757.172-.245.115-.47.278-.677.488-.206.21-.386.466-.539.768-.153.302-.267.64-.344 1.015l-.653 3.039h-.711l1.754-8.188zm6.043 0h.723l-1.766 8.188h-.711l1.754-8.188zm4.977 8.188h-.665l.207-1.078h-.023a2.84 2.84 0 0 1-.889.883c-.37.237-.778.355-1.221.355-.26 0-.5-.028-.717-.086a1.541 1.541 0 0 1-.568-.275 1.243 1.243 0 0 1-.372-.493 1.822 1.822 0 0 1-.132-.728c0-.16.03-.394.092-.7l.814-3.795h.722l-.825 3.818c-.023.092-.043.19-.058.293a2.072 2.072 0 0 0-.023.304c0 .19.035.355.103.493.07.137.161.248.276.332.114.084.246.146.395.184.15.038.304.057.465.057.267 0 .522-.057.762-.172.241-.115.463-.277.665-.487.203-.21.38-.467.534-.769.153-.302.271-.64.355-1.014l.654-3.04h.722l-1.273 5.918zm2.58-5.917h.666l-.207 1.078h.023c.222-.352.518-.648.889-.89.37-.24.778-.36 1.221-.36.26 0 .5.03.717.091.218.062.407.155.568.281.16.127.284.29.372.493.088.203.132.446.132.729 0 .16-.03.393-.092.7l-.814 3.795h-.722l.825-3.819c.023-.092.043-.189.058-.292.015-.103.023-.205.023-.304 0-.199-.035-.365-.103-.499a.92.92 0 0 0-.276-.327 1.14 1.14 0 0 0-.395-.183 1.863 1.863 0 0 0-.465-.058c-.26 0-.512.058-.757.172-.244.115-.47.278-.676.488-.207.21-.386.466-.54.768-.152.302-.267.64-.343 1.015l-.654 3.039h-.71l1.26-5.917zm9.92 5.298a7.726 7.726 0 0 1-.39 1.33 2.923 2.923 0 0 1-.573.923c-.23.24-.507.42-.832.539-.325.119-.716.178-1.175.178-.306 0-.594-.035-.866-.103a2.086 2.086 0 0 1-.717-.327 1.591 1.591 0 0 1-.493-.59c-.122-.245-.187-.544-.195-.895h.711c0 .252.048.462.144.63.095.169.22.302.372.402.153.1.33.17.528.212.199.042.405.063.62.063.305 0 .569-.05.79-.15.222-.098.411-.228.568-.389.157-.16.287-.346.39-.556.103-.21.19-.423.258-.637.069-.214.126-.426.172-.636.046-.21.092-.4.138-.568l-.023-.023a1.978 1.978 0 0 1-.86.809 2.56 2.56 0 0 1-1.159.28c-.351 0-.665-.06-.94-.183a1.886 1.886 0 0 1-.688-.51 2.272 2.272 0 0 1-.419-.763 3.03 3.03 0 0 1-.143-.951c0-.436.069-.866.206-1.29.138-.425.337-.805.597-1.142a3.05 3.05 0 0 1 .952-.814c.374-.206.799-.31 1.272-.31.222 0 .44.03.654.087a2.1 2.1 0 0 1 .59.258c.18.114.331.26.454.435.122.176.202.379.24.608h.023l.253-1.215h.665l-1.124 5.298zm-4.06-1.973c0 .253.031.49.092.711.061.222.159.419.293.59.133.173.3.309.499.408.198.1.435.149.71.149.367 0 .696-.09.987-.27.29-.18.539-.412.745-.699.207-.287.363-.604.47-.952.107-.348.16-.686.16-1.015 0-.26-.028-.5-.085-.722a1.491 1.491 0 0 0-.281-.574 1.332 1.332 0 0 0-.505-.378 1.828 1.828 0 0 0-.745-.138c-.367 0-.696.088-.986.264-.29.176-.537.403-.74.683a3.1 3.1 0 0 0-.459.928c-.103.34-.154.679-.154 1.015z"/>
    </g>
</svg>
