<svg width="16" height="16" viewBox="0 0 16 16" fill="none" xmlns="http://www.w3.org/2000/svg">
<path d="M15.5063 4.17824C15.7844 4.35324 16 4.67512 16 5.02512C16 5.56262 15.5625 6.00012 15.025 6.00012H0.97375C0.435938 6.00012 9.375e-06 5.56262 9.375e-06 5.02512C9.375e-06 4.67512 0.188594 4.35324 0.49375 4.17824L7.75313 0.0651189C7.90625 -0.0215436 8.06563 -0.0215436 8.24687 0.0651189L15.5063 4.17824ZM14.9281 5.00012L8 1.07481L1.07313 5.00012H6.41875C6.30937 4.77199 6.25 4.51887 6.25 4.25012C6.25 3.28449 7.03438 2.50012 8 2.50012C8.96562 2.50012 9.75 3.28449 9.75 4.25012C9.75 4.51887 9.69063 4.77199 9.58125 5.00012H14.9281ZM8 5.00012C8.41562 5.00012 8.75 4.66574 8.75 4.25012C8.75 3.83449 8.41562 3.50012 8 3.50012C7.58437 3.50012 7.25 3.83449 7.25 4.25012C7.25 4.66574 7.58437 5.00012 8 5.00012ZM2 7.00012H3V11.0001H5.5V7.00012H6.5V11.0001H9.5V7.00012H10.5V11.0001H13V7.00012H14V11.0001C14.275 11.0001 14.5 11.2251 14.5 11.5001C14.5 11.7751 14.275 12.0001 14 12.0001H2C1.72375 12.0001 1.5 11.7751 1.5 11.5001C1.5 11.2251 1.72375 11.0001 2 11.0001V7.00012ZM14.75 13.0001C15.025 13.0001 15.25 13.2251 15.25 13.5001C15.25 13.7751 15.025 14.0001 14.75 14.0001H1.25C0.97375 14.0001 0.75 13.7751 0.75 13.5001C0.75 13.2251 0.97375 13.0001 1.25 13.0001H14.75ZM15.5 15.0001C15.775 15.0001 16 15.2251 16 15.5001C16 15.7751 15.775 16.0001 15.5 16.0001H0.5C0.223875 16.0001 0 15.7751 0 15.5001C0 15.2251 0.223875 15.0001 0.5 15.0001H15.5Z" fill="#272727"/>
</svg>
