<svg xmlns="http://www.w3.org/2000/svg" width="18" height="17" viewBox="0 0 18 17">
    <g fill="none" fill-rule="evenodd">
        <path stroke="#01CA9B" stroke-linecap="round" stroke-linejoin="round" d="M10.437 10.818h4.018c2.048 0 2.181 1.455 2.181 1.455l-8.556 3.29c-.572.22-1.21.19-1.759-.084L1.364 13V7.91h.727c.803 0 2.84.317 3.636 1.454H7.91a2.91 2.91 0 0 1 2.91 2.909H5.726"/>
        <path fill="#01CA9B" d="M12.072 2.808a.786.786 0 0 0-.18-.136 3.295 3.295 0 0 0-.708-.316 2.264 2.264 0 0 0-.448-.092v1.384l.2.048c.277.075.53.155.756.24.227.085.419.192.576.32.157.128.279.281.364.46.085.179.128.399.128.66 0 .293-.052.544-.156.752a1.42 1.42 0 0 1-.424.512 1.884 1.884 0 0 1-.624.3 3.246 3.246 0 0 1-.748.116v.88h-.48v-.888a4.15 4.15 0 0 1-2.056-.72l.488-.952c.043.043.116.099.22.168.104.07.23.137.376.204.147.067.31.13.488.188.179.059.364.099.556.12V4.68a2.84 2.84 0 0 1-.288-.08 5.169 5.169 0 0 1-.708-.244 1.861 1.861 0 0 1-.5-.312 1.17 1.17 0 0 1-.3-.416 1.441 1.441 0 0 1-.1-.564c0-.267.047-.505.14-.716.093-.21.221-.39.384-.54.163-.15.356-.267.58-.352.224-.085.464-.139.72-.16V.48h.48v.808a3.3 3.3 0 0 1 .972.216c.296.117.556.253.78.408l-.488.896zm-.488 2.68a.484.484 0 0 0-.224-.424 2.471 2.471 0 0 0-.624-.28v1.288c.565-.016.848-.21.848-.584zm-1.944-2.6c0 .181.063.319.188.412.125.093.316.177.572.252V2.256c-.507.032-.76.243-.76.632z"/>
    </g>
</svg>
