<svg width="80" height="80" viewBox="0 0 80 80" fill="none" xmlns="http://www.w3.org/2000/svg">
<g clip-path="url(#clip0_3238_1170)">
<path d="M50.2245 35.1141V74.6412C50.2242 75.7035 49.8068 76.7222 49.064 77.4734C48.3213 78.2246 47.314 78.6467 46.2636 78.647H16.9609C15.9105 78.6467 14.9032 78.2246 14.1605 77.4734C13.4177 76.7222 13.0003 75.7035 13 74.6412V14.4176C13.0003 13.3553 13.4177 12.3366 14.1605 11.5854C14.9032 10.8342 15.9105 10.4121 16.9609 10.4117H29.5544" stroke="#02CA95" stroke-width="2.36915" stroke-linecap="round" stroke-linejoin="round"/>
<path d="M47.3182 30.4118C55.3488 30.4118 61.859 23.8277 61.859 15.7059C61.859 7.58405 55.3488 1 47.3182 1C39.2875 1 32.7773 7.58405 32.7773 15.7059C32.7773 23.8277 39.2875 30.4118 47.3182 30.4118Z" stroke="#02CA95" stroke-width="2.36915"/>
<path d="M58.9492 29.8235L67.6737 38.647" stroke="#02CA95" stroke-width="2.36915" stroke-linecap="round"/>
<path fill-rule="evenodd" clip-rule="evenodd" d="M35.102 71.5882C35.102 72.5243 34.7344 73.422 34.0799 74.0839C33.4254 74.7458 32.5378 75.1176 31.6122 75.1176C30.6867 75.1176 29.7991 74.7458 29.1446 74.0839C28.4901 73.422 28.1224 72.5243 28.1224 71.5882C28.1224 70.6522 28.4901 69.7544 29.1446 69.0925C29.7991 68.4307 30.6867 68.0588 31.6122 68.0588C32.5378 68.0588 33.4254 68.4307 34.0799 69.0925C34.7344 69.7544 35.102 70.6522 35.102 71.5882ZM13 64.5294H50.2245H13ZM13 17.4706H29.2857H13ZM18.8163 13.9412H23.4694H18.8163ZM26.9592 13.9412H28.1224H26.9592Z" stroke="#02CA95" stroke-width="2.36915" stroke-linecap="round" stroke-linejoin="round"/>
</g>
<defs>
<clipPath id="clip0_3238_1170">
<rect width="80" height="80" fill="white"/>
</clipPath>
</defs>
</svg>
