<svg xmlns="http://www.w3.org/2000/svg" width="18" height="18" viewBox="0 0 18 18">
    <g fill="none" fill-rule="evenodd" stroke="#02CA95" stroke-linecap="round" stroke-linejoin="round" stroke-width="1.5">
        <path d="M10.043 14.217l2.053 2.053a2.435 2.435 0 0 0 3.478 0 2.435 2.435 0 0 0 0-3.479l-1.357-1.356M7.209 8.113L4.826 5.73M3.365 6.217l1.461-.487.487-1.46-1.948-1.948L1.417 4.27zM16.08 4.424l-2.14 2.132-2.502-2.487 2.143-2.133a2.93 2.93 0 0 0-1.572-.214 3.906 3.906 0 0 0-3.57 3.981c-.006.39.067.778.213 1.14l-6.855 6.04a2.378 2.378 0 0 0-.143 3.413 2.287 2.287 0 0 0 3.428-.14l6.07-6.823a4.68 4.68 0 0 0 2 .139 3.955 3.955 0 0 0 3-2.773 3.536 3.536 0 0 0-.072-2.275z"/>
    </g>
</svg>
