<svg xmlns="http://www.w3.org/2000/svg" width="60" height="60" viewBox="0 0 60 60">
    <g fill="none" fill-rule="evenodd" stroke="#02CA95" stroke-width="2">
        <path d="M27.533 23.826L24 21l-3.533 2.826A.903.903 0 0 1 19 23.121v-12.12h10v12.12a.903.903 0 0 1-1.467.705zM59 13c0-6.627-5.373-12-12-12S35 6.373 35 13s5.373 12 12 12 12-5.373 12-12zM47 5v8M52 13h-5M7 55h14V43H7zM11 47h6M11 51h4"/>
        <path d="M35 13h-6v-2H19v2H4.95C2.74 13 1 14.791 1 17v38c0 2.209 1.74 4 3.95 4H43a4 4 0 0 0 4-4V25c-6.627 0-12-5.373-12-12z"/>
    </g>
</svg>
