<svg xmlns="http://www.w3.org/2000/svg" width="90" height="90" viewBox="0 0 90 90">
    <g fill="#02CA95" fill-rule="evenodd">
        <path fill-rule="nonzero" d="M48.9 52.318l-.999-19.46a1.497 1.497 0 0 0-1.495-1.42H39.16c-3.3-7.572-12.114-11.036-19.685-7.736a14.955 14.955 0 0 0-7.735 7.735H4.493a1.497 1.497 0 0 0-1.497 1.416L.003 88.238A1.497 1.497 0 0 0 1.5 89.816h38.918a1.497 1.497 0 0 0 0-2.994H3.08l.243-4.49h29.611a1.497 1.497 0 0 0 0-2.994H3.484L5.911 34.43h4.87c-.201.985-.301 1.988-.3 2.994.009.088.026.174.052.259a4.49 4.49 0 1 0 2.89 0c.025-.085.043-.171.052-.26.003-1.01.135-2.016.393-2.993h23.163c.258.977.39 1.983.394 2.994.009.088.026.174.052.259a4.49 4.49 0 1 0 2.889 0c.026-.085.043-.171.052-.26a14.95 14.95 0 0 0-.299-2.993h4.865l.925 18.039c.05.822.749 1.452 1.572 1.419a1.497 1.497 0 0 0 1.419-1.57zM13.475 41.916a1.497 1.497 0 1 1-2.994 0 1.497 1.497 0 0 1 2.994 0zm1.62-10.478A11.975 11.975 0 0 1 25.45 25.45a11.975 11.975 0 0 1 10.355 5.988h-20.71zm25.323 10.478a1.497 1.497 0 1 1-2.993 0 1.497 1.497 0 0 1 2.993 0z"/>
        <path fill-rule="nonzero" d="M87.905 52.305v-.001l-2.58-41.916a1.497 1.497 0 0 0-1.497-1.404h-7.246C73.282 1.412 64.468-2.05 56.897 1.25a14.955 14.955 0 0 0-7.735 7.735h-7.247a1.497 1.497 0 0 0-1.497 1.392l-1.163 16.466c-.06.824.56 1.541 1.385 1.601h.006a1.515 1.515 0 0 0 1.599-1.389l1.065-15.076h4.892c-.2.985-.3 1.988-.3 2.994.01.087.027.174.053.259a4.49 4.49 0 1 0 2.89 0c.025-.085.043-.172.052-.26.003-1.01.135-2.016.393-2.993h23.163c.258.977.39 1.983.394 2.994.009.087.026.174.052.259a4.49 4.49 0 1 0 2.89 0c.025-.085.042-.172.051-.26a14.95 14.95 0 0 0-.299-2.993h4.88l2.492 40.508c.05.79.705 1.406 1.497 1.405h.093a1.497 1.497 0 0 0 1.402-1.586zM50.897 19.462a1.497 1.497 0 1 1-2.994 0 1.497 1.497 0 0 1 2.994 0zm1.62-10.478a11.975 11.975 0 0 1 10.355-5.987 11.975 11.975 0 0 1 10.355 5.987h-20.71zM77.84 19.462a1.497 1.497 0 1 1-2.993 0 1.497 1.497 0 0 1 2.993 0z"/>
        <path fill-rule="nonzero" d="M88.319 56.884H75.81c.163-.15.332-.299.49-.467a1.497 1.497 0 1 0-2.137-2.097l-.036.038a8.022 8.022 0 0 1-5.868 2.526h-.898v-.898a8.097 8.097 0 0 1 8.083-8.083h.899v.898c0 .598-.066 1.193-.197 1.776a1.497 1.497 0 0 0 2.924.65c.177-.797.266-1.61.266-2.426v-2.395c0-.826-.67-1.497-1.497-1.497h-2.395a11.077 11.077 0 0 0-9.58 5.539 11.077 11.077 0 0 0-9.58-5.539H53.89c-.826 0-1.497.67-1.497 1.497v2.395a11.038 11.038 0 0 0 3.532 8.083H43.412c-.826 0-1.497.67-1.497 1.497v8.982c0 .826.67 1.497 1.497 1.497h1.497v19.459c0 .827.67 1.497 1.497 1.497h38.919c.827 0 1.497-.67 1.497-1.497v-19.46h1.497c.826 0 1.497-.67 1.497-1.496V58.38c0-.826-.67-1.497-1.497-1.497zm-32.932-8.083v-.898h.898a8.097 8.097 0 0 1 8.084 8.083v.898h-.899a8.097 8.097 0 0 1-8.083-8.083zM44.91 65.866v-5.988h13.472v5.988H44.909zm25.447 20.956h-8.981v-4.49a1.497 1.497 0 0 0-2.994 0v4.49H47.903V68.86H58.38v7.484a1.497 1.497 0 0 0 2.994 0V68.86h8.981v17.962zm0-20.956h-8.981v-5.988h8.981v5.988zm16.466 0h-4.49a1.497 1.497 0 0 0 0 2.994h1.496v17.962H73.35V68.86h2.994a1.497 1.497 0 0 0 0-2.994H73.35v-5.988h13.472v5.988z"/>
        <path d="M40.418 79.338h-1.496a1.497 1.497 0 0 0 0 2.993h1.496a1.497 1.497 0 0 0 0-2.993z"/>
    </g>
</svg>
