<svg width="16" height="17" viewBox="0 0 16 17" fill="none" xmlns="http://www.w3.org/2000/svg">
<g clip-path="url(#clip0_3854_1433)">
<path d="M7.28438 1.0225C7.38438 0.711375 7.67188 0.500019 8 0.5V13.2L3.95938 16.3406C3.7 16.5438 3.34063 16.5531 3.07094 16.3656C2.80157 16.1781 2.68563 15.8344 2.78532 15.5219L4.37813 10.5219L0.289599 7.34062C0.0366926 7.14375 -0.0633386 6.80937 0.0406301 6.50625C0.14463 6.20312 0.429693 5.97188 0.750005 5.97188H5.70313L7.28438 1.0225Z" fill="#FFE500"/>
<path d="M8.71567 1.0225C8.61567 0.711375 8.32817 0.500019 7.97192 0.5V13.2L12.0407 16.3406C12.3 16.5438 12.6594 16.5531 12.9282 16.3656C13.2 16.1781 13.3157 15.8344 13.2157 15.5219L11.6219 10.5219L15.7094 7.34062C15.9625 7.14375 16.0625 6.80937 15.9594 6.50625C15.8563 6.20312 15.5719 5.97188 15.25 5.97188H10.2969L8.71567 1.0225Z" fill="#079F6A"/>
</g>
<defs>
<clipPath id="clip0_3854_1433">
<rect width="16" height="16" fill="white" transform="translate(0 0.5)"/>
</clipPath>
</defs>
</svg>
