<?xml version="1.0" encoding="UTF-8"?>
<svg width="35px" height="26px" viewBox="0 0 35 26" version="1.1" xmlns="http://www.w3.org/2000/svg" xmlns:xlink="http://www.w3.org/1999/xlink">
    <!-- Generator: Sketch 46.2 (44496) - http://www.bohemiancoding.com/sketch -->
    <title>stripe</title>
    <desc>Created with Sketch.</desc>
    <defs></defs>
    <g id="Page-1" stroke="none" stroke-width="1" fill="none" fill-rule="evenodd">
        <g id="HomePage" transform="translate(-1329.000000, -4142.000000)" fill-rule="nonzero">
            <g id="footer" transform="translate(0.000000, 3800.000000)">
                <g id="stripe" transform="translate(1329.000000, 342.000000)">
                    <path d="M32.7173913,0 L2.2826087,0 C1.02184783,0 0,1.027 0,2.29411765 L0,23.7058824 C0,24.973 1.02184783,26 2.2826087,26 L32.7173913,26 C33.9781522,26 35,24.973 35,23.7058824 L35,2.29411765 C35,1.027 33.9781522,0 32.7173913,0 Z" id="Shape" fill="#009BF1"></path>
                    <path d="M26.6836957,12.6566471 C26.733913,11.8544706 26.95,11.479 27.3593478,11.479 C27.7618478,11.479 27.9703261,11.8621176 27.9992391,12.6566471 L26.6836957,12.6566471 Z M29.673913,13.1338235 C29.673913,12.2383529 29.4798913,11.5302353 29.0986957,11.0316471 C28.7106522,10.5261765 28.128587,10.2661765 27.3882609,10.2661765 C25.8718478,10.2661765 24.9298913,11.3933529 24.9298913,13.1988235 C24.9298913,14.2097647 25.1817391,14.9683529 25.6770652,15.4524118 C26.1229348,15.886 26.7620652,16.1024118 27.5891304,16.1024118 C28.3507609,16.1024118 29.0553261,15.9219412 29.5011957,15.626 L29.3071739,14.3978824 C28.868913,14.6364706 28.3583696,14.7664706 27.7831522,14.7664706 C27.4384783,14.7664706 27.201087,14.6945882 27.0283696,14.5424118 C26.8411957,14.3833529 26.733913,14.1233529 26.6973913,13.7547647 L29.651087,13.7547647 C29.6594565,13.6683529 29.673913,13.2638235 29.673913,13.1338235 Z M22.5438043,14.3474118 C22.4,14.6219412 22.1770652,14.7664706 21.9183696,14.7664706 C21.7388043,14.7664706 21.5805435,14.7305294 21.4367391,14.6578824 L21.4367391,11.9852353 C21.7388043,11.6671176 22.0119565,11.6311765 22.1123913,11.6311765 C22.5651087,11.6311765 22.7880435,12.1221176 22.7880435,13.0833529 C22.7888043,13.6324118 22.7096739,14.0583529 22.5438043,14.3474118 Z M24.0244565,10.8802353 C23.7079348,10.4688235 23.2696739,10.2661765 22.708913,10.2661765 C22.1915217,10.2661765 21.7388043,10.4825882 21.3142391,10.9375882 L21.2206522,10.374 L19.6540217,10.374 L19.6540217,18.0745882 L21.4367391,17.7786471 L21.4367391,15.9724118 C21.7098913,16.0588235 21.9898913,16.1024118 22.2417391,16.1024118 C22.6876087,16.1024118 23.3343478,15.9869412 23.8372826,15.4378824 C24.318913,14.9102353 24.5631522,14.0942941 24.5631522,13.0183529 C24.563913,12.0647647 24.3843478,11.3421176 24.0244565,10.8802353 Z M17.1636957,10.374 L18.9532609,10.374 L18.9532609,15.9938235 L17.1636957,15.9938235 L17.1636957,10.374 Z M18.0622826,9.81805882 C18.5796739,9.81805882 18.9966304,9.39211765 18.9966304,8.87211765 C18.9966304,8.34447059 18.5796739,7.92617647 18.0622826,7.92617647 C17.5372826,7.92617647 17.121087,8.34523529 17.121087,8.87211765 C17.1203261,9.39211765 17.5372826,9.81805882 18.0622826,9.81805882 Z M16.3944565,10.2967647 C15.8915217,10.2967647 15.4890217,10.5621176 15.3307609,11.0392941 L15.2227174,10.3747647 L13.6629348,10.3747647 L13.6629348,15.9945882 L15.4456522,15.9945882 L15.4456522,12.3469412 C15.668587,12.0724118 15.9843478,11.973 16.4157609,11.973 C16.5093478,11.973 16.6097826,11.973 16.7322826,11.9944118 L16.7322826,10.3403529 C16.6097826,10.3112941 16.5025,10.2967647 16.3944565,10.2967647 Z M12.9758696,11.7030588 L13.1911957,10.374 L12.0529348,10.374 L12.0529348,8.76047059 L10.5228261,9.01358824 L10.3021739,10.374 L9.76423913,10.4619412 L9.5626087,11.7030588 L10.2998913,11.7030588 L10.2998913,14.3107059 C10.2998913,14.9897647 10.4726087,15.4592941 10.8248913,15.7483529 C11.1193478,15.9869412 11.543913,16.1024118 12.1404348,16.1024118 C12.6007609,16.1024118 12.8807609,16.0228824 13.0747826,15.9724118 L13.0747826,14.5638235 C12.9667391,14.5928824 12.7225,14.6433529 12.5573913,14.6433529 C12.2051087,14.6433529 12.0544565,14.4628824 12.0544565,14.0507059 L12.0544565,11.7030588 L12.9758696,11.7030588 Z M7.87043478,12.4907059 C7.34543478,12.2957059 7.05858696,12.1442941 7.05858696,11.9057059 C7.05858696,11.7038235 7.22369565,11.5875882 7.51891304,11.5875882 C8.0576087,11.5875882 8.61152174,11.7971176 8.99195652,11.9852353 L9.20728261,10.6485294 C8.90521739,10.504 8.2873913,10.2654118 7.43217391,10.2654118 C6.82880435,10.2654118 6.3251087,10.4244706 5.96597826,10.7204118 C5.5923913,11.0308824 5.39836957,11.479 5.39836957,12.0204118 C5.39836957,13.0030588 5.9948913,13.4221176 6.965,13.7754118 C7.59043478,13.9994706 7.79891304,14.1585294 7.79891304,14.404 C7.79891304,14.6425882 7.59804348,14.7794706 7.23130435,14.7794706 C6.77858696,14.7794706 6.03065217,14.5554118 5.54217391,14.2663529 L5.32608696,15.6183529 C5.74304348,15.8569412 6.51913043,16.1024118 7.32413043,16.1024118 C7.96402174,16.1024118 8.49586957,15.951 8.855,15.6619412 C9.2575,15.3438235 9.46597826,14.8742941 9.46597826,14.2678824 C9.46597826,13.2638235 8.855,12.8447647 7.87043478,12.4907059 L7.87043478,12.4907059 Z" id="Shape" fill="#FFFFFF"></path>
                </g>
            </g>
        </g>
    </g>
</svg>