<svg width="22" height="22" viewBox="0 0 22 22" fill="none" xmlns="http://www.w3.org/2000/svg">
<path fill-rule="evenodd" clip-rule="evenodd" d="M14.0071 0.68333C14.278 0.5086 14.641 0.628145 14.7551 0.929643L15.8909 3.93185C15.9618 4.11917 16.1364 4.24712 16.3364 4.25822L19.5412 4.43612C19.863 4.45399 20.0864 4.76409 20.0015 5.07505L19.1558 8.17155C19.1031 8.36476 19.1692 8.57091 19.3244 8.69743L21.8126 10.7252C22.0625 10.9288 22.0609 11.311 21.8095 11.5127L19.3053 13.5207C19.1491 13.646 19.0814 13.8516 19.1326 14.0453L19.9538 17.1483C20.0362 17.46 19.8104 17.7683 19.4884 17.7836L16.2823 17.9362C16.0822 17.9457 15.9066 18.0722 15.8343 18.259L14.6747 21.2521C14.5583 21.5527 14.1943 21.6694 13.9249 21.4925L11.2414 19.7313C11.074 19.6215 10.8575 19.6206 10.6892 19.7292L7.9919 21.4691C7.72102 21.6438 7.35801 21.5243 7.24394 21.2228L6.10812 18.2205C6.03725 18.0332 5.86262 17.9053 5.66266 17.8942L2.45787 17.7163C2.13602 17.6984 1.9126 17.3883 1.99753 17.0773L2.84319 13.9809C2.89595 13.7876 2.82987 13.5815 2.67462 13.455L0.186455 11.4272C-0.0634205 11.2236 -0.0619096 10.8414 0.189568 10.6397L2.69369 8.63168C2.84994 8.50638 2.91765 8.30076 2.86641 8.10714L2.04526 5.00405C1.9628 4.69243 2.18867 4.3841 2.51064 4.36878L5.71673 4.21622C5.91678 4.20671 6.09242 4.08015 6.16477 3.89339L7.32429 0.900261C7.44074 0.599674 7.80469 0.483003 8.07417 0.65987L10.7576 2.42105C10.9251 2.53094 11.1415 2.5318 11.3098 2.42323L14.0071 0.68333ZM6.87496 6.32746C5.9085 6.32746 5.12503 7.11093 5.12503 8.07738V10.0773C5.12503 11.0438 5.9085 11.8272 6.87496 11.8272H7.87491C8.84137 11.8272 9.62484 11.0438 9.62484 10.0773V8.07738C9.62484 7.11093 8.84137 6.32746 7.87491 6.32746H6.87496ZM6.62497 8.07738C6.62497 7.93932 6.73689 7.8274 6.87496 7.8274H7.87491C8.01298 7.8274 8.1249 7.93932 8.1249 8.07738V10.0773C8.1249 10.2154 8.01298 10.3273 7.87491 10.3273H6.87496C6.73689 10.3273 6.62497 10.2154 6.62497 10.0773V8.07738ZM12.3741 12.0766C12.3741 11.1102 13.1575 10.3267 14.124 10.3267H15.1239C16.0904 10.3267 16.8739 11.1102 16.8739 12.0766V14.0765C16.8739 15.043 16.0904 15.8265 15.1239 15.8265H14.124C13.1575 15.8265 12.3741 15.043 12.3741 14.0765V12.0766ZM14.124 11.8266C13.9859 11.8266 13.874 11.9386 13.874 12.0766V14.0765C13.874 14.2146 13.9859 14.3265 14.124 14.3265H15.1239C15.262 14.3265 15.3739 14.2146 15.3739 14.0765V12.0766C15.3739 11.9386 15.262 11.8266 15.1239 11.8266H14.124ZM14.2889 6.42625C14.4814 6.05952 14.3402 5.60615 13.9735 5.41362C13.6068 5.22109 13.1534 5.3623 12.9609 5.72903L7.7111 15.7286C7.51857 16.0953 7.65978 16.5487 8.02651 16.7412C8.39324 16.9338 8.84661 16.7925 9.03914 16.4258L14.2889 6.42625Z" fill="white"/>
</svg>
