<svg xmlns="http://www.w3.org/2000/svg" width="60" height="60" viewBox="0 0 60 60">
    <g fill="none" fill-rule="evenodd">
        <path fill="#FFD300" fill-rule="nonzero" d="M60 55.313A4.686 4.686 0 0 1 55.312 60H4.688A4.686 4.686 0 0 1 0 55.312V4.688A4.686 4.686 0 0 1 4.688 0h50.624A4.686 4.686 0 0 1 60 4.688v50.624z"/>
        <path fill="#FFF" d="M46.43 35.66l.644-2.93H3.704l-.645 2.93z"/>
        <path fill="#EC1C24" d="M49.383 24.34h4.781l-.762 3.55h3.54l-.915 4.43h-3.55l-.704 3.34h-3.902l.234-1.16h2.72l.679-3.305h3.574l.445-2.18h-3.539l.739-3.55H50.32l-.738 3.55h-1.207l1.008-4.675z"/>
        <path fill="#231F20" d="M17.027 28.008h-1.3v.023l-1.887 4.114-.024-4.079v-.058h-1.605l-.024.023-1.769 4.114-.152-4.079v-.058H9l.023.058.352 5.614v.058h1.477v-.035l1.898-4.277.059 4.254v.058h1.5v-.035l2.695-5.613.023-.082zm1.594 0h-1.289l-.035.058-1.184 5.614v.058h1.301v-.058l1.184-5.614.023-.058zm6.293-.094c-1.008 0-2.156.445-2.156 1.746 0 .856.62 1.184 1.125 1.477.445.234.797.445.797.89 0 .563-.504.797-1.008.797s-.95-.176-1.36-.386l-.058-.036-.035.094-.27.95-.035.058h.059a4.25 4.25 0 0 0 1.629.328c.796 0 1.453-.21 1.863-.621.328-.328.504-.773.504-1.3 0-.915-.645-1.302-1.184-1.63-.41-.234-.738-.445-.738-.797 0-.117.058-.234.152-.328.176-.176.504-.234.738-.234.352 0 .797.094 1.125.27l.094.035v-.059l.27-.914.035-.059-.059-.035a4.397 4.397 0 0 0-1.488-.246zm-2.508.27l-.058-.036c-.41-.152-.891-.234-1.477-.234-.973 0-2.133.445-2.133 1.746 0 .856.586 1.184 1.125 1.477.41.234.774.445.774.89 0 .563-.504.797-1.008.797-.469 0-.95-.176-1.324-.386l-.059-.036-.035.094-.293.95v.058h.035a4.336 4.336 0 0 0 1.629.328c.832 0 1.477-.21 1.887-.621.328-.328.468-.773.468-1.3 0-.915-.644-1.302-1.183-1.63-.387-.234-.738-.445-.738-.797 0-.117.058-.234.152-.328.176-.176.504-.234.738-.234.387 0 .797.094 1.149.27l.058.035.035-.059.27-.914v-.07h-.012zm-15.129-.27c-.972 0-2.156.445-2.156 1.746 0 .856.621 1.184 1.149 1.477.41.234.773.445.773.89 0 .563-.504.797-1.008.797s-.95-.176-1.36-.386l-.058-.036v.094l-.293.95-.035.058h.059a4.25 4.25 0 0 0 1.629.328c.832 0 1.476-.21 1.863-.621.328-.328.504-.773.504-1.3 0-.915-.645-1.302-1.184-1.63-.387-.234-.738-.445-.738-.797 0-.117.058-.234.152-.328.176-.176.504-.234.739-.234.386 0 .796.094 1.148.27l.059.035v-.059l.27-.926.034-.058-.058-.036a4.72 4.72 0 0 0-1.489-.234zm22.782.094h-1.02v.058l-1.184 5.614v.035l-.035.035h1.254l.035-.059s.387-1.71.387-1.828h.621c.738 0 1.453-.27 1.887-.715.351-.351.562-.855.562-1.418 0-.445-.152-.832-.41-1.09-.504-.515-1.418-.632-2.097-.632zm.035 1.008h.328c.234 0 .469.093.644.234a.804.804 0 0 1 .235.586c0 .644-.645 1.008-1.242 1.008h-.329l.364-1.828zm7.558-.446c-.41-.41-1.007-.644-1.77-.644-.972 0-1.687.328-2.331 1.066a3.821 3.821 0 0 0-.914 2.485c0 .703.234 1.324.68 1.77.41.41.949.62 1.593.62 1.031 0 1.863-.328 2.426-.972.621-.68.973-1.57.973-2.508-.012-.785-.246-1.407-.657-1.817zm-2.601 4.278c-.293 0-.563-.094-.762-.293-.234-.235-.352-.586-.352-1.032 0-.796.329-1.628.797-2.097.328-.328.703-.504 1.125-.504.328 0 .586.117.797.293.235.234.352.586.352 1.031-.012 1.067-.68 2.602-1.957 2.602zm7.5-4.664c-.41-.176-.914-.27-1.477-.27-1.008 0-2.156.469-2.156 1.77 0 .855.586 1.183 1.125 1.476.41.235.797.445.797.856 0 .562-.504.832-1.008.832s-.973-.211-1.36-.387l-.058-.035v.035l-.023.035-.293.973v.07h.023c.586.211 1.125.328 1.629.328.832 0 1.477-.21 1.887-.62.328-.329.468-.774.468-1.325 0-.914-.644-1.3-1.183-1.594-.387-.234-.703-.445-.703-.797 0-.117.035-.234.117-.351.234-.211.644-.235.773-.235.352 0 .774.117 1.125.293l.059.035v-.035l.023-.035.27-.95v-.07h-.035zm4.816-.176h-4.441l-.024.058-.175.856v.058l-.036.036h1.606l-1.008 4.664v.035l-.035.035h1.312v-.059s.973-4.464 1.032-4.664h1.558v-.035l.035-.035.176-.89v-.06z"/>
    </g>
</svg>
