<svg width="15" height="16" viewBox="0 0 15 16" fill="none" xmlns="http://www.w3.org/2000/svg">
<path fill-rule="evenodd" clip-rule="evenodd" d="M14.535 1.63265H4.96125C4.70625 1.63265 4.5 1.80898 4.5 2.03755V15.2718C4.5 15.5004 4.70625 15.6767 4.96125 15.6767H14.535C14.79 15.6767 15 15.5004 15 15.2718V2.03755C15 1.80898 14.7937 1.63265 14.535 1.63265ZM9.75 2.08327C9.8775 2.08327 9.9825 2.17469 9.9825 2.28571C9.9825 2.39673 9.8775 2.48816 9.75 2.48816C9.6225 2.48816 9.5175 2.39673 9.5175 2.28571C9.5175 2.17469 9.6225 2.08327 9.75 2.08327ZM9.7575 15.3502C9.55125 15.3502 9.3825 15.2 9.3825 15.0237C9.3825 14.8473 9.55125 14.6971 9.7575 14.6971C9.96375 14.6971 10.1325 14.8473 10.1325 15.0237C10.1287 15.2 9.96 15.3502 9.7575 15.3502ZM14.25 14.3673H5.25V2.93878H14.25V14.3673ZM4.5 15.6506C4.28625 15.6114 4.125 15.458 4.125 15.2555V14.3673H0.75V1.30612H12.75V0.489796C12.75 0.212245 12.4987 0 12.1875 0H0.5625C0.25125 0 0 0.212245 0 0.489796V15.1837C0 15.4612 0.25125 15.6735 0.5625 15.6735H4.5V15.6506ZM6.375 0.408163C6.52875 0.408163 6.65625 0.519184 6.65625 0.653061C6.65625 0.786939 6.52875 0.897959 6.375 0.897959C6.22125 0.897959 6.09375 0.786939 6.09375 0.653061C6.09375 0.519184 6.22125 0.408163 6.375 0.408163Z" fill="white"/>
</svg>
