<svg width="65" height="65" viewBox="0 0 65 65" fill="none" xmlns="http://www.w3.org/2000/svg">
<g clip-path="url(#clip0_1_214)">
<path d="M45.8301 29.1799H35.5984C34.8972 29.1799 34.3289 29.7482 34.3289 30.4495C34.3289 31.1507 34.8972 31.719 35.5984 31.719H45.8301C46.5313 31.719 47.0996 31.1507 47.0996 30.4495C47.0996 29.7482 46.5313 29.1799 45.8301 29.1799Z" fill="#23224A"/>
<path d="M45.8301 34.2581H33.2454C32.5441 34.2581 31.9758 34.8264 31.9758 35.5276C31.9758 36.2288 32.5441 36.7971 33.2454 36.7971H45.8301C46.5313 36.7971 47.0996 36.2288 47.0996 35.5276C47.0996 34.8264 46.5313 34.2581 45.8301 34.2581Z" fill="#23224A"/>
<path d="M63.243 36.748C61.2762 34.991 58.2889 34.9672 56.2943 36.6929L52.5586 39.9253V15.4079C52.5586 13.0722 50.6583 11.1719 48.3226 11.1719H16.6775C14.3418 11.1719 12.4414 13.0722 12.4414 15.4079V43.8643C12.2937 43.9739 12.1479 44.085 12.004 44.2L0.478584 53.3853C-0.0698935 53.8222 -0.160149 54.6211 0.276748 55.1696C0.527679 55.484 0.897132 55.6476 1.27055 55.6476C1.54777 55.6476 1.82696 55.5574 2.06103 55.3709L13.5865 46.1856C16.0308 44.2372 19.0985 43.1646 22.2238 43.1646H35.5871C37.1274 43.1646 38.38 44.4172 38.38 45.9575C38.38 47.4973 37.1274 48.7505 35.5871 48.7505H27.0197C26.319 48.7505 25.7502 49.3188 25.7502 50.02C25.7502 50.7207 26.319 51.2896 27.0197 51.2896H35.5871C35.6739 51.2896 35.7602 51.2871 35.8459 51.2831C35.8886 51.2871 35.9317 51.2896 35.9759 51.2896H38.1837C41.4859 51.2896 44.6796 50.0994 47.177 47.9387L57.9556 38.6131C58.9881 37.72 60.5339 37.7324 61.552 38.6419C62.1371 39.1645 62.46 39.8851 62.461 40.6701C62.462 41.4552 62.1401 42.1762 61.5554 42.7004L51.301 51.8951C47.354 55.4339 42.2615 57.3828 36.9603 57.3828H19.5989C19.2607 57.3828 18.9369 57.5177 18.6983 57.7572L13.652 62.8354C13.1575 63.3327 13.16 64.1366 13.6574 64.631C13.9054 64.877 14.2287 65 14.5525 65C14.8788 65 15.2051 64.875 15.4531 64.6251L20.1271 59.9219H36.9608C42.8879 59.9219 48.5829 57.7423 52.996 53.7855L63.2505 44.5913C64.3638 43.593 65.0015 42.1628 65 40.6681C64.9985 39.173 64.3583 37.7443 63.243 36.748V36.748ZM37.1641 13.7109V19.6599L36.3642 18.86C35.8688 18.3646 35.0649 18.3646 34.569 18.86L32.5 20.9289L30.4311 18.86C30.1831 18.6125 29.8583 18.488 29.5335 18.488C29.2087 18.488 28.8834 18.6125 28.6359 18.86L27.836 19.6599V13.7109H37.1641ZM45.5152 46.019C44.0042 47.3262 42.1797 48.1966 40.2392 48.5591C40.6717 47.7889 40.9191 46.9017 40.9191 45.9575C40.9191 43.0173 38.5273 40.6255 35.5871 40.6255H22.2238C19.7075 40.6255 17.223 41.2141 14.9805 42.3156V15.4079C14.9805 14.4722 15.7417 13.7109 16.6775 13.7109H25.2969V22.7246C25.2969 23.2384 25.6064 23.7011 26.081 23.8974C26.5546 24.0938 27.1011 23.9857 27.4641 23.6222L29.5335 21.5533L31.6024 23.6222C32.0983 24.1181 32.9017 24.1181 33.3976 23.6222L35.4666 21.5533L37.536 23.6222C37.7785 23.8652 38.1033 23.9941 38.4336 23.9941C38.5973 23.9941 38.7624 23.9624 38.9191 23.8974C39.3937 23.7011 39.7031 23.2384 39.7031 22.7246V13.7109H48.3226C49.2583 13.7109 50.0196 14.4722 50.0196 15.4079V42.1222L45.5152 46.019Z" fill="#23224A"/>
<path d="M32.5 8.25195C33.2012 8.25195 33.7695 7.68364 33.7695 6.98242V1.26953C33.7695 0.568314 33.2012 0 32.5 0C31.7988 0 31.2305 0.568314 31.2305 1.26953V6.98242C31.2305 7.68364 31.7988 8.25195 32.5 8.25195Z" fill="#23224A"/>
<path d="M55.4785 31.2305C55.4785 31.9317 56.0468 32.5 56.748 32.5H62.4609C63.1622 32.5 63.7305 31.9317 63.7305 31.2305C63.7305 30.5293 63.1622 29.9609 62.4609 29.9609H56.748C56.0468 29.9609 55.4785 30.5293 55.4785 31.2305Z" fill="#23224A"/>
<path d="M2.53906 32.5H8.25195C8.95317 32.5 9.52148 31.9317 9.52148 31.2305C9.52148 30.5293 8.95317 29.9609 8.25195 29.9609H2.53906C1.83834 29.9609 1.26953 30.5293 1.26953 31.2305C1.26953 31.9317 1.83784 32.5 2.53906 32.5Z" fill="#23224A"/>
<path d="M10.429 10.9552C10.677 11.2026 11.0018 11.3271 11.3271 11.3271C11.6519 11.3271 11.9768 11.2026 12.2247 10.9552C12.7201 10.4593 12.7201 9.6554 12.2247 9.15949L7.23635 4.17112C6.74043 3.67571 5.93706 3.67571 5.44065 4.17112C4.94524 4.66703 4.94524 5.4709 5.44065 5.96681L10.429 10.9552Z" fill="#23224A"/>
<path d="M53.6729 11.3271C53.9982 11.3271 54.323 11.2026 54.571 10.9552L59.5594 5.96681C60.0548 5.4709 60.0548 4.66703 59.5594 4.17112C59.0635 3.67571 58.2596 3.67571 57.7637 4.17112L52.7753 9.15949C52.2799 9.6554 52.2799 10.4593 52.7753 10.9552C53.0233 11.2026 53.3481 11.3271 53.6729 11.3271Z" fill="#23224A"/>
</g>
<defs>
<clipPath id="clip0_1_214">
<rect width="65" height="65" fill="white"/>
</clipPath>
</defs>
</svg>
