<svg width="31" height="20" viewBox="0 0 31 20" fill="none" xmlns="http://www.w3.org/2000/svg">
<path d="M1.58974 0H29.4103C30.2883 0 31 0.71636 31 1.6V18.4C31 19.2837 30.2883 20 29.4103 20H1.58974C0.711768 20 0 19.2837 0 18.4V1.6C0 0.71636 0.711768 0 1.58974 0Z" fill="#0E4595"/>
<path d="M11.6529 13.9492L12.9788 6.11882H15.0995L13.7727 13.9492H11.6529ZM21.4342 6.28762C21.0141 6.12898 20.3557 5.95874 19.5336 5.95874C17.4381 5.95874 15.962 7.02074 15.9495 8.54286C15.9376 9.66806 17.0033 10.2957 17.8076 10.6703C18.6331 11.0541 18.9106 11.2989 18.9067 11.6416C18.9015 12.1665 18.2475 12.4063 17.638 12.4063C16.7892 12.4063 16.3382 12.2876 15.6418 11.9952L15.3685 11.8708L15.0708 13.6237C15.5662 13.8423 16.4821 14.0317 17.4331 14.0415C19.6623 14.0415 21.1094 12.9916 21.1259 11.3662C21.1339 10.4754 20.5689 9.79754 19.3454 9.23866C18.6042 8.87646 18.1502 8.6347 18.155 8.26794C18.155 7.94246 18.5393 7.59438 19.3695 7.59438C20.063 7.58358 20.5654 7.73578 20.9568 7.89438L21.1468 7.98478L21.4342 6.28762ZM26.8914 6.1187H25.2527C24.745 6.1187 24.3651 6.25818 24.1422 6.76806L20.9928 13.9441H23.2196C23.2196 13.9441 23.5837 12.9791 23.666 12.7673C23.9095 12.7673 26.0727 12.7707 26.382 12.7707C26.4455 13.0448 26.64 13.9441 26.64 13.9441H28.6078L26.8914 6.11846V6.1187ZM24.2914 11.1751C24.4668 10.7239 25.1364 8.98618 25.1364 8.98618C25.1238 9.00706 25.3104 8.53282 25.4175 8.23882L25.5608 8.91398C25.5608 8.91398 25.9669 10.7831 26.0518 11.1751H24.2914ZM9.85259 6.1187L7.77639 11.4587L7.55514 10.3735C7.16863 9.12258 5.9644 7.7673 4.61816 7.08878L6.51656 13.9368L8.76032 13.9342L12.0989 6.11862H9.85259" fill="white"/>
<path d="M5.83922 6.11832H2.41964L2.39258 6.28124C5.05293 6.9294 6.81326 8.49576 7.54414 10.3776L6.80054 6.77924C6.67217 6.28344 6.29989 6.13548 5.8393 6.11816" fill="#F2AE14"/>
</svg>
