<svg width="16" height="17" viewBox="0 0 16 17" fill="none" xmlns="http://www.w3.org/2000/svg">
<path d="M8 16.5C12.4187 16.5 16 12.9187 16 8.5C16 4.08125 12.4187 0.5 8 0.5C3.58125 0.5 0 4.08125 0 8.5C0 12.9187 3.58125 16.5 8 16.5ZM8 4.5C8.41562 4.5 8.75 4.83437 8.75 5.25V8.75C8.75 9.16562 8.41562 9.5 8 9.5C7.58437 9.5 7.25 9.16562 7.25 8.75V5.25C7.25 4.83437 7.58437 4.5 8 4.5ZM9 11.5C9 12.0531 8.55313 12.5 8 12.5C7.44688 12.5 7 12.0531 7 11.5C7 10.9469 7.44688 10.5 8 10.5C8.55313 10.5 9 10.9469 9 11.5Z" fill="#E71313"/>
</svg>
