<svg xmlns="http://www.w3.org/2000/svg" width="46" height="60" viewBox="0 0 46 60">
    <g fill="none" fill-rule="evenodd" stroke="#02CA95" stroke-linejoin="round" stroke-width="2">
        <path d="M23 1S16.333 9 1 9v19.085c0 9.966 4.328 19.577 12.164 25.735C15.938 56 19.208 57.875 23 59c3.792-1.125 7.063-3 9.836-5.18C40.672 47.662 45 38.051 45 28.085V9C29.667 9 23 1 23 1z"/>
        <path d="M23 52.661c-2.123-.833-4.178-2.025-6.128-3.558C10.69 44.245 7 36.388 7 28.085V14.628c7.391-.942 12.639-3.514 16-5.797 3.361 2.283 8.609 4.855 16 5.797v13.457c0 8.303-3.69 16.16-9.871 21.018-1.951 1.533-4.006 2.725-6.129 3.558z"/>
        <path stroke-linecap="round" d="M35 22L21 38l-8-8"/>
    </g>
</svg>
