<svg xmlns="http://www.w3.org/2000/svg" xmlns:xlink="http://www.w3.org/1999/xlink" width="40" height="51" viewBox="0 0 40 51">
    <defs>
        <path id="a" d="M15 2h12v20l-6.132-4.805L15 22z"/>
        <path id="b" d="M5 2h12v20l-6.132-4.805L5 22z"/>
    </defs>
    <g fill="none" fill-rule="evenodd">
        <g transform="scale(-1 1) rotate(30 -52.383 -60.337)">
            <use fill="#FFF" xlink:href="#a"/>
            <path stroke="#02CA95" d="M15.5 2.5v18.444l5.361-4.39 5.639 4.419V2.5h-11z"/>
        </g>
        <g transform="rotate(30 -37.383 32.964)">
            <use fill="#FFF" xlink:href="#b"/>
            <path stroke="#02CA95" d="M5.5 2.5v18.444l5.361-4.39 5.639 4.419V2.5h-11z"/>
        </g>
        <path fill="#02CA95" d="M20.025 37.347l-3.606 2.066-2.616-3.229-4.109.623-1.273-3.955-4.056-.903.241-4.148-3.456-2.307 1.724-3.781-2.389-3.4 2.973-2.903-1-4.034L6.28 9.744l.524-4.122 4.153-.143 1.979-3.654 3.924 1.368L20.025.5l3.165 2.693 3.923-1.368 1.979 3.654 4.153.143.525 4.122 3.82 1.632-.999 4.034 2.973 2.903-2.389 3.4 1.724 3.78-3.456 2.308.241 4.148-4.056.903-1.273 3.955-4.108-.623-2.617 3.229z"/>
        <g fill="#FFF" fill-rule="nonzero">
            <path d="M20 12c-4.411 0-8 3.589-8 8s3.589 8 8 8 8-3.589 8-8-3.589-8-8-8zm0 14c-3.309 0-6-2.691-6-6s2.691-6 6-6 6 2.691 6 6-2.691 6-6 6z"/>
            <path d="M19 23.414L15.586 20 17 18.586l2 2 4-4L24.414 18z"/>
        </g>
    </g>
</svg>
