<svg width="28" height="16" viewBox="0 0 28 16" fill="none" xmlns="http://www.w3.org/2000/svg">
<path fill-rule="evenodd" clip-rule="evenodd" d="M16.8 15.0029V6.90909C16.8 6.53018 16.5922 6.31709 16.2002 6.31709H2.20021C1.80821 6.31709 1.59968 6.51418 1.59968 6.90909V15.0029H0C0.0198947 15.0378 0.0515789 15.1287 0.084 15.1287C0.084 15.1287 0.91221 15.6225 1.94011 15.6895C2.968 15.7607 3.99589 15.7964 4.00032 15.792H14.4001C14.4001 15.792 15.344 15.7607 16.3719 15.6938C17.3998 15.6262 18.228 15.1331 18.228 15.1331C18.2597 15.1331 18.3798 15.0422 18.4041 15.0065H16.8V15.0029ZM2.39989 7.10545H15.9998V15.0036H2.39989V7.10545ZM21.1798 15.7913C21.1879 15.7876 21.1923 15.7876 21.196 15.784C21.2238 15.7761 21.2481 15.7594 21.2654 15.7366C21.2827 15.7138 21.292 15.686 21.2918 15.6575C21.2919 15.6394 21.2883 15.6216 21.2813 15.605C21.2742 15.5884 21.2639 15.5733 21.2508 15.5608C21.2377 15.5482 21.2222 15.5384 21.2052 15.5319C21.1882 15.5254 21.17 15.5223 21.1518 15.5229H21.1238C20.8561 15.5404 20.5909 15.4629 20.376 15.3043C20.1612 15.1457 20.0109 14.9166 19.9522 14.6582L19.6 13.0276H27.3884C27.6684 13.0276 28 12.7004 28 12.424V0.603636C28 0.327273 27.6684 0 27.3884 0H9.41095C9.13095 0 8.79937 0.327273 8.79937 0.603636L8.80674 5.92218H9.59958V0.789818H27.1991V10.6596H17.2001V14.608H18.7998V15.0029C18.7843 15.6109 17.6002 15.792 17.6002 15.792H21.1798V15.7913ZM18.7799 12.1709C18.7681 12.1949 18.7563 12.2182 18.7438 12.2385C18.732 12.2582 18.7158 12.2778 18.704 12.2938C18.6956 12.3061 18.6848 12.3168 18.6723 12.3251C18.6585 12.3357 18.6437 12.345 18.6281 12.3527C18.6148 12.3607 18.5995 12.3648 18.5839 12.3644C18.5716 12.3634 18.5595 12.361 18.5478 12.3571L18.5036 12.3447C18.488 12.3418 18.4731 12.3364 18.4594 12.3287C18.4446 12.3251 18.4321 12.3251 18.4203 12.3251C18.4078 12.3251 18.3923 12.3251 18.3761 12.3324C18.3599 12.3367 18.3437 12.3411 18.3282 12.3491C18.312 12.3527 18.2958 12.3564 18.284 12.3644C18.2722 12.3687 18.2597 12.3724 18.2523 12.3724C18.2398 12.3724 18.228 12.3687 18.2155 12.3651C18.2037 12.3607 18.1919 12.3527 18.1801 12.3447C18.1683 12.3375 18.1558 12.3215 18.1403 12.3055C18.1241 12.2895 18.1123 12.2698 18.0917 12.2458C18.0762 12.2225 18.0637 12.1985 18.0475 12.1709C18.0226 12.1155 18.0052 12.057 17.9959 11.9971C17.9922 11.9658 17.9885 11.9382 17.9885 11.9105C17.9885 11.8669 17.9959 11.8276 18.0077 11.792C18.0203 11.7581 18.0379 11.7262 18.06 11.6975C18.082 11.671 18.1093 11.6495 18.1403 11.6342C18.1711 11.6185 18.2052 11.6102 18.2398 11.6102C18.2678 11.6102 18.2958 11.6182 18.3319 11.6342C18.3545 11.646 18.3789 11.6541 18.4041 11.6582C18.4078 11.6582 18.4159 11.6538 18.4277 11.6502C18.4402 11.6458 18.4601 11.6378 18.4837 11.6305C18.508 11.6225 18.5242 11.6182 18.5397 11.6145C18.5559 11.6102 18.5677 11.6102 18.5839 11.6102C18.6237 11.6102 18.6598 11.6182 18.6959 11.6378C18.7301 11.6554 18.7591 11.6814 18.7799 11.7135C18.7462 11.7348 18.7176 11.7631 18.6959 11.7964C18.6792 11.8308 18.6712 11.8687 18.6723 11.9069C18.6723 11.9505 18.6841 11.9898 18.7077 12.0291C18.7323 12.0657 18.7671 12.0945 18.8079 12.112C18.7955 12.1301 18.7861 12.1499 18.7799 12.1709ZM18.3997 11.5709C18.3997 11.5476 18.4041 11.5236 18.4159 11.496C18.4277 11.472 18.4402 11.4487 18.4601 11.4291C18.4779 11.4091 18.4997 11.393 18.5242 11.3818C18.5477 11.3696 18.5736 11.3626 18.6001 11.3615V11.3855C18.6001 11.4095 18.5957 11.4364 18.5839 11.4647C18.5721 11.488 18.5603 11.512 18.5397 11.5316C18.5235 11.5515 18.5032 11.5676 18.48 11.5789C18.4594 11.5908 18.4361 11.5975 18.4122 11.5985C18.4041 11.5985 18.396 11.5985 18.396 11.5949C18.3997 11.5825 18.3997 11.5753 18.3997 11.5709Z" fill="white"/>
</svg>
