<svg width="17" height="16" viewBox="0 0 17 16" fill="none" xmlns="http://www.w3.org/2000/svg">
<g clip-path="url(#clip0_1088_3)">
<path fill-rule="evenodd" clip-rule="evenodd" d="M7.79045 13.5949H6.0253C5.90645 13.5949 5.81011 13.6913 5.81011 13.8101C5.81011 13.8578 5.8256 13.9018 5.85183 13.9375C5.891 13.9908 5.95411 14.0253 6.0253 14.0253H8.17719C8.29604 14.0253 8.39238 13.929 8.39238 13.8101C8.39238 13.6913 8.29604 13.5949 8.17719 13.5949H7.79045ZM6.03691 0.9335H7.66698C7.80059 0.9335 7.90893 1.03544 7.90893 1.16122C7.90893 1.287 7.80062 1.38894 7.66698 1.38894H6.03691C5.90326 1.38894 5.79496 1.287 5.79496 1.16122C5.79496 1.03544 5.90326 0.9335 6.03691 0.9335ZM14.8536 7.78825V8.44675C14.8536 8.59128 14.7111 8.70172 14.5573 8.66844V10.3444C14.7112 10.3112 14.8535 10.4217 14.8535 10.5662V11.2247C14.8535 11.3738 14.7026 11.4848 14.5465 11.4438C14.4922 11.8727 14.2285 12.2419 13.8543 12.4577C13.6327 12.6414 13.0654 13.3206 13.0654 15.456C13.0654 15.756 12.8033 16 12.4812 16H10.337C10.0149 16 9.7528 15.756 9.7528 15.456C9.7528 15.2362 9.74666 15.0322 9.73564 14.8422H3.14714C2.5955 14.8422 2.14673 14.4198 2.14673 13.9006V0.941563C2.14673 0.422375 2.59554 0 3.14714 0H10.6735C11.2251 0 11.6739 0.422406 11.6739 0.941563V3.01647H12.4812C12.8033 3.01647 13.0654 3.2605 13.0654 3.56044C13.0654 5.65722 13.6124 6.34997 13.842 6.54831C14.2227 6.76306 14.4917 7.13556 14.5466 7.56913C14.7023 7.52825 14.8536 7.63875 14.8536 7.78825ZM3.14714 0.455438C2.86232 0.455438 2.6306 0.6735 2.6306 0.941563V12.7394H9.20452C9.11152 12.5964 9.02562 12.5092 8.96506 12.4588C8.54281 12.216 8.26032 11.7782 8.26032 11.2794V7.7335C8.26032 7.23009 8.54816 6.78891 8.97694 6.54763C9.20704 6.34838 9.75277 5.65484 9.75277 3.56044C9.75277 3.2605 10.0148 3.01647 10.337 3.01647H11.19V0.941563C11.19 0.673531 10.9582 0.455438 10.6734 0.455438H3.14714ZM13.0901 12.2049C13.6285 12.2049 14.0734 11.7927 14.0734 11.2794V7.7335C14.0734 7.22175 13.6301 6.80806 13.0901 6.80806H9.72747C9.19014 6.80806 8.74419 7.21962 8.74419 7.7335V11.2794C8.74419 11.5688 8.88603 11.8273 9.10763 11.9972C9.14412 12.0152 9.19549 12.0448 9.25641 12.0915C9.4968 12.2155 9.60471 12.2144 10.4734 12.205C10.9999 12.1993 11.8058 12.1906 13.0901 12.2049Z" fill="white"/>
</g>
<defs>
<clipPath id="clip0_1088_3">
<rect width="17" height="16" fill="white"/>
</clipPath>
</defs>
</svg>
