<svg width="20" height="18" viewBox="0 0 20 18" fill="none" xmlns="http://www.w3.org/2000/svg">
<path d="M0 6.45694V6.23038C0 3.49991 1.97344 1.171 4.66406 0.722565C6.41016 0.426081 8.25781 1.00655 9.53125 2.28194L10 2.74991L10.4336 2.28194C11.7422 1.00655 13.5547 0.426081 15.3359 0.722565C18.0273 1.171 20 3.49991 20 6.23038V6.45694C20 8.07803 19.3281 9.62882 18.1406 10.7343L11.082 17.3241C10.7891 17.5976 10.4023 17.7499 10 17.7499C9.59766 17.7499 9.21094 17.5976 8.91797 17.3241L1.85898 10.7343C0.673047 9.62882 1.17188e-05 8.07803 1.17188e-05 6.45694H0Z" fill="#00C27E"/>
</svg>
