<svg xmlns="http://www.w3.org/2000/svg" width="53" height="52" viewBox="0 0 53 52">
    <g fill="none" fill-rule="evenodd">
        <path fill="#02CA95" d="M26.353 49.184l-4.764 2.729-3.457-4.266-5.428.824-1.682-5.227-5.36-1.192.32-5.481-4.566-3.049 2.277-4.995-3.157-4.492 3.929-3.836-1.321-5.329 5.049-2.157.693-5.446 5.487-.188 2.614-4.828 5.184 1.807L26.353.5l4.181 3.558L35.72 2.25l2.614 4.828 5.487.188.693 5.446 5.049 2.157-1.321 5.33 3.928 3.835-3.156 4.492 2.277 4.995-4.566 3.049.319 5.48-5.359 1.193-1.682 5.227-5.428-.824-3.457 4.266z"/>
        <text fill="#FDFDFD" font-family="Raleway-Bold, Raleway" font-size="14" font-weight="bold">
            <tspan x="12.202" y="31">NEU</tspan>
        </text>
    </g>
</svg>
