<svg xmlns="http://www.w3.org/2000/svg" width="23" height="46" viewBox="0 0 23 46">
    <g fill="#00C27E" fill-rule="evenodd">
        <path fill-rule="nonzero" d="M19.077 0H3.421C1.541 0 .018 1.544.018 3.424v39.131C.018 44.446 1.541 46 3.421 46h15.667c1.88 0 3.423-1.554 3.423-3.445V3.425C22.501 1.543 20.958 0 19.077 0zm-9.35 2.556h3.065v.51H9.727v-.51zm1.532 42.677a1.784 1.784 0 0 1-1.788-1.789 1.79 1.79 0 0 1 1.788-1.788 1.79 1.79 0 0 1 1.789 1.788c0 .992-.797 1.79-1.789 1.79zm10.22-4.344H1.04V5.11h20.439V40.89zm-10.22 3.578c-.562 0-1.021-.46-1.021-1.023 0-.562.46-1.022 1.021-1.022.563 0 1.022.46 1.022 1.022 0 .563-.46 1.023-1.022 1.023z"/>
        <path d="M5.133 4.149l11.774 13.229L6.11 3.067zM.022 4.664L17.4 24.189 1.462 3.067z"/>
        <path d="M11.714 17.05l-5.18 5.685 5.691-5.314zM8.45 14.077L.358 22.963l8.893-8.305zM.022 30.208L6.156 37.1.53 29.644z"/>
    </g>
</svg>
