<svg xmlns="http://www.w3.org/2000/svg" width="57" height="62" viewBox="0 0 57 62">
    <g fill="#00C27E" fill-rule="evenodd">
        <path fill-rule="nonzero" d="M36.225 16.262H20.658c-1.87 0-3.383 1.535-3.383 3.405v38.908c0 1.88 1.514 3.425 3.383 3.425h15.577c1.87 0 3.404-1.545 3.404-3.425V19.667c-.01-1.87-1.544-3.405-3.414-3.405zm-9.297 2.541h3.048v.508h-3.048v-.508zm1.524 42.435a1.774 1.774 0 0 1-1.778-1.779 1.78 1.78 0 0 1 1.778-1.779 1.78 1.78 0 0 1 1.778 1.779c0 .986-.792 1.779-1.778 1.779zm10.161-4.32H18.291V21.344h20.322v35.574zm-10.161 3.557a1.02 1.02 0 0 1-1.016-1.016 1.02 1.02 0 0 1 1.016-1.016 1.02 1.02 0 0 1 1.016 1.016 1.02 1.02 0 0 1-1.016 1.016z"/>
        <path d="M28.459 0c.439 0 .794.356.794.794v10.328a.794.794 0 0 1-1.588 0V.794c0-.438.355-.794.794-.794zm14.83 4.358a.794.794 0 0 1 .233 1.1l-2.163 3.33a.794.794 0 0 1-1.333-.865l2.164-3.331a.794.794 0 0 1 1.098-.234zm12.973 13.48a.794.794 0 0 1-.384 1.055l-9.36 4.365a.794.794 0 1 1-.672-1.44l9.36-4.365a.794.794 0 0 1 1.056.385zm-.672 15.846a.794.794 0 0 1-.897.676l-3.934-.552a.794.794 0 0 1 .221-1.574l3.934.553a.794.794 0 0 1 .676.897zm-7.319 9.704a.794.794 0 0 1-1.12.078l-1.2-1.042a.794.794 0 0 1 1.042-1.2l1.2 1.043c.33.288.366.79.078 1.12zm-39.624 0a.794.794 0 0 1 .078-1.121l1.2-1.043a.794.794 0 0 1 1.042 1.2l-1.2 1.042a.794.794 0 0 1-1.12-.078zm-7.32-9.704a.794.794 0 0 1 .677-.897l3.934-.553a.794.794 0 1 1 .22 1.574l-3.933.552a.794.794 0 0 1-.897-.676zm-.67-15.846a.794.794 0 0 1 1.055-.385l9.36 4.365a.794.794 0 1 1-.671 1.44l-9.36-4.365a.794.794 0 0 1-.385-1.055zM13.63 4.358a.794.794 0 0 1 1.099.234l2.163 3.331a.794.794 0 0 1-1.333.866l-2.163-3.332a.794.794 0 0 1 .234-1.099z"/>
    </g>
</svg>
