<svg xmlns="http://www.w3.org/2000/svg" width="16" height="25" viewBox="0 0 16 25">
    <g fill="#2C3E50" fill-rule="evenodd">
        <path d="M4.283 6.492H.636l.005 8.091 11.813 8.13c1.956-1.662 2.811-4.143 2.811-5.373v-3.363L4.283 6.492zm11.61 10.975c-.208 2.776-2.042 5.507-4.67 6.66-2.461 1.206-5.88.804-7.996-.87C1.271 21.724.187 19.616.05 17.225L.053 5.91H15.88l.012 11.557zM5.343 6.492l9.922 6.747V6.492H5.342zM.64 15.342v1.563c.106 2.731 1.617 5.5 4.201 6.648 2.107 1.103 5.156.846 7.063-.483L.64 15.343z"/>
        <path d="M5.24 9.645a.21.21 0 0 0 .21-.21.21.21 0 0 0-.21-.21.21.21 0 0 0-.208.21c0 .116.093.21.208.21zm-.31-.688a.28.28 0 0 1 .148-.205l.167.02.807.444.073.11c.045-.151.036-.344.22-.426.163-.058.4-.062.53.073.118.123.187.292.13.464-.037.094-.143.18-.22.238.554.147 1.027.504 1.54.758.143.086.172.247.127.386l-.074.094c.062.07.18.082.257.148l4.255 2.895c.664.353.595 1.07.717 1.682a2.388 2.388 0 0 1-.607-.11c.014.067.024.135.036.2l.33 3.285c-.036.34-.322.574-.513.85l-.66.831-1.41-.922c.248-.312.57-.612.99-.59.212-.017.424.024.603.036-.224-.082-.477-.18-.603-.426-.424-.784-1.002-1.505-1.304-2.342-.139-.48-.025-.933.2-1.335-.037-.012-.068.004-.127-.014-.436-.062-.868-.177-1.3-.185l.97.574c-.204.722.082 1.423.46 1.993l-.57 1.366c-.085.176-.318.127-.476.11l-1.3-.184c-.041-.566.06-1.12.052-1.698.465.127.901.472 1.174.903v-.074l-1.227-1.993c-.216-.398-.04-.827.205-1.15 0 0-.275.01-.412-.083-.145.156-1.516 2.028-1.516 2.028-.114.095-.306.053-.44.037L4.82 16.54l.073-1.698c.453.123.909.468 1.137.886-.13-.923.016-1.944-.053-2.916-.081-.266-.187-.525-.403-.738L3.317 10.47v-.537c.326.21.64.656 1.047.443.143-.123.172-.316.127-.496l-.074-.131-1.08-.755c-.073-.328.078-.746-.13-1.017.583.303 1.153.648 1.724.98zm-2.64-.722a.485.485 0 0 0-.126.427c.028.172.191.311.33.422l1.687 1.165v-.185c-.452-.365-.925-.668-1.377-1.033-.172-.107-.188-.28-.22-.443.024-.197.114-.402.313-.5-.203-.004-.448-.009-.607.147zm.147 2.4c.11.18.212.377.367.516l.167-.148c-.119-.233-.367-.217-.534-.369zm-.294.241l.35.517c.078-.02.131-.098.2-.148-.114-.217-.358-.266-.55-.369zm-.256.238l.35.517.183-.185c-.126-.197-.35-.238-.533-.332zm1.267.11c-.436.333-.86.706-1.284 1.055.273.439.587.861.88 1.292.09.164.27.275.44.332.832.164 1.708.27 2.532.406-.058-.73.22-1.612-.424-2.104l-1.814.422c-.077.03-.155.103-.22.095.139-.361.204-.824.053-1.202l-.163-.295zm-1.56.112c.13.172.227.373.386.517l.163-.148c-.114-.213-.358-.267-.55-.37zm-.237.242l.33.496c.073-.033.159-.082.2-.164-.143-.201-.339-.258-.53-.332zm3.264 3.248c-.236-.013-.424.078-.623.147.2.041.411.066.623.09v-.237zm-.623.533c.216-.008.415.094.623.057-.008-.082.013-.172-.02-.241-.237-.021-.428.102-.603.184zm.586.168c-.236-.02-.415.094-.607.185l.607.09v-.275zm0 .37c-.248-.042-.423.09-.623.163.204.033.42.094.623.074v-.238zm-.02.348c-.245-.05-.415.078-.603.168.188.053.424.049.603.074v-.242zm2.934.98c.196.053.44.05.624.074-.009-.082.016-.173-.016-.242-.229-.008-.465.102-.608.168zm.608.184c-.245-.02-.429.095-.624.185.204.033.42.09.624.074v-.259zm-.645.534c.208.028.416.106.624.073-.004-.078.016-.168-.016-.237-.253-.062-.404.11-.608.164zm.587.184c-.244-.024-.42.11-.623.185l.644.074-.02-.259zm0 .353c-.24-.017-.448.086-.623.184l.623.074v-.258zm2.568 1.514c-.139.167-.11.463-.163.606.118-.16.269-.311.383-.48-.065-.057-.143-.09-.22-.126zm.293.184c-.134.172-.126.463-.147.628.135-.136.212-.292.351-.427.049-.107-.134-.14-.204-.201zm.314.2c-.167.165-.139.41-.167.628l.387-.48c-.077-.049-.142-.115-.22-.147zm.293.206c-.167.164-.138.406-.167.627l.387-.5c-.069-.058-.146-.09-.22-.127zm.294.184c-.13.177-.16.398-.167.628.122-.168.265-.324.367-.5-.066-.041-.127-.103-.2-.128zM15.589 0h-2.443v3.462h-1.61V0H8.764v3.462h-1.61V0H4.382v3.462h-1.61V0H0v4.064h.58V.584h1.611v3.462h2.772V.584h1.61v3.462h2.772V.584h1.61v3.462h2.772V.584h1.572V4.07h.58V0h-.29"/>
    </g>
</svg>
