<svg width="15" height="23" viewBox="0 0 15 23" fill="none" xmlns="http://www.w3.org/2000/svg">
<path fill-rule="evenodd" clip-rule="evenodd" d="M4.11475 6.03146H0.693812L0.699437 13.4283L11.7732 20.86C13.6069 19.342 14.4094 17.0733 14.4094 15.9481V12.8744L4.11475 6.03146ZM14.9991 16.0641C14.8041 18.6033 13.0847 21.0992 10.621 22.1526C8.31287 23.2557 5.1085 22.8886 3.12475 21.3577C1.291 19.9566 0.274749 18.0292 0.145374 15.8433L0.149124 5.49878H14.9869L14.9991 16.0641ZM5.1085 6.03146L14.4104 12.1991V6.03146H5.1085ZM0.697562 14.1229V15.5507C0.796937 18.0476 2.21444 20.5785 4.63694 21.6282C6.61225 22.6365 9.47069 22.4019 11.2585 21.1866L0.698499 14.1229H0.697562Z" fill="#888888"/>
<path fill-rule="evenodd" clip-rule="evenodd" d="M5.01281 8.91476C5.0649 8.91476 5.11486 8.89445 5.15169 8.85831C5.18853 8.82216 5.20922 8.77314 5.20922 8.72202C5.20922 8.6709 5.18853 8.62188 5.15169 8.58573C5.11486 8.54958 5.0649 8.52928 5.01281 8.52928C4.96085 8.52928 4.91101 8.54954 4.87427 8.5856C4.83752 8.62165 4.81688 8.67056 4.81688 8.72156C4.81688 8.77255 4.83752 8.82146 4.87427 8.85752C4.91101 8.89358 4.96085 8.91384 5.01281 8.91384V8.91476ZM4.72219 8.28548C4.72852 8.24577 4.74429 8.20808 4.76824 8.17547C4.79218 8.14287 4.82362 8.11625 4.86 8.0978L5.01656 8.1162L5.77313 8.521L5.84156 8.6222C5.88375 8.4842 5.87625 8.30756 6.04781 8.23304C6.20156 8.1806 6.42281 8.176 6.54469 8.3002C6.65625 8.41244 6.72094 8.56608 6.66656 8.7234C6.63281 8.80988 6.53344 8.889 6.46031 8.94052C6.98063 9.07576 7.42406 9.40236 7.905 9.63512C8.03906 9.71332 8.06531 9.8596 8.02313 9.98656L7.95469 10.073C8.01188 10.1374 8.12344 10.1485 8.19563 10.2083L12.1838 12.8551C12.8063 13.1771 12.7416 13.834 12.8559 14.3924C12.6626 14.3828 12.4713 14.3488 12.2869 14.2912C12.3009 14.3529 12.3103 14.4154 12.3216 14.4752L12.6309 17.4781C12.5963 17.7891 12.3291 18.0025 12.15 18.2546L11.5313 19.0154L10.2094 18.1718C10.4419 17.8866 10.7438 17.6124 11.1375 17.6318C11.3363 17.617 11.535 17.6548 11.7028 17.6649C11.4928 17.5913 11.2556 17.5002 11.1375 17.2757C10.74 16.559 10.1972 15.8994 9.915 15.1349C9.78469 14.696 9.89156 14.282 10.1025 13.914C10.0678 13.903 10.0388 13.9186 9.98344 13.9012C9.57469 13.845 9.16969 13.7402 8.76469 13.7328L9.67406 14.2572C9.48281 14.9178 9.75 15.5581 10.1053 16.0788L9.57094 17.3282C9.49031 17.4892 9.27281 17.4441 9.12375 17.4294L7.905 17.261C7.8675 16.743 7.96219 16.237 7.95469 15.709C8.39063 15.8249 8.79844 16.1395 9.05532 16.5333V16.4661L7.905 14.6445C7.7025 14.2802 7.8675 13.8883 8.09719 13.592C8.09719 13.592 7.83938 13.6022 7.71 13.5166C7.575 13.6592 6.28875 15.3713 6.28875 15.3713C6.18188 15.4569 6.00281 15.4201 5.87625 15.4044L4.62 15.2168L4.6875 13.6647C5.11125 13.777 5.53875 14.0925 5.75344 14.4743C5.63156 13.6316 5.76844 12.6978 5.70375 11.8091C5.62688 11.5662 5.5275 11.3288 5.32594 11.1347L3.20906 9.66824V9.17696C3.51469 9.36832 3.80906 9.7768 4.19063 9.58176C4.32469 9.46952 4.35094 9.2938 4.30875 9.12912L4.24031 9.0086L3.22781 8.3186C3.15938 8.01868 3.3 7.63596 3.10594 7.3894C3.6525 7.6654 4.18688 7.98096 4.72125 8.28548H4.72219ZM2.24719 7.62492C2.1969 7.67579 2.15983 7.73779 2.13911 7.80569C2.11838 7.87358 2.11462 7.94537 2.12813 8.015C2.15531 8.17232 2.30813 8.3002 2.4375 8.4014L4.02 9.46584V9.29748C3.59531 8.96352 3.15281 8.6866 2.72813 8.35264C2.56781 8.25512 2.55281 8.0978 2.52188 7.94784C2.54531 7.76752 2.62875 7.57984 2.81625 7.4906C2.625 7.48692 2.39625 7.48232 2.24719 7.62492ZM2.38406 9.8182C2.48719 9.9838 2.58281 10.1632 2.72813 10.2911L2.88469 10.1558C2.77406 9.9424 2.54156 9.95712 2.38406 9.8182ZM2.10938 10.039L2.4375 10.5119C2.51063 10.4935 2.55938 10.4217 2.625 10.3766C2.51813 10.1779 2.28938 10.1338 2.10938 10.039ZM1.86844 10.257L2.19656 10.729L2.36906 10.5606C2.25094 10.3803 2.04094 10.3435 1.86844 10.257ZM3.05719 10.3582C2.64844 10.6618 2.25094 11.0032 1.85344 11.3224C2.10938 11.7226 2.40375 12.109 2.67844 12.5028C2.76281 12.6527 2.93156 12.7539 3.09094 12.8064C3.87094 12.9563 4.69219 13.0548 5.46375 13.178C5.41031 12.5101 5.67 11.7042 5.06625 11.2552L3.36656 11.6407C3.29344 11.6665 3.22125 11.7346 3.16031 11.7263C3.28969 11.3969 3.35156 10.9728 3.21 10.6287L3.05719 10.3582ZM1.59375 10.4594C1.71563 10.6168 1.8075 10.7998 1.95656 10.9323L2.10938 10.7971C2.0025 10.602 1.77281 10.5533 1.59375 10.4594ZM1.37156 10.6802L1.68094 11.1347C1.75031 11.1044 1.83094 11.0593 1.86844 10.9848C1.73531 10.8008 1.55156 10.7483 1.37156 10.6812V10.6802ZM4.4325 13.65C4.21125 13.639 4.035 13.7218 3.8475 13.7852C4.035 13.822 4.23375 13.845 4.4325 13.868V13.65ZM3.8475 14.1376C4.05 14.1302 4.2375 14.2232 4.4325 14.19C4.425 14.1146 4.44375 14.0327 4.41375 13.9692C4.19156 13.9508 4.01156 14.0622 3.8475 14.1376ZM4.39781 14.2912C4.17656 14.2728 4.00781 14.3777 3.82875 14.4596L4.39781 14.5424V14.2912ZM4.39781 14.6289C4.16531 14.5921 4.00031 14.7117 3.81281 14.7779C4.00406 14.8083 4.20656 14.8644 4.39781 14.846V14.628V14.6289ZM4.37906 14.9472C4.14938 14.9021 3.98906 15.018 3.81281 15.1008C3.98906 15.1496 4.21125 15.1459 4.37906 15.1689V14.9481V14.9472ZM7.12969 15.8433C7.31344 15.892 7.54219 15.8893 7.71375 15.9104C7.70625 15.8368 7.72969 15.754 7.69875 15.6896C7.485 15.6823 7.26281 15.7835 7.12969 15.8433ZM7.69875 16.0116C7.47 15.9932 7.2975 16.0981 7.11469 16.1809C7.305 16.2113 7.50844 16.2637 7.69875 16.2481V16.0116ZM7.095 16.4992C7.29 16.5259 7.485 16.5968 7.68 16.5673C7.67625 16.4956 7.695 16.4137 7.665 16.3502C7.42781 16.2932 7.28625 16.4514 7.095 16.4992ZM7.64531 16.6685C7.41656 16.6464 7.25156 16.7697 7.06125 16.8369L7.665 16.905L7.64625 16.6685H7.64531ZM7.64531 16.9905C7.42031 16.9758 7.22531 17.0696 7.06125 17.1598L7.64531 17.227V16.9905ZM10.0519 18.3742C9.9225 18.5278 9.94875 18.7974 9.9 18.929C10.0097 18.7827 10.1513 18.6438 10.2581 18.4901C10.1972 18.4377 10.125 18.4073 10.0519 18.3742ZM10.3275 18.5426C10.2019 18.7008 10.2084 18.9658 10.1897 19.1166C10.3163 18.9924 10.3884 18.8498 10.5178 18.7266C10.5647 18.629 10.3922 18.5987 10.3275 18.5426ZM10.6209 18.7266C10.4653 18.8765 10.4916 19.1019 10.4653 19.3006L10.8281 18.8618C10.755 18.8158 10.6941 18.7569 10.6219 18.7266H10.6209ZM10.8966 18.9142C10.74 19.0642 10.7663 19.285 10.74 19.4874L11.1028 19.0302C11.0372 18.9777 10.965 18.9474 10.8966 18.9142ZM11.1713 19.0826C11.0494 19.2436 11.0231 19.446 11.0147 19.6567C11.13 19.503 11.2631 19.3604 11.3588 19.1985C11.2978 19.1617 11.2406 19.1047 11.1713 19.0826ZM14.715 0.0965576H12.4247V3.26136H10.9153V0.0965576H8.31563V3.26136H6.80625V0.0965576H4.20844V3.26136H2.69906V0.0965576H0.0993767V3.81152H0.643127V0.630158H2.15344V3.79496H4.75125V0.631078H6.2625V3.79588H8.86031V0.631078H10.3697V3.79588H12.9694V0.631078H14.4422V3.81704H14.9859V0.0965576H14.7141" fill="#888888"/>
</svg>
