<svg width="13" height="23" viewBox="0 0 13 23" fill="none" xmlns="http://www.w3.org/2000/svg">
<path d="M8.18991 22.4419L10.1879 20.2729L12.9899 22.3999L11.3369 11.9379H5.04391L3.39091 22.3999L6.19391 20.2729L8.18991 22.4429V22.4439V22.4419ZM11.9999 11.3149C11.9996 11.2086 11.9573 11.1068 11.8822 11.0316C11.807 10.9565 11.7052 10.9141 11.5989 10.9139L11.5889 10.9149H4.77991L4.77191 10.9139C4.66543 10.9139 4.56331 10.9562 4.48801 11.0315C4.41271 11.1068 4.37041 11.2089 4.37041 11.3154C4.37041 11.4219 4.41271 11.524 4.48801 11.5993C4.56331 11.6746 4.66543 11.7169 4.77191 11.7169H4.77391V11.7189H11.5999V11.7169C11.8199 11.7169 11.9999 11.5369 11.9999 11.3149ZM11.6219 8.69988C11.6219 8.47788 11.4599 8.29888 11.2599 8.29888H5.10991C4.90991 8.29888 4.74791 8.47888 4.74791 8.69888C4.74791 8.92088 4.90991 9.10088 5.10991 9.10088V9.10288H11.2619V9.09988C11.4619 9.09988 11.6229 8.91988 11.6229 8.69988H11.6219ZM11.9749 9.34988H4.41191C4.23661 9.34988 4.06848 9.41952 3.94452 9.54348C3.82055 9.66744 3.75091 9.83557 3.75091 10.0109C3.75091 10.1862 3.82055 10.3543 3.94452 10.4783C4.06848 10.6022 4.23661 10.6719 4.41191 10.6719H11.9749C12.1502 10.6719 12.3183 10.6022 12.4423 10.4783C12.5663 10.3543 12.6359 10.1862 12.6359 10.0109C12.6359 9.83557 12.5663 9.66744 12.4423 9.54348C12.3183 9.41952 12.1502 9.34988 11.9749 9.34988ZM2.88491 4.80088C3.04491 4.03488 4.08691 3.75088 4.73891 4.81488C4.99391 5.23188 5.15591 7.54388 2.45391 7.46288C0.813913 7.41288 -0.356087 5.44688 0.114913 3.33588C0.587913 1.21588 2.72291 -0.0301209 4.57791 0.0158791C7.81791 0.0978791 9.47091 2.58588 9.94191 3.98188C10.3719 5.25888 10.6249 6.97188 10.6139 8.05788H5.76191C6.10091 6.08788 5.89591 5.28488 5.89591 5.28488C5.89591 5.28488 5.42391 3.28288 4.01391 3.28288C2.60391 3.28288 2.30691 4.53288 2.30691 4.53288C2.30691 4.53288 2.15191 5.51088 2.85691 5.66188C3.04691 5.70188 3.41591 5.67388 3.41591 5.20388C3.41591 4.96988 3.22391 4.75988 2.88491 4.80088Z" fill="#888888"/>
</svg>
