<svg xmlns="http://www.w3.org/2000/svg" width="13" height="23" viewBox="0 0 13 23">
    <g fill="none" fill-rule="nonzero">
        <path fill="#2C3E50" d="M8.19 22.442l1.998-2.169L12.99 22.4l-1.653-10.462H5.044L3.391 22.4l2.803-2.127 1.996 2.17v.001z"/>
        <path fill="#FFF" d="M12 11.315a.402.402 0 0 0-.401-.401l-.01.001H4.78l-.008-.001a.4.4 0 1 0 0 .803h.002v.002H11.6v-.002c.22 0 .4-.18.4-.402"/>
        <path fill="#2C3E50" d="M11.622 8.7c0-.222-.162-.401-.362-.401H5.11c-.2 0-.362.18-.362.4 0 .222.162.402.362.402v.002h6.152V9.1c.2 0 .361-.18.361-.4M11.975 9.35H4.412a.661.661 0 0 0 0 1.322h7.563a.66.66 0 0 0 0-1.322M2.885 4.801c.16-.766 1.202-1.05 1.854.014.255.417.417 2.729-2.285 2.648-1.64-.05-2.81-2.016-2.339-4.127C.588 1.216 2.723-.03 4.578.016c3.24.082 4.893 2.57 5.364 3.966.43 1.277.683 2.99.672 4.076H5.762c.339-1.97.134-2.773.134-2.773s-.472-2.002-1.882-2.002-1.707 1.25-1.707 1.25-.155.978.55 1.129c.19.04.559.012.559-.458 0-.234-.192-.444-.531-.403"/>
    </g>
</svg>
