<svg xmlns="http://www.w3.org/2000/svg" width="9" height="16" viewBox="0 0 9 16">
    <g fill="none" fill-rule="nonzero">
        <path fill="#B8D4CB" d="M5.67 15.537l1.383-1.502 1.94 1.473L7.85 8.265H3.492l-1.144 7.243 1.94-1.473 1.382 1.502v.001zM8.308 7.834a.278.278 0 0 0-.278-.278H3.303a.277.277 0 1 0 0 .556h.001v.001h4.727v-.001a.278.278 0 0 0 .277-.278"/>
        <path fill="#FFF" d="M8.046 6.022c0-.153-.112-.277-.25-.277H3.537c-.139 0-.25.124-.25.277 0 .154.111.279.25.279v.001h4.26V6.3c.137 0 .25-.124.25-.278"/>
        <path fill="#B8D4CB" d="M8.29 6.473H3.055a.458.458 0 0 0 .001.915h5.236a.457.457 0 0 0 0-.915M1.997 3.324c.112-.53.832-.728 1.284.01.177.288.289 1.888-1.582 1.833C.564 5.133-.246 3.77.08 2.309.408.842 1.886-.02 3.17.012 5.412.068 6.557 1.79 6.883 2.757c.297.884.473 2.07.465 2.821H3.99c.235-1.363.093-1.919.093-1.919s-.327-1.386-1.303-1.386c-.977 0-1.182.865-1.182.865s-.107.678.381.782c.131.028.387.008.387-.317 0-.162-.133-.307-.368-.279"/>
    </g>
</svg>
