<svg xmlns="http://www.w3.org/2000/svg" width="16" height="12" viewBox="0 0 16 12">
    <path fill="#B8D4CB" fill-rule="nonzero" d="M15 6.01l-.25-.963c-.096-.37.03-.734.348-.764.253-.024.457.244.457.48 0 .476-.274.86-.38 1.015-.028.039-.093.124-.175.233zm-.069 4.204c.01.035.01.078.01.091 0 .163-.123.288-.308.288-.181 0-.283-.166-.283-.288 0-.162.124-.305.3-.3h.017l-.167-.258-.048-.078-.472-.74-.098-.153-.307-.482s-.054-.087-.08-.168c-.006-.016-.009-.029-.011-.04a.462.462 0 0 1-.01-.09.403.403 0 0 1 .607-.35l-.05-.112-1.17-2.545.586-.436 1.484 5.661zm-2.765-.21l-.049.07-.169.238s-.126.167-.178.21a.294.294 0 1 1-.203-.507c.106.001.188.04.24.103l.02.03.097-.276.01-.032c.26-.737.894-2.54.923-2.614.034-.092.12-.246.308-.284.12-.026.185-.003.217.015l.193.418c-.283 0-.517.235-.517.587 0 .15.082.325.196.507l-1.088 1.535zM12.3 4.96l-.3.222-.487.362a.33.33 0 0 1-.26.046c-.135-.04-.256-.179-.26-.3-.004-.17.099-.334.321-.33a.361.361 0 0 1 .233.092l.3-.22.127-.095 1.26-.932-.093-.4-.656.495a1.748 1.748 0 0 1 .164-1.188 1.93 1.93 0 0 1 .783-.774c.082-.042.161-.075.232-.1.136.005.28.008.398.006.346-.008.472-.22.506-.356a3.18 3.18 0 0 0 .066-.566c.004-.093.005-.216.004-.34.46.144.88.618.922 1.146A1.355 1.355 0 0 1 15 2.953l-2.7 2.006zM4.533 3.412l.115 1.163a.657.657 0 0 0-.184.04l-.56-.423 1.204-2.587.111 1.327h5.562l.111-1.327 1.204 2.587-.56.422a.653.653 0 0 0-.183-.039l.114-1.163H4.533zm6.376 1.253a.704.704 0 0 0-.09 1.093l-.025.314-.058.702-.116 1.402a2.566 2.566 0 0 1-.118.619L5.308 3.8h5.673l-.072.864zm-5.254 4.51a3.63 3.63 0 0 1-.124-.35h4.38l.364.35h-4.62zm4.136.744H6.14a2.158 2.158 0 0 1-.282-.35h4.237a2.968 2.968 0 0 1-.305.35zm-1.77.786c-.443 0-.92-.089-1.411-.392h2.758c-.342.234-.901.392-1.347.392zm-2.65-2.623H9.14l.363.35H5.434a6.2 6.2 0 0 1-.063-.35zm-.09-.742h3.087l.362.348H5.317a8.857 8.857 0 0 1-.035-.348zm-.055-.742h2.37l.362.348H5.252a31.81 31.81 0 0 0-.026-.348zm-.053-.745h1.65l.364.35H5.198a38.179 38.179 0 0 0-.025-.35zm.229-.743h.65l.363.348H5.39a.639.639 0 0 0 .032-.194.643.643 0 0 0-.02-.154zm-.312-.425c-.046-.319-.075-.638-.075-.638l.627.669h-.514c-.012-.01-.024-.023-.038-.03zm-.344.904a.33.33 0 0 1-.26-.046l-.487-.362-.3-.222L1 2.953A1.353 1.353 0 0 1 .44 1.727C.481 1.199.902.725 1.36.58c0 .124 0 .247.005.34.012.275.046.48.067.566.033.136.16.348.506.356.119.002.262-.001.398-.006.07.025.15.058.232.1.448.23.69.607.783.774.227.433.235.866.162 1.188l-.654-.495-.095.4 1.262.932.128.094.299.221a.346.346 0 0 1 .228-.09c.226-.006.331.158.326.327-.004.122-.125.262-.26.301zM1.97 7.534l-.05.112a.403.403 0 0 1 .603.42c-.002.005-.004.011-.005.02-.003.011-.005.024-.01.035-.027.086-.081.173-.081.173l-.307.482-.099.153-.472.74-.048.078-.167.258h.018c.174-.005.299.138.299.3 0 .122-.102.288-.282.288-.185 0-.308-.125-.308-.288 0-.013-.001-.056.009-.09l1.485-5.662.585.436-1.17 2.545zm.867-.592c.188.038.272.192.308.284.029.074.662 1.877.922 2.614l.01.032.099.277.019-.03a.297.297 0 0 1 .24-.103.294.294 0 1 1-.204.507c-.052-.044-.177-.21-.177-.21l-.17-.24-.049-.069L2.747 8.47c.113-.182.197-.358.197-.507 0-.352-.235-.587-.519-.587l.194-.418c.031-.018.097-.04.217-.015zM4.35 1.59a.303.303 0 0 1-.147-.26c0-.152.142-.302.296-.302a.3.3 0 0 1 .298.302.33.33 0 0 1-.035.145l-.878 1.912a7.824 7.824 0 0 0-.038-.24 1.828 1.828 0 0 0-.108-.369l.612-1.188zM5.671.484l.021.48h.276l-.022-.48h.282l.034.746h-.83L5.385.484h.285zm.62 1.404h-.816l-.025-.387h.823l.019.387zM6.757.484l.016.48h.273L7.03.485h.267l.015.746h-.775L6.513.484h.243zm.57 1.404H6.56l-.013-.387h.771l.009.387zM7.853.484l.002.48h.296v-.48h.257l-.01.746H7.604l-.01-.746h.258zm.83 1.017h.772l-.013.387h-.768l.01-.387zM8.704.484h.267l-.017.48h.274l.017-.48h.243l-.025.746h-.775l.016-.746zM7.606 1.5H8.394l-.005.387H7.612l-.006-.387zm.346.66h2.557l-.03.477H5.52l-.03-.478h2.461zm1.776-.66h.822l-.024.387H9.71l.019-.387zM9.773.484h.281l-.021.48h.275l.023-.48h.284l-.047.746h-.83l.035-.746zm1.727.545c.155 0 .296.15.296.302a.3.3 0 0 1-.147.26l.613 1.188c-.051.128-.089.255-.11.369l-.037.24-.878-1.912a.33.33 0 0 1-.035-.145.3.3 0 0 1 .298-.302zM1.25 5.047L1 6.011c-.081-.109-.147-.194-.174-.233-.106-.154-.38-.54-.38-1.015 0-.236.203-.504.457-.48.318.03.443.393.347.764zM15.45 7.211a.501.501 0 0 0-.115.019l-.193-.697.099-.126c.293-.382.47-.604.6-.857.204-.389.178-.775.112-1.018-.147-.548-.579-.677-.836-.664-.386.018-.622.232-.72.478a1.214 1.214 0 0 0-.039.731l.338 1.346c-.103.135-.193.277-.255.354l-.64-2.492 1.429-1.053c.82-.602.812-1.57.545-2.093-.255-.5-.617-.754-.93-.868a1.52 1.52 0 0 0-.214-.068l-.005-.087c-.005-.065-.082-.094-.148-.107-.145-.032-.187.03-.187.05l-.004.088c-.35-.038-1.094-.034-1.094-.034v.715l.297.035c.028.001.066.03.066.083 0 .056-.043.087-.084.097a.189.189 0 0 1-.067.012l-.918-.102.112.348c.355.04.635.065.841.076.267.001.459-.192.459-.43a.432.432 0 0 0-.41-.432V.431c.124.003.275.01.44.024a.446.446 0 0 0 .113.205c.07.075.146.134.213.176l-.003.107s.009.177-.007.323c-.016.148-.104.259-.425.27-.306.01-.682-.049-.682-.049l.02.226c-.123.07-.247.17-.405.311a1.741 1.741 0 0 0-.297.372l-.383-.742c.08-.11.129-.244.129-.39 0-.366-.337-.663-.689-.663a.688.688 0 0 0-.558.27l.058-.698H4.99l.057.697A.686.686 0 0 0 4.488.6c-.353 0-.689.298-.689.664a.65.65 0 0 0 .131.39l-.385.742a1.744 1.744 0 0 0-.298-.372 2.362 2.362 0 0 0-.405-.31l.022-.227s-.377.06-.683.05c-.32-.012-.409-.123-.425-.27-.016-.147-.005-.324-.005-.324L1.746.836c.067-.042.143-.1.214-.176a.448.448 0 0 0 .113-.205c.166-.015.315-.02.439-.024v.084a.432.432 0 0 0 .022.863c.233-.012.513-.036.868-.077l.111-.348-.912.102a.194.194 0 0 1-.072-.012c-.04-.01-.083-.041-.083-.097-.001-.053.037-.082.066-.083l.296-.035v-.51l.003-.205S2.064.109 1.714.147L1.709.06c0-.022-.04-.083-.187-.051-.065.013-.141.042-.147.107L1.37.203a1.52 1.52 0 0 0-.214.068c-.314.114-.675.367-.93.868a1.687 1.687 0 0 0 .545 2.093L2.2 4.285l-.64 2.492c-.061-.077-.15-.22-.254-.354l.337-1.346a1.224 1.224 0 0 0-.039-.731c-.099-.246-.332-.46-.72-.478-.257-.013-.689.116-.836.664-.065.243-.093.63.11 1.018.134.253.309.475.603.857l.098.126-.192.697a.512.512 0 0 0-.115-.019.39.39 0 0 0-.408.389.406.406 0 0 0 .752.217c.063-.092.12-.331.187-.562l.09-.31.264.342-.774 2.907c-.103.44.29.818.697.816.363-.005.71-.296.696-.705a.537.537 0 0 0-.203-.425l.664-1.051 1.25 1.768c.098.14.174.204.187.215.126.127.301.206.495.206.348 0 .706-.31.706-.697 0-.385-.305-.711-.707-.639-.007.002-.312-.839-.915-2.522a1.14 1.14 0 0 0-.258-.424c-.128-.121-.314-.12-.388-.116a.68.68 0 0 0-.122.02l.663-1.432.831.626a.696.696 0 0 0 .526.15l.23 2.353c.073.79.457 1.482 1.022 1.97A3.005 3.005 0 0 0 8 11.04a2.987 2.987 0 0 0 2.986-2.703l.23-2.353a.695.695 0 0 0 .525-.15l.83-.626.664 1.432a.658.658 0 0 0-.121-.02c-.074-.004-.26-.005-.389.116a1.13 1.13 0 0 0-.258.424l-.885 2.529c-.432-.08-.736.247-.736.632 0 .386.358.697.706.697a.694.694 0 0 0 .495-.206c.012-.011.088-.074.187-.215l1.251-1.768.663 1.05a.533.533 0 0 0-.204.426c-.014.409.334.7.697.705.407.002.801-.376.696-.816-.007-.034-.609-2.291-.773-2.907l.263-.343.09.311c.068.23.125.47.187.562.072.116.2.19.345.19.226 0 .407-.18.407-.407a.39.39 0 0 0-.407-.389z"/>
</svg>
