<svg xmlns="http://www.w3.org/2000/svg" width="15" height="19" viewBox="0 0 15 19">
    <g fill="none" fill-rule="nonzero">
        <path fill="#B8D4CB" d="M11.333 2H4.667C3.747 2 3 2.815 3 3.818v10.91c0 1.002.748 1.817 1.667 1.817h6.666c.92 0 1.667-.815 1.667-1.818V3.818C13 2.815 12.252 2 11.333 2z"/>
        <path stroke="#F1F1F1" d="M12.313.5H3.624a2.185 2.185 0 0 0-2.172 2.193v13.16c0 1.209.974 2.192 2.172 2.192h8.688a2.185 2.185 0 0 0 2.171-2.193V2.693c0-1.21-.974-2.193-2.171-2.193z"/>
    </g>
</svg>
