<svg width="18" height="15" viewBox="0 0 18 15" fill="none" xmlns="http://www.w3.org/2000/svg">
<path d="M16.5037 8.82771L17.981 2.73396C18.0877 2.29397 17.731 1.875 17.2497 1.875H4.97525L4.68881 0.562207C4.61744 0.23499 4.31031 0 3.95403 0H0.75C0.335781 0 0 0.314795 0 0.703125V1.17188C0 1.56021 0.335781 1.875 0.75 1.875H2.93384L5.12909 11.9366C4.60391 12.2197 4.25 12.7506 4.25 13.3594C4.25 14.2655 5.0335 15 6 15C6.9665 15 7.75 14.2655 7.75 13.3594C7.75 12.9002 7.54853 12.4853 7.22425 12.1875H13.7757C13.4515 12.4853 13.25 12.9002 13.25 13.3594C13.25 14.2655 14.0335 15 15 15C15.9665 15 16.75 14.2655 16.75 13.3594C16.75 12.7098 16.3472 12.1485 15.7632 11.8827L15.9356 11.1715C16.0422 10.7315 15.6855 10.3125 15.2042 10.3125H6.81616L6.61163 9.375H15.7724C16.1226 9.375 16.4262 9.14783 16.5037 8.82771Z" fill="#5BC799"/>
</svg>
