<svg width="20" height="16" viewBox="0 0 20 16" fill="none" xmlns="http://www.w3.org/2000/svg">
    <path d="M0 5.806c0-.2.05-.397.146-.575L2.574.781A1.499 1.499 0 0 1 3.89 0h12.218c.55 0 1.053.3 1.316.782l2.428 4.45A1.194 1.194 0 0 1 18.806 7H18v8.499c0 .275-.225.5-.5.5a.501.501 0 0 1-.5-.5V7H3v4h8V8.5c0-.275.225-.5.5-.5s.5.225.5.5v6a1.5 1.5 0 0 1-1.5 1.5h-7A1.5 1.5 0 0 1 2 14.5V7h-.805C.535 7 0 6.466 0 5.806zM18.806 6A.195.195 0 0 0 19 5.806a.191.191 0 0 0-.025-.093L16.55 1.26A.504.504 0 0 0 16.11 1H3.89c-.184 0-.35.1-.44.26L1.024 5.714A.195.195 0 0 0 1.196 6h17.61zM3.5 15h7c.275 0 .5-.225.5-.5V12H3v2.5c0 .275.225.5.5.5z" fill="#5BC58F"/>
</svg>
