<svg xmlns="http://www.w3.org/2000/svg" width="16" height="16" viewBox="0 0 16 16">
    <g fill="none" fill-rule="evenodd">
        <g fill="#03C964" fill-rule="nonzero">
            <g>
                <g>
                    <path d="M10 8L8 8 8 10 6 10 6 8 4 8 4 6 6 6 6 4 8 4 8 6 10 6z" transform="translate(-762 -552) translate(524 400) translate(238 152)"/>
                    <path d="M7 14c-3.86 0-7-3.14-7-7s3.14-7 7-7 7 3.14 7 7-3.14 7-7 7zM7 2C4.243 2 2 4.243 2 7s2.243 5 5 5 5-2.243 5-5-2.243-5-5-5zM15.707 14.293L13.314 11.9c-.411.529-.885 1.003-1.414 1.414l2.393 2.393c.195.195.451.293.707.293.256 0 .512-.098.707-.293.391-.391.391-1.023 0-1.414z" transform="translate(-762 -552) translate(524 400) translate(238 152)"/>
                </g>
            </g>
        </g>
    </g>
</svg>
