<svg width="16" height="16" viewBox="0 0 16 16" fill="none" xmlns="http://www.w3.org/2000/svg">
<path d="M8.67184 15.9986L10.0572 14.4513L12 15.9686L10.8539 8.50549H6.49051L5.34437 15.9686L7.28788 14.4513L8.67184 15.9993V16V15.9986ZM11.3136 8.06107C11.3134 7.98526 11.284 7.91262 11.2319 7.85901C11.1798 7.80541 11.1092 7.77521 11.0355 7.77502L11.0286 7.77573H6.30746L6.30191 7.77502C6.22808 7.77502 6.15727 7.80519 6.10506 7.85891C6.05286 7.91262 6.02353 7.98547 6.02353 8.06143C6.02353 8.13739 6.05286 8.21024 6.10506 8.26395C6.15727 8.31767 6.22808 8.34784 6.30191 8.34784H6.3033V8.34927H11.0362V8.34784C11.1888 8.34784 11.3136 8.21944 11.3136 8.06107V8.06107ZM11.0515 6.19565C11.0515 6.03729 10.9391 5.9096 10.8005 5.9096H6.53627C6.3976 5.9096 6.28527 6.038 6.28527 6.19494C6.28527 6.3533 6.3976 6.48171 6.53627 6.48171V6.48313H10.8019V6.48099C10.9405 6.48099 11.0522 6.35259 11.0522 6.19565H11.0515ZM11.2962 6.65933H6.0523C5.93075 6.65933 5.81417 6.70901 5.72822 6.79744C5.64227 6.88587 5.59399 7.0058 5.59399 7.13086C5.59399 7.25592 5.64227 7.37585 5.72822 7.46428C5.81417 7.55271 5.93075 7.60239 6.0523 7.60239H11.2962C11.4178 7.60239 11.5344 7.55271 11.6203 7.46428C11.7063 7.37585 11.7545 7.25592 11.7545 7.13086C11.7545 7.0058 11.7063 6.88587 11.6203 6.79744C11.5344 6.70901 11.4178 6.65933 11.2962 6.65933ZM4.99353 3.41428C5.10447 2.86785 5.82696 2.66526 6.27903 3.42427C6.45584 3.72174 6.56817 5.37101 4.69469 5.31323C3.55757 5.27756 2.74633 3.87511 3.07291 2.36922C3.40087 0.856904 4.88121 -0.0319364 6.1674 0.000877923C8.41391 0.059373 9.56004 1.8342 9.88662 2.83004C10.1848 3.741 10.3602 4.96297 10.3526 5.73768H6.98835C7.2234 4.33237 7.08126 3.75954 7.08126 3.75954C7.08126 3.75954 6.75399 2.33141 5.77634 2.33141C4.7987 2.33141 4.59277 3.2231 4.59277 3.2231C4.59277 3.2231 4.48529 3.92076 4.97412 4.02848C5.10586 4.05701 5.36171 4.03704 5.36171 3.70176C5.36171 3.53484 5.22858 3.38503 4.99353 3.41428" fill="#FFF"/>
</svg>
