<svg width="16" height="16" viewBox="0 0 16 16" fill="none" xmlns="http://www.w3.org/2000/svg">
<path fill-rule="evenodd" clip-rule="evenodd" d="M5.9644 4.18415H3.43883L3.44298 9.39913L11.6184 14.6388C12.9722 13.5685 13.5646 11.969 13.5646 11.1757V9.00865L5.9644 4.18415ZM14 11.2574C13.856 13.0477 12.5867 14.8074 10.7678 15.5501C9.06374 16.3278 6.69805 16.069 5.23351 14.9897C3.87971 14.0018 3.12945 12.6429 3.03394 11.1018L3.0367 3.80859H13.991L14 11.2574ZM6.69805 4.18415L13.5653 8.53256V4.18415H6.69805ZM3.4416 9.88884V10.8955C3.51496 12.6559 4.56146 14.4403 6.34991 15.1804C7.80822 15.8913 9.91851 15.7259 11.2384 14.869L3.44229 9.88884H3.4416Z" fill="#00C27E"/>
<path fill-rule="evenodd" clip-rule="evenodd" d="M6.62743 6.21711C6.66589 6.21711 6.70277 6.20279 6.72996 6.17731C6.75716 6.15182 6.77243 6.11726 6.77243 6.08122C6.77243 6.04518 6.75716 6.01062 6.72996 5.98513C6.70277 5.95965 6.66589 5.94533 6.62743 5.94533C6.58907 5.94533 6.55227 5.95962 6.52515 5.98504C6.49802 6.01046 6.48278 6.04494 6.48278 6.0809C6.48278 6.11685 6.49802 6.15133 6.52515 6.17675C6.55227 6.20218 6.58907 6.21646 6.62743 6.21646V6.21711ZM6.41287 5.77345C6.41754 5.74545 6.42919 5.71888 6.44687 5.69589C6.46455 5.6729 6.48776 5.65414 6.51462 5.64113L6.6302 5.6541L7.18875 5.9395L7.23927 6.01084C7.27042 5.91355 7.26488 5.78901 7.39154 5.73647C7.50505 5.6995 7.66839 5.69626 7.75837 5.78382C7.84073 5.86296 7.88849 5.97128 7.84834 6.08219C7.82343 6.14317 7.75006 6.19895 7.69607 6.23527C8.0802 6.33062 8.40758 6.56088 8.76264 6.72498C8.86161 6.78012 8.88099 6.88325 8.84985 6.97276L8.79932 7.03373C8.84154 7.07914 8.9239 7.08692 8.9772 7.12908L11.9215 8.99519C12.3811 9.22221 12.3333 9.68533 12.4178 10.079C12.275 10.0723 12.1338 10.0483 11.9976 10.0077C12.008 10.0512 12.0149 10.0953 12.0232 10.1374L12.2516 12.2545C12.226 12.4738 12.0288 12.6243 11.8966 12.802L11.4398 13.3384L10.4639 12.7436C10.6355 12.5425 10.8584 12.3492 11.1491 12.3629C11.2958 12.3525 11.4426 12.3791 11.5664 12.3862C11.4114 12.3343 11.2363 12.2701 11.1491 12.1118C10.8556 11.6066 10.4549 11.1415 10.2466 10.6025C10.1504 10.2931 10.2293 10.0012 10.385 9.74176C10.3594 9.73397 10.3379 9.745 10.2971 9.73268C9.99532 9.69311 9.69632 9.61917 9.39732 9.61398L10.0687 9.9837C9.92749 10.4494 10.1247 10.9009 10.3871 11.268L9.99255 12.1488C9.93302 12.2623 9.77245 12.2305 9.6624 12.2202L8.76264 12.1015C8.73495 11.7363 8.80486 11.3795 8.79932 11.0072C9.12116 11.089 9.42224 11.3108 9.61188 11.5884V11.5411L8.76264 10.2568C8.61314 9.99991 8.73495 9.7236 8.90453 9.51474C8.90453 9.51474 8.71419 9.52187 8.61868 9.46155C8.51901 9.56209 7.56942 10.7692 7.56942 10.7692C7.49051 10.8295 7.35832 10.8036 7.26488 10.7925L6.33743 10.6602L6.38726 9.56598C6.7001 9.64511 7.01571 9.86759 7.17421 10.1368C7.08423 9.54263 7.18529 8.88427 7.13753 8.2577C7.08077 8.08646 7.00741 7.91911 6.8586 7.78225L5.29578 6.74834V6.40197C5.52141 6.53688 5.73874 6.82487 6.02044 6.68736C6.11941 6.60823 6.13879 6.48434 6.10765 6.36824L6.05712 6.28327L5.30962 5.7968C5.2591 5.58534 5.36292 5.31551 5.21965 5.14168C5.62316 5.33627 6.01767 5.55875 6.41218 5.77345H6.41287ZM4.58566 5.30773C4.54853 5.3436 4.52117 5.38731 4.50587 5.43518C4.49057 5.48305 4.48779 5.53366 4.49776 5.58275C4.51783 5.69367 4.63065 5.78382 4.72616 5.85517L5.89447 6.60564V6.48694C5.58094 6.25149 5.25425 6.05625 4.94072 5.8208C4.82237 5.75204 4.81129 5.64113 4.78845 5.5354C4.80576 5.40827 4.86736 5.27595 5.00578 5.21303C4.86459 5.21044 4.69571 5.20719 4.58566 5.30773V5.30773ZM4.68671 6.85406C4.76284 6.97082 4.83344 7.0973 4.94072 7.18746L5.05631 7.09211C4.97464 6.94163 4.80299 6.95201 4.68671 6.85406V6.85406ZM4.48392 7.00973L4.72616 7.34313C4.78015 7.33016 4.81614 7.27956 4.86459 7.24778C4.78568 7.10768 4.61681 7.07654 4.48392 7.00973V7.00973ZM4.30604 7.16346L4.54829 7.4962L4.67564 7.37751C4.58843 7.25037 4.43339 7.22443 4.30604 7.16346V7.16346ZM5.18366 7.23481C4.88189 7.44886 4.58843 7.6895 4.29497 7.91457C4.48392 8.19672 4.70125 8.46915 4.90404 8.74676C4.96633 8.85249 5.09091 8.92384 5.20857 8.96081C5.78442 9.06654 6.39072 9.13594 6.96034 9.22286C6.92089 8.75195 7.11261 8.18375 6.66688 7.86722L5.41206 8.139C5.35807 8.15716 5.30478 8.20516 5.25979 8.19932C5.3553 7.96711 5.40098 7.66809 5.29647 7.4255L5.18366 7.23481ZM4.10325 7.30616C4.19323 7.41707 4.26105 7.54615 4.3711 7.63955L4.48392 7.5442C4.40502 7.40669 4.23544 7.37232 4.10325 7.30616V7.30616ZM3.93921 7.46183L4.16762 7.78225C4.21883 7.76085 4.27836 7.72906 4.30604 7.67652C4.20776 7.5468 4.0721 7.50983 3.93921 7.46248V7.46183ZM6.19901 9.5556C6.03566 9.54782 5.90554 9.6062 5.76712 9.65095C5.90554 9.6769 6.05228 9.69311 6.19901 9.70933V9.5556ZM5.76712 9.89938C5.91662 9.89419 6.05504 9.9597 6.19901 9.93635C6.19347 9.88316 6.20731 9.82543 6.18516 9.78068C6.02113 9.7677 5.88824 9.84619 5.76712 9.89938ZM6.1734 10.0077C6.01006 9.99472 5.88547 10.0687 5.75328 10.1264L6.1734 10.1848V10.0077ZM6.1734 10.2457C6.00175 10.2198 5.87994 10.3041 5.74151 10.3508C5.8827 10.3722 6.0322 10.4118 6.1734 10.3988V10.2451V10.2457ZM6.15955 10.4702C5.98998 10.4384 5.87163 10.5201 5.74151 10.5785C5.87163 10.6129 6.03566 10.6103 6.15955 10.6265V10.4708V10.4702ZM8.19025 11.1019C8.32591 11.1363 8.49479 11.1344 8.62145 11.1493C8.61591 11.0974 8.63321 11.039 8.61037 10.9936C8.45257 10.9884 8.28853 11.0598 8.19025 11.1019V11.1019ZM8.61037 11.2206C8.44149 11.2077 8.31414 11.2816 8.17918 11.34C8.31968 11.3614 8.46987 11.3984 8.61037 11.3873V11.2206ZM8.16464 11.5644C8.30861 11.5832 8.45257 11.6332 8.59653 11.6124C8.59376 11.5618 8.6076 11.5041 8.58546 11.4593C8.41035 11.4191 8.30584 11.5307 8.16464 11.5644V11.5644ZM8.57092 11.6838C8.40204 11.6682 8.28023 11.7551 8.13973 11.8025L8.58546 11.8505L8.57161 11.6838H8.57092ZM8.57092 11.9108C8.40481 11.9004 8.26085 11.9666 8.13973 12.0301L8.57092 12.0775V11.9108ZM10.3476 12.8863C10.2521 12.9946 10.2715 13.1847 10.2355 13.2774C10.3165 13.1743 10.421 13.0764 10.4999 12.968C10.4549 12.9311 10.4016 12.9097 10.3476 12.8863V12.8863ZM10.5511 13.005C10.4583 13.1166 10.4632 13.3034 10.4494 13.4098C10.5428 13.3222 10.5961 13.2217 10.6916 13.1347C10.7262 13.066 10.5988 13.0446 10.5511 13.005ZM10.7677 13.1347C10.6528 13.2405 10.6722 13.3994 10.6528 13.5395L10.9207 13.2301C10.8667 13.1977 10.8217 13.1561 10.7684 13.1347H10.7677ZM10.9712 13.2671C10.8556 13.3728 10.875 13.5285 10.8556 13.6712L11.1235 13.3488C11.075 13.3118 11.0217 13.2904 10.9712 13.2671ZM11.174 13.3858C11.084 13.4993 11.0647 13.642 11.0584 13.7905C11.1436 13.6822 11.2418 13.5816 11.3124 13.4675C11.2674 13.4415 11.2252 13.4013 11.174 13.3858V13.3858ZM13.7902 0H12.0994V2.23128H10.9851V0H9.06579V2.23128H7.95147V0H6.03359V2.23128H4.91927V0H3V2.61916H3.40143V0.376205H4.51645V2.60749H6.43433V0.376853H7.55004V2.60814H9.46792V0.376853H10.5822V2.60814H12.5015V0.376853H13.5888V2.62306H13.9903V0H13.7895" fill="#00C27E"/>
</svg>
