<svg xmlns="http://www.w3.org/2000/svg" width="144.965" height="60.34" xmlns:xlink="http://www.w3.org/1999/xlink"><defs><path id="a" d="M136.906 29.224c-1.536-1.624-3.079-3.24-4.605-4.871-1.419-1.517-2.812-3.056-4.233-4.572-5.736-6.107-12.054-11.43-19.911-14.649-.731-.3-1.499-.519-2.264-.724-.515-.139-1.324.374-1.517.912-.228.634-.248 1.298.275 1.766.465.417 1.021.782 1.597 1.019 7.561 3.09 13.689 8.152 19.203 14.02 4.814 5.124 9.676 10.223 13.33 16.301.323.539.603 1.123.785 1.722.065.211-.176.719-.354.763-.765.181-1.555.266-2.339.337-11.768 1.062-23.592 1.568-35.234 3.792-2.37.452-4.692.989-6.792 2.228-.405.24-.803.521-1.123.86-.495.521-.505 1.211-.152 1.764.221.346.722.618 1.143.703.436.09.982.03 1.39-.157 4.288-1.974 8.929-2.41 13.507-3.058 6.327-.9 12.688-1.464 19.08-1.836 4.134-.242 8.258-.783 12.411-.902.944-.027 1.889-.255 2.821-.453.728-.158 1.215-1.167.986-1.929-.137-.457-.216-.962-.469-1.349-2.528-3.878-4.627-8.035-7.535-11.687zM.215 59.869c.558.838 1.761 1.01 2.248.471.426-.47.868-.947 1.181-1.492.637-1.108 1.221-2.248 1.773-3.401 3.777-7.888 9.312-14.505 15.296-20.743 4.466-4.657 9.829-8.173 15.657-10.918 3.031-1.428 6.138-2.722 9.289-3.865 5.461-1.982 11.214-2.586 16.957-2.854 7.546-.352 14.973.736 22.345 2.376 7.845 1.745 15.354 4.499 22.67 7.682 6.432 2.798 12.752 5.914 18.782 9.556.944.568 1.978 1 2.991 1.445.45.196 1.4-.308 1.544-.853.11-.426.129-.954-.024-1.35-.164-.415-.532-.797-.901-1.072-.77-.57-1.568-1.111-2.405-1.572-7.421-4.082-14.855-8.143-22.784-11.182-3.73-1.43-7.468-2.863-11.277-4.059-3.35-1.05-6.773-1.906-10.215-2.609-7.226-1.474-14.538-2.335-21.92-1.928-9.363.517-18.271 2.858-26.671 7.1-3.864 1.953-7.472 4.306-11.089 6.658-2.854 1.859-4.986 4.497-7.293 6.911C10.04 40.797 4.761 48.19.877 56.527c-.335.72-.675 1.456-.855 2.219-.095.407.147.894.193 1.123z"/></defs><clipPath id="b"><use xlink:href="#a" overflow="visible"/></clipPath><g clip-path="url(#b)"><defs><path id="c" d="M1420.1633531-41.3100798l-1526.08 480.8L-466.5163464-705.069126l1526.08-480.8z"/></defs><clipPath id="d"><use xlink:href="#c" overflow="visible"/></clipPath><path fill="#010101" d="M21.027-21.462h98.281v136.071H21.027z" transform="rotate(-128.487 70.17 46.576)" clip-path="url(#d)"/></g></svg>