<svg width="10" height="11" viewBox="0 0 10 11" fill="none" xmlns="http://www.w3.org/2000/svg">
<path d="M7.0957 2.46685L9.9082 5.27935C9.96875 5.33989 10 5.41997 10 5.48247C10 5.54497 9.96949 5.64239 9.90844 5.70337L7.09594 8.51587C6.97387 8.63794 6.77602 8.63794 6.65414 8.51587C6.53227 8.3938 6.53207 8.19595 6.65414 8.07407L8.93344 5.79478H0.3125C0.139766 5.79478 0 5.65501 0 5.49985C0 5.32712 0.139766 5.18735 0.3125 5.18735H8.93359L6.6543 2.90806C6.53223 2.78599 6.53223 2.58814 6.6543 2.46626C6.77637 2.34439 6.97461 2.34458 7.0957 2.46685Z" fill="white"/>
</svg>
