<svg width="19" height="17" viewBox="0 0 19 17" fill="none" xmlns="http://www.w3.org/2000/svg">
<path d="M16.8889 0.625C18.0533 0.625 19 1.63223 19 2.875V4H0V2.875C0 1.63223 0.945052 0.625 2.11111 0.625H16.8889ZM19 14.125C19 15.366 18.0533 16.375 16.8889 16.375H2.11111C0.945052 16.375 0 15.366 0 14.125V7.375H19V14.125ZM3.69444 11.875C3.40417 11.875 3.16667 12.1281 3.16667 12.4375C3.16667 12.7469 3.40417 13 3.69444 13H5.80556C6.09583 13 6.33333 12.7469 6.33333 12.4375C6.33333 12.1281 6.09583 11.875 5.80556 11.875H3.69444ZM7.91667 13H12.1389C12.4292 13 12.6667 12.7469 12.6667 12.4375C12.6667 12.1281 12.4292 11.875 12.1389 11.875H7.91667C7.62639 11.875 7.38889 12.1281 7.38889 12.4375C7.38889 12.7469 7.62639 13 7.91667 13Z" fill="#02CA95"/>
</svg>
