<svg width="23" height="19" viewBox="0 0 23 19" fill="none" xmlns="http://www.w3.org/2000/svg">
<path d="M4.025 0.5C3.0723 0.5 2.3 1.25551 2.3 2.1875V3.875H0.575C0.25742 3.875 0 4.12812 0 4.4375C0 4.74687 0.25742 5 0.575 5H9.775C10.0912 5 10.35 5.25313 10.35 5.5625C10.35 5.87187 10.0912 6.125 9.775 6.125H1.725C1.40731 6.125 1.15 6.37813 1.15 6.6875C1.15 6.99687 1.40731 7.25 1.725 7.25H8.625C8.94125 7.25 9.2 7.50313 9.2 7.8125C9.2 8.12187 8.94125 8.375 8.625 8.375H0.575C0.25742 8.375 0 8.62813 0 8.9375C0 9.24687 0.25742 9.5 0.575 9.5H7.475C7.79125 9.5 8.05 9.75313 8.05 10.0625C8.05 10.3719 7.79125 10.625 7.475 10.625H2.3V15.125C2.3 16.9883 3.81297 18.5 5.75 18.5C7.65469 18.5 9.2 16.9883 9.2 15.125H13.8C13.8 16.9883 15.313 18.5 17.25 18.5C19.1547 18.5 20.7 16.9883 20.7 15.125H21.85C22.4861 15.125 23 14.6223 23 14C23 13.3777 22.4861 12.875 21.85 12.875V8.84258C21.85 8.24492 21.6092 7.67188 21.178 7.25L18.4 4.53242C17.9364 4.11055 17.383 3.875 16.772 3.875H14.95V2.1875C14.95 1.25551 14.1773 0.5 13.225 0.5H4.025ZM19.55 8.84258V9.5H14.95V6.125H16.772L19.55 8.84258ZM5.75 16.8125C4.79766 16.8125 4.025 16.0566 4.025 15.125C4.025 14.1934 4.79766 13.4375 5.75 13.4375C6.70234 13.4375 7.475 14.1934 7.475 15.125C7.475 16.0566 6.70234 16.8125 5.75 16.8125ZM18.975 15.125C18.975 16.0566 18.2023 16.8125 17.25 16.8125C16.2977 16.8125 15.525 16.0566 15.525 15.125C15.525 14.1934 16.2977 13.4375 17.25 13.4375C18.2023 13.4375 18.975 14.1934 18.975 15.125Z" fill="#02CA95"/>
</svg>
