<svg width="71" height="70" viewBox="0 0 71 70" fill="none" xmlns="http://www.w3.org/2000/svg">
<g clip-path="url(#clip0_4204_1637)">
<mask id="mask0_4204_1637" style="mask-type:luminance" maskUnits="userSpaceOnUse" x="0" y="0" width="71" height="71">
<path d="M0.5 0.000984192H70.5V70.001H0.5V0.000984192Z" fill="white"/>
</mask>
<g mask="url(#mask0_4204_1637)">
<path d="M61.3514 11.4517H64.053C65.5325 11.4517 66.2737 9.6627 65.2274 8.61652L61.2303 4.61941C60.1841 3.57324 58.3951 4.31412 58.3951 5.79383V8.5215" stroke="#02CA95" stroke-width="2.02148" stroke-miterlimit="10" stroke-linecap="round" stroke-linejoin="round"/>
<path d="M42.9771 8.02039C48.2572 4.7051 55.3102 5.34535 59.9056 9.94074C61.9871 12.0223 63.2571 14.608 63.7157 17.3047" stroke="#02CA95" stroke-width="2.02148" stroke-miterlimit="10" stroke-linecap="round" stroke-linejoin="round"/>
<path d="M12.6048 8.5215V5.79383C12.6048 4.31412 10.8158 3.57311 9.76966 4.61941L5.77255 8.61639C4.72624 9.6627 5.46739 11.4517 6.94696 11.4517H9.72413" stroke="#02CA95" stroke-width="2.02148" stroke-miterlimit="10" stroke-linecap="round" stroke-linejoin="round"/>
<path d="M7.31219 17.1475C7.7929 14.5078 9.05358 11.9824 11.0944 9.94156C15.5803 5.45568 22.4077 4.73873 27.642 7.7907" stroke="#02CA95" stroke-width="2.02148" stroke-miterlimit="10" stroke-linecap="round" stroke-linejoin="round"/>
<path d="M62.1097 52.8692C65.5691 53.8325 68.1075 57.006 68.1075 60.7725C68.1075 65.3029 64.4348 68.9756 59.9043 68.9756C55.4417 68.9756 51.8114 65.412 51.7037 60.9752" stroke="#02CA95" stroke-width="2.02148" stroke-miterlimit="10" stroke-linecap="round" stroke-linejoin="round"/>
<path d="M37.2755 5.80762L39.2221 3.86102C40.2685 2.81471 39.5275 1.02574 38.0477 1.02574H32.3952C30.9155 1.02574 30.1746 2.81471 31.2208 3.86102L33.1579 5.79818" stroke="#02CA95" stroke-width="2.02148" stroke-miterlimit="10" stroke-linecap="round" stroke-linejoin="round"/>
<path d="M21.7088 17.3047C22.7163 10.7477 28.3824 5.72611 35.2215 5.72611C42.0565 5.72611 47.7202 10.7419 48.7323 17.2935" stroke="#02CA95" stroke-width="2.02148" stroke-miterlimit="10" stroke-linecap="round" stroke-linejoin="round"/>
<path d="M8.98826 52.8418C5.47896 53.7719 2.89252 56.9698 2.89252 60.7717C2.89252 62.2929 3.30664 63.7174 4.02824 64.9387C4.74984 66.16 5.8007 67.2426 7 68.0002" stroke="#02CA95" stroke-width="2.02148" stroke-miterlimit="10" stroke-linecap="round" stroke-linejoin="round"/>
<path d="M19.2977 60.9048C19.227 65.3743 15.5818 68.9756 11.0957 68.9756C9.55049 68.9756 8.23402 68.7428 7 68" stroke="#02CA95" stroke-width="2.02148" stroke-miterlimit="10" stroke-linecap="round" stroke-linejoin="round"/>
<path d="M13.7293 60.0357C13.7949 60.2702 13.83 60.5172 13.83 60.7725C13.83 62.2802 12.6034 63.5068 11.0956 63.5068C9.58804 63.5068 8.36127 62.2802 8.36127 60.7725C8.36127 59.2647 9.58804 58.0381 11.0956 58.0381" stroke="#02CA95" stroke-width="2.02148" stroke-miterlimit="10" stroke-linecap="round" stroke-linejoin="round"/>
<path d="M59.9043 58.0381C61.4119 58.0381 62.6387 59.2647 62.6387 60.7725C62.6387 62.2802 61.4119 63.5068 59.9043 63.5068C58.3966 63.5068 57.1699 62.2802 57.1699 60.7725C57.1699 60.54 57.199 60.3142 57.2539 60.0986" stroke="#02CA95" stroke-width="2.02148" stroke-miterlimit="10" stroke-linecap="round" stroke-linejoin="round"/>
<path d="M6.8717 25.8673L9.11198 53.2386C9.46034 57.4953 13.0167 60.7725 17.2878 60.7725H53.7122C57.9833 60.7725 61.5397 57.4953 61.888 53.2386L64.1258 25.8967" stroke="#02CA95" stroke-width="2.02148" stroke-miterlimit="10" stroke-linecap="round" stroke-linejoin="round"/>
<path d="M46.6816 25.6357H5.62701C3.36172 25.6357 1.52545 23.7993 1.52545 21.5342C1.52545 19.269 3.36172 17.4326 5.62701 17.4326H65.3731C67.6383 17.4326 69.4747 19.269 69.4747 21.5342C69.4747 23.7993 67.6383 25.6357 65.3731 25.6357H50.7832" stroke="#02CA95" stroke-width="2.02148" stroke-miterlimit="10" stroke-linecap="round" stroke-linejoin="round"/>
<path d="M41.0111 40.0625L37.9293 34.7247C36.877 32.9017 34.2458 32.9017 33.1932 34.7247L31.4199 37.7965" stroke="#02CA95" stroke-width="2.02148" stroke-miterlimit="10" stroke-linecap="round" stroke-linejoin="round"/>
<path d="M41.5276 36.2209L41.0795 40.1807L37.4261 38.5888" stroke="#02CA95" stroke-width="2.02148" stroke-miterlimit="10" stroke-linecap="round" stroke-linejoin="round"/>
<path d="M36.243 50.6812H42.4066C44.5115 50.6812 45.8272 48.4025 44.7746 46.5796L43.0012 43.5077" stroke="#02CA95" stroke-width="2.02148" stroke-miterlimit="10" stroke-linecap="round" stroke-linejoin="round"/>
<path d="M39.3116 53.0508L36.1063 50.6828L39.3116 48.3147" stroke="#02CA95" stroke-width="2.02148" stroke-miterlimit="10" stroke-linecap="round" stroke-linejoin="round"/>
<path d="M29.4401 41.2418L26.3583 46.5796C25.3058 48.4025 26.6215 50.6812 28.7263 50.6812H32.2734" stroke="#02CA95" stroke-width="2.02148" stroke-miterlimit="10" stroke-linecap="round" stroke-linejoin="round"/>
<path d="M25.8549 42.7164L29.5085 41.1246L29.9565 45.0845" stroke="#02CA95" stroke-width="2.02148" stroke-miterlimit="10" stroke-linecap="round" stroke-linejoin="round"/>
</g>
</g>
<defs>
<clipPath id="clip0_4204_1637">
<rect width="70" height="70" fill="white" transform="translate(0.5)"/>
</clipPath>
</defs>
</svg>
