<svg width="20" height="18" viewBox="0 0 20 18" fill="none" xmlns="http://www.w3.org/2000/svg">
<path d="M14.9756 7.27031C14.8089 7.14727 14.6596 7.01016 14.5242 6.85547C14.3888 7.00664 14.2395 7.14375 14.0763 7.2668C13.5728 7.64648 12.9443 7.875 12.2603 7.875C11.5798 7.875 10.9582 7.65 10.4548 7.2457C10.2881 7.15078 10.1353 7.01016 9.99643 6.85547C9.85754 7.01016 9.70476 7.15078 9.5381 7.2457C9.03462 7.65 8.4131 7.875 7.73254 7.875C7.05546 7.875 6.43046 7.65 5.92698 7.2457C5.76032 7.15078 5.60754 7.01016 5.47212 6.85547C5.33323 7.01016 5.17698 7.15078 5.01032 7.2457C4.51032 7.65 3.85754 7.875 3.20684 7.875C3.06587 7.875 2.92386 7.86445 2.78601 7.84687C0.865178 7.58672 -0.0436766 5.29453 0.98358 3.64922L2.97421 0.461602C3.15129 0.175043 3.46761 0 3.80546 0H16.1943C16.5312 0 16.8471 0.175008 17.0242 0.461602L19.0138 3.64922C20.045 5.29805 19.1318 7.58672 17.2048 7.84687C17.0693 7.86445 16.9305 7.875 16.7846 7.875C16.1041 7.875 15.4791 7.64648 14.9756 7.27031ZM16.1249 1.125H3.8749L1.92282 4.25039C1.27455 5.29102 1.91309 6.5918 2.93184 6.73242C3.02455 6.74297 3.11796 6.75 3.20684 6.75C3.75337 6.75 4.29157 6.49688 4.64573 6.10313C4.85754 5.86758 5.15615 5.73047 5.47212 5.73047C5.78462 5.73047 6.08323 5.86758 6.29504 6.10313C6.64921 6.49688 7.15962 6.75 7.73254 6.75C8.30893 6.75 8.7881 6.49688 9.17351 6.10313C9.38185 5.86758 9.68393 5.73047 9.99643 5.73047C10.2812 5.73047 10.611 5.86758 10.8193 6.10313C11.1735 6.49688 11.6839 6.71836 12.2603 6.71836C12.8367 6.71836 13.3437 6.49688 13.6978 6.10313C13.9096 5.86758 14.2082 5.73047 14.5207 5.73047C14.8332 5.73047 15.1353 5.86406 15.3437 6.09961C15.7013 6.49687 16.1839 6.71836 16.7846 6.71836C16.8784 6.71836 16.9687 6.74297 17.0624 6.73242C18.0867 6.5918 18.7256 5.29102 18.0763 4.25039L16.1249 1.125ZM3.33323 9.5625V12.375H16.6666V9.5625C16.6666 9.25313 16.9166 9 17.2221 9C17.5277 9 17.7777 9.25313 17.7777 9.5625V15.75C17.7777 16.991 16.7812 18 15.5555 18H4.44434C3.21691 18 2.22212 16.991 2.22212 15.75V9.5625C2.22212 9.25313 2.47073 9 2.77768 9C3.08462 9 3.33323 9.25313 3.33323 9.5625ZM3.33323 15.75C3.33323 16.3723 3.82976 16.875 4.44434 16.875H15.5555C16.17 16.875 16.6666 16.3723 16.6666 15.75V13.5H3.33323V15.75Z" fill="#9AB6A7"/>
</svg>
