<svg width="20" height="17" viewBox="0 0 20 17" fill="none" xmlns="http://www.w3.org/2000/svg">
<path d="M9.63195 0.132879C9.84376 -0.044293 10.1563 -0.044293 10.3681 0.132879L19.8125 8.10156C20.0417 8.29414 20.0625 8.60293 19.8299 8.85195C19.6597 9.07109 19.3056 9.09102 19.0764 8.86856L17.7778 7.77285V14.3438C17.7778 15.8113 16.5347 17 15 17H5.00001C3.46598 17 2.22223 15.8113 2.22223 14.3438V7.77285L0.923271 8.86856C0.693063 9.09102 0.341987 9.07109 0.139 8.85195C-0.0640204 8.60293 -0.0420759 8.29414 0.187994 8.10156L9.63195 0.132879ZM3.33334 6.86309V14.3438C3.33334 15.2236 4.07987 15.9375 5.00001 15.9375H15C15.9201 15.9375 16.6667 15.2236 16.6667 14.3438V6.86309L10 1.2398L3.33334 6.86309Z" fill="#9AB6A7"/>
</svg>
