<svg width="70" height="70" viewBox="0 0 70 70" fill="none" xmlns="http://www.w3.org/2000/svg">
<g clip-path="url(#clip0_4204_1685)">
<path d="M70 42.9354C69.9438 42.5827 69.809 42.2472 69.6055 41.9537C69.4019 41.6602 69.1349 41.4163 68.8242 41.2401C67.118 40.1847 63.2023 39.3042 59.4234 41.1909C57.8484 41.9784 56.2625 42.9245 54.7859 43.8323C54.7531 43.7667 54.7148 43.7011 54.6766 43.6354C54.1789 42.9026 53.2437 42.5417 51.8984 42.5417C50.225 42.5417 47.1297 44.1823 42.9461 46.5284C41.6809 47.2776 40.3756 47.9567 39.0359 48.5628C38.1609 48.4589 37.3078 48.3768 36.3836 48.2893C35.2898 48.1854 34.1031 48.0706 32.6375 47.8956C32.457 46.4847 32.1016 43.5698 31.4672 39.9222C31.15 38.2815 32.1781 36.4495 33.6109 34.7979C34.9492 36.3219 36.7254 37.3953 38.6969 37.8714C39.6143 38.1013 40.5566 38.217 41.5023 38.2159C44.159 38.1972 46.7493 37.3839 48.9398 35.8808C53.0687 33.0589 56.4758 26.6878 59.2102 21.569C60.8508 18.5229 62.4914 15.3729 63.5523 14.7003C64.6133 14.0276 64.4437 13.1417 64.1867 12.7261C63.4758 11.5776 59.8117 11.4518 53.2492 12.3378C50.2633 12.7479 42.8586 13.9784 38.6641 16.4284C30.625 21.1643 28.7 26.0261 32.1562 32.6925L32.3094 32.955C31.657 33.659 31.0695 34.4204 30.5539 35.23L30.4555 34.7651C29.6219 30.9306 28.5683 27.1473 27.3 23.4339C29.7609 21.6292 30.4445 18.2933 29.0992 14.2683C28.4375 12.2065 24.5547 7.10966 23.7891 6.09794C18.8672 -0.344248 18.1125 -0.136436 17.4508 0.0440329C17.2859 0.0935903 17.1327 0.175917 17.0003 0.286082C16.868 0.396247 16.7593 0.531985 16.6806 0.685168C16.602 0.83835 16.5551 1.00583 16.5427 1.17757C16.5303 1.34931 16.5527 1.52178 16.6086 1.68466C16.7514 2.98887 16.7679 4.30384 16.6578 5.61122C16.5266 8.9581 16.3516 13.5409 17.7516 17.8503C19.0914 21.9026 21.4211 23.3901 22.6734 23.9151C23.3249 24.1888 24.0231 24.3337 24.7297 24.3417C24.9016 24.342 25.0733 24.331 25.2437 24.3089C26.4611 27.8945 27.4745 31.5462 28.2789 35.2464C29.4164 40.4143 30.0344 45.0518 30.3078 47.387C29.9305 47.1956 29.482 46.9386 29.0172 46.6706C24.2069 43.8078 18.8949 41.8886 13.3656 41.0159C4.77422 39.5339 0.820308 41.2128 0.656246 41.2839C0.390097 41.3999 0.180942 41.6169 0.0747937 41.8872C-0.0313549 42.1574 -0.0258022 42.4587 0.09023 42.7249C0.206262 42.991 0.423269 43.2002 0.693512 43.3063C0.963755 43.4125 1.2651 43.4069 1.53125 43.2909C1.56953 43.2909 5.04765 41.8034 13.0156 43.1706C18.3086 44.0018 23.3933 45.8396 27.9945 48.5847C29.2523 49.2901 30.0781 49.7659 30.8766 49.8753C33.0641 50.1706 34.7047 50.3237 36.1484 50.4604C38.5079 50.6363 40.8512 50.9854 43.1594 51.505C47.25 52.4292 49.9352 54.0808 50.7227 56.1425C51.1273 57.2362 51.1219 58.4065 50.2742 59.2597C50.0347 59.4935 49.7525 59.6791 49.443 59.8065C47.8461 60.4573 43.9742 59.1448 41.7484 58.505C40.2279 57.9934 38.6623 57.6271 37.0727 57.4112C32.3673 57.2346 27.657 57.5831 23.0289 58.4503C22.7446 58.5083 22.495 58.6769 22.335 58.9189C22.1751 59.1609 22.1178 59.4566 22.1758 59.7409C22.2338 60.0252 22.4024 60.2748 22.6444 60.4348C22.8864 60.5948 23.1821 60.6521 23.4664 60.594C27.9164 59.7777 32.4419 59.4476 36.9633 59.6097C38.3823 59.8192 39.7803 60.1523 41.1414 60.605C42.8914 61.1081 44.6633 61.6112 46.2766 61.9011C40.7258 65.2644 35.6016 67.8128 33.2008 67.8128C28.4648 67.8128 8.77734 58.2643 1.5914 54.5893C1.33439 54.4674 1.03997 54.4504 0.770621 54.5419C0.501271 54.6335 0.278183 54.8263 0.148689 55.0796C0.0191949 55.3329 -0.00651567 55.6267 0.0770124 55.8987C0.16054 56.1706 0.346734 56.3993 0.596089 56.5362C1.68984 57.0831 26.9719 70.0003 33.2008 70.0003C36.3836 70.0003 43.3453 66.3581 50.2906 61.9284C51.0234 61.4417 51.3844 61.2175 51.9312 60.8784C60.1562 55.4698 67.9711 49.2518 68.9062 47.0315C69.1629 46.4876 69.2973 45.894 69.3 45.2925C69.813 44.6185 70.0619 43.7802 70 42.9354ZM39.807 18.3261C44.9148 15.3183 55.9617 13.9511 60.6211 13.9511H61.2227C60.0797 15.3401 58.8492 17.637 57.307 20.5136C54.6875 25.4573 51.4062 31.5659 47.7039 34.087C46.486 34.9399 45.1036 35.5293 43.6449 35.8175C42.1863 36.1056 40.6835 36.0862 39.2328 35.7604C37.6351 35.375 36.2021 34.4899 35.1422 33.2339C36.3179 32.1397 37.5879 31.1515 38.9375 30.2808C39.1624 30.1171 39.3166 29.874 39.3686 29.6007C39.4206 29.3275 39.3666 29.0447 39.2175 28.8099C39.0684 28.5751 38.8354 28.4059 38.566 28.3368C38.2966 28.2676 38.0109 28.3038 37.7672 28.4378C36.4153 29.3097 35.1352 30.288 33.9391 31.3636C31.6531 26.7972 31.9211 22.969 39.7797 18.3261H39.807ZM23.5484 21.8753C22.6242 21.4925 20.918 20.3714 19.8516 17.1448C18.55 13.2183 18.7195 8.85966 18.8453 5.66044C18.8453 4.87294 18.9055 4.15653 18.9109 3.51122C21.5414 6.48075 26.3976 13.0378 27.0266 14.919C27.9562 17.7081 27.7648 19.8792 26.4797 21.1972C25.9328 19.737 25.5609 18.9167 25.5226 18.8292C25.4037 18.5645 25.1845 18.3579 24.9132 18.2548C24.642 18.1517 24.3409 18.1606 24.0762 18.2796C23.8115 18.3985 23.6049 18.6177 23.5018 18.889C23.3987 19.1603 23.4076 19.4614 23.5266 19.7261C23.5266 19.7261 23.9094 20.5847 24.4781 22.105C24.1593 22.0707 23.8465 21.9934 23.5484 21.8753ZM60.375 43.1487C63.3336 41.6667 66.3906 42.3339 67.6484 43.0995C67.6841 43.1212 67.7171 43.1469 67.7469 43.1761C66.4891 42.7331 64.5586 43.0011 61.9609 44.0018C60.0742 44.7294 58.285 45.6883 56.6344 46.8565C55.0758 47.8792 52.9484 49.2683 49.0656 51.3737C48.4535 51.0234 47.8176 50.7164 47.1625 50.455C48.743 49.7222 50.6242 48.8143 51.4172 48.4042C52.3852 47.8573 53.5281 47.1683 54.7312 46.419C56.4812 45.3362 58.4609 44.1058 60.375 43.1487ZM43.9687 48.4315C46.4844 47.0315 50.6406 44.844 51.8711 44.7237C52.2916 44.6465 52.7253 44.6882 53.1234 44.844C52.1172 45.4675 51.1656 46.0472 50.3891 46.4847C49.2023 47.13 45.2594 48.9456 44.0836 49.4815L43.657 49.3776L42.6562 49.1589C43.0664 48.9456 43.493 48.705 43.9797 48.4315H43.9687ZM66.8992 46.1839C66.1883 47.8245 60.0633 52.7464 53.118 57.4768C53.1335 56.7566 53.011 56.0401 52.757 55.3659C52.3677 54.391 51.764 53.5163 50.9906 52.8065C54.3922 50.9308 56.3555 49.6511 57.8211 48.6886C59.3453 47.6051 60.9987 46.716 62.743 46.0417C65.8164 44.8604 66.9812 45.1393 67.118 45.2651C67.14 45.5851 67.0677 45.9045 66.9102 46.1839H66.8992Z" fill="#02CA95"/>
</g>
<defs>
<clipPath id="clip0_4204_1685">
<rect width="70" height="70" fill="white"/>
</clipPath>
</defs>
</svg>
