<svg width="70" height="70" viewBox="0 0 70 70" fill="none" xmlns="http://www.w3.org/2000/svg">
<path d="M49.3956 30.1078V35.7427C49.3956 36.1974 49.7643 36.5662 50.2191 36.5662H64.2684C64.1811 36.4398 64.0996 36.3093 64.0307 36.1713L61.5823 29.2842H50.2191C49.7643 29.2843 49.3956 29.653 49.3956 30.1078Z" stroke="#02CA95" stroke-width="2.0508" stroke-miterlimit="10" stroke-linecap="round" stroke-linejoin="round"/>
<path d="M14.1466 60.9467C17.8915 60.9467 20.9273 57.9108 20.9273 54.166C20.9273 50.4211 17.8915 47.3853 14.1466 47.3853C10.4018 47.3853 7.36594 50.4211 7.36594 54.166C7.36594 57.9108 10.4018 60.9467 14.1466 60.9467Z" stroke="#02CA95" stroke-width="2.0508" stroke-miterlimit="10" stroke-linecap="round" stroke-linejoin="round"/>
<path d="M14.1466 60.9467C17.8915 60.9467 20.9273 57.9108 20.9273 54.166C20.9273 50.4211 17.8915 47.3853 14.1466 47.3853C10.4018 47.3853 7.36594 50.4211 7.36594 54.166C7.36594 57.9108 10.4018 60.9467 14.1466 60.9467Z" stroke="#02CA95" stroke-width="2.0508" stroke-miterlimit="10" stroke-linecap="round" stroke-linejoin="round"/>
<path d="M50.3487 40.8494H54.7339V42.5808" stroke="#02CA95" stroke-width="2.0508" stroke-miterlimit="10" stroke-linecap="round" stroke-linejoin="round"/>
<path d="M42.3106 9.05566H2.95889C1.8911 9.05566 1.02539 9.92138 1.02539 10.9892V50.3409C1.02539 51.4087 1.8911 52.2744 2.95889 52.2744H7.6354C8.45449 49.4503 11.0586 47.3853 14.1467 47.3853C17.2348 47.3853 19.839 49.4504 20.658 52.2744H44.2441V10.9892C44.2441 9.92138 43.3784 9.05566 42.3106 9.05566Z" stroke="#02CA95" stroke-width="2.0508" stroke-miterlimit="10" stroke-linecap="round" stroke-linejoin="round"/>
<path d="M57.4835 60.9467C61.2283 60.9467 64.2642 57.9108 64.2642 54.166C64.2642 50.4211 61.2283 47.3853 57.4835 47.3853C53.7386 47.3853 50.7028 50.4211 50.7028 54.166C50.7028 57.9108 53.7386 60.9467 57.4835 60.9467Z" stroke="#02CA95" stroke-width="2.0508" stroke-miterlimit="10" stroke-linecap="round" stroke-linejoin="round"/>
<path d="M57.4836 56.848C58.9649 56.848 60.1658 55.6471 60.1658 54.1657C60.1658 52.6843 58.9649 51.4834 57.4836 51.4834C56.0022 51.4834 54.8013 52.6843 54.8013 54.1657C54.8013 55.6471 56.0022 56.848 57.4836 56.848Z" stroke="#02CA95" stroke-width="2.0508" stroke-miterlimit="10" stroke-linecap="round" stroke-linejoin="round"/>
<path d="M14.1466 56.848C15.628 56.848 16.8289 55.6471 16.8289 54.1657C16.8289 52.6843 15.628 51.4834 14.1466 51.4834C12.6653 51.4834 11.4644 52.6843 11.4644 54.1657C11.4644 55.6471 12.6653 56.848 14.1466 56.848Z" stroke="#02CA95" stroke-width="2.0508" stroke-miterlimit="10" stroke-linecap="round" stroke-linejoin="round"/>
<path d="M28.8989 42.5808H44.2441V10.9892C44.2441 9.92138 43.3784 9.05566 42.3106 9.05566H2.95889C1.8911 9.05566 1.02539 9.92138 1.02539 10.9892V42.5808H28.8989Z" stroke="#02CA95" stroke-width="2.0508" stroke-miterlimit="10" stroke-linecap="round" stroke-linejoin="round"/>
<path d="M54.1808 24.4907H44.2441V52.2743H50.9722C51.7913 49.4502 54.3954 47.3852 57.4835 47.3852C60.5716 47.3852 63.1758 49.4503 63.9948 52.2743H67.5184C68.3227 52.2743 68.9746 51.6223 68.9746 50.8181V42.3492C68.9746 41.4122 68.5736 40.5201 67.873 39.8978L64.786 37.1566C64.4737 36.8793 64.2174 36.5449 64.0306 36.1714L60.4345 26.0553C59.955 25.0965 58.975 24.4907 57.9028 24.4907H54.1808Z" stroke="#02CA95" stroke-width="2.0508" stroke-miterlimit="10" stroke-linecap="round" stroke-linejoin="round"/>
<path d="M10.103 29.5608C9.67832 29.5608 9.27794 29.482 8.90182 29.3242C8.5257 29.1604 8.19508 28.933 7.90996 28.6418C7.62484 28.3445 7.40038 27.9957 7.23659 27.5953C7.07886 27.1889 7 26.7369 7 26.2395C7 25.7906 7.0819 25.372 7.24569 24.9837C7.40948 24.5955 7.63697 24.2527 7.92816 23.9555C8.21935 23.6582 8.55907 23.4277 8.94732 23.2639C9.34164 23.094 9.76629 23.0091 10.2213 23.0091C10.8158 23.0091 11.3405 23.1365 11.7955 23.3913C12.2505 23.6461 12.5872 23.9888 12.8056 24.4195L11.6954 25.2567C11.5498 24.9716 11.3375 24.7471 11.0584 24.5833C10.7854 24.4195 10.4882 24.3376 10.1667 24.3376C9.92401 24.3376 9.69956 24.3892 9.4933 24.4923C9.29311 24.5894 9.11718 24.7289 8.96552 24.9109C8.81993 25.0868 8.7077 25.2931 8.62883 25.5297C8.54997 25.7663 8.51054 26.0211 8.51054 26.2941C8.51054 26.5731 8.553 26.8309 8.63793 27.0675C8.72286 27.3041 8.84116 27.5104 8.99282 27.6863C9.14448 27.8562 9.32344 27.9896 9.5297 28.0867C9.74202 28.1838 9.97558 28.2323 10.2304 28.2323C10.5398 28.2323 10.834 28.1565 11.113 28.0048C11.3982 27.8471 11.659 27.6165 11.8956 27.3132V28.7874C11.38 29.303 10.7824 29.5608 10.103 29.5608ZM11.8046 27.2222H10.5489V26.1394H13.0422V29.5153H11.8046V27.2222Z" fill="#02CA95"/>
<path d="M14.0288 29.5153V23.0546H16.9406C17.244 23.0546 17.523 23.1183 17.7778 23.2457C18.0387 23.367 18.2631 23.5338 18.4512 23.7462C18.6392 23.9524 18.7848 24.186 18.888 24.4468C18.9972 24.7077 19.0518 24.9716 19.0518 25.2385C19.0518 25.5054 19.0093 25.7602 18.9244 26.0029C18.8394 26.2395 18.7181 26.4548 18.5604 26.649C18.4026 26.837 18.2146 26.9917 17.9962 27.113L19.4157 29.5153H17.7687L16.5312 27.4315H15.5211V29.5153H14.0288ZM15.5211 26.1303H16.886C17.0074 26.1303 17.1135 26.0939 17.2045 26.0211C17.3016 25.9422 17.3805 25.8361 17.4411 25.7026C17.5018 25.5691 17.5321 25.4144 17.5321 25.2385C17.5321 25.0626 17.4957 24.9109 17.4229 24.7835C17.3562 24.6501 17.2713 24.5469 17.1681 24.4741C17.065 24.4013 16.9558 24.3649 16.8405 24.3649H15.5211V26.1303Z" fill="#02CA95"/>
<path d="M21.7536 23.0546H23.3643L25.5846 29.5153H24.0558L23.5554 28.0685H21.5443L21.053 29.5153H19.5242L21.7536 23.0546ZM23.3097 27.0402L22.5544 24.556L21.7809 27.0402H23.3097Z" fill="#02CA95"/>
<path d="M30.5484 24.3649H28.5828V29.5153H27.0905V24.3649H25.1159V23.0546H30.5484V24.3649Z" fill="#02CA95"/>
<path d="M31.2772 29.5153V23.0546H32.7695V29.5153H31.2772Z" fill="#02CA95"/>
<path d="M37.8817 24.9473C37.8635 24.917 37.7998 24.8715 37.6906 24.8108C37.5814 24.7441 37.445 24.6743 37.2812 24.6015C37.1174 24.5287 36.9384 24.465 36.7443 24.4104C36.5502 24.3558 36.356 24.3285 36.1619 24.3285C35.9071 24.3285 35.71 24.374 35.5704 24.465C35.4309 24.55 35.3611 24.6834 35.3611 24.8654C35.3611 25.011 35.4127 25.1263 35.5158 25.2112C35.625 25.2961 35.7797 25.372 35.9799 25.4387C36.1801 25.4994 36.4258 25.5722 36.717 25.6571C37.1295 25.7663 37.4874 25.8997 37.7907 26.0575C38.0941 26.2091 38.3246 26.4063 38.4823 26.649C38.6461 26.8916 38.728 27.2131 38.728 27.6135C38.728 27.9775 38.6613 28.2869 38.5278 28.5417C38.3943 28.7904 38.2124 28.9936 37.9818 29.1514C37.7574 29.303 37.4995 29.4152 37.2084 29.488C36.9172 29.5548 36.6169 29.5881 36.3075 29.5881C35.992 29.5881 35.6675 29.5578 35.3338 29.4971C35.0062 29.4304 34.6908 29.3394 34.3875 29.2241C34.0842 29.1028 33.8051 28.9572 33.5503 28.7874L34.2055 27.4861C34.2297 27.5164 34.3086 27.5741 34.4421 27.659C34.5755 27.7379 34.7393 27.8228 34.9335 27.9138C35.1336 27.9987 35.3551 28.0746 35.5977 28.1413C35.8404 28.208 36.0861 28.2414 36.3348 28.2414C36.6017 28.2414 36.7989 28.1989 36.9263 28.114C37.0597 28.0291 37.1265 27.9108 37.1265 27.7591C37.1265 27.5953 37.0567 27.4679 36.9172 27.3769C36.7837 27.2859 36.5987 27.204 36.3621 27.1312C36.1316 27.0584 35.8646 26.9765 35.5613 26.8855C35.167 26.7642 34.8394 26.6277 34.5786 26.4761C34.3238 26.3244 34.1327 26.1394 34.0053 25.921C33.884 25.7026 33.8233 25.4296 33.8233 25.102C33.8233 24.647 33.9295 24.2648 34.1418 23.9555C34.3602 23.64 34.6514 23.4034 35.0153 23.2457C35.3793 23.0819 35.7767 23 36.2074 23C36.5107 23 36.8019 23.0364 37.081 23.1092C37.3661 23.182 37.63 23.273 37.8726 23.3822C38.1214 23.4914 38.3428 23.6006 38.5369 23.7098L37.8817 24.9473Z" fill="#02CA95"/>
</svg>
