<svg width="70" height="70" viewBox="0 0 70 70" fill="none" xmlns="http://www.w3.org/2000/svg">
<path d="M52.0488 29.9004C52.0488 20.4941 44.3926 12.8516 35 12.8516C25.6074 12.8516 17.9512 20.4941 17.9512 29.9004C17.9512 39.293 25.5937 46.9492 35 46.9492C44.4062 46.9492 52.0488 39.293 52.0488 29.9004ZM35 44.748C26.8105 44.748 20.1387 38.0898 20.1387 29.8867C20.1387 21.6836 26.8105 15.0391 35 15.0391C43.1895 15.0391 49.8613 21.6973 49.8613 29.9004C49.8613 38.1035 43.1895 44.748 35 44.748Z" fill="#02CA95"/>
<path d="M55.8906 47.5371C56.5059 47.2226 57.0527 46.8125 57.4766 46.2383C58.584 44.7207 58.3242 42.7382 58.0781 40.8105C57.9141 39.5664 57.75 38.2675 58.0371 37.3925C58.2969 36.5722 59.1719 35.6562 60.0059 34.7812C61.3047 33.414 62.7676 31.8691 62.7676 29.914C62.7676 27.959 61.3184 26.3867 60.0195 25.0195C59.1855 24.1308 58.3105 23.2285 58.0508 22.4082C57.7637 21.5332 57.9277 20.2343 58.0918 18.9902C58.3379 17.0625 58.584 15.08 57.4902 13.5625C56.3828 12.0312 54.4004 11.6621 52.4863 11.2929C51.2559 11.0605 49.9844 10.8281 49.2598 10.2949C48.5352 9.77536 47.9336 8.65426 47.3457 7.56051C46.457 5.91989 45.4316 4.06051 43.6133 3.45895C41.8633 2.88473 40.0723 3.73239 38.3359 4.5527C37.1738 5.09958 35.9844 5.66012 35.0273 5.66012C34.0703 5.66012 32.8809 5.09958 31.7188 4.5527C29.9824 3.73239 28.1914 2.88473 26.4414 3.45895C24.6094 4.04684 23.6523 5.83786 22.709 7.56051C22.1211 8.64059 21.5059 9.77536 20.7949 10.2949C20.0566 10.8281 18.7988 11.0742 17.5684 11.2929C15.6543 11.6484 13.6719 12.0312 12.5645 13.5625C11.457 15.08 11.7168 17.0625 11.9629 18.9902C12.127 20.2343 12.291 21.5332 12.0039 22.4082C11.7441 23.2285 10.8691 24.1445 10.0352 25.0195C8.73633 26.3867 7.27344 27.9316 7.27344 29.8867C7.27344 31.8418 8.75 33.3867 10.0352 34.7539C10.8691 35.6425 11.7441 36.5449 12.0039 37.3652C12.291 38.2402 12.127 39.539 11.9629 40.7832C11.7168 42.7109 11.4707 44.6933 12.5645 46.2109C12.9883 46.7851 13.5352 47.209 14.1504 47.5097L8.18945 57.832C7.9707 58.2148 7.99805 58.6933 8.27148 59.0488C8.54492 59.4043 8.99609 59.5547 9.41992 59.4453L18.2246 57.08L20.5898 65.8847C20.6992 66.3086 21.0684 66.623 21.5059 66.6914C21.5605 66.6914 21.6016 66.705 21.6426 66.705C22.0254 66.705 22.3945 66.5 22.5859 66.1582L28.1777 56.4648C29.3672 56.3281 30.5703 55.7675 31.7324 55.2207C32.8945 54.6738 34.084 54.1132 35.041 54.1132C35.998 54.1132 37.1875 54.6738 38.3496 55.2207C39.5117 55.7675 40.7148 56.3418 41.9043 56.4648L47.4961 66.1582C47.6875 66.5 48.0566 66.705 48.4394 66.705C48.4805 66.705 48.5352 66.705 48.5762 66.6914C49.0137 66.6367 49.3691 66.3222 49.4922 65.8847L51.8574 57.08L60.6621 59.4453C61.0859 59.5547 61.5371 59.4043 61.8105 59.0488C62.084 58.6933 62.1113 58.2148 61.8926 57.832L55.8906 47.5371ZM21.9707 62.7949L20.0156 55.4804C19.8652 54.8925 19.2637 54.5507 18.6758 54.7011L11.3613 56.6562L16.2285 48.2207C16.6523 48.3164 17.0898 48.3984 17.5273 48.4804C18.7578 48.7129 20.0293 48.9453 20.7539 49.4785C21.4785 49.998 22.0801 51.1191 22.668 52.2129C23.4609 53.6757 24.3496 55.3027 25.8262 56.0683L21.9707 62.7949ZM35 51.9394C33.5508 51.9394 32.1289 52.6093 30.7617 53.2519C29.4082 53.8945 28.0137 54.5507 27.0977 54.25C26.0996 53.9218 25.3477 52.5273 24.6094 51.1875C23.8984 49.8886 23.1738 48.5488 22.0527 47.7285C20.918 46.9082 19.4004 46.6211 17.9375 46.3476C16.4473 46.0605 14.9023 45.7734 14.2871 44.9531C13.6992 44.1465 13.8906 42.5879 14.082 41.0976C14.2734 39.6074 14.4648 38.0761 14.0273 36.7226C13.6035 35.4375 12.5645 34.33 11.5664 33.2773C10.5 32.1562 9.39258 30.9941 9.39258 29.914C9.39258 28.834 10.5 27.6718 11.5664 26.5507C12.5781 25.4843 13.6172 24.3906 14.0273 23.1054C14.4648 21.7519 14.2734 20.2207 14.082 18.7304C13.8906 17.2265 13.6992 15.6816 14.2871 14.875C14.8887 14.041 16.4336 13.7539 17.9375 13.4804C19.4004 13.207 20.918 12.9199 22.0527 12.0996C23.1738 11.2929 23.8984 9.93942 24.6094 8.64059C25.3477 7.28708 26.0996 5.90622 27.0977 5.57809C28.0273 5.27731 29.4219 5.93356 30.7617 6.57614C32.1289 7.21872 33.5508 7.88864 35 7.88864C36.4492 7.88864 37.8711 7.21872 39.2383 6.57614C40.5918 5.93356 41.9863 5.27731 42.9023 5.57809C43.9004 5.90622 44.6523 7.30075 45.3906 8.64059C46.1016 9.93942 46.8262 11.2793 47.9473 12.0996C49.082 12.9199 50.5996 13.207 52.0625 13.4804C53.5527 13.7675 55.0977 14.0547 55.7129 14.875C56.3008 15.6816 56.1094 17.2402 55.918 18.7304C55.7266 20.2207 55.5352 21.7519 55.9727 23.1054C56.3965 24.3906 57.4355 25.498 58.4336 26.5507C59.5 27.6718 60.6074 28.834 60.6074 29.914C60.6074 30.9941 59.5 32.1562 58.4336 33.2773C57.4219 34.3437 56.3828 35.4375 55.9727 36.7226C55.5352 38.0761 55.7266 39.6074 55.918 41.0976C56.1094 42.6015 56.3008 44.1465 55.7129 44.9531C55.1113 45.7871 53.5664 46.0742 52.0625 46.3476C50.5996 46.6211 49.082 46.9082 47.9473 47.7285C46.8262 48.5351 46.1016 49.8886 45.3906 51.1875C44.6523 52.541 43.9004 53.9218 42.9023 54.25C41.9727 54.5507 40.5781 53.8945 39.2383 53.2519C37.8711 52.6093 36.4492 51.9394 35 51.9394ZM51.3242 54.7011C50.7363 54.5507 50.1348 54.8925 49.9844 55.4804L48.0293 62.7949L44.1602 56.0957C45.623 55.3437 46.4844 53.7715 47.3184 52.2402C47.9062 51.1601 48.5215 50.0254 49.2324 49.5058C49.9707 48.9726 51.2285 48.7265 52.459 48.5078C52.8965 48.4257 53.334 48.3437 53.7578 48.248L58.625 56.6836L51.3242 54.7011Z" fill="#02CA95"/>
<path d="M45.2539 23.2012C44.8301 22.7773 44.1328 22.7773 43.709 23.2012L32.6348 34.2754L26.3047 27.9453C25.8809 27.5215 25.1836 27.5215 24.7598 27.9453C24.3359 28.3691 24.3359 29.0664 24.7598 29.4902L31.8691 36.5996C32.0742 36.8047 32.3477 36.9141 32.6484 36.9141C32.9492 36.9141 33.2227 36.8047 33.4277 36.5996L45.2539 24.7461C45.6777 24.3223 45.6777 23.625 45.2539 23.2012Z" fill="#02CA95"/>
</svg>
