<svg width="14" height="14" viewBox="0 0 14 14" fill="none" xmlns="http://www.w3.org/2000/svg">
<path d="M7.9598 6.98613L12.8386 2.10734C12.9482 1.97932 13.0055 1.81463 12.999 1.6462C12.9925 1.47777 12.9227 1.31799 12.8035 1.1988C12.6843 1.07961 12.5245 1.00979 12.3561 1.00328C12.1877 0.996779 12.023 1.05407 11.895 1.16371L7.01617 6.0425L2.13738 1.15702C2.00935 1.04738 1.84467 0.990087 1.67624 0.996593C1.5078 1.0031 1.34803 1.07292 1.22884 1.19211C1.10965 1.3113 1.03983 1.47107 1.03332 1.63951C1.02682 1.80794 1.08411 1.97262 1.19375 2.10065L6.07253 6.98613L1.18706 11.8649C1.117 11.9249 1.0601 11.9987 1.01993 12.0818C0.979758 12.1648 0.957184 12.2552 0.953624 12.3474C0.950064 12.4396 0.965594 12.5315 0.99924 12.6174C1.03289 12.7032 1.08392 12.7812 1.14914 12.8465C1.21436 12.9117 1.29236 12.9627 1.37824 12.9964C1.46412 13.03 1.55603 13.0455 1.6482 13.042C1.74037 13.0384 1.8308 13.0158 1.91383 12.9757C1.99686 12.9355 2.07069 12.8786 2.13069 12.8086L7.01617 7.92976L11.895 12.8086C12.023 12.9182 12.1877 12.9755 12.3561 12.969C12.5245 12.9625 12.6843 12.8926 12.8035 12.7735C12.9227 12.6543 12.9925 12.4945 12.999 12.3261C13.0055 12.1576 12.9482 11.9929 12.8386 11.8649L7.9598 6.98613Z" fill="#9AB6A7"/>
</svg>
