<?xml version="1.0" encoding="utf-8"?>
<svg width="14px" height="18px" viewBox="0 0 14 18" fill="none" xmlns="http://www.w3.org/2000/svg">
  <path d="M 7.008 0.073 C 10.845 0.073 13.956 3.366 13.956 7.429 C 13.956 10.536 11.893 13.922 7.82 17.625 C 7.592 17.832 7.303 17.944 7.007 17.944 C 6.705 17.944 6.417 17.83 6.192 17.624 L 5.922 17.376 C 2.028 13.771 0.056 10.466 0.056 7.429 C 0.056 3.366 3.169 0.073 7.008 0.073 Z M 7.008 4.599 C 6.297 4.599 5.619 4.898 5.118 5.428 C 4.615 5.96 4.333 6.678 4.333 7.429 C 4.333 8.177 4.615 8.898 5.118 9.428 C 5.619 9.96 6.297 10.257 7.008 10.257 C 7.715 10.257 8.394 9.96 8.897 9.428 C 9.398 8.898 9.678 8.177 9.678 7.429 C 9.678 6.678 9.398 5.96 8.897 5.428 C 8.394 4.898 7.715 4.599 7.008 4.599 Z" fill="#5BC58F" style=""/>
</svg>