<svg width="16" height="16" viewBox="0 0 16 16" fill="none" xmlns="http://www.w3.org/2000/svg">
<g clip-path="url(#clip0_3809_2735)">
<path fill-rule="evenodd" clip-rule="evenodd" d="M2.19486 1.00536C2.25354 0.899169 2.36528 0.833252 2.4866 0.833252H13.5392C13.6606 0.833252 13.7723 0.899169 13.831 1.00536L15.3017 3.66669C15.327 3.71039 15.3426 3.76038 15.3457 3.81372C15.3459 3.81822 15.3461 3.82272 15.3462 3.82725L15.3462 3.83325V4.49992C15.3462 5.37555 14.9242 6.15262 14.2724 6.63878C13.9667 6.76152 13.6341 6.82882 13.2866 6.82882C12.2748 6.82882 11.3899 6.25942 10.9279 5.41102C10.8695 5.30382 10.7572 5.23709 10.6351 5.23709C10.5131 5.23709 10.4008 5.30382 10.3424 5.41102C9.88037 6.25942 8.99544 6.82882 7.98364 6.82882C6.9718 6.82882 6.08687 6.25942 5.62484 5.41102C5.56647 5.30382 5.45417 5.23709 5.3321 5.23709C5.21004 5.23709 5.09774 5.30382 5.03937 5.41102C4.57734 6.25942 3.6924 6.82882 2.68059 6.82882C2.37847 6.82882 2.08756 6.77792 1.81582 6.68399C1.1287 6.20159 0.679584 5.40322 0.679584 4.49992C0.679584 4.43562 0.673711 4.36185 0.667517 4.28412C0.650527 4.07085 0.631147 3.82755 0.724117 3.66669L2.19486 1.00536ZM2.34625 7.47882V14.4999C2.34625 14.8681 2.64473 15.1666 3.01292 15.1666H4.00237L3.94187 10.8945C3.93684 10.5398 4.19817 10.1871 4.5985 10.1814L7.2649 10.1436C7.6652 10.138 7.93644 10.4831 7.94147 10.8378L8.00277 15.1666H13.0129C13.3811 15.1666 13.6796 14.8681 13.6796 14.4999V7.47242C13.5507 7.48765 13.4196 7.49548 13.2866 7.49548C12.2076 7.49548 11.2496 6.97898 10.6351 6.17958C10.0207 6.97898 9.06267 7.49548 7.98364 7.49548C6.90457 7.49548 5.94657 6.97898 5.3321 6.17958C4.71764 6.97898 3.75964 7.49548 2.68059 7.49548C2.56773 7.49548 2.4562 7.48985 2.34625 7.47882ZM7.27487 10.8473L7.33604 15.1666H4.6691L4.60847 10.885C4.6082 10.8661 4.6141 10.8538 4.61847 10.8479L7.2638 10.8104C7.2683 10.8162 7.2746 10.8284 7.27487 10.8473Z" fill="white"/>
</g>
<defs>
<clipPath id="clip0_3809_2735">
<rect width="16" height="16" fill="white"/>
</clipPath>
</defs>
</svg>
