<svg xmlns="http://www.w3.org/2000/svg" width="18" height="39" viewBox="0 0 18 39">
    <g fill="none" fill-rule="evenodd">
        <g>
            <g>
                <g fill="#FFF" fill-rule="nonzero">
                    <path d="M9 0C4.032.006.006 4.032 0 9v6c0 4.97 4.03 9 9 9s9-4.03 9-9V9c-.006-4.968-4.032-8.994-9-9zm1 12c0 .552-.448 1-1 1s-1-.448-1-1V7c0-.552.448-1 1-1s1 .448 1 1v5z" transform="translate(-791 -1117) translate(791 1117)"/>
                </g>
                <g stroke="#FFF" stroke-linecap="round" stroke-linejoin="round" stroke-width="2">
                    <path d="M3 8L3 0M0 5L3 8 6 5" transform="translate(-791 -1117) translate(791 1117) translate(6 30)"/>
                </g>
            </g>
        </g>
    </g>
</svg>
