<svg width="68" height="60" viewBox="0 0 68 60" fill="none" xmlns="http://www.w3.org/2000/svg">
<path d="M19.6875 14.0625C19.1719 14.0625 18.75 13.6406 18.75 13.125C18.75 5.87578 24.6211 0 31.875 0C38.4375 0 43.875 4.81641 44.8477 11.107C44.9297 11.6191 44.5781 12.0938 43.957 12.1758C43.5469 12.2578 43.0664 11.9062 42.9961 11.393C42.1641 6.00234 37.3945 1.875 31.875 1.875C25.5586 1.875 20.625 6.91172 20.625 13.125C20.625 13.6406 20.2031 14.0625 19.6875 14.0625ZM45 30C45 27.9258 46.6758 26.25 48.75 26.25C50.8242 26.25 52.5 27.9258 52.5 30C52.5 32.0742 50.8242 33.75 48.75 33.75C46.6758 33.75 45 32.0742 45 30ZM48.75 31.875C49.7812 31.875 50.625 31.0312 50.625 30C50.625 28.9688 49.7812 28.125 48.75 28.125C47.7188 28.125 46.875 28.9688 46.875 30C46.875 31.0312 47.7188 31.875 48.75 31.875ZM24.375 60H20.625C17.5195 60 15 57.4805 15 54.375V48.75C10.4461 45.3281 7.5 39.8789 7.5 33.75H6.09375C2.72813 33.75 0 31.0195 0 27.6562C0 24.293 2.72813 21.5625 6.09375 21.5625H6.5625C7.08047 21.5625 7.5 21.9844 7.5 22.5C7.5 23.0156 7.08047 23.4375 6.5625 23.4375H6.09375C3.76406 23.4375 1.875 25.3242 1.875 27.6562C1.875 29.9883 3.76406 31.875 6.09375 31.875H7.59258C8.53359 22.3945 16.5234 15 26.25 15H44.1094C46.1719 12.7031 49.1719 11.25 52.5 11.25H54.5273C56.3555 11.25 57.6914 12.9727 57.2461 14.7422L56.25 18.6445C58.7227 20.6836 60.8906 23.2617 62.1914 26.25H63.75C65.8242 26.25 67.5 27.9258 67.5 30V41.25C67.5 43.3242 65.8242 45 63.75 45H60C58.0664 47.4727 55.4883 49.6406 52.5 50.9414V54.375C52.5 57.4805 49.9805 60 46.875 60H43.125C40.0195 60 37.5 57.4805 37.5 54.375V52.5H30V54.375C30 57.4805 27.4805 60 24.375 60ZM44.9531 16.875H26.25C16.9336 16.875 9.375 24.4336 9.375 33.75C9.375 39.2695 12.0234 44.168 16.125 47.25L16.875 47.8125V54.375C16.875 56.4492 18.5508 58.125 20.625 58.125H24.375C26.4492 58.125 28.125 56.4492 28.125 54.375V52.5H27.1875C26.6719 52.5 26.25 52.0781 26.25 51.5625C26.25 51.0469 26.6719 50.625 27.1875 50.625H40.3125C40.8281 50.625 41.25 51.0469 41.25 51.5625C41.25 52.0781 40.8281 52.5 40.3125 52.5H39.375V54.375C39.375 56.4492 41.0508 58.125 43.125 58.125H46.875C48.9492 58.125 50.625 56.4492 50.625 54.375V49.7109L51.75 49.2188C54.4336 48.0469 56.7656 46.1953 58.5 43.875L59.0625 43.125H63.75C64.7812 43.125 65.625 42.2812 65.625 41.25V30C65.625 28.9688 64.7812 28.125 63.75 28.125H60.9609L60.4688 27C59.2969 24.3164 57.4453 21.9844 55.125 20.25L54.1289 19.5L55.4297 14.2852C55.582 13.6992 55.1367 13.125 54.5273 13.125H52.5C49.7227 13.125 47.2266 14.332 45.5156 16.2539L44.9531 16.875Z" fill="#00CA95"/>
</svg>
