<svg width="58" height="60" viewBox="0 0 58 60" fill="none" xmlns="http://www.w3.org/2000/svg">
<path d="M26.0704 0.918452C27.9454 0.124741 30.0665 0.124858 31.9298 0.918687L52.6368 9.70189C55.2149 10.7952 57.1485 13.3359 57.1251 16.3007C57.0665 28.0312 52.297 49.3007 32.0938 58.9687C30.1485 59.8945 27.8634 59.8945 25.9063 58.9687C5.71376 49.3007 0.932512 28.0312 0.87509 16.3007C0.859855 13.3359 2.78759 10.7952 5.36337 9.70189L26.0704 0.918452ZM31.2032 2.64486C29.797 2.04955 28.2149 2.04955 26.8087 2.64486L6.09579 11.4281C4.14579 12.2577 2.73954 14.1562 2.75009 16.3945C2.80634 27.7148 7.47509 48.0585 26.7267 57.2695C28.1563 57.9609 29.8438 57.9609 31.2852 57.2695C50.5274 48.0585 55.2032 27.7148 55.2501 16.3945C55.2618 14.1562 53.8556 12.2577 51.9102 11.4281L31.2032 2.64486Z" fill="#02CA95"/>
</svg>
