<svg width="76" height="53" viewBox="0 0 76 53" fill="none" xmlns="http://www.w3.org/2000/svg">
<path d="M60.5 2.375H8C4.89336 2.375 2.375 4.89453 2.375 8V38C2.375 41.1055 4.89336 43.625 8 43.625H39.6992L39.2305 45.5H8C3.85742 45.5 0.5 42.1367 0.5 38V8C0.5 3.85742 3.85742 0.5 8 0.5H60.5C64.6367 0.5 68 3.85742 68 8V15.5703C67.3672 15.6523 66.7344 15.8164 66.125 16.0391V8C66.125 4.89453 63.6055 2.375 60.5 2.375ZM30.5 29.5625C30.5 29.0469 30.9219 28.625 31.4375 28.625H44.5625C45.0781 28.625 45.5 29.0469 45.5 29.5625C45.5 30.0781 45.0781 30.5 44.5625 30.5H31.4375C30.9219 30.5 30.5 30.0781 30.5 29.5625ZM55.8125 17.375C56.3281 17.375 56.75 17.7969 56.75 18.3125C56.75 18.8281 56.3281 19.25 55.8125 19.25H31.4375C30.9219 19.25 30.5 18.8281 30.5 18.3125C30.5 17.7969 30.9219 17.375 31.4375 17.375H55.8125ZM17.2695 10.8125C17.8906 10.8125 18.207 11.2344 18.207 11.75V13.6953C18.5234 13.7188 18.7344 13.7422 18.957 13.7773C19.5195 13.8711 21.2305 14.1992 21.8398 14.3633C22.332 14.4922 22.6367 15.0078 22.4961 15.5117C22.3672 16.0039 21.8516 16.3086 21.3477 16.168C20.832 16.0391 19.1914 15.7109 18.6641 15.6289C17.0117 15.3711 15.5586 15.5703 14.5156 16.0391C13.4727 16.5195 12.8867 17.2344 12.7461 18.0312C12.6406 18.6641 12.7109 19.1211 12.875 19.4609C13.0391 19.8125 13.332 20.1406 13.7773 20.4336C14.7148 21.0664 16.0742 21.4766 17.6445 21.957H17.668C19.1562 22.3086 20.8555 22.9297 22.0859 23.7148C22.7188 24.2773 23.2695 24.8633 23.5977 25.6367C23.832 26.4102 24.0195 27.3008 23.8555 28.2852C23.5625 29.9727 22.4609 31.1328 20.9727 31.7773C20.082 32.1172 19.2852 32.3047 18.207 32.3633V34.25C18.207 34.7656 17.8906 35.1875 17.2695 35.1875C16.8594 35.1875 16.332 34.7656 16.332 34.25V32.3047C16.2266 32.2812 16.0156 32.1523 15.793 32.2227C14.7852 32.0586 13.1328 31.4961 12.0359 31.1211C11.818 31.0391 11.6199 30.9805 11.4535 30.9219C10.9625 30.7578 10.6965 30.2305 10.8605 29.7383C11.0234 29.2461 11.5543 28.9766 12.0465 29.1406C12.2539 29.1055 12.4766 29.2812 12.7109 29.3633L12.7227 29.375C13.8359 29.75 15.2539 30.2305 16.0859 30.3711C17.7617 30.6289 19.2031 30.4883 20.2344 30.0547C21.1367 29.6211 21.8398 28.918 22.0039 27.9688C22.1211 27.2773 22.0508 26.7734 21.875 26.3867C21.7109 26 21.418 25.6484 20.9844 25.332C20.0586 24.6641 18.6992 24.2305 17.1289 23.7617L16.9297 23.5977C15.5 23.2695 13.9062 22.7891 12.7344 21.9922C12.0957 21.5586 11.5332 20.9023 11.1828 20.2695C10.8301 19.5195 10.7328 18.6641 10.898 17.7148C11.1699 16.1445 12.2891 14.9961 13.6367 14.3398C14.5391 13.8711 15.4531 13.7539 16.4375 13.6719V11.75C16.4375 11.2344 16.8594 10.8125 17.375 10.8125H17.2695ZM42.3008 52.4375C41.832 51.9688 41.6445 51.2891 41.8086 50.5508L43.5664 43.6016C43.7305 42.9453 44.0703 42.3477 44.5508 41.7617L65.7969 20.6211C67.625 18.793 70.5898 18.793 72.4297 20.6211L74.1055 22.3086C75.9453 24.1367 75.9453 27.1016 74.1055 28.9414L52.8711 50.1758C52.3906 50.6562 51.7812 50.9961 51.125 51.1602L44.082 52.9297C43.4375 53.082 42.7695 52.8945 42.3008 52.4375ZM43.625 51.1016L50.668 49.3438C50.9961 49.2617 51.3008 49.0977 51.5469 48.8516L68.2812 32.1055L62.6211 26.4453L45.875 43.1914C45.6406 43.4258 45.4648 43.7305 45.3828 44.0586L43.625 51.1016ZM72.7812 23.6328L71.0938 21.9453C70.0039 20.8555 68.2227 20.8555 67.1211 21.9453L63.9453 25.1211L69.6055 30.7812L72.7812 27.6172C73.8828 26.4102 73.8828 24.7344 72.7812 23.6328ZM50.7266 49.5781L51.125 51.1602L50.7266 49.5781Z" fill="#02CA95"/>
</svg>
