<svg width="75" height="54" viewBox="0 0 75 54" fill="none" xmlns="http://www.w3.org/2000/svg">
<path d="M54.375 21.375C54.375 27.5859 49.3359 32.625 43.125 32.625C36.8086 32.625 31.875 27.5859 31.875 21.375C31.875 15.0586 36.8086 10.125 43.125 10.125C49.3359 10.125 54.375 15.0586 54.375 21.375ZM43.125 12C37.9453 12 33.75 16.1953 33.75 21.375C33.75 26.5547 37.9453 30.75 43.125 30.75C48.3047 30.75 52.5 26.5547 52.5 21.375C52.5 16.1953 48.3047 12 43.125 12ZM70.3125 14.8125C70.3125 15.3281 69.8906 15.75 69.375 15.75H68.4375C63.7734 15.75 60 11.9766 60 7.3125V6.375C60 5.85703 60.4219 5.4375 60.9375 5.4375C61.4531 5.4375 61.875 5.85703 61.875 6.375V7.3125C61.875 10.9336 64.8164 13.875 68.4375 13.875H69.375C69.8906 13.875 70.3125 14.2969 70.3125 14.8125ZM16.875 15.75C16.3594 15.75 15.9375 15.3281 15.9375 14.8125C15.9375 14.2969 16.3594 13.875 16.875 13.875H17.8125C21.4336 13.875 24.375 10.9336 24.375 7.3125V6.375C24.375 5.85703 24.7969 5.4375 25.3125 5.4375C25.8281 5.4375 26.25 5.85703 26.25 6.375V7.3125C26.25 11.9766 22.4766 15.75 17.8125 15.75H16.875ZM69.375 28.875H68.4375C64.8164 28.875 61.875 31.8164 61.875 35.4375V36.375C61.875 36.8906 61.4531 37.3125 60.9375 37.3125C60.4219 37.3125 60 36.8906 60 36.375V35.4375C60 30.7734 63.7734 27 68.4375 27H69.375C69.8906 27 70.3125 27.4219 70.3125 27.9375C70.3125 28.4531 69.8906 28.875 69.375 28.875ZM17.8125 27C22.4766 27 26.25 30.7734 26.25 35.4375V36.375C26.25 36.8906 25.8281 37.3125 25.3125 37.3125C24.7969 37.3125 24.375 36.8906 24.375 36.375V35.4375C24.375 31.8164 21.4336 28.875 17.8125 28.875H16.875C16.3594 28.875 15.9375 28.4531 15.9375 27.9375C15.9375 27.4219 16.3594 27 16.875 27H17.8125ZM67.5 0.75C71.6367 0.75 75 4.10742 75 8.25V34.5C75 38.6367 71.6367 42 67.5 42H18.75C14.6133 42 11.25 38.6367 11.25 34.5V8.25C11.25 4.10742 14.6133 0.75 18.75 0.75H67.5ZM67.5 2.625H18.75C15.6445 2.625 13.125 5.14336 13.125 8.25V34.5C13.125 37.6055 15.6445 40.125 18.75 40.125H67.5C70.6055 40.125 73.125 37.6055 73.125 34.5V8.25C73.125 5.14336 70.6055 2.625 67.5 2.625ZM7.5 13.875C4.39336 13.875 1.875 16.3945 1.875 19.5V45.75C1.875 48.8555 4.39336 51.375 7.5 51.375H56.25C59.3555 51.375 61.875 48.8555 61.875 45.75H63.75C63.75 49.8867 60.3867 53.25 56.25 53.25H7.5C3.35742 53.25 0 49.8867 0 45.75V19.5C0 15.3633 3.35742 12 7.5 12V13.875Z" fill="#00CA95"/>
</svg>
