<svg width="60" height="60" viewBox="0 0 60 60" fill="none" xmlns="http://www.w3.org/2000/svg">
<path d="M59.9996 8.5936C59.9987 8.44254 59.9598 8.2901 59.8769 8.15094L55.8857 1.42639C55.535 0.835876 54.8905 0.46875 54.2038 0.46875H21.5983C20.9125 0.46875 20.2684 0.834503 19.9178 1.42365L15.9096 8.15002C15.8263 8.28918 15.7874 8.44208 15.7865 8.5936C15.7865 8.5936 15.7856 8.59772 15.7856 8.60001V29.0913L0.43996 43.1598C0.163929 43.4129 0.0037112 43.7732 4.90877e-05 44.1481C-0.00315526 44.5226 0.150653 44.8856 0.422565 45.1442L15.2157 59.1994C15.4729 59.4443 15.8089 59.5729 16.15 59.5729C16.3303 59.5729 16.5125 59.5367 16.6855 59.4626C17.1845 59.2484 17.5072 58.759 17.5072 58.2156V51.5634C21.0457 50.9775 24.2002 49.8766 26.9509 48.2721H57.7602C58.9953 48.2721 60 47.2673 60 46.0323V8.60001C60 8.59772 59.9996 8.5936 59.9996 8.5936ZM41.1649 2.22656L42.1244 7.72064H34.2513L35.1165 2.22656H41.1649ZM34.1021 9.47891H42.2915V21.2054L38.7218 18.5458C38.5657 18.43 38.3812 18.3719 38.1968 18.3719C38.0118 18.3719 37.8274 18.43 37.6717 18.5458L34.1021 21.2054V9.47891ZM21.4275 2.32361C21.4632 2.26364 21.5287 2.22656 21.5983 2.22656H33.3371L32.4715 7.7211H18.2113L21.4275 2.32361ZM58.2422 46.0323C58.2422 46.2982 58.0262 46.5143 57.7602 46.5143H29.545C30.9174 45.4427 32.1648 44.22 33.2822 42.8444C36.4156 38.9873 38.5644 33.9857 39.8507 27.5537C39.9317 27.1477 39.7184 26.7398 39.338 26.575C38.958 26.4102 38.5145 26.5334 38.2732 26.8707C34.3808 32.3213 28.2305 35.5 20.691 37.1754C20.2172 37.2807 19.9183 37.7499 20.0235 38.2237C20.1284 38.6975 20.5971 38.9973 21.0718 38.8911C26.1196 37.7705 33.6759 34.9022 37.2181 30.9956C35.9784 35.3526 34.2307 38.8893 31.9176 41.7361C28.2578 46.241 23.0718 49.0013 16.5038 49.9393C16.0708 50.0015 15.7494 50.3723 15.7494 50.8095V57.2818L1.94463 44.1655L15.7494 31.5092V38.2439C15.7494 38.7296 16.1426 39.1228 16.6283 39.1228H16.659H16.6645H16.6713C18.1408 39.1214 19.5511 39.055 20.8645 38.9246C21.3474 38.8765 21.7003 38.4462 21.6523 37.9633C21.6047 37.4799 21.1744 37.1265 20.691 37.1754C19.6962 37.2739 18.6406 37.3343 17.5434 37.3558V9.47891H32.3443V22.9564C32.3443 23.2887 32.5319 23.5931 32.829 23.7419C33.1257 23.8911 33.4818 23.8596 33.7482 23.6613L38.1968 20.3471L42.6453 23.6613C42.8 23.7767 42.9845 23.8353 43.1704 23.8353C43.305 23.8353 43.44 23.8046 43.5645 23.7419C43.8616 23.5931 44.0493 23.2887 44.0493 22.9564V9.47891H55.6211C56.1063 9.47891 56.5 9.08569 56.5 8.60001C56.5 8.11478 56.1063 7.7211 55.6211 7.7211H43.9092L42.9493 2.22656H54.2038C54.2734 2.22656 54.3389 2.26364 54.3746 2.32361L57.578 7.7211H55.4133C54.9276 7.7211 54.5344 8.11478 54.5344 8.60001C54.5344 9.08569 54.9276 9.47891 55.4133 9.47891H58.2422V46.0323Z" fill="#00CA95"/>
</svg>
