<svg width="75" height="60" viewBox="0 0 75 60" fill="none" xmlns="http://www.w3.org/2000/svg">
<path d="M7.54219 48.75H7.5C3.35742 48.75 0 45.3867 0 41.25V7.5C0 3.35742 3.35742 0 7.5 0H41.25C45.3867 0 48.75 3.35742 48.75 7.5V11.25H55.6289C56.8828 11.25 58.0664 11.7422 58.9453 12.6211L69.8789 23.4492C70.7578 24.4336 71.25 25.6172 71.25 26.8711V46.875H74.0625C74.5781 46.875 75 47.2969 75 47.8125C75 48.3281 74.5781 48.75 74.0625 48.75H67.4531C67.4883 49.0547 67.5 49.3711 67.5 49.6875C67.5 55.3828 62.8828 60 57.1875 60C51.4922 60 46.875 55.3828 46.875 49.6875C46.875 49.3711 46.8867 49.0547 46.9219 48.75H28.0781C28.1133 49.0547 28.125 49.3711 28.125 49.6875C28.125 55.3828 23.5078 60 17.8125 60C12.1172 60 7.5 55.3828 7.5 49.6875C7.5 49.3711 7.51406 49.0547 7.54219 48.75ZM1.875 7.5V41.25C1.875 44.3555 4.39336 46.875 7.5 46.875H7.88789C9.1125 42.5508 13.0898 39.375 17.8125 39.375C22.5352 39.375 26.5078 42.5508 27.7383 46.875H46.875V7.5C46.875 4.39336 44.3555 1.875 41.25 1.875H7.5C4.39336 1.875 1.875 4.39336 1.875 7.5ZM68.9062 25.3125C68.8008 25.1602 68.6836 25.0078 68.4492 24.8789L57.6211 13.9453C57.0938 13.418 56.3789 13.125 55.6289 13.125H48.75V25.3125H68.9062ZM48.75 27.1875V43.7578C50.6133 41.1094 53.6953 39.375 57.1875 39.375C61.9102 39.375 65.8828 42.5508 67.1133 46.875H69.375V27.1875H48.75ZM17.8125 41.25C13.1484 41.25 9.375 45.0234 9.375 49.6875C9.375 54.3516 13.1484 58.125 17.8125 58.125C22.4766 58.125 26.25 54.3516 26.25 49.6875C26.25 45.0234 22.4766 41.25 17.8125 41.25ZM57.1875 58.125C61.8516 58.125 65.625 54.3516 65.625 49.6875C65.625 45.0234 61.8516 41.25 57.1875 41.25C52.5234 41.25 48.75 45.0234 48.75 49.6875C48.75 54.3516 52.5234 58.125 57.1875 58.125Z" fill="#00CA95"/>
</svg>
