<svg width="67" height="60" viewBox="0 0 67 60" fill="none" xmlns="http://www.w3.org/2000/svg">
<path d="M33.3953 33.75C32.8828 33.75 32.4646 34.174 32.4646 34.6903V52.9688C32.4646 55.8105 30.1673 58.125 27.3466 58.125C24.5258 58.125 22.2285 55.8105 22.2285 52.9688V49.6875C22.2285 49.1712 21.8105 48.75 21.298 48.75C20.7855 48.75 20.3674 49.1712 20.3674 49.6875V52.9688C20.3674 56.8465 23.4976 60 27.3466 60C31.1956 60 34.3257 56.8465 34.3257 52.9688V34.6992C34.3259 34.1836 34.0118 33.75 33.3953 33.75ZM66.9651 32.918C63.4046 15.9141 48.7727 6.07031 34.4189 5.67188C34.4189 5.64844 34.3259 5.64023 34.3259 5.625V0.9375C34.3259 0.421172 33.9079 0.105469 33.5 0.105469C33.0921 0.105469 32.4647 0.421172 32.4647 0.9375L32.4718 5.64258C32.4718 5.65586 32.4713 5.6293 32.4718 5.64258C21.5889 5.99414 4.30729 12.8086 0.0342875 32.918C-0.153092 33.7734 0.452118 34.6992 1.25042 34.6992C1.55262 34.6992 1.88227 34.5673 2.20761 34.2486C4.81084 31.4748 7.49433 29.9502 10.1778 29.9502C13.7302 29.9502 17.2826 32.6174 20.6559 38.5846C20.9574 39.128 21.3774 39.3807 21.7936 39.3807C22.2305 39.3807 22.6628 39.1021 22.9496 38.5846C25.2995 34.4414 28.1726 30 33.3953 30C40.2 30 43.6535 38.0648 43.9443 38.5781C44.231 39.0956 44.6636 39.3743 45.1003 39.3743C45.5165 39.3743 45.9365 39.1215 46.238 38.5781C49.5066 32.6145 53.1765 29.9695 56.7254 29.9695C59.4182 29.9693 62.1017 31.4918 64.6874 34.2422C65.0171 34.5642 65.3492 34.6976 65.6523 34.6976C66.558 34.6992 67.1512 33.7734 66.9651 32.918ZM56.8337 28.1016C52.5996 28.1016 48.7029 31.0078 45.225 36.6914C42.2623 31.0969 38.1202 28.0301 33.5 28.0301C27.2373 28.0301 23.878 33.1301 21.7982 36.7371C18.3215 30.9211 14.4155 27.9727 10.1779 27.9727C7.5084 27.9727 4.84469 29.1574 2.26356 31.4719C7.23971 12.5859 24.7179 7.5 33.3953 7.5C45.6321 7.5 60.3349 15.0492 64.6387 31.5938C62.1495 29.2734 59.4974 28.1016 56.8337 28.1016Z" fill="#00CA95"/>
</svg>
