<svg width="75" height="46" viewBox="0 0 75 46" fill="none" xmlns="http://www.w3.org/2000/svg">
<path d="M41.25 39.8749H18.6446C17.0942 39.8749 15.8321 38.6116 15.8321 37.0624V3.59367L28.3125 15.2468C28.6055 15.4179 28.8281 15.4999 29.0625 15.4999C29.3134 15.4999 29.5624 15.401 29.7474 15.2033C30.1008 14.8225 30.0806 14.2293 29.7016 13.8779L15.6391 0.75293C15.2803 0.416016 14.7199 0.416016 14.3606 0.75293L0.298075 13.8779C-0.0809096 14.2295 -0.101066 14.8227 0.252301 15.2033C0.607497 15.5805 1.19894 15.6025 1.57652 15.2473L13.9571 3.59367V37.0624C13.9571 39.6476 16.0594 41.7499 18.6446 41.7499H41.25C41.7682 41.7499 42.1875 41.3288 42.1875 40.8124C42.1875 40.2961 41.7656 39.8749 41.25 39.8749ZM74.7422 30.7929C74.3906 30.4157 73.7956 30.3974 73.418 30.7489L60.9375 42.4021V8.93742C60.9375 6.35227 58.8352 4.24992 56.25 4.24992H33.75C33.2344 4.24992 32.8125 4.67063 32.8125 5.18742C32.8125 5.70422 33.2344 6.12492 33.75 6.12492H56.25C57.8004 6.12492 59.0625 7.3882 59.0625 8.93742V42.4062L46.5821 30.753C46.2067 30.4015 45.6134 30.4198 45.2578 30.797C44.9044 31.1779 44.9246 31.7711 45.3036 32.1224L59.3661 45.2474C59.543 45.4179 59.7656 45.4999 60 45.4999C60.2344 45.4999 60.4598 45.4157 60.6393 45.2473L74.7018 32.1223C75.0821 31.7655 75.1055 31.1796 74.7422 30.7929Z" fill="#00CA95"/>
</svg>
