<svg width="58" height="60" viewBox="0 0 58 60" fill="none" xmlns="http://www.w3.org/2000/svg">
<path d="M53.668 9.80968L31.168 0.434678C30.5967 0.19667 29.6258 0.000732422 29.007 0.000732422C28.3845 0.000732422 27.4191 0.19667 26.8438 0.434678L4.34492 9.80968C2.24609 10.6757 0.875 12.7265 0.875 14.8944C0.875 45.1405 23.0469 59.9999 28.9883 59.9999C34.9883 59.9999 57.125 44.9765 57.125 14.8944C57.125 12.7265 55.7539 10.6757 53.668 9.80968ZM28.8945 58.1249C23.8555 58.1249 2.75 43.828 2.75 14.8944C2.75 13.3722 3.65633 12.0151 5.06445 11.4327L27.459 2.16319C27.9102 2.01671 28.625 1.87491 29.0117 1.87491C29.3853 1.87491 30.1113 2.01952 30.452 2.16097L52.952 11.5383C54.3477 12.1171 55.25 13.371 55.25 14.8944C55.25 47.5312 30.7461 58.1249 28.8945 58.1249ZM41.1992 20.5194C40.9498 20.5194 40.7021 20.6186 40.5195 20.8135L25.2734 37.0546L17.5156 28.4296C17.3281 28.2304 17.082 28.0194 16.8242 28.0194C16.298 28.0194 15.8873 28.4501 15.8873 28.9593C15.8873 29.1825 15.9667 29.4066 16.1285 29.5862L24.566 38.9612C24.7454 39.1572 25.0347 39.2139 25.2618 39.2707C25.5182 39.2707 25.7671 39.1645 25.9429 38.9778L41.8804 22.1028C42.0519 21.9208 42.1371 21.6885 42.1371 21.4568C42.1367 20.9765 41.6445 20.5194 41.1992 20.5194Z" fill="#00CA95"/>
</svg>
