<svg width="10" height="16" viewBox="0 0 10 16" fill="none" xmlns="http://www.w3.org/2000/svg">
<path d="M5 12.25C4.58406 12.25 4.25 12.5841 4.25 13C4.25 13.4159 4.58406 13.75 5 13.75C5.41594 13.75 5.75 13.4159 5.75 13C5.75 12.5841 5.41563 12.25 5 12.25ZM8 0H2C0.895313 0 0 0.895313 0 2V14C0 15.1047 0.895313 16 2 16H8C9.10469 16 10 15.1047 10 14V2C10 0.895313 9.10312 0 8 0ZM9 14C9 14.5513 8.55125 15 8 15H2C1.44875 15 1 14.5513 1 14V2C1 1.44875 1.44875 1 2 1H8C8.55125 1 9 1.44875 9 2V14Z" fill="#5BC58F"/>
</svg>
