<svg width="20" height="16" viewBox="0 0 20 16" fill="none" xmlns="http://www.w3.org/2000/svg">
<path d="M9.375e-06 5.80625C9.375e-06 5.60625 0.0501875 5.40937 0.145938 5.23125L2.57375 0.781875C2.83656 0.299844 3.34063 0 3.89062 0H16.1094C16.6594 0 17.1625 0.299844 17.425 0.781875L19.8531 5.23125C19.95 5.40937 20 5.60625 20 5.80625C20 6.46563 19.4656 7 18.8062 7H18V15.5C18 15.775 17.775 16 17.5 16C17.225 16 17 15.775 17 15.5V7H3V11H11V8.5C11 8.225 11.225 8 11.5 8C11.775 8 12 8.225 12 8.5V14.5C12 15.3281 11.3281 16 10.5 16H3.5C2.67156 16 2 15.3281 2 14.5V7H1.19531C0.535 7 0 6.46563 0 5.80625H9.375e-06ZM18.8062 6C18.9125 6 19 5.9125 19 5.80625C19 5.77187 18.9906 5.74062 18.975 5.7125L16.55 1.26063C16.4594 1.1 16.2938 1 16.1094 1H3.89062C3.70625 1 3.54063 1.1 3.45 1.26063L1.02375 5.7125C1.00812 5.74062 1 5.77187 1 5.80625C1 5.9125 1.0875 6 1.19531 6H18.8062ZM3.5 15H10.5C10.775 15 11 14.775 11 14.5V12H3V14.5C3 14.775 3.225 15 3.5 15Z" fill="#5BC58F"/>
</svg>
