<svg width="22" height="20" viewBox="0 0 22 20" fill="none" xmlns="http://www.w3.org/2000/svg">
<path d="M3.05556 0C3.34087 0 3.58837 0.201953 3.65139 0.486328L3.81944 1.25H20.6938C21.4691 1.25 22.0878 2.04102 21.8701 2.83828L19.8076 10.3398C19.6587 10.8789 19.1774 11.25 18.6313 11.25H6.04236L6.6 13.75H18.9444C19.2806 13.75 19.5556 14.0312 19.5556 14.375C19.5556 14.7188 19.2806 15 18.9444 15H6.11111C5.82465 15 5.58021 14.7969 5.51528 14.5117L2.56781 1.25H0.611111C0.273625 1.25 0 0.970312 0 0.625C0 0.279844 0.273625 0 0.611111 0H3.05556ZM4.09826 2.5L5.73299 10H18.6313L20.6938 2.5H4.09826ZM4.88889 17.8125C4.88889 16.6055 5.84757 15.625 7.02778 15.625C8.20799 15.625 9.16667 16.6055 9.16667 17.8125C9.16667 19.0195 8.20799 20 7.02778 20C5.84757 20 4.88889 19.0195 4.88889 17.8125ZM7.02778 18.75C7.53576 18.75 7.94445 18.332 7.94445 17.8125C7.94445 17.293 7.53576 16.875 7.02778 16.875C6.51979 16.875 6.11111 17.293 6.11111 17.8125C6.11111 18.332 6.51979 18.75 7.02778 18.75ZM19.5556 17.8125C19.5556 19.0195 18.5969 20 17.4167 20C16.2365 20 15.2778 19.0195 15.2778 17.8125C15.2778 16.6055 16.2365 15.625 17.4167 15.625C18.5969 15.625 19.5556 16.6055 19.5556 17.8125ZM17.4167 16.875C16.9087 16.875 16.5 17.293 16.5 17.8125C16.5 18.332 16.9087 18.75 17.4167 18.75C17.9247 18.75 18.3333 18.332 18.3333 17.8125C18.3333 17.293 17.9247 16.875 17.4167 16.875Z" fill="white"/>
</svg>
