<svg width="16" height="16" viewBox="0 0 16 16" fill="none" xmlns="http://www.w3.org/2000/svg">
<path d="M6.76448 9.17322C7.69225 10.1144 8.81483 10.841 10.0534 11.3021L11.7289 9.96877C11.7786 9.93456 11.8375 9.91625 11.8978 9.91625C11.9581 9.91625 12.017 9.93456 12.0667 9.96877L15.1778 11.9732C15.2959 12.0442 15.3959 12.1417 15.4699 12.258C15.5438 12.3743 15.5897 12.5062 15.6039 12.6433C15.6182 12.7803 15.6003 12.9189 15.5518 13.0479C15.5033 13.1768 15.4255 13.2928 15.3245 13.3866L13.8667 14.8266C13.6579 15.0328 13.4013 15.1842 13.1198 15.2672C12.8383 15.3502 12.5406 15.3622 12.2534 15.3021C9.38769 14.7102 6.74632 13.3241 4.63115 11.3021C2.56292 9.25999 1.13172 6.66159 0.511149 3.82211C0.449846 3.53928 0.46264 3.24541 0.548294 2.96898C0.633948 2.69256 0.789556 2.44294 1.00004 2.24433L2.51115 0.786551C2.60466 0.690456 2.7187 0.616762 2.84473 0.570985C2.97075 0.525209 3.1055 0.508537 3.23889 0.522217C3.37227 0.535897 3.50083 0.579576 3.61494 0.649982C3.72905 0.720388 3.82576 0.815697 3.89782 0.928773L5.96893 3.99988C6.00465 4.04811 6.02393 4.10654 6.02393 4.16655C6.02393 4.22657 6.00465 4.28499 5.96893 4.33322L4.60448 5.97322C5.07807 7.18697 5.81592 8.28007 6.76448 9.17322Z" fill="#5BC58F"/>
</svg>
