<svg width="16" height="16" viewBox="0 0 16 16" fill="none" xmlns="http://www.w3.org/2000/svg">
<path d="M7.97188 10C7.725 10 7.5 10.225 7.5 10.5V14C7.5 14.5519 7.05188 15 6.5 15C5.94812 15 5.5 14.5519 5.5 14V13.5C5.5 13.225 5.275 13 5 13C4.725 13 4.5 13.2236 4.5 13.5V14C4.5 15.1025 5.3975 16 6.47188 16C7.54625 16 8.5 15.1031 8.5 14V10.5C8.5 10.225 8.275 10 7.97188 10ZM8.49375 1.02437C8.49687 1.01562 8.5 1.00875 8.5 1V0.5C8.5 0.223625 8.27634 0 8 0C7.72366 0 7.5 0.223625 7.5 0.5V1C7.5 1.00861 7.50446 1.01575 7.50488 1.02429C3.325 1.27406 0 4.6375 0 8.75C0 8.8875 0.112312 9 0.25 9H15.75C15.8875 9 16 8.8875 16 8.75C16 4.6375 12.675 1.27406 8.49375 1.02437ZM1.04281 8C1.43094 4.63125 4.40312 2 8 2C11.5969 2 14.5688 4.62969 14.9563 8H1.04281Z" fill="black"/>
</svg>
