<svg width="16" height="12" viewBox="0 0 16 12" fill="none" xmlns="http://www.w3.org/2000/svg">
<path d="M1.6 9.75C0.71625 9.75 0 9.07734 0 8.25V1.5C0 0.671484 0.71625 0 1.6 0H8.8C9.6825 0 10.4 0.671484 10.4 1.5V2.25H12.0325C12.3825 2.25 12.715 2.39297 12.9425 2.64375L14.91 4.79531C15.0975 4.99922 15.2 5.25938 15.2 5.52656V9H15.6C15.82 9 16 9.16875 16 9.375C16 9.58125 15.82 9.75 15.6 9.75H14.4C14.4 10.9922 13.325 12 12 12C10.6525 12 9.6 10.9922 9.6 9.75H6.3775C6.3775 10.9922 5.325 12 3.9775 12C2.6525 12 1.5775 10.9922 1.5775 9.75H1.6ZM0.8 1.5V8.25C0.8 8.66484 1.15825 9 1.6 9H1.7365C2.066 8.12578 2.955 7.5 4 7.5C5.045 7.5 5.935 8.12578 6.2625 9H9.6V1.5C9.6 1.08586 9.2425 0.75 8.8 0.75H1.6C1.15825 0.75 0.8 1.08586 0.8 1.5ZM14.2725 5.25L12.335 3.13125C12.26 3.04688 12.1275 3 12.0325 3H10.4V5.25H14.2725ZM10.4 6V8.07187C10.8025 7.71562 11.385 7.5 12 7.5C13.045 7.5 13.935 8.12578 14.2625 9H14.4V6H10.4ZM4 8.25C3.1175 8.25 2.4 8.92266 2.4 9.75C2.4 10.5773 3.1175 11.25 4 11.25C4.8825 11.25 5.6 10.5773 5.6 9.75C5.6 8.92266 4.8825 8.25 4 8.25ZM12 11.25C12.8825 11.25 13.6 10.5773 13.6 9.75C13.6 8.92266 12.8825 8.25 12 8.25C11.1175 8.25 10.4 8.92266 10.4 9.75C10.4 10.5773 11.1175 11.25 12 11.25Z" fill="black"/>
</svg>
