<svg width="14" height="16" viewBox="0 0 14 16" fill="none" xmlns="http://www.w3.org/2000/svg">
<path d="M4 4V3C4 1.34312 5.31563 0 7 0C8.65625 0 10 1.34312 10 3V4H12.5C13.3281 4 14 4.67188 14 5.5V13C14 14.6562 12.6562 16 11 16H3C1.34312 16 0 14.6562 0 13V5.5C0 4.67188 0.671562 4 1.5 4H4ZM5 4H9V3C9 1.89531 8.10312 1 7 1C5.89687 1 5 1.89531 5 3V4ZM1.5 5C1.22375 5 1 5.225 1 5.5V13C1 14.1031 1.89531 15 3 15H11C12.1031 15 13 14.1031 13 13V5.5C13 5.225 12.775 5 12.5 5H10V7.5C10 7.775 9.775 8 9.5 8C9.225 8 9 7.775 9 7.5V5H5V7.5C5 7.775 4.775 8 4.5 8C4.225 8 4 7.775 4 7.5V5H1.5Z" fill="black"/>
</svg>
