<svg width="18" height="18" viewBox="0 0 18 18" fill="none" xmlns="http://www.w3.org/2000/svg">
<path d="M16.712 15.9128L12.0657 11.2496C13.081 10.0246 13.5854 8.4556 13.4741 6.86844C13.3628 5.28129 12.6444 3.79801 11.4681 2.72668C10.2918 1.65536 8.748 1.07833 7.15738 1.11546C5.56676 1.15258 4.05158 1.80101 2.92654 2.92605C1.80149 4.05109 1.15307 5.56628 1.11594 7.15689C1.07882 8.74751 1.65585 10.2913 2.72717 11.4676C3.7985 12.6439 5.28178 13.3623 6.86893 13.4736C8.45609 13.5849 10.0251 13.0805 11.2501 12.0653L15.8964 16.7115C16.0023 16.8174 16.146 16.8769 16.2957 16.8769C16.4455 16.8769 16.5892 16.8174 16.6951 16.7115C16.801 16.6056 16.8605 16.4619 16.8605 16.3121C16.8605 16.1623 16.801 16.0187 16.6951 15.9128H16.712ZM2.25012 7.31213C2.25012 6.31087 2.54703 5.33208 3.10331 4.49956C3.65958 3.66704 4.45024 3.01816 5.37529 2.63499C6.30034 2.25183 7.31824 2.15157 8.30027 2.34691C9.2823 2.54225 10.1843 3.0244 10.8924 3.73241C11.6004 4.44041 12.0825 5.34246 12.2778 6.32449C12.4732 7.30652 12.3729 8.32442 11.9898 9.24947C11.6066 10.1745 10.9577 10.9652 10.1252 11.5214C9.29267 12.0777 8.31389 12.3746 7.31262 12.3746C5.96996 12.3746 4.6823 11.8413 3.73289 10.8919C2.78349 9.94246 2.25012 8.65479 2.25012 7.31213Z" fill="#888888"/>
<path d="M9.5625 6.75H7.875V5.0625C7.875 4.91332 7.81574 4.77024 7.71025 4.66475C7.60476 4.55926 7.46168 4.5 7.3125 4.5C7.16332 4.5 7.02024 4.55926 6.91475 4.66475C6.80926 4.77024 6.75 4.91332 6.75 5.0625V6.75H5.0625C4.91332 6.75 4.77024 6.80926 4.66475 6.91475C4.55926 7.02024 4.5 7.16332 4.5 7.3125C4.5 7.46168 4.55926 7.60476 4.66475 7.71025C4.77024 7.81574 4.91332 7.875 5.0625 7.875H6.75V9.5625C6.75 9.71168 6.80926 9.85476 6.91475 9.96025C7.02024 10.0657 7.16332 10.125 7.3125 10.125C7.46168 10.125 7.60476 10.0657 7.71025 9.96025C7.81574 9.85476 7.875 9.71168 7.875 9.5625V7.875H9.5625C9.71168 7.875 9.85476 7.81574 9.96025 7.71025C10.0657 7.60476 10.125 7.46168 10.125 7.3125C10.125 7.16332 10.0657 7.02024 9.96025 6.91475C9.85476 6.80926 9.71168 6.75 9.5625 6.75Z" fill="#888888"/>
</svg>
