<svg width="112" height="16" viewBox="0 0 112 16" fill="none" xmlns="http://www.w3.org/2000/svg">
<g clip-path="url(#clip0_4158_1509)">
<path d="M10.3 5.5H15.25C15.5719 5.5 15.8563 5.70312 15.9594 6.00625C16.0625 6.30937 15.9625 6.64375 15.7094 6.84062L11.6219 10.0219L13.2156 15.0219C13.3156 15.3344 13.2 15.6781 12.9281 15.8656C12.6594 16.0531 12.3 16.0438 12.0406 15.8406L8 12.7L3.95938 15.8406C3.7 16.0438 3.34063 16.0531 3.07094 15.8656C2.80157 15.6781 2.68563 15.3344 2.78532 15.0219L4.37813 10.0219L0.289599 6.84062C0.0366926 6.64375 -0.0633386 6.30937 0.0406301 6.00625C0.14463 5.70312 0.429693 5.5 0.750005 5.5H5.70313L7.28438 0.5225C7.38438 0.211375 7.675 0 8 0C8.32813 0 8.61563 0.211375 8.71563 0.5225L10.3 5.5Z" fill="#272727"/>
</g>
<g clip-path="url(#clip1_4158_1509)">
<path d="M34.3 5.5H39.25C39.5719 5.5 39.8563 5.70312 39.9594 6.00625C40.0625 6.30937 39.9625 6.64375 39.7094 6.84062L35.6219 10.0219L37.2156 15.0219C37.3156 15.3344 37.2 15.6781 36.9281 15.8656C36.6594 16.0531 36.3 16.0438 36.0406 15.8406L32 12.7L27.9594 15.8406C27.7 16.0438 27.3406 16.0531 27.0709 15.8656C26.8016 15.6781 26.6856 15.3344 26.7853 15.0219L28.3781 10.0219L24.2896 6.84062C24.0367 6.64375 23.9367 6.30937 24.0406 6.00625C24.1446 5.70312 24.4297 5.5 24.75 5.5H29.7031L31.2844 0.5225C31.3844 0.211375 31.675 0 32 0C32.3281 0 32.6156 0.211375 32.7156 0.5225L34.3 5.5Z" fill="#272727"/>
</g>
<g clip-path="url(#clip2_4158_1509)">
<path d="M58.3 5.5H63.25C63.5719 5.5 63.8563 5.70312 63.9594 6.00625C64.0625 6.30937 63.9625 6.64375 63.7094 6.84062L59.6219 10.0219L61.2156 15.0219C61.3156 15.3344 61.2 15.6781 60.9281 15.8656C60.6594 16.0531 60.3 16.0438 60.0406 15.8406L56 12.7L51.9594 15.8406C51.7 16.0438 51.3406 16.0531 51.0709 15.8656C50.8016 15.6781 50.6856 15.3344 50.7853 15.0219L52.3781 10.0219L48.2896 6.84062C48.0367 6.64375 47.9367 6.30937 48.0406 6.00625C48.1446 5.70312 48.4297 5.5 48.75 5.5H53.7031L55.2844 0.5225C55.3844 0.211375 55.675 0 56 0C56.3281 0 56.6156 0.211375 56.7156 0.5225L58.3 5.5Z" fill="#272727"/>
</g>
<g clip-path="url(#clip3_4158_1509)">
<path d="M82.3 5.5H87.25C87.5719 5.5 87.8563 5.70312 87.9594 6.00625C88.0625 6.30937 87.9625 6.64375 87.7094 6.84062L83.6219 10.0219L85.2156 15.0219C85.3156 15.3344 85.2 15.6781 84.9281 15.8656C84.6594 16.0531 84.3 16.0438 84.0406 15.8406L80 12.7L75.9594 15.8406C75.7 16.0438 75.3406 16.0531 75.0709 15.8656C74.8016 15.6781 74.6856 15.3344 74.7853 15.0219L76.3781 10.0219L72.2896 6.84062C72.0367 6.64375 71.9367 6.30937 72.0406 6.00625C72.1446 5.70312 72.4297 5.5 72.75 5.5H77.7031L79.2844 0.5225C79.3844 0.211375 79.675 0 80 0C80.3281 0 80.6156 0.211375 80.7156 0.5225L82.3 5.5Z" fill="#272727"/>
</g>
<g clip-path="url(#clip4_4158_1509)">
<path d="M103.284 0.5225C103.384 0.211375 103.672 1.875e-05 104 0V12.7L99.9594 15.8406C99.7 16.0438 99.3406 16.0531 99.0709 15.8656C98.8016 15.6781 98.6856 15.3344 98.7853 15.0219L100.378 10.0219L96.2896 6.84062C96.0367 6.64375 95.9367 6.30937 96.0406 6.00625C96.1446 5.70312 96.4297 5.47188 96.75 5.47188H101.703L103.284 0.5225Z" fill="#272727"/>
<path d="M104.715 0.5225C104.615 0.211375 104.328 1.875e-05 103.972 0V12.7L108.04 15.8406C108.3 16.0438 108.659 16.0531 108.928 15.8656C109.2 15.6781 109.315 15.3344 109.215 15.0219L107.622 10.0219L111.709 6.84062C111.962 6.64375 112.062 6.30937 111.959 6.00625C111.856 5.70312 111.572 5.47188 111.25 5.47188H106.297L104.715 0.5225Z" fill="#4B4A46" fill-opacity="0.39"/>
</g>
<defs>
<clipPath id="clip0_4158_1509">
<rect width="16" height="16" fill="white"/>
</clipPath>
<clipPath id="clip1_4158_1509">
<rect width="16" height="16" fill="white" transform="translate(24)"/>
</clipPath>
<clipPath id="clip2_4158_1509">
<rect width="16" height="16" fill="white" transform="translate(48)"/>
</clipPath>
<clipPath id="clip3_4158_1509">
<rect width="16" height="16" fill="white" transform="translate(72)"/>
</clipPath>
<clipPath id="clip4_4158_1509">
<rect width="16" height="16" fill="white" transform="translate(96)"/>
</clipPath>
</defs>
</svg>
