<svg width="9" height="16" viewBox="0 0 9 16" fill="none" xmlns="http://www.w3.org/2000/svg">
<path d="M5.67184 15.9986L7.05719 14.4513L9 15.9686L7.85387 8.50549H3.49051L2.34437 15.9686L4.28788 14.4513L5.67184 15.9993V16V15.9986ZM8.31357 8.06107C8.31338 7.98526 8.28403 7.91262 8.23193 7.85901C8.17983 7.80541 8.10921 7.77521 8.03553 7.77502L8.02859 7.77573H3.30746L3.30191 7.77502C3.22808 7.77502 3.15727 7.80519 3.10506 7.85891C3.05286 7.91262 3.02353 7.98547 3.02353 8.06143C3.02353 8.13739 3.05286 8.21024 3.10506 8.26395C3.15727 8.31767 3.22808 8.34784 3.30191 8.34784H3.3033V8.34927H8.03622V8.34784C8.18876 8.34784 8.31357 8.21944 8.31357 8.06107ZM8.05147 6.19565C8.05147 6.03729 7.93915 5.9096 7.80048 5.9096H3.53627C3.3976 5.9096 3.28527 6.038 3.28527 6.19494C3.28527 6.3533 3.3976 6.48171 3.53627 6.48171V6.48313H7.80186V6.48099C7.94054 6.48099 8.05217 6.35259 8.05217 6.19565H8.05147ZM8.29623 6.65933H3.0523C2.93075 6.65933 2.81417 6.70901 2.72822 6.79744C2.64227 6.88587 2.59399 7.0058 2.59399 7.13086C2.59399 7.25592 2.64227 7.37585 2.72822 7.46428C2.81417 7.55271 2.93075 7.60239 3.0523 7.60239H8.29623C8.41779 7.60239 8.53436 7.55271 8.62031 7.46428C8.70626 7.37585 8.75455 7.25592 8.75455 7.13086C8.75455 7.0058 8.70626 6.88587 8.62031 6.79744C8.53436 6.70901 8.41779 6.65933 8.29623 6.65933ZM1.99353 3.41428C2.10447 2.86785 2.82696 2.66526 3.27903 3.42427C3.45584 3.72174 3.56817 5.37101 1.69469 5.31323C0.557569 5.27756 -0.25367 3.87511 0.0729059 2.36922C0.400868 0.856904 1.88121 -0.0319364 3.1674 0.000877923C5.41391 0.059373 6.56004 1.8342 6.88662 2.83004C7.18477 3.741 7.36019 4.96297 7.35256 5.73768H3.98835C4.2234 4.33237 4.08126 3.75954 4.08126 3.75954C4.08126 3.75954 3.75399 2.33141 2.77634 2.33141C1.7987 2.33141 1.59277 3.2231 1.59277 3.2231C1.59277 3.2231 1.48529 3.92076 1.97412 4.02848C2.10586 4.05701 2.36171 4.03704 2.36171 3.70176C2.36171 3.53484 2.22858 3.38503 1.99353 3.41428Z" fill="#292929"/>
</svg>
