<svg width="11" height="16" viewBox="0 0 11 16" fill="none" xmlns="http://www.w3.org/2000/svg">
<path fill-rule="evenodd" clip-rule="evenodd" d="M2.9644 4.18415H0.438829L0.442982 9.39913L8.61837 14.6388C9.97217 13.5685 10.5646 11.969 10.5646 11.1757V9.00865L2.9644 4.18415ZM11 11.2574C10.856 13.0477 9.58666 14.8074 7.76775 15.5501C6.06374 16.3278 3.69805 16.069 2.23351 14.9897C0.879714 14.0018 0.129449 12.6429 0.0339355 11.1018L0.036704 3.80859H10.991L11 11.2574ZM3.69805 4.18415L10.5653 8.53256V4.18415H3.69805ZM0.441598 9.88884V10.8955C0.514963 12.6559 1.56146 14.4403 3.34991 15.1804C4.80822 15.8913 6.91851 15.7259 8.2384 14.869L0.44229 9.88884H0.441598Z" fill="#292929"/>
<path fill-rule="evenodd" clip-rule="evenodd" d="M3.62743 6.21711C3.66589 6.21711 3.70277 6.20279 3.72996 6.17731C3.75716 6.15182 3.77243 6.11726 3.77243 6.08122C3.77243 6.04518 3.75716 6.01062 3.72996 5.98513C3.70277 5.95965 3.66589 5.94533 3.62743 5.94533C3.58907 5.94533 3.55227 5.95962 3.52515 5.98504C3.49802 6.01046 3.48278 6.04494 3.48278 6.0809C3.48278 6.11685 3.49802 6.15133 3.52515 6.17675C3.55227 6.20218 3.58907 6.21646 3.62743 6.21646V6.21711ZM3.41287 5.77345C3.41754 5.74545 3.42919 5.71888 3.44687 5.69589C3.46455 5.6729 3.48776 5.65414 3.51462 5.64113L3.6302 5.6541L4.18875 5.9395L4.23927 6.01084C4.27042 5.91355 4.26488 5.78901 4.39154 5.73647C4.50505 5.6995 4.66839 5.69626 4.75837 5.78382C4.84073 5.86296 4.88848 5.97128 4.84834 6.08219C4.82343 6.14317 4.75006 6.19895 4.69607 6.23527C5.0802 6.33062 5.40758 6.56088 5.76264 6.72499C5.86161 6.78012 5.88099 6.88325 5.84985 6.97276L5.79932 7.03373C5.84154 7.07914 5.9239 7.08692 5.9772 7.12908L8.9215 8.99519C9.38107 9.22221 9.33332 9.68533 9.41776 10.079C9.27503 10.0723 9.13382 10.0483 8.99764 10.0077C9.00802 10.0512 9.01494 10.0953 9.02324 10.1374L9.25165 12.2545C9.22604 12.4738 9.02878 12.6243 8.89659 12.802L8.43978 13.3384L7.46389 12.7436C7.63553 12.5425 7.8584 12.3492 8.14909 12.3629C8.29582 12.3525 8.44255 12.3791 8.56644 12.3862C8.41141 12.3343 8.2363 12.2701 8.14909 12.1118C7.85563 11.6066 7.45489 11.1415 7.24656 10.6025C7.15035 10.2931 7.22925 10.0012 7.38498 9.74176C7.35937 9.73397 7.33792 9.745 7.29708 9.73268C6.99532 9.69311 6.69632 9.61917 6.39732 9.61398L7.06868 9.9837C6.92749 10.4494 7.12474 10.9009 7.38706 11.268L6.99255 12.1488C6.93302 12.2623 6.77245 12.2305 6.6624 12.2202L5.76264 12.1015C5.73495 11.7363 5.80486 11.3795 5.79932 11.0072C6.12116 11.089 6.42224 11.3108 6.61188 11.5884V11.5411L5.76264 10.2568C5.61314 9.99991 5.73495 9.7236 5.90453 9.51474C5.90453 9.51474 5.71419 9.52187 5.61868 9.46155C5.51901 9.56209 4.56942 10.7692 4.56942 10.7692C4.49051 10.8295 4.35832 10.8036 4.26488 10.7925L3.33743 10.6602L3.38726 9.56598C3.7001 9.64511 4.01571 9.86759 4.17421 10.1368C4.08423 9.54263 4.18529 8.88427 4.13753 8.2577C4.08077 8.08646 4.00741 7.91911 3.8586 7.78225L2.29578 6.74834V6.40197C2.52141 6.53688 2.73874 6.82487 3.02044 6.68736C3.11941 6.60823 3.13879 6.48434 3.10765 6.36824L3.05712 6.28327L2.30962 5.7968C2.2591 5.58534 2.36292 5.31551 2.21965 5.14168C2.62316 5.33627 3.01767 5.55875 3.41218 5.77345H3.41287ZM1.58566 5.30773C1.54853 5.3436 1.52117 5.38731 1.50587 5.43518C1.49057 5.48305 1.48779 5.53366 1.49776 5.58275C1.51783 5.69367 1.63065 5.78382 1.72616 5.85517L2.89447 6.60564V6.48694C2.58094 6.25149 2.25425 6.05625 1.94072 5.8208C1.82237 5.75204 1.81129 5.64113 1.78845 5.5354C1.80576 5.40827 1.86736 5.27595 2.00578 5.21303C1.86459 5.21044 1.69571 5.20719 1.58566 5.30773ZM1.68671 6.85406C1.76284 6.97082 1.83344 7.0973 1.94072 7.18746L2.05631 7.09211C1.97464 6.94163 1.80299 6.95201 1.68671 6.85406ZM1.48392 7.00973L1.72616 7.34313C1.78015 7.33016 1.81614 7.27956 1.86459 7.24778C1.78568 7.10768 1.61681 7.07654 1.48392 7.00973ZM1.30604 7.16346L1.54829 7.4962L1.67564 7.37751C1.58843 7.25037 1.43339 7.22443 1.30604 7.16346ZM2.18366 7.23481C1.88189 7.44885 1.58843 7.6895 1.29497 7.91457C1.48392 8.19672 1.70125 8.46915 1.90404 8.74676C1.96633 8.85249 2.09091 8.92384 2.20857 8.96081C2.78442 9.06654 3.39072 9.13594 3.96034 9.22286C3.92089 8.75195 4.11261 8.18375 3.66688 7.86722L2.41206 8.139C2.35807 8.15716 2.30478 8.20516 2.25979 8.19932C2.3553 7.96711 2.40098 7.66809 2.29647 7.4255L2.18366 7.23481ZM1.10325 7.30616C1.19323 7.41707 1.26105 7.54615 1.3711 7.63955L1.48392 7.5442C1.40502 7.40669 1.23544 7.37232 1.10325 7.30616ZM0.939215 7.46183L1.16762 7.78225C1.21883 7.76085 1.27836 7.72906 1.30604 7.67652C1.20776 7.5468 1.0721 7.50983 0.939215 7.46248V7.46183ZM3.19901 9.5556C3.03566 9.54782 2.90554 9.6062 2.76712 9.65095C2.90554 9.6769 3.05228 9.69311 3.19901 9.70933V9.5556ZM2.76712 9.89937C2.91662 9.89419 3.05504 9.9597 3.19901 9.93635C3.19347 9.88316 3.20731 9.82543 3.18516 9.78068C3.02113 9.7677 2.88824 9.84619 2.76712 9.89937ZM3.1734 10.0077C3.01006 9.99472 2.88547 10.0687 2.75328 10.1264L3.1734 10.1848V10.0077ZM3.1734 10.2457C3.00175 10.2198 2.87994 10.3041 2.74151 10.3508C2.8827 10.3722 3.0322 10.4118 3.1734 10.3988V10.2451V10.2457ZM3.15955 10.4702C2.98998 10.4384 2.87163 10.5201 2.74151 10.5785C2.87163 10.6129 3.03566 10.6103 3.15955 10.6265V10.4708V10.4702ZM5.19025 11.1019C5.32591 11.1363 5.49479 11.1344 5.62145 11.1493C5.61591 11.0974 5.63321 11.039 5.61037 10.9936C5.45257 10.9884 5.28853 11.0598 5.19025 11.1019ZM5.61037 11.2206C5.44149 11.2077 5.31414 11.2816 5.17918 11.34C5.31968 11.3614 5.46987 11.3984 5.61037 11.3873V11.2206ZM5.16464 11.5644C5.30861 11.5832 5.45257 11.6332 5.59653 11.6124C5.59376 11.5618 5.6076 11.5041 5.58546 11.4593C5.41035 11.4191 5.30584 11.5307 5.16464 11.5644ZM5.57092 11.6838C5.40204 11.6682 5.28023 11.7551 5.13973 11.8025L5.58546 11.8505L5.57161 11.6838H5.57092ZM5.57092 11.9108C5.40481 11.9004 5.26085 11.9666 5.13973 12.0301L5.57092 12.0775V11.9108ZM7.34761 12.8863C7.25209 12.9946 7.27147 13.1847 7.23548 13.2774C7.31646 13.1743 7.42097 13.0764 7.49988 12.968C7.45489 12.9311 7.40159 12.9097 7.34761 12.8863ZM7.55109 13.005C7.45835 13.1166 7.46319 13.3034 7.44935 13.4098C7.54279 13.3222 7.59608 13.2217 7.69159 13.1347C7.7262 13.066 7.59885 13.0446 7.55109 13.005ZM7.76773 13.1347C7.65284 13.2405 7.67222 13.3994 7.65284 13.5395L7.92069 13.2301C7.8667 13.1977 7.82171 13.1561 7.76842 13.1347H7.76773ZM7.97121 13.2671C7.85563 13.3728 7.87501 13.5285 7.85563 13.6712L8.12348 13.3488C8.07503 13.3118 8.02174 13.2904 7.97121 13.2671ZM8.17401 13.3858C8.08403 13.4993 8.06465 13.642 8.05842 13.7905C8.14355 13.6822 8.24183 13.5816 8.31243 13.4675C8.26744 13.4415 8.22522 13.4013 8.17401 13.3858ZM10.7902 0H9.09938V2.23128H7.98506V0H6.06579V2.23128H4.95147V0H3.03359V2.23128H1.91927V0H0V2.61916H0.401433V0.376205H1.51645V2.60749H3.43433V0.376853H4.55004V2.60814H6.46792V0.376853H7.58224V2.60814H9.5015V0.376853H10.5888V2.62306H10.9903V0H10.7895" fill="#292929"/>
</svg>
