<svg width="16" height="14" viewBox="0 0 16 14" fill="none" xmlns="http://www.w3.org/2000/svg">
<path d="M15.2246 2.98541C14.989 2.43985 14.6493 1.94547 14.2244 1.52994C13.7993 1.11318 13.298 0.781979 12.7479 0.554358C12.1774 0.317393 11.5656 0.1961 10.9479 0.197522C10.0813 0.197522 9.23574 0.434827 8.50098 0.883069C8.3252 0.990295 8.1582 1.10807 8 1.23639C7.8418 1.10807 7.6748 0.990295 7.49902 0.883069C6.76426 0.434827 5.91875 0.197522 5.05215 0.197522C4.42812 0.197522 3.82344 0.317053 3.25215 0.554358C2.7002 0.782874 2.20273 1.11158 1.77559 1.52994C1.35019 1.945 1.01037 2.4395 0.775391 2.98541C0.531055 3.55319 0.40625 4.15612 0.40625 4.77662C0.40625 5.36197 0.525781 5.97194 0.763086 6.59244C0.961719 7.111 1.24648 7.64889 1.61035 8.19205C2.18691 9.05162 2.97969 9.94811 3.96406 10.8569C5.59531 12.3633 7.21074 13.404 7.2793 13.4462L7.6959 13.7133C7.88047 13.8311 8.11777 13.8311 8.30234 13.7133L8.71895 13.4462C8.7875 13.4022 10.4012 12.3633 12.0342 10.8569C13.0186 9.94811 13.8113 9.05162 14.3879 8.19205C14.7518 7.64889 15.0383 7.111 15.2352 6.59244C15.4725 5.97194 15.592 5.36197 15.592 4.77662C15.5938 4.15612 15.4689 3.55319 15.2246 2.98541ZM8 12.3229C8 12.3229 1.74219 8.31334 1.74219 4.77662C1.74219 2.98541 3.22402 1.53346 5.05215 1.53346C6.33711 1.53346 7.45156 2.25065 8 3.2983C8.54844 2.25065 9.66289 1.53346 10.9479 1.53346C12.776 1.53346 14.2578 2.98541 14.2578 4.77662C14.2578 8.31334 8 12.3229 8 12.3229Z" fill="#888888"/>
</svg>
