<svg width="30" height="30" viewBox="0 0 30 30" fill="none" xmlns="http://www.w3.org/2000/svg">
<path d="M27.041 8.3091C26.6483 7.39984 26.0821 6.57587 25.374 5.88332C24.6654 5.18871 23.83 4.63671 22.9131 4.25734C21.9623 3.8624 20.9426 3.66025 19.9131 3.66262C18.4688 3.66262 17.0596 4.05813 15.835 4.8052C15.542 4.98391 15.2637 5.1802 15 5.39406C14.7363 5.1802 14.458 4.98391 14.165 4.8052C12.9404 4.05813 11.5312 3.66262 10.0869 3.66262C9.04687 3.66262 8.03906 3.86184 7.08691 4.25734C6.16699 4.6382 5.33789 5.18606 4.62598 5.88332C3.91698 6.57509 3.35062 7.39925 2.95898 8.3091C2.55176 9.25539 2.34375 10.2603 2.34375 11.2945C2.34375 12.27 2.54297 13.2866 2.93848 14.3208C3.26953 15.1851 3.74414 16.0816 4.35059 16.9868C5.31152 18.4195 6.63281 19.9136 8.27344 21.4282C10.9922 23.939 13.6846 25.6734 13.7988 25.7437L14.4932 26.189C14.8008 26.3853 15.1963 26.3853 15.5039 26.189L16.1982 25.7437C16.3125 25.6704 19.002 23.939 21.7236 21.4282C23.3643 19.9136 24.6855 18.4195 25.6465 16.9868C26.2529 16.0816 26.7305 15.1851 27.0586 14.3208C27.4541 13.2866 27.6533 12.27 27.6533 11.2945C27.6562 10.2603 27.4482 9.25539 27.041 8.3091ZM15 23.8716C15 23.8716 4.57031 17.189 4.57031 11.2945C4.57031 8.3091 7.04004 5.88918 10.0869 5.88918C12.2285 5.88918 14.0859 7.08449 15 8.83059C15.9141 7.08449 17.7715 5.88918 19.9131 5.88918C22.96 5.88918 25.4297 8.3091 25.4297 11.2945C25.4297 17.189 15 23.8716 15 23.8716Z" fill="#BED3CB"/>
</svg>
