<svg xmlns="http://www.w3.org/2000/svg" width="46" height="43" viewBox="0 0 46 43">
    <g fill="none" fill-rule="evenodd" stroke="#111" stroke-width="2" transform="translate(2 2)">
        <path d="M34.989 26.844a2.749 2.749 0 0 0 3.914-3.861L28.887 12.71"/>
        <path stroke-linecap="square" d="M24.994 32.885l1.294 1.294A2.824 2.824 0 0 1 25 38.91M33.011 24.866l2.757 2.758a2.843 2.843 0 1 1-4.022 4.022l-2.756-2.757M31.2 31.1a2.824 2.824 0 1 1-3.994 3.994"/>
        <rect width="6.743" height="5.688" x="4.977" y="25.772" stroke-linecap="square" rx="2.844" transform="rotate(-45 8.349 28.616)"/>
        <rect width="6.187" height="5.648" x="13.891" y="33.161" stroke-linecap="square" rx="2.824" transform="rotate(-45 16.985 35.985)"/>
        <path stroke-linecap="square" d="M6.7 26.243l-.42.42a2.749 2.749 0 0 1-3.981-.1 2.75 2.75 0 0 1 .065-3.763l.42-.43A2.754 2.754 0 1 1 6.7 26.243zM39 17v-3.375l3-3.052L31.558.131 29.69 2H25c-2.334 0-4.575.92-6.235 2.56L12.1 11.491a2.464 2.464 0 0 0 3.15 3.754l7.1-4.575a6.45 6.45 0 0 0 9.763-.1M3 17v-3.375l-3-3.052L10.442.131 12.31 2H16"/>
        <rect width="5.947" height="5.648" x="9.667" y="29.518" stroke-linecap="square" rx="2.824" transform="rotate(-45 12.64 32.342)"/>
    </g>
</svg>
