<svg xmlns="http://www.w3.org/2000/svg" width="30" height="35" viewBox="0 0 30 35">
    <path fill="#000" fill-rule="evenodd" d="M24.37 18.336c-.051.928.13 1.857.542 2.785.722 1.909 2.115 3.353 4.178 4.333-.619 1.96-1.573 3.842-2.863 5.648-1.702 2.32-3.378 3.507-5.028 3.558-.723 0-1.65-.232-2.786-.696-1.238-.464-2.295-.696-3.172-.696-.877 0-1.985.258-3.326.773-1.084.413-1.909.62-2.476.62-1.135.051-2.347-.568-3.636-1.857-.98-.98-1.96-2.321-2.94-4.023-.774-1.393-1.367-2.657-1.78-3.791C.361 22.823 0 20.734 0 18.723c0-2.218.438-4.126 1.315-5.725.825-1.496 1.922-2.63 3.288-3.404C5.97 8.82 7.401 8.407 8.897 8.356c.825 0 2.09.31 3.791.928 1.083.413 1.78.619 2.09.619.309 0 .953-.18 1.933-.542.98-.36 1.754-.619 2.321-.773.98-.258 1.857-.361 2.63-.31 2.94.258 5.133 1.419 6.577 3.482-2.63 1.547-3.92 3.74-3.868 6.576zM19.96 5.57v.078c-1.65 1.908-3.43 2.785-5.338 2.63-.206-2.063.439-3.92 1.935-5.57.618-.722 1.418-1.341 2.398-1.857.98-.516 1.934-.8 2.862-.851.155 2.063-.464 3.92-1.856 5.57z"/>
</svg>
