<svg xmlns="http://www.w3.org/2000/svg" xmlns:xlink="http://www.w3.org/1999/xlink" width="80" height="26" viewBox="0 0 80 26">
    <defs>
        <path id="a" d="M.019.232H19.02v19.52H.019z"/>
    </defs>
    <g fill="none" fill-rule="evenodd">
        <g>
            <mask id="b" fill="#fff">
                <use xlink:href="#a"/>
            </mask>
            <path fill="#000" d="M9.9 9.114v2.668h6.378c-.196 1.496-.695 2.591-1.454 3.362-.932.932-2.386 1.952-4.923 1.952-3.926 0-6.995-3.167-6.995-7.093 0-3.925 3.07-7.092 6.995-7.092 2.115 0 3.665.835 4.804 1.909l1.876-1.876C14.998 1.404 12.872.232 9.901.232 4.522.232 0 4.614 0 9.992c0 5.38 4.522 9.76 9.9 9.76 2.907 0 5.098-.954 6.811-2.732 1.757-1.757 2.31-4.24 2.31-6.236 0-.618-.043-1.193-.141-1.67H9.9" mask="url(#b)"/>
        </g>
        <path fill="#000" d="M26.992 17.063c-1.909 0-3.557-1.572-3.557-3.817 0-2.267 1.648-3.817 3.557-3.817 1.908 0 3.557 1.55 3.557 3.817 0 2.245-1.649 3.817-3.557 3.817zm0-10.118c-3.481 0-6.323 2.646-6.323 6.3 0 3.623 2.842 6.301 6.323 6.301 3.48 0 6.322-2.667 6.322-6.3 0-3.655-2.841-6.3-6.322-6.3zM54.808 17.063c-1.91 0-3.362-1.627-3.362-3.817 0-2.223 1.453-3.817 3.362-3.817 1.886 0 3.361 1.626 3.361 3.839.011 2.2-1.475 3.795-3.361 3.795zm3.177-8.708h-.098c-.618-.738-1.81-1.41-3.318-1.41-3.145 0-5.889 2.744-5.889 6.3 0 3.536 2.744 6.301 5.89 6.301 1.506 0 2.7-.672 3.317-1.431h.098v.878c0 2.408-1.29 3.698-3.362 3.698-1.691 0-2.743-1.214-3.177-2.245l-2.408.998c.694 1.67 2.527 3.72 5.585 3.72 3.243 0 5.986-1.909 5.986-6.561V7.27h-2.624v1.085zM41.09 17.063c-1.91 0-3.557-1.572-3.557-3.817 0-2.267 1.648-3.817 3.556-3.817 1.91 0 3.557 1.55 3.557 3.817 0 2.245-1.648 3.817-3.557 3.817zm0-10.118c-3.482 0-6.323 2.646-6.323 6.3 0 3.623 2.841 6.301 6.322 6.301s6.323-2.667 6.323-6.3c0-3.655-2.842-6.3-6.323-6.3zM62.778 19.546H65.5V.493h-2.722zM73.71 9.31c1.116 0 2.07.574 2.385 1.387l-5.693 2.354c0-2.647 1.876-3.742 3.307-3.742zm.194 7.753c-1.41 0-2.407-.64-3.058-1.908l8.426-3.482-.281-.715c-.521-1.41-2.126-4.013-5.39-4.013-3.243 0-5.943 2.549-5.943 6.3 0 3.536 2.668 6.301 6.246 6.301 2.885 0 4.555-1.767 5.25-2.787l-2.148-1.431c-.716 1.04-1.692 1.735-3.102 1.735z"/>
    </g>
</svg>
