<svg xmlns="http://www.w3.org/2000/svg" width="95" height="16" viewBox="0 0 95 16">
    <g fill="#000" fill-rule="evenodd">
        <path d="M42.21 1.463C41.24.438 39.826.126 37.13.126h-7.772c-2.71 0-4.11.312-5.077 1.337-.62.687-1.01 1.401-1.01 3.478v5.763c0 2.076.39 2.793 1.01 3.477.967 1.033 2.368 1.34 5.077 1.34h7.772c2.696 0 4.11-.307 5.08-1.34.62-.684 1.005-1.4 1.005-3.477V4.94c0-2.077-.385-2.791-1.005-3.478m-3.283 8.64c0 .873-.095 1.142-.335 1.35-.242.213-.618.271-1.656.271H29.55c-1.04 0-1.404-.058-1.66-.272-.226-.207-.327-.476-.327-1.348V5.54c0-.882.101-1.14.327-1.344.256-.225.62-.278 1.66-.278h7.386c1.038 0 1.414.053 1.656.278.24.205.335.462.335 1.344v4.564M57.86.374h6.264l-8.46 6.99 9.556 7.958H58.5L49.827 7.53 57.86.374zM45.073 15.322h4.753V.374h-4.753v14.948zM66.09 15.323h4.762V.374H66.09zM80.023 9.478h5.902l-2.948-5.417-2.954 5.417zm8.952 5.844l-1.405-2.598h-9.196l-1.398 2.598h-5.244L80.153.374h5.914l8.417 14.948h-5.509zM4.545 15.322H0V.374h7.867l9.026 11.159V.374h4.55v14.948h-7.71L4.546 3.972v11.35"/>
    </g>
</svg>
