<svg xmlns="http://www.w3.org/2000/svg" width="74" height="27" viewBox="0 0 74 27">
    <g fill="#000" fill-rule="evenodd">
        <path d="M50.025 7.019h7.499a3.077 3.077 0 0 1 3.068 3.067v5.695a3.08 3.08 0 0 1-3.068 3.07h-7.499a3.079 3.079 0 0 1-3.07-3.07v-5.695a3.075 3.075 0 0 1 3.07-3.067zm.084 2.147h7.271c.573 0 1.04.47 1.04 1.04v5.434a1.04 1.04 0 0 1-1.04 1.039H50.11a1.04 1.04 0 0 1-1.037-1.039v-5.435c0-.569.468-1.039 1.037-1.039zM19.289 7.02h7.496a3.076 3.076 0 0 1 3.07 3.067v5.695a3.08 3.08 0 0 1-3.07 3.07H19.29a3.078 3.078 0 0 1-3.068-3.07v-5.695a3.075 3.075 0 0 1 3.068-3.067zm.085 2.147h7.271c.57 0 1.038.47 1.038 1.04v5.434a1.04 1.04 0 0 1-1.038 1.039h-7.27a1.04 1.04 0 0 1-1.04-1.039v-5.435c0-.569.466-1.039 1.04-1.039zM65.882 7.02h6.556c1.225 0 1.065 2.147-.071 2.147h-6.4c-.572 0-1.036.47-1.036 1.04v7.647c-.069 1.355-2.137 1.268-2.113 0v-7.767a3.074 3.074 0 0 1 3.064-3.067zm-32.726 0h8.451a3.076 3.076 0 0 1 3.068 3.067v7.653c0 1.494-2.173 1.575-2.173.017v-7.55c0-.57-.467-1.04-1.039-1.04h-8.29c-1.527.072-1.395-2.147-.017-2.147zm-.033 3.453c.607 0 1.1.496 1.1 1.1v6.198c0 .604-.493 1.099-1.1 1.099a1.103 1.103 0 0 1-1.099-1.1v-6.198c0-.603.496-1.099 1.1-1.099zm-31.679 0c.605 0 1.1.496 1.1 1.1v6.198a1.102 1.102 0 0 1-2.2 0L.342 11.57c0-.603.493-1.099 1.101-1.099zM3.07 7.02h7.69a3.074 3.074 0 0 1 3.068 3.067v7.653c0 1.494-2.172 1.575-2.172.017v-7.55c0-.57-.468-1.034-1.041-1.04l-7.736-.05C1.144 8.979.445 7.45.422 6.154l-.08-4.271C.335 1.363.837.939 1.445.939c.605 0 1.1.423 1.1.944V6.39c0 .322.243.588.526.628zM.367 21.276h1.885v.7H1.165v1.63h.944v.699h-.944v2.488H.367v-5.517zm9.824 0h1.513v.688h-.714v4.83h-.799v-4.83h-.714v-.688h.714zm1.913 0h.75V23.7h.846v-2.423h.75v5.517h-.75V24.37h-.846v2.424h-.75v-5.517zm3.004 0h1.883v.7h-1.085v1.63h.943v.699h-.943v1.79h1.085v.698h-1.883v-5.517zm-11.652-.013h.862c.429 0 .78.346.78.774v3.98a.78.78 0 0 1-.78.775h-.862a.78.78 0 0 1-.78-.776v-3.98c0-.427.351-.773.78-.773zm.159.725h.541c.126 0 .226.1.226.222v3.634c0 .122-.1.223-.226.223h-.541a.225.225 0 0 1-.225-.223V22.21c0-.122.102-.222.225-.222zm2.135 4.799l-.004-5.478h1.528c.295 0 .743.13.743.669v1.902c0 .3-.211.49-.392.637l.471 2.235h-.68l-.502-2.181h-.451v2.207l-.713.009zm.726-4.794h.447c.178 0 .322.144.322.32v1.31c0 .179-.144.324-.322.324h-.447v-1.954zm12.187 4.794l-.004-5.478h1.53c.065 0 .686.055.71.669l.04 1.28c.008.326-.097.648-.49.676.44-.009.523.35.52.696l-.005 1.592c-.111.339-.325.513-.636.53l-1.665.035zm.726-2.501h.503c.202 0 .365.164.365.364v1.083a.365.365 0 0 1-.365.363h-.503v-1.81zm0-2.293h.448c.175 0 .321.144.321.32v.959a.323.323 0 0 1-.32.322h-.449v-1.6zm2.21 4.794l-.002-5.478h1.53c.291 0 .735.13.735.669v1.902c0 .3-.207.49-.386.637l.468 2.235h-.68l-.5-2.181h-.449v2.207l-.715.009zm.728-4.794h.447c.174 0 .32.144.32.32v1.31c0 .179-.146.324-.32.324h-.447v-1.954zm7.63-.717h1.888v.7h-1.088v1.63h.942v.699h-.942v1.79h1.088v.698h-1.889v-5.517zm-4.804.007h.795c.414 0 .754.341.754.758v4.668a.847.847 0 0 1-.004.082h-.742v-1.993h-.78l-.038 1.993h-.734c-.003-.03-.006-.054-.006-.082V22.04a.76.76 0 0 1 .755-.758zm.265.695h.267c.14 0 .255.126.255.277v1.835h-.78v-1.835c0-.15.115-.277.258-.277zm2.464 4.792h.893l.89-5.479h-.749l-.592 3.985-.595-3.97h-.71l.928 5.44-.065.024z"/>
    </g>
</svg>
