<svg xmlns="http://www.w3.org/2000/svg" width="85" height="15" viewBox="0 0 85 15">
    <g fill="#131514" fill-rule="evenodd">
        <path d="M83.04 14.6a1.125 1.125 0 0 1-1.126-1.13 1.123 1.123 0 0 1 2.249 0c0 .628-.503 1.13-1.123 1.13zm0-2.406a1.28 1.28 0 1 0 0 2.561c.708 0 1.277-.573 1.277-1.284 0-.704-.57-1.277-1.277-1.277z"/>
        <path d="M83.007 13.39h-.268v-.505h.409c.177 0 .371.026.371.248 0 .291-.311.258-.512.258zm.69-.254c0-.12-.054-.248-.16-.308a.66.66 0 0 0-.35-.07h-.623v1.43h.175v-.66h.321l.41.66h.207l-.432-.66c.254-.007.452-.11.452-.392zM75.534 6.217l2.619-2.796c.151-.205.227-.349.227-.472 0-.205-.177-.287-.731-.287h-.661V.897h7.15v1.765h-.94c-1.085 0-1.287.164-2.8 2.072l-4.142 4.473v2.73c0 .698.353.943 1.362.943h1.564v1.703H69.168V12.88h1.564c1.008 0 1.362-.245 1.362-.944v-2.73l-4.878-5.395c-.807-.943-.695-1.149-2.94-1.149V.897h9.057v1.765h-.645c-.656 0-.933.123-.933.37 0 .205.201.37.328.533l2.468 2.69c.291.304.649.344.983-.038M14.77.897h2.184V5.82h-2.017c-.179-.984-.795-1.367-1.357-1.884-1.014-.931-3.208-1.707-5.055-1.707-2.382 0-4.393.74-4.393 1.827 0 3.016 13.626.615 13.626 6.32 0 2.975-2.919 4.637-8.16 4.637-1.815 0-4.561-.563-6.181-1.424-.508-.294-.724.277-.818.993H.359V9.494h2.025c.447 1.293 1.063 1.56 1.63 2.073.982.902 3.32 1.56 5.465 1.538 3.233-.031 4.346-.739 4.346-1.765 0-1.025-1.1-1.271-4.644-1.825l-3.008-.493C2.777 8.51.305 7.75.305 5.042.305 2.23 3.433.466 8.377.466c2.083 0 3.827.279 5.5 1.224.464.3.899.337.893-.793M57.404 9.141l.043-5.473c0-.718-.373-.964-1.44-.964h-1.255V1.001h7.98v1.703h-1.04c-1.068 0-1.442.246-1.442.964v11.018l-3.124-.024-10.114-9.578v6.956c0 .698.374.964 1.441.964h1.388v1.682h-8.286v-1.682h1.373c1.067 0 1.44-.266 1.44-.964V3.668c0-.718-.373-.964-1.44-.964h-1.373V1.001h7.165l8.684 8.14M30.53 13.125c-3.52 0-5.543-2.031-5.543-5.54 0-3.426 2.112-5.458 5.72-5.458 3.46 0 5.484 2.073 5.484 5.602 0 3.447-2.052 5.396-5.66 5.396zM30.677.362c-6.36 0-10.34 2.812-10.34 7.326 0 4.432 3.925 7.222 10.146 7.222 6.607 0 10.45-2.75 10.45-7.448 0-4.227-4.147-7.1-10.256-7.1z"/>
    </g>
</svg>
