<svg xmlns="http://www.w3.org/2000/svg" width="80" height="26"  xmlns:v="https://vecta.io/nano"><path stroke="null" stroke-width=".389" d="M20.755 14.027V5.228H23.5V5.8v.582c.006 0 .18-.105.385-.234 2.427-1.52 5.954-1.978 9.12-1.183 2.85.716 4.917 2.415 5.652 4.648a6.14 6.14 0 0 1-.066 4.017c-.586 1.57-1.79 2.83-3.53 3.696-1.52.756-3.257 1.135-5.204 1.135-1.614 0-3.12-.27-4.444-.794-.526-.208-1.2-.55-1.608-.817l-.315-.205v6.172h-2.744v-8.798zm10.44 2.104c1.543-.22 2.74-.71 3.64-1.488a4.14 4.14 0 0 0 1.332-2.306c.073-.367.074-1.233.001-1.6-.21-1.056-.816-1.978-1.72-2.624a7.5 7.5 0 0 0-1.58-.791c-1.336-.45-2.957-.583-4.44-.365-2.577.378-4.318 1.656-4.785 3.51a4.35 4.35 0 0 0 .103 2.475c.62 1.754 2.443 2.922 5.022 3.213.518.06 1.942.043 2.43-.026h0zm9.097-2.104V5.228h2.744V5.8l.013.582c.007 0 .158-.095.336-.2a10.81 10.81 0 0 1 1.739-.859c2.24-.827 4.977-.96 7.372-.36 3.904.98 6.202 3.665 5.985 6.99-.166 2.54-1.855 4.624-4.634 5.72-.906.357-1.835.583-2.998.728-.614.076-2.267.076-2.908 0-1.813-.216-3.404-.755-4.645-1.57l-.26-.172v6.167H40.29v-8.798zm10.505 2.09c2.138-.32 3.644-1.18 4.435-2.536.46-.787.632-1.834.46-2.807-.354-2.02-2.13-3.42-4.85-3.818-1.795-.263-3.82-.001-5.2.673-1.406.688-2.252 1.716-2.54 3.086-.076.36-.076 1.284.001 1.637.205.95.667 1.734 1.37 2.324.966.812 2.224 1.296 3.856 1.483.54.062 1.93.038 2.467-.042h0zM9.42 18.452c-1.456-.13-2.698-.415-3.754-.867-2.403-1.026-3.92-2.758-4.332-4.945-.08-.418-.11-1.358-.058-1.808.297-2.62 2.228-4.697 5.28-5.678 1.625-.522 3.624-.693 5.42-.462 3.288.422 5.776 1.947 6.87 4.21.9 1.843.777 4.082-.293 5.804-.482.775-1.276 1.576-2.094 2.11-1.272.833-2.792 1.35-4.638 1.58a25.38 25.38 0 0 1-2.401.053zm1.946-2.292c1.43-.152 2.635-.56 3.54-1.202.74-.524 1.327-1.297 1.6-2.096.154-.468.184-.687.184-1.326s-.03-.855-.183-1.323C16 8.676 14.53 7.532 12.478 7.08c-1.8-.396-3.897-.258-5.45.358C5.906 7.882 5.02 8.6 4.502 9.5c-.552.945-.677 2.232-.325 3.342.38 1.195 1.38 2.195 2.754 2.757.75.306 1.677.52 2.595.596a16.54 16.54 0 0 0 1.842-.024zm56.6 2.293l-.447-.044c-1.515-.144-3.107-.622-4.274-1.284-1.578-.895-2.677-2.167-3.18-3.68-.34-1.023-.398-2.173-.163-3.232.355-1.6 1.33-2.958 2.84-3.963 1.994-1.325 4.927-1.914 7.758-1.557 2.352.296 4.3 1.157 5.638 2.503 1.027 1.025 1.617 2.227 1.788 3.638a7.85 7.85 0 0 1-.014 1.498c-.37 2.803-2.592 4.946-5.995 5.78-1.032.253-1.68.33-2.893.342-.525.005-1 .005-1.06-.002h0zm1.804-2.28c1.812-.167 3.288-.764 4.236-1.713.642-.643 1.014-1.35 1.16-2.205.06-.352.06-1.087-.002-1.452-.33-1.967-2.065-3.393-4.635-3.81a9.2 9.2 0 0 0-1.67-.133c-2.882 0-5.118 1.087-5.978 2.905-.256.542-.375 1.1-.375 1.772 0 .884.206 1.586.67 2.285.854 1.283 2.474 2.103 4.618 2.337a14.53 14.53 0 0 0 1.973.016h0z" fill-rule="evenodd"/></svg>