<?xml version="1.0" encoding="UTF-8" standalone="no"?>
<!-- Generator: Adobe Illustrator 26.1.0, SVG Export Plug-In . SVG Version: 6.00 Build 0)  -->

<svg
   version="1.1"
   id="Ebene_1"
   x="0px"
   y="0px"
   viewBox="0 0 28.5 24.642317"
   xml:space="preserve"
   sodipodi:docname="98dada64d175a3d64458c24abe4e2e05.svg"
   width="28.5"
   height="24.642317"
   xmlns:inkscape="http://www.inkscape.org/namespaces/inkscape"
   xmlns:sodipodi="http://sodipodi.sourceforge.net/DTD/sodipodi-0.dtd"
   xmlns="http://www.w3.org/2000/svg"
   xmlns:svg="http://www.w3.org/2000/svg"><defs
   id="defs9" /><sodipodi:namedview
   id="namedview7"
   pagecolor="#ffffff"
   bordercolor="#666666"
   borderopacity="1.0"
   inkscape:pageshadow="2"
   inkscape:pageopacity="0.0"
   inkscape:pagecheckerboard="0" />
<style
   type="text/css"
   id="style2">
	.st0{fill-rule:evenodd;clip-rule:evenodd;}
</style>
<path
   class="st0"
   d="m 25.2,0.35463978 c 1.2,0.4 2.3,1.20000002 3,2.20000002 0.2,0.2 0.3,1.6 0.3,2.9 0,1.2 -0.1,2.5 -0.2,2.9 0,0 0,0.1 0,0.1 -0.9,1.2 -2.2,2.1000002 -3.6,2.4000002 -1.3,0.3 -2.7,0.2 -3.9,-0.4 v 9.6 h -4.4 v -10.5000002 0 0 c 0,-0.6 0,-1.2 0.1,-1.7 v 0 c 0.1,-0.5 0.1,-1 0.2,-1.5 0.3,-1.4 0.9,-2.8 1.8,-4 0.8,-1 1.9,-1.70000002 3.1,-2.10000002 1.1,-0.4 2.4,-0.3 3.6,0.1 z M 7.1,1.8546398 c 0.4,0.2 0.8,0.5 1.1,0.8 0.4,0.4 0.7,0.8 1,1.3 0,0.1 0,0.3 -0.2,0.4 -0.1,0.1 -0.3,0 -0.4,-0.1 -0.2,-0.4 -0.5,-0.8 -0.8,-1.1 -0.3,-0.3 -0.6,-0.5 -1,-0.7 -0.2,-0.1 -0.2,-0.3 -0.1,-0.5 0,-0.1 0.2,-0.2 0.4,-0.1 z m 18.2,1.4 h 0.3 c 0.3,0 0.6,0.3 0.6,0.6 v 2.9 c 0,0.3 -0.3,0.6 -0.6,0.6 h -0.3 c -0.3,0 -0.6,-0.3 -0.6,-0.6 v -2.9 c 0,-0.3 0.2,-0.6 0.6,-0.6 z m -3.6,-1.3 c 0.1,0.2 0,0.4 -0.1,0.4 -0.4,0.2 -0.7,0.4 -1,0.7 -0.3,0.3 -0.6,0.7 -0.8,1.1 -0.1,0.2 -0.3,0.2 -0.4,0.1 -0.2,0 -0.3,-0.2 -0.2,-0.3 0.3,-0.4 0.6,-0.9 0.9,-1.2 0.3,-0.3 0.7,-0.6 1.1,-0.8 0.3,-0.2 0.4,-0.1 0.5,0 z m -18.9,1.3 h 0.3 c 0.3,0 0.6,0.3 0.6,0.6 v 2.9 c 0,0.3 -0.3,0.6 -0.6,0.6 H 2.8 c -0.3,0 -0.6,-0.3 -0.6,-0.6 v -2.9 c 0,-0.3 0.3,-0.6 0.6,-0.6 z M 3.2,0.35463978 c 1.2,-0.4 2.5,-0.5 3.7,-0.1 1.2,0.3 2.3,1.10000002 3.1,2.10000002 0.9,1.2 1.5,2.5 1.8,4 0.1,0.5 0.2,1 0.2,1.5 v 0 c 0.1,0.5 0.1,1.1 0.1,1.7 v 0 0 V 20.15464 H 7.7 v -9.6 c -1.2,0.5 -2.6,0.7 -3.9,0.4 -1.5,-0.3 -2.8,-1.2000002 -3.6,-2.4000002 0,0 0,-0.1 0,-0.1 -0.2,-0.4 -0.2,-1.7 -0.2,-2.9 0,-1.3 0.1,-2.7 0.3,-2.9 0.6,-1.1 1.7,-1.90000002 2.9,-2.30000002 z M 12.1,21.45464 v 1.2 c 0.1,2.6 -4.4,2.7 -4.4,0 v -1.2 z m 4.2,0 h 4.4 v 1.2 c 0.1,2.7 -4.4,2.6 -4.4,0 z"
   id="path4" />
</svg>
