<svg xmlns="http://www.w3.org/2000/svg" width="61" height="21" viewBox="0 0 61 21">
    <g fill="#000" fill-rule="evenodd">
        <path d="M55.528 17.073c-3.192.02-6.215.046-7.058-.029-1.705-.148-2.844-1.263-2.976-2.904-.09-1.078-.09-1.97-.005-2.82.155-1.597 1.492-3.12 2.981-3.193.534-.028 1.962-.025 4.548-.014l7.526.014V5.006S54.549 5 52.747 4.99c-2.419-.01-3.636-.012-4.407.015-1.697.065-3.119.669-4.223 1.791-1.047 1.06-1.671 2.745-1.764 4.452-.052.92-.07 2.124 0 2.84.174 1.835.768 3.275 1.764 4.284 1.065 1.084 2.685 1.77 4.224 1.791 1.264.016 12.203 0 12.203 0v-3.12s-3.322.013-5.016.03M21.554 5.173v3.119h7.426V20.11h3.134V8.292h7.425V5.173H21.554M18.299 11.07c-.023-1.679-.615-3.12-1.764-4.284-1.198-1.22-3.026-1.726-4.223-1.79-1.04-.058-5.14-.04-6.102 0-1.356.058-2.344.463-2.84.832-.005.003-.01.002-.01-.006V.147H.225v20.017h3.13s-.061-8.193.009-9.086c.124-1.585 1.327-2.831 2.861-2.965 1.23-.105 4.923-.076 6.08.002 1.591.11 2.766 1.352 2.858 3.027.03.617-.001 9.022-.001 9.022h3.137s.008-8.373 0-9.093"/>
    </g>
</svg>
