<svg xmlns="http://www.w3.org/2000/svg" width="34" height="34" viewBox="0 0 34 34">
    <g fill="none" fill-rule="nonzero">
        <g fill="#040000">
            <path d="M2.166 30.47h2.575v-2.058h1.157v5.078H4.741v-2.121H2.166v2.12H1.01v-5.077h1.156zM7.996 31.453c0 .898.284 1.272 1.24 1.272.957 0 1.233-.373 1.233-1.272v-3.041h1.156v3.07c0 .65-.076 1.096-.32 1.363-.453.497-1.112.701-2.068.701-.957 0-1.623-.204-2.075-.701-.253-.273-.315-.72-.315-1.363v-3.07h1.15v3.04zM15.403 28.412l2.343 5.078H16.46l-.505-1.21h-2.39l-.49 1.21h-1.224l2.326-5.078h1.226zm-1.463 2.964h1.64l-.835-1.951-.805 1.95zM18.272 28.412l1.27 3.903 1.072-3.903h1.364l1.231 3.903 1.187-3.903h1.188l-1.7 5.078h-1.417l-1.172-3.79-1.025 3.79h-1.41l-1.83-5.078zM27.14 30.477h3.2v.884h-3.207c.006.913.398 1.245 1.308 1.245h1.9v.884h-1.953c-.666 0-1.179-.05-1.715-.446-.566-.416-.842-1.082-.842-2.001 0-1.795.82-2.631 2.588-2.631h1.92v.885H28.44c-.833 0-1.253.38-1.3 1.18M31.36 28.412h1.209v5.078h-1.21z"/>
        </g>
        <g fill="#000">
            <path d="M14.72 19.668s.06-.046.027-.12c-3.868-8.456-9.16-14.861-9.16-14.861s-2.88 2.731-2.674 5.47c.11 2.072 1.668 3.297 1.668 3.297 2.51 2.447 8.59 5.536 10.003 6.235.021.011.094.033.136-.021M13.78 21.763c-.025-.093-.13-.093-.13-.093v-.002l-10.12.352c1.096 1.958 2.945 3.477 4.871 3.012 1.33-.333 4.34-2.432 5.332-3.142l-.001-.004c.075-.068.048-.123.048-.123M13.933 20.852c.049-.08-.038-.148-.038-.148l.001-.004C9.451 17.702.836 13.098.836 13.098c-.784 2.426.271 4.379.271 4.379C2.205 19.799 4.302 20.5 4.302 20.5a6.157 6.157 0 0 0 1.935.426c.152.029 6.02.003 7.592-.004.066 0 .104-.07.104-.07M14.605.315c-.44.039-1.63.31-1.63.31-2.679.692-3.313 3.125-3.313 3.125-.488 1.53.014 3.21.014 3.21.893 3.968 5.296 10.49 6.24 11.859.068.067.122.042.122.042.102-.028.094-.126.094-.126h.002C17.589 4.175 14.605.315 14.605.315M17.955 18.857c.099.038.146-.054.146-.054h.001c.973-1.406 5.347-7.892 6.237-11.843 0 0 .483-1.915.017-3.21 0 0-.662-2.47-3.345-3.124 0 0-.774-.196-1.594-.31 0 0-3 3.861-1.541 18.43h.002c.01.094.077.11.077.11M20.351 21.678s-.089.012-.114.076c0 0-.021.092.04.138h-.002c.969.696 3.905 2.75 5.322 3.148 0 0 2.616.89 4.89-3.013l-10.135-.353-.001.004zM33.181 13.077s-8.605 4.616-13.054 7.619h.001s-.08.054-.051.148c0 0 .042.075.105.075v.002c1.592.002 7.62.007 7.772-.02 0 0 .78-.031 1.743-.402 0 0 2.144-.682 3.259-3.116 0 .001.992-1.987.225-4.306M19.315 19.668s.07.052.137.01v.002c1.45-.723 7.484-3.791 9.982-6.226 0 0 1.583-1.272 1.668-3.313.182-2.834-2.671-5.455-2.671-5.455s-5.28 6.386-9.146 14.82h.003c0 .002-.046.1.027.162"/>
        </g>
    </g>
</svg>
