<svg xmlns="http://www.w3.org/2000/svg" width="58" height="28" viewBox="0 0 58 28">
    <g fill="none" fill-rule="evenodd">
        <path fill="#000" d="M13.743 27.425c7.514 0 13.605-6.091 13.605-13.605S21.257.215 13.743.215.138 6.306.138 13.82s6.09 13.605 13.605 13.605"/>
        <path fill="#FFFFFE" d="M17.056 18.607h-2.818V7.96h-1.045v11.7h1.045v-.007h2.818v-1.045"/>
        <path fill="#FFFFFE" d="M24.088 14.254h-7.016v-1.043h8.044c.01.202.016.404.016.609 0 6.29-5.1 11.389-11.39 11.389-6.29 0-11.388-5.099-11.388-11.39 0-6.29 5.099-11.388 11.389-11.388.166 0 .331.003.495.01v1.037a10.706 10.706 0 0 0-.495-.011C8.025 3.467 3.39 8.102 3.39 13.82s4.635 10.353 10.353 10.353c5.562 0 10.099-4.386 10.342-9.888l.003-.03"/>
        <path fill="#FFFFFE" d="M9.494 11.111a1.6 1.6 0 1 0 0-3.2 1.6 1.6 0 0 0 0 3.2"/>
        <path fill="#000" d="M34.104 20.498h9.72v-2.936h-6.15V7.048h-3.57v13.45M55.572 7.996c-1.116-.864-2.55-1.302-4.263-1.302-2.034 0-3.733.624-4.914 1.805-1.233 1.234-1.886 3.051-1.886 5.255 0 2.355.69 4.343 1.943 5.595.983.983 2.295 1.503 3.794 1.503 3.293 0 4.05-1.973 4.05-1.973v1.619h2.973v-7.596h-5.918v2.376h2.724s.027 2.993-2.785 2.993c-.714 0-1.35-.26-1.84-.749-.763-.763-1.166-2.046-1.166-3.712 0-2.757 1.096-4.404 2.932-4.404 1.146 0 2.007.704 2.229 1.771h3.786c-.196-1.55-.622-2.358-1.66-3.181"/>
    </g>
</svg>
