<svg xmlns="http://www.w3.org/2000/svg" width="62" height="92" viewBox="0 0 62 92">
    <g fill="none" fill-rule="evenodd" stroke="#111" stroke-width="3">
        <path d="M9.5 63.5h2c4.6 0 9.6 2.4 12 6h8c4 0 8 4 8 8h-18"/>
        <path d="M38.3 73.5h13.2c7.2 0 8 4 8 4L30.9 89.1c-2.2 1-4.8.8-7-.2L9.5 81.5"/>
        <path stroke-linecap="square" d="M1.5 59.5h8v26h-8z"/>
        <g>
            <path d="M31.5 58.5v-56M6.478 30.5h50.044"/>
            <path stroke-linecap="square" d="M31.5 2.5c-8 6-20 10-28 10 0 18.666 9.334 38 28 46 18.666-8 28-27.334 28-46-8 0-20-4-28-10z"/>
        </g>
    </g>
</svg>
