<svg width="18" height="18" viewBox="0 0 18 18" fill="none" xmlns="http://www.w3.org/2000/svg">
<path d="M5 3.9375C5 1.76273 6.78929 0 9 0C11.2107 0 13 1.76273 13 3.9375V5.625H15.2857C16.2321 5.625 17 6.38086 17 7.3125V14.625C17 16.4883 15.4643 18 13.5714 18H4.42857C2.535 18 1 16.4883 1 14.625V7.3125C1 6.38086 1.7675 5.625 2.71429 5.625H5V3.9375ZM6.71429 5.625H11.2857V3.9375C11.2857 2.69473 10.2607 1.6875 9 1.6875C7.73929 1.6875 6.71429 2.69473 6.71429 3.9375V5.625ZM5.85714 9C6.33214 9 6.71429 8.62383 6.71429 8.15625C6.71429 7.68867 6.33214 7.3125 5.85714 7.3125C5.38214 7.3125 5 7.68867 5 8.15625C5 8.62383 5.38214 9 5.85714 9ZM12.1429 7.3125C11.6679 7.3125 11.2857 7.68867 11.2857 8.15625C11.2857 8.62383 11.6679 9 12.1429 9C12.6179 9 13 8.62383 13 8.15625C13 7.68867 12.6179 7.3125 12.1429 7.3125Z" fill="#02CA95"/>
</svg>
