<svg width="18" height="18" viewBox="0 0 18 18" fill="none" xmlns="http://www.w3.org/2000/svg">
<g clip-path="url(#clip0_1001_4095)">
<path d="M11.6648 7.87833C12.6594 7.87833 13.5942 8.26469 14.2966 8.96711L14.9854 9.65583C16.392 9.03215 17.4902 7.782 17.8548 6.25797C18.0561 5.41704 18.0425 4.60282 17.8624 3.85329C17.7705 3.47079 17.2847 3.34317 17.0067 3.62111L14.5844 6.04338H11.9266V3.417L14.3488 0.994731C14.627 0.716575 14.4991 0.230786 14.1167 0.139028C13.3671 -0.0411475 12.5529 -0.0546827 11.712 0.14658C9.76784 0.611697 8.25296 2.26369 7.94323 4.23877C7.89258 4.53145 7.88203 4.81622 7.88555 5.09747L10.7958 8.01051C11.0812 7.91348 11.373 7.87833 11.6648 7.87833ZM13.5 9.79434C12.6858 8.98012 11.4761 8.82508 10.498 9.30567L6.71836 5.5545V3.37446L2.25 -0.000190517L0 2.21817L3.375 6.68653L5.55609 6.6868L9.30727 10.4345C8.82668 11.4125 8.98203 12.6222 9.79629 13.4364L13.9096 17.5532C14.4236 18.063 15.2529 18.063 15.7627 17.5532L17.6171 15.6987C18.1269 15.1889 18.1269 14.3599 17.6171 13.8456L13.5 9.79434ZM8.01211 10.7928L5.93086 8.71504L0.696094 13.9498C-0.230977 14.8769 -0.230977 16.3784 0.696094 17.3055C1.15875 17.7678 1.7652 17.9998 2.37305 17.9998C2.9809 17.9998 3.58734 17.7681 4.0507 17.3044L8.23781 13.1173C7.92773 12.3854 7.82578 11.5803 8.01211 10.7928ZM2.25 16.5936C1.78418 16.5936 1.40625 16.2156 1.40625 15.7498C1.40625 15.2836 1.78418 14.9061 2.25 14.9061C2.71582 14.9061 3.09375 15.2822 3.09375 15.7498C3.09375 16.2174 2.71582 16.5936 2.25 16.5936Z" fill="#02CA95"/>
</g>
<defs>
<clipPath id="clip0_1001_4095">
<rect width="18" height="18" fill="white"/>
</clipPath>
</defs>
</svg>
