<svg width="18" height="18" viewBox="0 0 18 18" fill="none" xmlns="http://www.w3.org/2000/svg">
<path d="M9 9C11.525 9 13.5714 6.98555 13.5714 4.5C13.5714 2.01445 11.525 0 9 0C6.475 0 4.42857 2.01445 4.42857 4.5C4.42857 6.98555 6.475 9 9 9ZM12.2 10.125H11.6036C10.8107 10.4836 9.92857 10.6875 9 10.6875C8.07143 10.6875 7.19286 10.4836 6.39643 10.125H5.8C3.15 10.125 1 12.2414 1 14.85V16.3125C1 17.2441 1.76786 18 2.71429 18H15.2857C16.2321 18 17 17.2441 17 16.3125V14.85C17 12.2414 14.85 10.125 12.2 10.125Z" fill="#02CA95"/>
</svg>
