<svg width="18" height="18" viewBox="0 0 18 18" fill="none" xmlns="http://www.w3.org/2000/svg">
<path d="M0 6.24375C0 6.04414 0.0605531 5.85 0.174038 5.6832L2.29922 2.58434C2.54953 2.21932 2.97 2 3.42281 2H14.5772C15.03 2 15.4491 2.21932 15.6994 2.58434L17.8256 5.6832C17.9381 5.85 18 6.04414 18 6.24375C18 6.79883 17.5359 7.25 16.965 7.25H1.03612C0.464062 7.25 8.4375e-06 6.79883 8.4375e-06 6.24375H0ZM1.8 8.125H3.6V12.5H9V8.125H10.8V14.6875C10.8 15.4121 10.1953 16 9.45 16H3.15C2.40441 16 1.8 15.4121 1.8 14.6875V8.125ZM14.4 8.125H16.2V15.125C16.2 15.609 15.7978 16 15.3 16C14.8022 16 14.4 15.609 14.4 15.125V8.125Z" fill="#02CA95"/>
</svg>
