<svg width="18" height="16" viewBox="0 0 18 16" fill="none" xmlns="http://www.w3.org/2000/svg">
<path d="M0 5.71134V5.50744C0 3.05002 1.77609 0.954 4.19766 0.550406C5.76914 0.28357 7.43203 0.805992 8.57812 1.95384L9 2.37502L9.39023 1.95384C10.568 0.805992 12.1992 0.28357 13.8023 0.550406C16.2246 0.954 18 3.05002 18 5.50744V5.71134C18 7.17033 17.3953 8.56603 16.3266 9.56096L9.97383 15.4918C9.71016 15.7379 9.36211 15.875 9 15.875C8.63789 15.875 8.28984 15.7379 8.02617 15.4918L1.67309 9.56096C0.605742 8.56603 1.05469e-05 7.17033 1.05469e-05 5.71134H0Z" fill="#02CA95"/>
</svg>
