<svg xmlns="http://www.w3.org/2000/svg" width="20" height="15" viewBox="0 0 20 15">
    <g fill="none" fill-rule="nonzero">
        <path fill="#B8D4CB" d="M17.5 10.833V4.167c0-.92-.815-1.667-1.818-1.667H4.772c-1.002 0-1.817.747-1.817 1.667v6.666c0 .92.815 1.667 1.818 1.667h10.909c1.003 0 1.818-.748 1.818-1.667z"/>
        <path stroke="#F1F1F1" d="M19 11.813V3.124A2.185 2.185 0 0 0 16.807.953H3.647c-1.209 0-2.192.974-2.192 2.172v8.687c0 1.198.983 2.172 2.193 2.172h13.159c1.21 0 2.193-.974 2.193-2.172z"/>
    </g>
</svg>
