<svg xmlns="http://www.w3.org/2000/svg" width="15" height="15" viewBox="0 0 15 15">
    <g fill="#B8D4CB" fill-rule="evenodd">
        <path fill-rule="nonzero" d="M4.359 4.359v6.139h6.139v-6.14h-6.14zm-.155-1.93h6.448c.981 0 1.776.794 1.776 1.775v6.448c0 .981-.795 1.776-1.776 1.776H4.204c-.98 0-1.776-.795-1.776-1.776V4.204c0-.98.795-1.776 1.776-1.776z"/>
        <path d="M6.026 6.026h2.987v2.987H6.026zM4.328 0c.357 0 .646.29.646.646V1.88H3.68V.646c0-.357.29-.646.647-.646zM7.46 0c.358 0 .647.29.647.646V1.88H6.815V.646C6.815.29 7.104 0 7.46 0zM10.594 0c.357 0 .646.29.646.646V1.88H9.948V.646c0-.357.29-.646.646-.646zM4.328 15c.357 0 .646-.29.646-.646V13.12H3.68v1.234c0 .357.29.646.647.646zM7.46 15c.358 0 .647-.29.647-.646V13.12H6.815v1.234c0 .357.289.646.646.646zM10.594 15c.357 0 .646-.29.646-.646V13.12H9.948v1.234c0 .357.29.646.646.646z"/>
        <g>
            <path d="M15 10.633a.646.646 0 0 0-.646-.646H13.12v1.292h1.234c.357 0 .646-.289.646-.646zM15 7.5a.646.646 0 0 0-.646-.646H13.12v1.292h1.234c.357 0 .646-.29.646-.646zM15 4.367a.646.646 0 0 0-.646-.646H13.12v1.292h1.234c.357 0 .646-.29.646-.646z"/>
        </g>
        <g>
            <path d="M0 10.633c0-.357.29-.646.646-.646H1.88v1.292H.646A.646.646 0 0 1 0 10.633zM0 7.5c0-.357.29-.646.646-.646H1.88v1.292H.646A.646.646 0 0 1 0 7.5zM0 4.367c0-.357.29-.646.646-.646H1.88v1.292H.646A.646.646 0 0 1 0 4.367z"/>
        </g>
    </g>
</svg>
