<svg xmlns="http://www.w3.org/2000/svg" xmlns:xlink="http://www.w3.org/1999/xlink" width="77" height="76" viewBox="0 0 77 76">
    <defs>
        <path id="a" d="M0 75.858V.069h75.322v75.789z"/>
    </defs>
    <g fill="none" fill-rule="evenodd">
        <g transform="translate(.898 .042)">
            <mask id="b" fill="#fff">
                <use xlink:href="#a"/>
            </mask>
            <path fill="#B8D4CB" d="M37.649 2.402a36.875 36.875 0 0 0-7.056.714C15.499 6.148 3.88 19.044 2.423 34.4c-.665 6.999.561 13.643 3.747 19.92 7.487 14.755 24.397 22.356 40.403 18.157C62.419 68.319 73.388 53.74 73.04 37.32c-.115-5.419-1.378-10.546-3.803-15.393C63.27 10.002 50.972 2.396 37.649 2.402m.019-2.333C55.73.183 71.362 13.061 74.599 30.795c2.322 12.715-.954 23.958-9.79 33.414-6.052 6.476-13.6 10.31-22.416 11.345-12.233 1.438-22.81-2.244-31.523-10.943-5.914-5.904-9.45-13.103-10.51-21.4-1.52-11.894 1.764-22.366 9.917-31.173C16.355 5.47 23.942 1.647 32.827.468 34.43.257 36.053.199 37.667.07" mask="url(#b)"/>
        </g>
        <path fill="#B8D4CB" d="M8.503 36.86c2.23 0 4.417.01 6.604-.006.597-.004 1.022-.522.991-1.12-.028-.556-.42-.871-1.07-.871-1.657 0-3.313-.003-4.97-.005H8.504v2.003zm-.022 4.718c.055.022.077.04.1.04 2.189.003 4.378.014 6.567 0 .614-.005 1.062-.453 1.161-1.06.15-.912-.392-1.555-1.335-1.56-2.05-.014-4.1-.018-6.15-.024-.11 0-.218.015-.343.025v2.579zm-2.735-9.385h2.131c2.52-.005 5.038-.009 7.557-.016.694-.002 1.361.117 1.99.416 1.756.836 2.323 2.706 1.314 4.368-.195.323-.444.613-.697.959l.218.255c.957 1.138 1.337 2.407.661 3.797-.7 1.442-1.837 2.358-3.513 2.364-3.101.011-6.202-.014-9.304-.025-.11 0-.222-.012-.357-.019V32.193zM34.87 9.942h.629c1.873.003 3.747.013 5.62.007.633-.002 1.06-.476 1.04-1.11-.016-.568-.4-.888-1.048-.887-1.911 0-3.823-.004-5.734-.006h-.507v1.996zm-.02 2.604v2.14c.091.01.164.027.237.027 2.036.001 4.072.002 6.107-.002.137 0 .279-.024.41-.063a1.07 1.07 0 0 0 .781-1.083c-.014-.474-.32-.854-.81-.972a2.602 2.602 0 0 0-.6-.064c-1.909-.004-3.818-.003-5.728-.002-.123 0-.246.012-.396.019zm-2.643-7.264c.736 0 1.43.002 2.125 0 2.406-.005 4.811-.014 7.217-.013.301 0 .61.023.904.085 2.505.535 3.47 3.122 1.932 5.17-.114.15-.238.294-.37.457.143.195.29.383.423.58 1.91 2.843-.581 5.74-2.605 5.855-.82.047-1.646.016-2.469.013-2.278-.009-4.557-.02-6.836-.032-.099 0-.198-.01-.321-.015v-12.1zM44.314 47.768h-8.818v1.991h8.818v2.718h-8.826v2.05h8.829v2.716H32.542V45.078h11.772zM35.531 64.012c.096.015.145.028.194.028 1.773-.002 3.545-.005 5.318-.01.088 0 .177-.014.264-.03.723-.138 1.159-.784 1.076-1.593-.072-.704-.537-1.078-1.308-1.076-1.71.002-3.42-.005-5.129-.008h-.415v2.69zm9.952 6.81c-1.335 0-2.547.007-3.76-.011-.113-.002-.253-.142-.331-.254a440.411 440.411 0 0 1-2.89-4.19c-.137-.203-.282-.28-.525-.275-.797.015-1.594.006-2.437.006v4.693h-2.666V58.668c.113-.012.21-.03.306-.03 2.824-.001 5.648-.004 8.473.004.326 0 .658.041.979.106 1.574.32 2.533 1.425 2.794 3.012.323 1.96-1.038 3.76-3.048 4.194l-.496.109a143075 143075 0 0 1 3.601 4.76zM62.698 37.489c.045.02.067.04.09.04 1.884.007 3.768.018 5.652.018.378 0 .68-.209.803-.543.123-.333.2-.71.184-1.062-.033-.691-.52-1.082-1.21-1.08-1.354.003-2.708-.002-4.061-.004h-1.458v2.63zm-2.769-5.363h.464c2.685 0 5.37-.018 8.055.007 1.693.015 2.735 1.044 3.397 2.46.63 1.35.37 2.662-.551 3.807-.663.822-1.623 1.079-2.635 1.169-.136.012-.273.02-.5.035l3.832 4.783h-1.057c-.747 0-1.494-.01-2.241.006-.244.005-.391-.073-.532-.271-1.013-1.424-2.042-2.836-3.053-4.261-.15-.212-.31-.29-.563-.283-.606.017-1.213.006-1.874.006v4.778h-2.742V32.126zM40.654 25.967L38.52 21.73l-1.892 4.237h4.026zm5.81 4.881c-1.087 0-2.135.007-3.182-.01-.1-.002-.233-.131-.289-.235a26.568 26.568 0 0 1-.769-1.525c-.107-.233-.247-.299-.495-.298-2.013.01-4.026.01-6.04.001-.234-.001-.364.063-.456.287-.211.516-.442 1.023-.683 1.524-.05.105-.18.244-.275.245-1.16.017-2.321.011-3.55.011.388-.763.746-1.47 1.107-2.175 1.663-3.244 3.33-6.485 4.982-9.733.136-.267.288-.356.581-.348.822.02 1.646-.002 2.468.016.132.003.323.1.38.208 2.064 3.948 4.115 7.903 6.166 11.856.017.033.023.07.055.176zM50.46 34.564v2.401h6.657v2.15h-6.645v2.852h6.638v2.387H47.032v-12.16H57.11v2.37zM26.565 35.335l-2.062 4.176h4.347l-2.285-4.176m8.1 9.087c-.996 0-1.97.009-2.942-.011-.11-.002-.257-.14-.321-.253a83.164 83.164 0 0 1-1.188-2.165c-.105-.198-.222-.296-.465-.295-2.013.01-4.027.01-6.04 0-.226 0-.338.082-.432.278a67.94 67.94 0 0 1-1.046 2.109c-.058.11-.21.243-.32.245-.974.02-1.948.011-2.99.011.068-.174.1-.277.147-.372 1.949-3.852 3.897-7.704 5.858-11.55a.543.543 0 0 1 .394-.248c.937-.021 1.874-.02 2.811-.001.131.002.324.102.38.213 2.054 3.968 4.095 7.944 6.136 11.919.01.02.008.048.017.12M30.619 32.104c1.307 0 2.508-.008 3.71.011.133.002.289.136.392.247 1.283 1.383 2.557 2.774 3.834 4.162.092.1.186.198.304.322l.289-.337c1.143-1.37 2.291-2.738 3.423-4.118.181-.221.368-.298.645-.294 1.01.014 2.02.006 3.122.006-.137.17-.218.275-.303.376-1.853 2.197-3.71 4.39-5.552 6.596-.138.166-.23.422-.233.638-.02 1.405-.01 2.81-.01 4.216v.427h-2.696v-.457c0-1.354.011-2.71-.011-4.064a1.026 1.026 0 0 0-.251-.627c-2.08-2.232-4.176-4.449-6.268-6.67-.11-.116-.216-.237-.395-.434"/>
    </g>
</svg>
