<svg xmlns="http://www.w3.org/2000/svg" width="98" height="71" viewBox="0 0 98 71">
    <g fill="#B8D4CB" fill-rule="evenodd">
        <path d="M65.608 47.223V15.844c-.1.016-.175.012-.237.04-1.673.735-3.23 1.651-4.51 2.976-.85.879-1.547 1.872-1.55 3.144-.013 7.714.003 15.428-.002 23.142 0 .34.115.473.439.547.812.186 1.616.41 2.422.621 1.135.298 2.27.6 3.438.909zm-17.893-11.95c.258-.18.478-.332.698-.483 1.81-1.244 3.67-2.422 5.41-3.756 1.038-.796 2.012-1.745 2.793-2.79 1.34-1.796.917-3.765-.92-5.065-1.673-1.185-3.53-1.344-5.398-.686-3.954 1.391-6.87 4-8.567 7.854-.735 1.67-.945 3.468-.557 5.28.862 4.033 4.478 7.266 8.6 7.685.404.04.911-.008 1.23-.223 2.137-1.44 4.236-2.936 6.346-4.416.111-.078.207-.176.418-.358-1.937.346-3.729.46-5.504-.125-1.753-.577-3.3-1.457-4.549-2.918zm27.451 14.885v-39.09c-1.619.644-3.038 1.458-4.28 2.568-1.427 1.275-2.137 2.807-2.126 4.788.052 9.73.023 19.46.023 29.19v.732l6.383 1.812zm-53.773-.136c.173-.042.296-.066.415-.102 3.14-.955 6.283-1.897 9.417-2.873 1.629-.507 3.209-1.132 4.683-2.02 4.268-2.573 4.676-8.157 3.136-10.964-.854-1.556-2.09-2.75-3.596-3.636-1.145-.674-2.369-1.213-3.559-1.814l.489-.19c1.572-.597 3.044-1.363 4.302-2.503 2.524-2.288 2.55-5.48-.017-7.712a18.64 18.64 0 0 0-2.975-2.091c-3.082-1.761-6.414-2.96-9.74-4.163-.83-.3-1.665-.588-2.555-.902v38.97zM49.093.867c9.172.067 18.163 1.74 26.655 5.721 5.79 2.714 10.92 6.322 15.017 11.292 2.997 3.636 5.094 7.717 5.916 12.383.966 5.48.068 10.685-2.489 15.613-2.245 4.327-5.41 7.882-9.192 10.915-.707.567-1.444 1.1-2.19 1.616-.13.09-.426.105-.554.018-5.266-3.565-11.125-5.685-17.27-7.096-4.239-.973-8.54-1.48-12.883-1.681-9.231-.427-18.2.814-26.844 4.153-3.312 1.28-6.485 2.834-9.446 4.809-.149.099-.472.124-.607.03C9.119 54.427 4.27 49.176 1.928 42.015c-2.407-7.357-1.235-14.33 2.78-20.864 2.717-4.423 6.41-7.906 10.685-10.792 6.148-4.15 12.948-6.707 20.184-8.176C39.984 1.29 44.441.896 49.094.867z"/>
        <path d="M23.165 64.42c1.367.461 2.524.665 3.694-.1 3.372-2.204 6.95-3.997 10.762-5.315 6.46-2.235 13.13-2.819 19.911-2.596 3.721.122 7.366.706 10.963 1.637.931.24 1.858.5 2.794.722a2.223 2.223 0 0 0 1.816-.325c-.46-.31-.923-.58-1.42-.75-7.513-2.585-15.237-3.218-23.1-2.42-4.903.499-9.628 1.757-14.225 3.509-3.638 1.385-7.159 3.017-10.459 5.099-.208.131-.4.291-.736.54m55.027-5.437c-7.966 6.033-16.803 9.706-26.573 11.02-10.933 1.472-21.389-.21-31.422-5.232.799-.633 1.481-1.22 2.21-1.742 3.955-2.844 8.343-4.815 12.953-6.312 4.126-1.338 8.354-2.217 12.656-2.767 2.65-.34 5.308-.511 7.973-.401 7.613.313 14.906 2.006 21.831 5.215.08.037.154.09.372.22M27.722 44.192v-14.09c1.812.376 3.302 1.19 4.353 2.69 1.945 2.776 1.54 7.253-.861 9.585-.957.93-2.108 1.511-3.492 1.815M27.8 27.578V16.851c.064.004.136-.01.192.013 1.313.566 2.518 1.299 3.487 2.363 1.473 1.616 1.618 3.76.406 5.621-.827 1.269-2.551 2.438-4.084 2.73M46.734 33.575c-1.178-1.494-1.388-4.47-.468-6.007 1.046-1.744 3.65-1.618 4.81.233.596.952.58 1.695-.166 2.533-.467.524-1 1.003-1.561 1.427-.838.634-1.725 1.202-2.615 1.814"/>
    </g>
</svg>
