<svg xmlns="http://www.w3.org/2000/svg" width="114" height="47" viewBox="0 0 114 47">
    <defs>
        <path id="a" d="M.285 45.996V7.23h18.87v38.765z"/>
        <path id="b" d="M39.648.86H20.271v45.23h19.377V.86z"/>
        <path id="c" d="M.285 45.996V7.23h18.87v38.765z"/>
    </defs>
    <g fill="none" fill-rule="evenodd">
        <path fill="#B8D4CB" d="M39.895 16.257V8.509h-10.27V.895h-8.95c-.022.5-.052.854-.052 1.208-.002 12.232-.011 24.464.004 36.696.005 3.584 1.604 5.836 4.83 6.689 3.247.858 6.53.882 9.762-.116 3.306-1.02 4.768-3.06 4.774-6.519.006-3.837.002-7.675.002-11.512v-1.783c-2.52 0-4.737.053-6.95-.021-1.146-.038-1.458.446-1.428 1.485.046 1.618.006 3.238.007 4.856.002 1.8.07 3.602-.034 5.394-.025.43-.62.828-.953 1.24-.31-.375-.753-.706-.896-1.137-.162-.489-.067-1.067-.067-1.607-.003-4.796-.002-9.593-.003-14.39v-5.121h10.224zM11.077 21.823c2.597 0 4.926.056 7.246-.058.357-.018.946-.805.966-1.257.097-2.212.108-4.434.019-6.646-.125-3.101-1.632-5.052-4.584-5.92-3.057-.898-6.156-.919-9.206.05C2.35 8.996.784 11.231.779 14.585c-.002 1.917.2 3.86-.04 5.746-.591 4.633 1.289 7.348 5.636 9.076 4.851 1.928 4.784 2.189 4.659 7.316-.016.65-.648 1.286-.995 1.929-.309-.616-.84-1.217-.883-1.851-.123-1.758-.043-3.53-.043-5.316H.791c0 2.661-.08 5.177.02 7.686.131 3.264 1.781 5.485 4.955 6.25 2.002.483 4.18.762 6.206.521 6.122-.726 7.69-3.635 7.415-8.528-.08-1.433-.16-2.893.013-4.31.596-4.882-1.4-7.771-6.036-9.608-5.105-2.023-4.22-1.022-4.214-6.848.001-.498.565-.995.867-1.493.353.518.965 1.014 1.011 1.559.137 1.597.049 3.213.049 5.108M113.736 45.78h-8.997v-1.94l.002-26.621c0-.36.103-.77-.036-1.067-.175-.377-.547-.663-.835-.989-.29.315-.708.585-.836.956-.149.43-.046.948-.046 1.427 0 8.694 0 17.387.002 26.081v2.068h-9.037V43.72 17.459c0-.42.096-.874-.034-1.25-.133-.385-.489-.695-.747-1.037-.322.351-.748.657-.932 1.07-.156.35-.03.825-.03 1.244l-.004 26.621v1.571h-9.015v-1.923l-.001-25.901c0-.6.066-1.215-.052-1.792-.068-.329-.447-.594-.686-.887-.327.283-.798.506-.943.863-.169.413-.056.943-.056 1.422 0 8.634.002 17.267.004 25.9v2.304h-9.038v-2.127l.004-26.441c0-.36.09-.76-.037-1.067-.139-.333-.484-.58-.74-.865-.315.294-.746.536-.912.9-.16.348-.05.822-.05 1.242V45.68H61.66V8.828c2.801-.732 8.47-.384 9.127.55 4.038-2.47 6.812-2.23 10.11.878 4.078-3.4 7.235-3.408 10.376-.375 2.122-.764 3.975-1.75 5.933-2.05 2.155-.33 4.086.698 5.36 2.232 1.373-.761 2.574-1.785 3.944-2.12 4.237-1.036 7.183 1.77 7.214 6.768.047 7.435.012 14.87.012 22.304v8.764z"/>
        <path fill="#B8D4CB" d="M39.895 16.257H29.67v5.122c0 4.796 0 9.593.003 14.39 0 .539-.095 1.117.067 1.606.143.431.585.762.896 1.138.333-.413.928-.81.953-1.241.105-1.792.036-3.594.034-5.394 0-1.618.039-3.238-.007-4.856-.03-1.04.282-1.523 1.428-1.485 2.213.074 4.43.021 6.95.021v1.783c0 3.837.004 7.675-.002 11.512-.006 3.459-1.468 5.499-4.774 6.52-3.233.997-6.515.973-9.762.115-3.226-.853-4.825-3.105-4.83-6.69-.015-12.231-.006-24.463-.004-36.695 0-.354.03-.709.053-1.208h8.949V8.51h10.27v7.748zM11.077 21.823c0-1.895.088-3.51-.049-5.108-.046-.545-.658-1.041-1.011-1.56-.302.499-.866.996-.867 1.494-.006 5.826-.89 4.825 4.214 6.848 4.636 1.837 6.632 4.726 6.036 9.609-.173 1.416-.093 2.876-.013 4.31.275 4.892-1.293 7.8-7.415 8.527-2.027.24-4.204-.038-6.206-.52-3.174-.766-4.824-2.987-4.955-6.25-.1-2.51-.02-5.026-.02-7.687h8.322c0 1.786-.08 3.558.043 5.316.044.634.574 1.235.883 1.85.347-.642.979-1.278.995-1.928.125-5.127.192-5.388-4.66-7.316C2.029 27.68.149 24.965.74 20.332c.24-1.886.038-3.829.04-5.746.005-3.353 1.57-5.589 4.739-6.595 3.05-.968 6.149-.947 9.206-.049 2.952.868 4.46 2.819 4.584 5.92a79.048 79.048 0 0 1-.02 6.646c-.019.452-.608 1.239-.965 1.257-2.32.114-4.649.058-7.246.058M51.097 37.431c-.013.376-.551.734-.847 1.1-.283-.331-.797-.655-.81-.997-.071-1.854-.1-3.72.041-5.566.043-.554.684-1.062 1.05-1.59l.606.264c0 2.264.04 4.529-.04 6.789M60.14 13.97c-.016-2.917-1.6-4.888-4.42-5.626-3.293-.861-6.649-.94-9.957-.036-2.581.704-3.993 2.357-4.155 5.019-.148 2.45-.09 4.914-.032 7.37.01.383.49 1.07.774 1.08 2.307.089 4.619.05 7.04.05 0-1.83-.076-3.389.039-4.934.044-.595.523-1.159.804-1.737.304.552.804 1.083.87 1.662.137 1.183-.024 2.398.056 3.591.076 1.151-.42 1.762-1.456 2.157-1.788.682-3.563 1.41-5.313 2.188-1.98.88-3.14 2.423-3.171 4.614-.057 3.956-.084 7.915 0 11.87.053 2.519 1.319 3.957 3.763 4.614 2.211.595 4.23.142 6.029-1.33.429 1.517 2.452 1.76 8.96 1.186.092-.231.17-.338.17-.445.012-10.43.055-20.863 0-31.293"/>
    </g>
</svg>
