<svg xmlns="http://www.w3.org/2000/svg" width="201" height="27" viewBox="0 0 201 27">
    <defs>
        <path id="a" d="M.624 26.251V.128h32.924v26.123z"/>
        <path id="b" d="M200.435 5.404V.124h-29.37v5.28h29.37z"/>
        <path id="c" d="M.624.128v26.123h32.924V.128z"/>
        <path id="d" d="M200.435.124v5.28h-29.37V.124h29.37z"/>
    </defs>
    <g fill="none" fill-rule="evenodd">
        <path fill="#FFF" d="M90.354 16.279h22.866v4.907c-.275.176-.348.263-.422.264-5.395.03-10.791.036-16.187.086-3.43.032-6.232 1.993-7.47 5.165h29.157V10.808H95.336v-5.14c5.522 0 10.9.022 16.276-.008 3.416-.02 5.92-1.982 6.685-5.261H90.354v15.88zM33.272.495H.347c.959 1.398 1.55 2.573 2.421 3.477 3.294 3.422 7.81.803 11.827 2.206v20.44h5.126V6.202c.359-.204.507-.36.658-.364 2.12-.042 4.238-.06 6.357-.092 3.391-.05 5.39-1.608 6.536-5.25M199.631 11.126h-28.213v15.566h5.11v-10.26h18.175v10.254h4.928zM132.987.49v26.358c7.643 0 15.146.069 22.647-.042 2.231-.033 4.056-2.305 4.575-5.23h-22.363V.49h-4.86zM170.788.491c.822 3.42 2.86 5.213 6.078 5.241 5.757.051 11.514.054 17.27-.001 3.183-.03 5.227-1.862 6.023-5.24h-29.371zM75.412 21.728H45.926c1.409 3.859 3.147 5.127 6.891 5.133 5.48.008 10.96.025 16.44-.007 3.235-.018 5.169-1.64 6.155-5.126M75.398.553H45.941c1.396 3.82 3.203 5.15 6.905 5.16 5.388.014 10.775.026 16.163-.005 3.44-.02 5.382-1.604 6.389-5.155M45.989 10.953c1.018 3.453 3.034 5.212 6.143 5.238 5.742.05 11.486.053 17.228-.001 3.134-.03 5.335-2.003 5.988-5.237h-29.36z"/>
        <path fill="#B8D4CB" d="M90.354 16.279V.399H118.297c-.764 3.279-3.269 5.242-6.685 5.261-5.377.03-10.754.008-16.276.008v5.14h22.962V26.7H89.141c1.238-3.172 4.04-5.133 7.47-5.165 5.396-.05 10.792-.055 16.187-.086.074 0 .147-.088.422-.264V16.28H90.354zM33.272.495c-1.146 3.643-3.145 5.201-6.536 5.251-2.12.031-4.238.05-6.357.092-.15.003-.3.16-.658.364v20.416h-5.126V6.178C10.578 4.775 6.062 7.394 2.768 3.972 1.897 3.068 1.306 1.893.348.495h32.924zM199.631 11.126v15.56h-4.928V16.433h-18.175v10.26h-5.11V11.125zM132.987.49h4.86v21.086h22.362c-.519 2.925-2.344 5.197-4.575 5.23-7.5.11-15.004.042-22.647.042V.491zM170.788.491h29.371c-.796 3.378-2.84 5.21-6.023 5.24-5.756.055-11.513.052-17.27.001-3.219-.028-5.256-1.82-6.078-5.24M75.412 21.728c-.986 3.485-2.92 5.108-6.156 5.126-5.48.032-10.96.015-16.439.007-3.744-.006-5.482-1.274-6.891-5.133h29.486zM75.398.553c-1.007 3.55-2.949 5.136-6.39 5.155-5.387.031-10.774.02-16.162.004-3.702-.01-5.509-1.339-6.905-5.159h29.457zM45.989 10.953h29.359c-.653 3.234-2.854 5.208-5.988 5.237-5.742.054-11.486.05-17.228.001-3.11-.026-5.125-1.785-6.143-5.238"/>
    </g>
</svg>
