<svg width="18" height="18" viewBox="0 0 18 18" fill="none" xmlns="http://www.w3.org/2000/svg">
<g clip-path="url(#clip0_2730_989)">
<path d="M9.00007 17.9996C13.9704 17.9996 17.9999 13.9698 17.9999 8.99982C17.9999 4.02988 13.9707 0 9.00007 0C4.02942 0 0.000244141 4.03023 0.000244141 8.99982C0.000244141 13.9694 4.02977 17.9996 9.00007 17.9996Z" fill="#F0F0F0"/>
<path fill-rule="evenodd" clip-rule="evenodd" d="M16.6699 4.30059H8.59542V1.95044H14.5951C15.4189 2.60634 16.1212 3.4018 16.6699 4.30059ZM17.9999 8.99983H8.60034V6.65039H17.6902C17.8964 7.41648 18.0005 8.20646 17.9999 8.99983ZM9.00006 17.9997C11.0347 18.0043 13.0102 17.3148 14.6 16.045H3.40048C4.99005 17.315 6.96544 18.0046 9.00006 17.9997ZM16.6798 13.7001H1.32032C0.872336 12.9695 0.532155 12.1781 0.310303 11.3503H17.6898C17.468 12.1781 17.1278 12.9696 16.6798 13.7001Z" fill="#D80027"/>
<path fill-rule="evenodd" clip-rule="evenodd" d="M4.17848 1.40061H4.1704V1.40623L4.17848 1.40061ZM4.17848 1.40061H4.99233L4.22559 1.95079L4.51563 2.85077L3.75064 2.30059L2.99058 2.85077L3.24053 2.07419C2.56874 2.63645 1.98261 3.29375 1.50068 4.02532H1.76576L1.28061 4.37688L1.06054 4.76359L1.29045 5.47865L0.855579 5.16225L0.555702 5.86044L0.805659 6.64441H1.75486L1.00042 7.20022L1.29045 8.1002L0.525469 7.55002L0.0754775 7.87978C0.0252621 8.25101 0.000127455 8.62521 0.000244548 8.99983H9.00007V7.58041e-06C7.29223 -0.00221359 5.61934 0.483737 4.17848 1.40061ZM4.51387 8.09563L4.52055 8.1009H4.51563L4.51387 8.09563ZM4.22524 7.20057L4.51387 8.09563L3.75029 7.55072L2.9853 8.1009L3.27534 7.20092L2.51035 6.65074H3.45955L3.74959 5.75075L4.03962 6.65074H4.98882L4.22524 7.20057ZM4.23051 4.58078L4.52055 5.48076L3.75556 4.93058L2.99058 5.48076L3.28061 4.58078L2.51563 4.03059H3.46483L3.75486 3.13061L4.04489 4.03059H4.99409L4.23051 4.58078ZM6.9853 7.55072L7.75029 8.1009L7.46026 7.20092L8.22665 6.65074H7.27745L6.98741 5.75075L6.69738 6.65074H5.74818L6.51316 7.20092L6.22313 8.1009L6.9853 7.55072ZM7.46026 4.58078L7.75029 5.48076L6.9853 4.93058L6.22032 5.48076L6.51035 4.58078L5.74537 4.03059H6.69457L6.9846 3.13061L7.27463 4.03059H8.22383L7.46026 4.58078ZM7.75029 2.86062L7.46026 1.96063L8.22665 1.41045H7.27745L6.98741 0.510466L6.69738 1.41045H5.74818L6.51316 1.96063L6.22313 2.86062L6.98812 2.31043L7.75029 2.86062Z" fill="#0052B4"/>
</g>
<defs>
<clipPath id="clip0_2730_989">
<rect width="18" height="18" fill="white"/>
</clipPath>
</defs>
</svg>
