<svg width="18" height="18" viewBox="0 0 18 18" fill="none" xmlns="http://www.w3.org/2000/svg">
<path d="M0 9.00234C0.00249428 10.865 0.584397 12.6809 1.66533 14.1992C2.74626 15.7176 4.27287 16.8634 6.03429 17.4785V0.536133C4.27488 1.15125 2.7498 2.29574 1.66911 3.81196C0.588422 5.32818 0.00527998 7.14156 0 9.00234Z" fill="#009A49"/>
<path d="M9.01924 9.58645e-05C8.00328 -0.00460082 6.99394 0.163313 6.03442 0.496647V17.4787C7.97705 18.1738 10.1012 18.1738 12.0438 17.4787V0.536371C11.0741 0.185038 10.0509 0.00361003 9.01924 9.58645e-05Z" fill="#F2F2F2"/>
<path d="M12.0039 0.536133V17.4785C13.7578 16.8579 15.276 15.7103 16.3497 14.1933C17.4234 12.6764 17.9999 10.8647 17.9999 9.0073C17.9999 7.14995 17.4234 5.33821 16.3497 3.82126C15.276 2.30431 13.7578 1.15665 12.0039 0.536133Z" fill="#CE2B37"/>
</svg>
