<svg width="18" height="18" viewBox="0 0 18 18" fill="none" xmlns="http://www.w3.org/2000/svg">
<path d="M17.125 0.25C16.7812 0.25 16.5 0.529687 16.5 0.875V5.92578C15.2578 2.89531 12.3047 0.875 9 0.875C5.01562 0.875 1.64453 3.72305 0.988281 7.64453C0.930469 7.98828 1.16016 8.30859 1.50078 8.36719C1.53555 8.37109 1.57031 8.375 1.6043 8.375C1.90398 8.375 2.16875 8.15895 2.22031 7.85391C2.77695 4.53516 5.62891 2.125 9 2.125C11.8316 2.125 14.3633 3.87812 15.3906 6.5H10.875C10.5312 6.5 10.25 6.78125 10.25 7.125C10.25 7.46875 10.5312 7.75 10.875 7.75H17.125C17.4688 7.75 17.75 7.46875 17.75 7.125V0.875C17.75 0.529687 17.4688 0.25 17.125 0.25ZM16.4648 9.63281C16.1224 9.5718 15.802 9.80492 15.7453 10.1453C15.2227 13.4648 12.3711 15.875 8.96484 15.875C6.1332 15.875 3.60156 14.1219 2.57422 11.5H7.125C7.46875 11.5 7.75 11.2188 7.75 10.875C7.75 10.5312 7.46875 10.25 7.125 10.25H0.875C0.529687 10.25 0.25 10.5312 0.25 10.875V17.125C0.25 17.4688 0.529687 17.75 0.875 17.75C1.22031 17.75 1.5 17.4688 1.5 17.125V12.0742C2.74375 15.1055 5.69531 17.125 9 17.125C12.9492 17.125 16.3555 14.277 17.0117 10.3555C17.0703 10.0117 16.8398 9.69141 16.4648 9.63281Z" fill="white"/>
</svg>
