<?xml version="1.0" encoding="UTF-8"?>
<svg width="174px" height="173px" viewBox="0 0 174 173" version="1.1" xmlns="http://www.w3.org/2000/svg" xmlns:xlink="http://www.w3.org/1999/xlink">
    <!-- Generator: Sketch 46.2 (44496) - http://www.bohemiancoding.com/sketch -->
    <title>Group 18</title>
    <desc>Created with Sketch.</desc>
    <defs>
        <linearGradient x1="50%" y1="0%" x2="50%" y2="95.5801105%" id="linearGradient-1">
            <stop stop-color="#DDF8F0" offset="0%"></stop>
            <stop stop-color="#DDF8F0" stop-opacity="0" offset="100%"></stop>
        </linearGradient>
    </defs>
    <g id="Page-1" stroke="none" stroke-width="1" fill="none" fill-rule="evenodd">
        <g id="content_form_v2" transform="translate(-733.000000, -3433.000000)" fill-rule="nonzero" fill="url(#linearGradient-1)">
            <g id="Group-18" transform="translate(733.000000, 3433.000000)">
                <path d="M137.647588,27.7078477 C140.050959,27.7078477 142,25.7518457 142,23.3391016 L142,9.5544668 C142,4.28637695 137.732467,0 132.485834,0 L40.4086144,0 C39.254475,0 38.1475296,0.460630859 37.3307919,1.27972656 L1.2749419,37.4708887 C0.458908645,38.2899844 0,39.4014375 0,40.5599082 L0,171.44518 C0.000352193895,176.713623 4.27035098,181 9.5190966,181 L132.485482,181 C137.732114,181 141.999648,176.713623 141.999648,171.445533 L141.999648,104.742791 C142,102.3304 140.051311,100.374045 137.647588,100.374045 C135.244217,100.374045 133.295176,102.330047 133.295176,104.742791 L133.295176,171.445533 C133.295176,171.895912 132.932064,172.262508 132.486186,172.262508 L9.51944879,172.262508 C9.07075377,172.262508 8.7055287,171.895912 8.7055287,171.445533 L8.7055287,44.9293613 L35.2468606,44.9293613 C40.4938453,44.9293613 44.7617309,40.644752 44.7617309,35.3784297 L44.7617309,8.73749219 L132.485834,8.73749219 C132.932064,8.73749219 133.294823,9.10408789 133.294823,9.5544668 L133.294823,23.3391016 C133.294823,25.7518457 135.243865,27.7078477 137.647588,27.7078477 Z M36.0569066,35.3780762 C36.0569066,35.8266875 35.6934425,36.1915156 35.2468606,36.1915156 L14.8625824,36.1915156 L36.0569066,14.9169453 L36.0569066,35.3780762 Z" id="Shape"></path>
                <path d="M169.716341,36.4678529 L164.622142,31.3250662 C158.910306,25.5579575 149.616659,25.558665 143.904122,31.3250662 L103.467582,72.1528991 L33.329421,72.1528991 C30.9383951,72.1528991 29,74.1100515 29,76.5242147 C29,78.9383779 30.9383951,80.8955303 33.329421,80.8955303 L94.8087403,80.8955303 L68.7512874,107.205134 L33.329421,107.205134 C30.9383951,107.205134 29,109.162286 29,111.57645 C29,113.990613 30.9383951,115.947765 33.329421,115.947765 L60.0920951,115.947765 L60.0223788,116.018156 C59.4940759,116.551571 59.1122124,117.213388 58.912172,117.939936 L52.2250068,142.257369 L33.329421,142.257369 C30.9383951,142.257369 29,144.214521 29,146.628684 C29,149.042848 30.9383951,151 33.329421,151 L55.5167401,151 C55.5170904,151 56.4657934,150.891761 56.6052261,150.854973 C56.6279978,150.84896 83.9301855,143.199688 83.9301855,143.199688 C84.6497704,142.998066 85.3055947,142.6118 85.8335472,142.078738 L169.716692,57.3849411 C175.427828,51.6185398 175.427828,42.2349616 169.716341,36.4678529 Z M61.7362101,140.348323 L65.2700237,127.498961 L74.4627739,136.780667 L61.7362101,140.348323 Z M82.7723334,132.806583 L69.2070712,119.110054 L138.44978,49.1973021 L152.015393,62.8938316 L82.7723334,132.806583 Z M163.593213,51.2032684 L158.138171,56.7110977 L144.572558,43.0142146 L150.027601,37.5063852 C152.363974,35.1477566 156.164392,35.1481103 158.499014,37.5063852 L163.593213,42.6498793 C165.928886,45.0081542 165.928886,48.8453472 163.593213,51.2032684 Z" id="Shape"></path>
            </g>
        </g>
    </g>
</svg>