<svg width="48" height="63" viewBox="0 0 48 63" fill="none" xmlns="http://www.w3.org/2000/svg">
<path d="M0 0H48V39C48 52.2548 37.2548 63 24 63C10.7452 63 0 52.2548 0 39V0Z" fill="#5BC58F"/>
<path d="M8.76 22.9H9.98L12.68 30H11.26L10.6 28.23H8.12L7.47 30H6.05L8.76 22.9ZM10.35 27.26L9.37 24.47L8.35 27.26H10.35ZM13.1587 30V22.91H14.5387V26.28L17.5188 22.9H19.0388L16.3187 26.05L19.2088 30H17.6588L15.4487 26.93L14.5387 27.88V30H13.1587ZM24.8582 24.11H22.5882V30H21.2182V24.11H18.9482V22.9H24.8582V24.11ZM25.4396 30V22.9H26.8196V30H25.4396ZM31.0309 30.05C30.5109 30.05 30.0376 29.95 29.6109 29.75C29.1909 29.5433 28.8276 29.2733 28.5209 28.94C28.2209 28.6 27.9876 28.2133 27.8209 27.78C27.6543 27.3467 27.5709 26.9033 27.5709 26.45C27.5709 25.9767 27.6576 25.5233 27.8309 25.09C28.0109 24.6567 28.2543 24.2733 28.5609 23.94C28.8743 23.6067 29.2443 23.3433 29.6709 23.15C30.0976 22.95 30.5609 22.85 31.0609 22.85C31.5743 22.85 32.0409 22.9567 32.4609 23.17C32.8876 23.3767 33.2509 23.65 33.5509 23.99C33.8509 24.33 34.0843 24.7167 34.2509 25.15C34.4176 25.5833 34.5009 26.0233 34.5009 26.47C34.5009 26.9433 34.4143 27.3967 34.2409 27.83C34.0676 28.2567 33.8276 28.6367 33.5209 28.97C33.2143 29.2967 32.8476 29.56 32.4209 29.76C31.9943 29.9533 31.5309 30.05 31.0309 30.05ZM28.9709 26.45C28.9709 26.7567 29.0176 27.0533 29.1109 27.34C29.2043 27.6267 29.3376 27.88 29.5109 28.1C29.6909 28.32 29.9076 28.4967 30.1609 28.63C30.4209 28.7633 30.7143 28.83 31.0409 28.83C31.3743 28.83 31.6676 28.7633 31.9209 28.63C32.1809 28.49 32.3976 28.3067 32.5709 28.08C32.7509 27.8533 32.8843 27.6 32.9709 27.32C33.0643 27.0333 33.1109 26.7433 33.1109 26.45C33.1109 26.1433 33.0609 25.8467 32.9609 25.56C32.8676 25.2733 32.7309 25.02 32.5509 24.8C32.3776 24.58 32.1609 24.4067 31.9009 24.28C31.6476 24.1467 31.3609 24.08 31.0409 24.08C30.7076 24.08 30.4109 24.15 30.1509 24.29C29.8909 24.4233 29.6743 24.6033 29.5009 24.83C29.3276 25.05 29.1943 25.3033 29.1009 25.59C29.0143 25.87 28.9709 26.1567 28.9709 26.45ZM36.6395 25.45V30H35.2595V22.9H36.3295L40.0295 27.56V22.91H41.4095V30H40.2895L36.6395 25.45Z" fill="white"/>
</svg>
