<svg width="92" height="73" viewBox="0 0 92 73" fill="none" xmlns="http://www.w3.org/2000/svg">
<path d="M22.5035 34.5684C19.2185 34.5796 15.9916 35.4432 13.1334 37.0761C17.1575 26.5729 23.8316 17.3114 32.4953 10.208C32.991 9.79639 33.4014 9.29032 33.7032 8.71873C34.0049 8.14714 34.1921 7.52121 34.2539 6.87669C34.3158 6.23216 34.2511 5.58167 34.0637 4.96233C33.8762 4.343 33.5696 3.76697 33.1614 3.26712C32.7532 2.76727 32.2513 2.35338 31.6845 2.04911C31.1177 1.74484 30.4969 1.55613 29.8578 1.49375C29.2186 1.43138 28.5735 1.49657 27.9593 1.68559C27.3451 1.87461 26.7739 2.18377 26.2782 2.59541C8.51498 17.1489 0.610352 37.3 0.610352 49.7936C0.640958 54.2112 1.94646 58.5241 4.36745 62.2059C6.78844 65.8877 10.2202 68.779 14.2436 70.5268C16.8475 71.7988 19.6991 72.4718 22.5923 72.4971C25.1389 72.622 27.6842 72.2239 30.0737 71.3272C32.4632 70.4305 34.6472 69.0538 36.4934 67.2805C38.3395 65.5072 39.8092 63.3743 40.8134 61.0111C41.8177 58.648 42.3355 56.1038 42.3355 53.5328C42.3355 50.9618 41.8177 48.4176 40.8134 46.0544C39.8092 43.6912 38.3395 41.5583 36.4934 39.7851C34.6472 38.0118 32.4632 36.635 30.0737 35.7383C27.6842 34.8416 25.1389 34.4436 22.5923 34.5684H22.5035Z" fill="url(#paint0_linear_136_1324)"/>
<path d="M71.9747 34.5696C68.6891 34.5767 65.4613 35.4406 62.6046 37.0773C66.627 26.5851 73.2836 17.3267 81.9221 10.2092C82.4628 9.81621 82.918 9.31579 83.2597 8.73875C83.6014 8.16171 83.8224 7.52026 83.9091 6.85387C83.9958 6.18748 83.9463 5.51025 83.7637 4.86386C83.5811 4.21748 83.2693 3.61561 82.8474 3.0953C82.4255 2.57499 81.9025 2.14724 81.3105 1.83839C80.7185 1.52953 80.0702 1.3461 79.4053 1.29939C78.7404 1.25267 78.073 1.34366 77.4443 1.56675C76.8155 1.78984 76.2388 2.14031 75.7494 2.59659C57.9862 17.1501 50.0815 37.3012 50.0815 49.7948C50.1026 54.1623 51.37 58.4314 53.7324 62.092C56.0949 65.7527 59.4524 68.6502 63.4039 70.4384C66.0738 71.7476 69.0059 72.4217 71.9747 72.4088C74.5213 72.5336 77.0666 72.1356 79.4561 71.2388C81.8456 70.3421 84.0296 68.9654 85.8757 67.1921C87.7218 65.4188 89.1916 63.2859 90.1958 60.9228C91.2 58.5596 91.7178 56.0154 91.7178 53.4444C91.7178 50.8734 91.2 48.3292 90.1958 45.966C89.1916 43.6029 87.7218 41.47 85.8757 39.6967C84.0296 37.9234 81.8456 36.5467 79.4561 35.6499C77.0666 34.7532 74.5213 34.3552 71.9747 34.48V34.5696Z" fill="url(#paint1_linear_136_1324)"/>
<defs>
<linearGradient id="paint0_linear_136_1324" x1="21.4729" y1="1.47083" x2="21.4729" y2="72.5195" gradientUnits="userSpaceOnUse">
<stop stop-color="#BED3CB" stop-opacity="0.67"/>
<stop offset="1" stop-color="#BED3CB" stop-opacity="0"/>
</linearGradient>
<linearGradient id="paint1_linear_136_1324" x1="70.8997" y1="1.28748" x2="70.8997" y2="72.4312" gradientUnits="userSpaceOnUse">
<stop stop-color="#BED3CB" stop-opacity="0.67"/>
<stop offset="1" stop-color="#BED3CB" stop-opacity="0"/>
</linearGradient>
</defs>
</svg>
