<svg width="18" height="15" viewBox="0 0 18 15" fill="none" xmlns="http://www.w3.org/2000/svg">
    <path d="m16.504 8.828 1.477-6.094c.107-.44-.25-.859-.731-.859H4.975L4.69.562C4.617.235 4.31 0 3.954 0H.75C.336 0 0 .315 0 .703v.469c0 .388.336.703.75.703h2.184l2.195 10.062c-.525.283-.879.814-.879 1.422C4.25 14.265 5.034 15 6 15s1.75-.735 1.75-1.64c0-.46-.201-.875-.526-1.172h6.552a1.587 1.587 0 0 0-.526 1.171c0 .906.784 1.641 1.75 1.641s1.75-.735 1.75-1.64c0-.65-.403-1.211-.987-1.477l.173-.711c.106-.44-.25-.86-.732-.86H6.816l-.204-.937h9.16c.35 0 .654-.227.732-.547z" fill="#fff"/>
</svg>
