<svg width="12" height="14" viewBox="0 0 12 14" fill="none" xmlns="http://www.w3.org/2000/svg">
<path d="M5.9999 0.285645C9.07704 0.285645 11.5713 2.77993 11.5713 5.85707C11.5713 8.21136 9.91704 10.7771 6.65132 13.5816C6.46974 13.7376 6.23821 13.8233 5.99883 13.8231C5.75944 13.8229 5.52807 13.7368 5.34675 13.5805L5.13075 13.3931C2.00961 10.6616 0.428467 8.15879 0.428467 5.85707C0.428467 2.77993 2.92275 0.285645 5.9999 0.285645ZM5.9999 3.71422C5.43157 3.71422 4.88653 3.93998 4.48467 4.34184C4.0828 4.74371 3.85704 5.28875 3.85704 5.85707C3.85704 6.42539 4.0828 6.97044 4.48467 7.3723C4.88653 7.77417 5.43157 7.99993 5.9999 7.99993C6.56822 7.99993 7.11326 7.77417 7.51512 7.3723C7.91699 6.97044 8.14275 6.42539 8.14275 5.85707C8.14275 5.28875 7.91699 4.74371 7.51512 4.34184C7.11326 3.93998 6.56822 3.71422 5.9999 3.71422Z" fill="#5BC58F"/>
</svg>
