<?xml version="1.0" encoding="UTF-8"?>
<!DOCTYPE svg  PUBLIC '-//W3C//DTD SVG 1.1//EN'  'http://www.w3.org/Graphics/SVG/1.1/DTD/svg11.dtd'>
<svg enable-background="new 0 0 162 36" version="1.1" viewBox="0 0 162 36" xml:space="preserve" xmlns="http://www.w3.org/2000/svg">
<title>logo</title>
<desc></desc>
	<g transform="translate(-236 -33)">
			<g transform="translate(236 30)">
				<g transform="translate(0 3)">
					<g fill="#00C27E">
						<path d="m34.795 24.918l0.092-0.407c0.553-1.591 0.861-3.229 0.926-4.869-0.667 1.743-1.916 3.266-3.606 4.254-0.612 0.356-1.292 0.644-2.02 0.851-0.467 0.132-0.937 0.227-1.398 0.277l-0.117 4e-3 -3.383 0.03-4.138 4.259-0.138-4.233-12.268 0.037c-0.133 0.318-0.254 0.68-0.349 1.057-0.166 0.651-0.244 1.301-0.235 1.928 0.04 2.646 1.528 5.114 3.882 6.437 0.481 0.269 0.992 0.489 1.52 0.653 0.216 0.06 0.446 0.117 0.675 0.176 0.846 0.215 1.559 0.35 2.24 0.431 0.806 0.095 1.484 0.137 2.137 0.135 0.647-3e-3 1.346-0.05 2.135-0.149 0.146-0.018 0.289-0.044 0.43-0.07l0.768-0.131 0.136-0.024c0.175-0.036 0.347-0.074 0.521-0.111 0.29-0.069 0.581-0.15 0.87-0.235 0.264-0.076 0.526-0.154 0.785-0.242 0.184-0.065 0.37-0.135 0.556-0.205 0.352-0.133 0.695-0.271 1.033-0.427l0.218-0.103c0.498-0.237 0.911-0.455 1.301-0.68l0.096-0.059c1.639-0.961 3.076-2.141 4.271-3.508 1.32-1.508 2.349-3.214 3.06-5.076z"/>
						<path d="m1.169 23.664c0.66 1.836 1.629 3.526 2.883 5.035l0.402 0.385c1.132 1.266 2.404 2.33 3.817 3.196-1.205-1.443-1.909-3.261-1.938-5.163-9e-3 -0.697 0.078-1.415 0.26-2.135 0.117-0.461 0.269-0.906 0.455-1.322l0.859-1.529 9.141-15.542c-0.204-0.258-0.434-0.509-0.681-0.748-3.03-2.925-7.627-2.859-10.6-0.248-0.163 0.146-0.321 0.307-0.48 0.465l-0.115 0.115c-0.611 0.608-1.089 1.143-1.502 1.68-0.486 0.632-0.865 1.186-1.19 1.738-0.326 0.554-0.624 1.153-0.939 1.88-0.058 0.133-0.106 0.269-0.154 0.404l-0.264 0.705-0.048 0.132c-0.056 0.166-0.112 0.33-0.161 0.496-0.085 0.28-0.161 0.564-0.23 0.853-0.065 0.261-0.126 0.523-0.178 0.784-0.036 0.188-0.067 0.381-0.097 0.576-0.058 0.362-0.106 0.724-0.139 1.084l-0.02 0.249c-0.038 0.529-0.054 0.988-0.05 1.429l3e-3 0.11c0.029 1.866 0.355 3.673 0.966 5.371z"/>
						<path d="m35.414 13.403c-0.103-0.463-0.204-0.911-0.336-1.332-0.414-1.319-0.98-2.574-1.686-3.727l-0.156-0.264c-1.495-2.354-3.6-4.34-6.078-5.732-3.556-1.999-7.741-2.697-11.786-1.967-1.641 0.298-3.219 0.822-4.689 1.551 1.859-0.27 3.805 0.06 5.521 1.025 0.619 0.349 1.207 0.789 1.746 1.308 0.346 0.333 0.659 0.689 0.931 1.056l2.769 4.591 7.24 12.285c0.336-0.048 0.703-0.124 1.066-0.229 0.66-0.188 1.274-0.445 1.826-0.768 2.727-1.596 4.188-4.729 3.632-7.797z"/>
					</g>
					<path d="m59.7 14.68c-0.1-0.02-0.34-0.06-0.62-0.06-1.28 0-2.36 0.62-2.82 1.68v-1.56h-2.26v9.74h2.32v-4.64c0-1.82 0.82-2.86 2.62-2.86 0.24 0 0.5 0.02 0.76 0.06v-2.36zm3.46 3.86h4.78c-0.04-1.14-0.8-2.16-2.4-2.16-1.46 0-2.3 1.12-2.38 2.16zm5.04 2.54l1.96 0.62c-0.52 1.7-2.06 3.08-4.4 3.08-2.64 0-4.98-1.921-4.98-5.22 0-3.081 2.28-5.121 4.74-5.121 3 0 4.76 1.98 4.76 5.06 0 0.38-0.04 0.7-0.06 0.74h-7.12c0.06 1.479 1.22 2.54 2.66 2.54 1.4 1e-3 2.12-0.739 2.44-1.699zm6.6 3.4v-5.78c0-1.24 0.78-2.16 2.02-2.16 1.32 0 1.88 0.88 1.88 2v5.94h2.28v-5.78c0-1.2 0.799-2.16 2.02-2.16 1.3 0 1.88 0.86 1.88 2v5.94h2.24v-6.32c0-2.58-1.681-3.7-3.44-3.7-1.26 0-2.4 0.44-3.16 1.72-0.52-1.14-1.64-1.72-2.92-1.72-1.1 0-2.32 0.52-2.88 1.52v-1.24h-2.22v9.74h2.3zm14.559-2.64c0-1.74 1.281-2.699 2.94-2.939l2.5-0.381c0.56-0.08 0.72-0.359 0.72-0.7 0-0.82-0.56-1.48-1.84-1.48-1.22 0-1.9 0.78-2 1.76l-2.119-0.48c0.18-1.68 1.699-3.18 4.1-3.18 3 0 4.14 1.7 4.14 3.64v4.84c0 0.88 0.101 1.46 0.12 1.561h-2.16c-0.02-0.061-0.1-0.461-0.1-1.24-0.46 0.74-1.42 1.54-3 1.54-2.04-1e-3 -3.301-1.401-3.301-2.941zm3.741 1.12c1.301 0 2.42-0.62 2.42-2.521v-0.439l-2.539 0.38c-0.721 0.12-1.301 0.52-1.301 1.32 0 0.659 0.5 1.26 1.42 1.26zm13.2-8.28c-0.1-0.02-0.34-0.06-0.62-0.06-1.279 0-2.359 0.62-2.82 1.68v-1.56h-2.26v9.74h2.32v-4.64c0-1.82 0.82-2.86 2.62-2.86 0.239 0 0.5 0.02 0.76 0.06v-2.36zm11.059 0.06h-3.08l-3.739 3.939v-8.679h-2.3v14.48h2.3v-2.72l1.2-1.26 2.859 3.98h2.84l-4.08-5.621 4-4.119zm2.92 3.8h4.781c-0.041-1.14-0.801-2.16-2.4-2.16-1.46 0-2.301 1.12-2.381 2.16zm5.041 2.54l1.959 0.62c-0.52 1.7-2.059 3.08-4.399 3.08-2.64 0-4.979-1.921-4.979-5.22 0-3.081 2.279-5.121 4.74-5.121 3 0 4.76 1.98 4.76 5.06 0 0.38-0.041 0.7-0.061 0.74h-7.119c0.059 1.479 1.219 2.54 2.659 2.54 1.399 1e-3 2.12-0.739 2.44-1.699zm7.241-9.32h-2.101v1.46c0 0.86-0.46 1.521-1.5 1.521h-0.5v2.06h1.8v4.9c0 1.819 1.12 2.899 2.92 2.899 0.84 0 1.28-0.16 1.42-0.22v-1.92c-0.1 0.021-0.479 0.08-0.8 0.08-0.86 0-1.239-0.36-1.239-1.22v-4.52h2.02v-2.06h-2.02v-2.98zm4.199 11.22c0 0.899 0.721 1.619 1.62 1.619s1.64-0.72 1.64-1.619c0-0.9-0.74-1.641-1.64-1.641s-1.62 0.741-1.62 1.641zm9.98-6.4c1.48 0 2.14 0.96 2.359 1.82l2.08-0.76c-0.4-1.56-1.84-3.2-4.459-3.2-2.801 0-4.98 2.16-4.98 5.16 0 2.961 2.18 5.181 5.039 5.181 2.561 0 4.021-1.66 4.48-3.181l-2.039-0.74c-0.22 0.74-0.92 1.8-2.441 1.8-1.459 0-2.719-1.1-2.719-3.061 1e-3 -1.959 1.26-3.019 2.68-3.019zm8.901 2.18c0.039-1.24 0.739-2.2 2.02-2.2 1.46 0 2 0.96 2 2.16v5.761h2.32v-6.161c0-2.14-1.16-3.86-3.561-3.86-1.02 0-2.12 0.36-2.779 1.22v-5.68h-2.32v14.48h2.32v-5.72z"/>
				</g>
			</g>
	</g>
</svg>
