<svg width="13" height="16" viewBox="0 0 13 16" fill="none" xmlns="http://www.w3.org/2000/svg">
<path fill-rule="evenodd" clip-rule="evenodd" d="M5.79045 13.5949H4.0253C3.90645 13.5949 3.81011 13.6913 3.81011 13.8101C3.81011 13.8578 3.8256 13.9018 3.85183 13.9375C3.891 13.9908 3.95411 14.0253 4.0253 14.0253H6.17719C6.29604 14.0253 6.39238 13.929 6.39238 13.8101C6.39238 13.6913 6.29604 13.5949 6.17719 13.5949H5.79045ZM4.03691 0.9335H5.66698C5.80059 0.9335 5.90893 1.03544 5.90893 1.16122C5.90893 1.287 5.80062 1.38894 5.66698 1.38894H4.03691C3.90326 1.38894 3.79496 1.287 3.79496 1.16122C3.79496 1.03544 3.90326 0.9335 4.03691 0.9335ZM12.8536 7.78825V8.44675C12.8536 8.59128 12.7111 8.70172 12.5573 8.66844V10.3444C12.7112 10.3112 12.8535 10.4217 12.8535 10.5662V11.2247C12.8535 11.3738 12.7026 11.4848 12.5465 11.4438C12.4922 11.8727 12.2285 12.2419 11.8543 12.4577C11.6327 12.6414 11.0654 13.3206 11.0654 15.456C11.0654 15.756 10.8033 16 10.4812 16H8.33701C8.01487 16 7.7528 15.756 7.7528 15.456C7.7528 15.2362 7.74666 15.0322 7.73564 14.8422H1.14714C0.595502 14.8422 0.146729 14.4198 0.146729 13.9006V0.941563C0.146729 0.422375 0.595535 0 1.14714 0H8.67346C9.22509 0 9.67387 0.422406 9.67387 0.941563V3.01647H10.4812C10.8033 3.01647 11.0654 3.2605 11.0654 3.56044C11.0654 5.65722 11.6124 6.34997 11.842 6.54831C12.2227 6.76306 12.4917 7.13556 12.5466 7.56913C12.7023 7.52825 12.8536 7.63875 12.8536 7.78825ZM1.14714 0.455438C0.862322 0.455438 0.630598 0.6735 0.630598 0.941563V12.7394H7.20452C7.11152 12.5964 7.02562 12.5092 6.96506 12.4588C6.54281 12.216 6.26032 11.7782 6.26032 11.2794V7.7335C6.26032 7.23009 6.54816 6.78891 6.97694 6.54763C7.20704 6.34838 7.75277 5.65484 7.75277 3.56044C7.75277 3.2605 8.01484 3.01647 8.33698 3.01647H9.18996V0.941563C9.18996 0.673531 8.95824 0.455438 8.67342 0.455438H1.14714ZM11.0901 12.2049C11.6285 12.2049 12.0734 11.7927 12.0734 11.2794V7.7335C12.0734 7.22175 11.6301 6.80806 11.0901 6.80806H7.72747C7.19014 6.80806 6.74419 7.21962 6.74419 7.7335V11.2794C6.74419 11.5688 6.88603 11.8273 7.10763 11.9972C7.14412 12.0152 7.19549 12.0448 7.25641 12.0915C7.4968 12.2155 7.60471 12.2144 8.47337 12.205C8.99987 12.1993 9.80583 12.1906 11.0901 12.2049Z" fill="#5BC58F"/>
</svg>
