<svg width="24" height="19" viewBox="0 0 24 19" fill="none" xmlns="http://www.w3.org/2000/svg">
<path d="M7.71916 13.0625C11.983 13.0625 15.4379 10.1383 15.4379 6.53125C15.4379 2.92422 11.983 0 7.71916 0C3.45529 0 0.000406141 2.92422 0.000406141 6.53125C0.000406141 7.96367 0.545914 9.28848 1.46994 10.3684C1.34005 10.7172 1.14709 11.0252 0.942984 11.285C0.764859 11.515 0.583023 11.6932 0.44943 11.8156C0.382633 11.875 0.326969 11.9232 0.289859 11.9529C0.271305 11.9678 0.256461 11.9789 0.249039 11.9826L0.241617 11.99C0.0375155 12.1422 -0.051547 12.4094 0.0300936 12.6506C0.111734 12.8918 0.338101 13.0625 0.594156 13.0625C1.40314 13.0625 2.21955 12.8547 2.89865 12.5986C3.24005 12.4688 3.5592 12.324 3.83752 12.1756C4.97677 12.7396 6.30158 13.0625 7.71916 13.0625ZM16.6254 6.53125C16.6254 10.6986 12.9479 13.8381 8.59123 14.2129C9.49298 16.9738 12.484 19 16.0317 19C17.4492 19 18.774 18.6771 19.917 18.1131C20.1953 18.2615 20.5108 18.4062 20.8522 18.5361C21.5313 18.7922 22.3477 19 23.1567 19C23.4127 19 23.6428 18.833 23.7207 18.5881C23.7986 18.3432 23.7133 18.076 23.5055 17.9238L23.4981 17.9164C23.4906 17.909 23.4758 17.9016 23.4572 17.8867C23.4201 17.857 23.3645 17.8125 23.2977 17.7494C23.1641 17.627 22.9822 17.4488 22.8041 17.2188C22.6 16.959 22.407 16.6473 22.2772 16.3021C23.2012 15.226 23.7467 13.9012 23.7467 12.465C23.7467 9.02129 20.5961 6.19727 16.5994 5.95234C16.6143 6.1416 16.6217 6.33457 16.6217 6.52754L16.6254 6.53125Z" fill="#02CA95"/>
</svg>
