<svg width="13" height="16" viewBox="0 0 13 16" fill="none" xmlns="http://www.w3.org/2000/svg">
<path d="M4.914 14.9796L4.89995 14.5813H0.351351V3.90756H4.91751V2.48889H1.00838C0.453243 2.48889 0 2.95111 0 3.51289V14.9831C0 15.5413 0.453243 16 1.00838 16H5.49373C5.19508 15.7618 4.914 15.3956 4.914 14.9796ZM2.81011 3.2H3.86381V3.37778H2.80976V3.2H2.81011ZM3.33714 15.8222C3.04551 15.8222 2.81011 15.584 2.81011 15.2889C2.81011 14.9938 3.04551 14.7556 3.33714 14.7556C3.62876 14.7556 3.86381 14.9938 3.86381 15.2889C3.86381 15.584 3.62841 15.8222 3.33678 15.8222H3.33714ZM11.8195 0H6.43851C5.79203 0 5.26851 0.536889 5.26851 1.19111V14.8018C5.26851 15.4596 5.79203 16 6.43851 16H11.8233C12.4695 16 13 15.4596 13 14.8018V1.19111C12.9965 0.536889 12.4659 0 11.8195 0ZM8.6053 0.888889H9.65935V1.06667H8.6053V0.888889ZM9.13232 15.7333C8.79151 15.7333 8.51746 15.456 8.51746 15.1111C8.51746 14.7662 8.79503 14.4889 9.13232 14.4889C9.46962 14.4889 9.74719 14.7662 9.74719 15.1111C9.74719 15.456 9.47313 15.7333 9.13232 15.7333ZM12.6451 14.2222H5.62022V1.77778H12.6451V14.2222ZM9.13268 15.4667C8.93943 15.4667 8.78132 15.3067 8.78132 15.1111C8.78132 14.9156 8.93943 14.7556 9.13268 14.7556C9.32592 14.7556 9.48403 14.9156 9.48403 15.1111C9.48403 15.3067 9.32592 15.4667 9.13268 15.4667ZM3.33678 15.6018C3.16813 15.6018 3.03111 15.4631 3.03111 15.2889C3.03111 15.1182 3.16813 14.9796 3.33678 14.9796C3.50543 14.9796 3.64597 15.1182 3.64597 15.2889C3.64597 15.4596 3.50543 15.6018 3.33678 15.6018Z" fill="white"/>
</svg>
