<svg xmlns="http://www.w3.org/2000/svg" width="19" height="36" viewBox="0 0 19 36">
    <g fill="#B8D4CB" fill-rule="evenodd">
        <path fill-rule="nonzero" d="M15.713 0H3.46C1.988 0 .797 1.208.797 2.68v30.624C.797 34.784 1.988 36 3.46 36h12.26c1.472 0 2.68-1.216 2.68-2.696V2.68A2.702 2.702 0 0 0 15.713 0zM8.395 2h2.4v.4h-2.4V2zm1.2 33.4c-.776 0-1.4-.624-1.4-1.4 0-.776.632-1.4 1.4-1.4.767 0 1.399.624 1.399 1.4 0 .776-.624 1.4-1.4 1.4zm7.997-3.4H1.597V4h15.995v28zm-7.998 2.8c-.44 0-.8-.36-.8-.8 0-.44.36-.8.8-.8.44 0 .8.36.8.8 0 .44-.36.8-.8.8z"/>
        <path d="M4.8 3.247L14.014 13.6 5.564 2.4zM.8 3.65l13.6 15.28L1.926 2.4z"/>
        <path d="M9.95 13.343l-4.053 4.45 4.453-4.159zM7.396 11.017L1.062 17.97l6.96-6.5zM.8 23.641l4.8 5.393L1.198 23.2z"/>
    </g>
</svg>
