<svg xmlns="http://www.w3.org/2000/svg" width="19" height="36" viewBox="0 0 19 36">
    <path fill="#B8D4CB" fill-rule="nonzero" d="M15.375 0H3.385C1.946 0 .78 1.182.78 2.622v29.966c0 1.449 1.166 2.639 2.606 2.639h11.997c1.44 0 2.622-1.19 2.622-2.639V2.622A2.644 2.644 0 0 0 15.375 0zm-7.16 1.957h2.347v.391H8.214v-.391zm1.173 32.682c-.759 0-1.37-.61-1.37-1.37 0-.759.619-1.37 1.37-1.37.752 0 1.37.611 1.37 1.37 0 .76-.61 1.37-1.37 1.37zm7.826-3.327H1.562V3.914h15.652v27.398zm-7.826 2.74a.785.785 0 0 1-.782-.782c0-.431.352-.783.782-.783.43 0 .783.352.783.783 0 .43-.352.782-.783.782z"/>
</svg>
